<svg xmlns="http://www.w3.org/2000/svg"><defs><font id="GrtskTeraMedium" horiz-adv-x="327"><font-face font-family="GrtskTeraMedium" font-weight="500" ascent="750" descent="-250" x-height="546" cap-height="700" bbox="-123 -214 1515 971" underline-thickness="83" underline-position="-200" unicode-range="U+000D-F6C3"/><glyph glyph-name=".notdef" horiz-adv-x="1019" d="M116 0v700h787V0H116zm137 109h513v482H253V109z"/><glyph glyph-name=".null" horiz-adv-x="0"/><glyph glyph-name=".null" horiz-adv-x="0"/><glyph glyph-name="nonmarkingreturn" horiz-adv-x="333"/><glyph glyph-name="CR" horiz-adv-x="0"/><glyph glyph-name="space" horiz-adv-x="288"/><glyph glyph-name="exclam" unicode="!" horiz-adv-x="366" d="M243 200H123l-9 500h137zM113 0v124h139V0H113z"/><glyph glyph-name="quotedbl" unicode="&quot;" horiz-adv-x="554" d="M98 399l-7 301h127l-6-301H98zm244 0l-7 301h127l-6-301H342z"/><glyph glyph-name="numbersign" unicode="#" horiz-adv-x="1000" d="M125 0l52 168H28v96h179l53 172H87v96h203l52 168h131l-52-168h268l52 168h131l-52-168h151v-96H790l-53-172h175v-96H707L655 0H524l52 168H308L256 0H125zm213 264h268l53 172H391z"/><glyph glyph-name="dollar" unicode="$" horiz-adv-x="888" d="M48 213l139 21q26-128 218-140v206l-71 5q-132 12-197.5 58.5T71 497q0 95 86.5 152T405 711v69h76v-70q292-13 335-210l-139-20q-29 115-196 126V409l87-6q136-13 200.5-59.5T833 208q0-101-89-157.5T481-11v-69h-76v70Q89 4 48 213zm332 203l25-2v194q-195-7-195-98 0-45 39-65t131-29zm140-124l-39 3V92q213 7 213 103 0 46-38.5 67T520 292z"/><glyph glyph-name="percent" unicode="%" horiz-adv-x="1034" d="M254 710q94 0 149-45.5T458 545q0-73-55-119t-149-46-149.5 46T49 545q0 74 55 119.5T254 710zm551-10h145L229 0H83zM254 465q46 0 72 21.5t26 58.5-25.5 58.5T254 625q-48 0-74-21.5T154 545t26.5-58.5T254 465zm527-146q94 0 149-46t55-119q0-74-55-119T781-10 631.5 35 576 154q0 73 55.5 119T781 319zm0-245q47 0 73 21.5t26 58.5-26 58.5-73 21.5-73-21.5-26-58.5 26-58.5T781 74z"/><glyph glyph-name="ampersand" unicode="&amp;" horiz-adv-x="948" d="M376-11q-164 0-244 53.5T52 185q0 66 46.5 112T255 378h2q-56 46-77 80.5T159 534q0 80 68.5 128.5T417 711q118 0 186-48t68-126q0-61-44.5-103T475 355l195-139q40 57 57 137l130-16q-18-111-88-191L974 0H786L684 72Q557-11 376-11zm-85 544q0-26 19-49.5t73-62.5l19 7q82 27 110.5 50.5T541 535q0 36-32 57t-92 21-93-22-33-58zm-99-342q0-47 48-74t145-27q121 0 203 50L348 311l-21-7q-78-26-106.5-51T192 191z"/><glyph glyph-name="quotesingle" unicode="'" horiz-adv-x="309" d="M98 399l-7 301h127l-6-301H98z"/><glyph glyph-name="parenleft" unicode="(" horiz-adv-x="414" d="M256-150Q92 54 92 275q0 219 164 425h123q-83-116-120.5-217.5T221 275t37.5-207.5T379-150H256z"/><glyph glyph-name="parenright" unicode=")" horiz-adv-x="414" d="M158 700q164-205 164-425T158-150H34Q117-35 154.5 66.5T192 275q0 106-37.5 207.5T34 700h124z"/><glyph glyph-name="asterisk" unicode="*" horiz-adv-x="515" d="M428 361l-80-61-91 136-91-136-80 61 106 115-155 34 31 96 150-58-13 154h104l-13-154 150 58 31-96-155-34z"/><glyph glyph-name="plus" unicode="+" horiz-adv-x="603" d="M546 306H354V143H248v163H56v95h192v162h106V401h192v-95z"/><glyph glyph-name="comma" unicode="," horiz-adv-x="322" d="M91 130h139V1q0-92-36-130.5T71-169l-6 73q51 0 68 17.5T150-9v9H91v130z"/><glyph glyph-name="hyphen" unicode="-" horiz-adv-x="496" d="M51 234v114h393V234H51z"/><glyph glyph-name="period" unicode="." horiz-adv-x="322" d="M91 0v130h139V0H91z"/><glyph glyph-name="slash" unicode="/" horiz-adv-x="474" d="M15-150l285 850h136L150-150H15z"/><glyph glyph-name="zero" unicode="0" horiz-adv-x="920" d="M460-11q-189 0-295 95.5T59 350t106 265.5T460 711q190 0 296-95.5T862 350 755.5 84.5 460-11zm0 109q126 0 193.5 65.5T721 350t-67.5 186.5T460 602t-193.5-65.5T199 350q0-122 67-187t194-65z"/><glyph glyph-name="one" unicode="1" horiz-adv-x="760" d="M51 0v108h292v476L67 534v112l292 54h121V108h254V0H51z"/><glyph glyph-name="two" unicode="2" horiz-adv-x="795" d="M63 107l365 208q100 57 134 94.5t34 83.5q0 53-49.5 82T401 604q-203 0-217-140L49 486q17 109 107 167t246 58q160 0 248.5-57T739 497q0-76-50.5-133.5T494 230L283 108h470V0H63v107z"/><glyph glyph-name="three" unicode="3" horiz-adv-x="831" d="M774 194q0-100-91.5-152.5T414-11q-168 0-258.5 50T43 194l138 26Q202 91 415 91t213 111q0 48-39.5 74T473 302H284v103h188q72 0 109.5 26t37.5 73q0 104-206 104-201 0-226-125L57 511q22 97 112.5 148.5T415 711q166 0 255.5-49T760 523q0-122-137-163 151-35 151-166z"/><glyph glyph-name="four" unicode="4" horiz-adv-x="851" d="M690 0H557v137H30v100l523 463h137V241h139V137H690V0zM184 241h373v326z"/><glyph glyph-name="five" unicode="5" horiz-adv-x="821" d="M412-11Q111-11 55 167l136 29Q220 96 412 96q217 0 217 132 0 65-54 100t-161 35q-156 0-212-62L83 314l41 386h596V597H238l-23-196q91 57 234 57 150 0 234-59t84-170q1-115-90.5-177.5T412-11z"/><glyph glyph-name="six" unicode="6" horiz-adv-x="858" d="M59 341q0 176 102.5 273T452 711q140 0 229-45t116-131l-135-28q-32 99-211 99-250 0-254-262 39 45 113.5 70.5T483 440q154 0 238-57t84-163q0-109-94.5-170T445-11q-188 0-287 91T59 341zM446 94q107 0 164 33.5t57 91.5q0 59-57 91.5T446 343q-106 0-165.5-31.5T221 228q0-62 59.5-98T446 94z"/><glyph glyph-name="seven" unicode="7" horiz-adv-x="725" d="M699 593L311 0H151l397 591H27v109h672V593z"/><glyph glyph-name="eight" unicode="8" horiz-adv-x="865" d="M432-11q-183 0-281 54T53 193q0 59 46 102t131 66Q84 409 84 521q0 88 92 139t256 51 256.5-51T781 520q0-112-145-160 85-22 130-64.5T811 193q0-96-98-150T432-11zm210 521q0 101-210 101T222 510q0-100 210-100t210 100zM432 88q236 0 236 109T432 306 196 197 432 88z"/><glyph glyph-name="nine" unicode="9" horiz-adv-x="859" d="M799 359q0-176-102-273T407-11q-141 0-229.5 45T61 165l135 28q34-99 211-99 252 0 255 263-84-97-286-97-154 0-238.5 57T53 480q0 109 94.5 170T413 711q189 0 287.5-91T799 359zM413 606q-108 0-165-33.5T191 481q0-59 57-91.5T413 357q106 0 165 31t59 84q0 62-59.5 98T413 606z"/><glyph glyph-name="colon" unicode=":" horiz-adv-x="322" d="M91 416v130h139V416H91zM91 0v130h139V0H91z"/><glyph glyph-name="semicolon" unicode=";" horiz-adv-x="322" d="M91 416v130h139V416H91zm0-286h139V1q0-92-36-130.5T71-169l-6 73q51 0 68 17.5T150-9v9H91v130z"/><glyph glyph-name="less" unicode="&lt;" horiz-adv-x="603" d="M54 303v95l489 202V488L192 354l351-135V100z"/><glyph glyph-name="equal" unicode="=" horiz-adv-x="603" d="M546 418H56v95h490v-95zm0-224H56v95h490v-95z"/><glyph glyph-name="greater" unicode="&gt;" horiz-adv-x="603" d="M548 398v-95L59 100v113l350 135L59 482v118z"/><glyph glyph-name="question" unicode="?" horiz-adv-x="772" d="M388 603q-198 0-214-146L39 481q14 109 106 169.5T388 711q158 0 245-55.5T720 509q0-56-28.5-94.5T622 355t-82.5-39.5-71-46.5-31.5-69H302q3 60 33 101.5t70.5 63 81 39T555 445t28 58q0 46-48 73t-147 27zM300 0v124h139V0H300z"/><glyph glyph-name="at" unicode="@" horiz-adv-x="1186" d="M904-8q-65 0-106.5 25T745 88q-74-99-223-99-92 0-143 38.5T328 131q0 66 49.5 102.5T538 279l202 16v7q0 111-132 111-130 0-143-92l-117 14q16 79 84 120t177 41q249 0 249-189V122q0-67 65-67 61 0 101.5 58t40.5 163q0 167-123 268T601 645q-224 0-352.5-116T120 226q0-177 118-279.5T580-156q149 0 275 55l21-48q-135-62-296-62-251 0-386.5 118T58 226q0 211 148 342.5T601 700q240 0 383.5-116.5T1128 276q0-129-60-206.5T904-8zM447 140q0-32 24-50t71-18q84 0 142 42t58 102v7l-204-18q-91-8-91-65z"/><glyph glyph-name="A" unicode="A" horiz-adv-x="916" d="M756 0l-88 167H242L154 0H10l377 700h140L905 0H756zM297 272h315L455 570z"/><glyph glyph-name="B" unicode="B" horiz-adv-x="936" d="M116 0v700h494q108 0 169.5-47T841 522q0-55-30.5-97.5T721 362q73-18 112-62.5T872 190q0-90-64.5-140T625 0H116zm469 599H250V405h336q55 0 87.5 26t32.5 73q0 46-31 70.5T585 599zm13-296H250V101h351q130 0 130 99 0 50-35 76.5T598 303z"/><glyph glyph-name="C" unicode="C" horiz-adv-x="945" d="M59 350q0 165 116.5 263T491 711q168 0 271-61.5T896 471l-142-28q-42 159-263 159-141 0-216.5-66T199 350q0-121 75-186.5T491 98q233 0 266 164l140-27Q869 115 765 52T491-11q-204 0-318 97T59 350z"/><glyph glyph-name="D" unicode="D" horiz-adv-x="979" d="M116 0v700h400q191 0 295-93t104-258T811 92 516 0H116zm405 109q124 0 188.5 62.5T774 349q0 116-64.5 179T521 591H253V109h268z"/><glyph glyph-name="E" unicode="E" horiz-adv-x="840" d="M116 0v700h661V594H250V410h471V305H250V106h534V0H116z"/><glyph glyph-name="F" unicode="F" horiz-adv-x="821" d="M116 0v700h661V591H253V382h468V273H253V0H116z"/><glyph glyph-name="G" unicode="G" horiz-adv-x="1000" d="M59 349q0 168 118.5 265T505 711q167 0 269.5-57T909 489l-137-29q-45 142-268 142-148 0-226.5-65.5T199 349q0-121 77.5-186T502 98q124 0 195.5 43T786 263H490v100h431V0H820l-12 131Q714-11 487-11q-201 0-314.5 96.5T59 349z"/><glyph glyph-name="H" unicode="H" horiz-adv-x="1022" d="M116 0v700h137V416h516v284h137V0H769v306H253V0H116z"/><glyph glyph-name="I" unicode="I" horiz-adv-x="369" d="M116 0v700h137V0H116z"/><glyph glyph-name="J" unicode="J" horiz-adv-x="551" d="M445 251q0-135-65-198.5T171-11Q105-11 31 2l-5 111q66-11 121-11 88 0 124.5 33.5T308 248v452h137V251z"/><glyph glyph-name="K" unicode="K" horiz-adv-x="896" d="M116 0v700h135V372l433 328h185L447 380 896 0H699L340 299l-89-68V0H116z"/><glyph glyph-name="L" unicode="L" horiz-adv-x="759" d="M116 0v700h137V109h472V0H116z"/><glyph glyph-name="M" unicode="M" horiz-adv-x="1182" d="M116 0v700h146l331-463 328 463h145V0H938v530L651 119H532L244 525V0H116z"/><glyph glyph-name="N" unicode="N" horiz-adv-x="1007" d="M116 0v700h135l514-549v549h126V0H756L242 547V0H116z"/><glyph glyph-name="O" unicode="O" horiz-adv-x="995" d="M497-11q-205 0-321.5 97T59 349q0 167 116 264.5T497 711q207 0 323-97.5T936 349q0-166-116-263T497-11zm0 109q147 0 223 66t76 185q0 121-76 187t-223 66q-146 0-222-66t-76-187q0-120 76-185.5T497 98z"/><glyph glyph-name="P" unicode="P" horiz-adv-x="880" d="M116 0v700h445q126 0 199.5-66T834 455q0-111-74.5-176T556 214H253V0H116zm420 592H253V322h283q77 0 118 34t41 99q0 66-41 101.5T536 592z"/><glyph glyph-name="Q" unicode="Q" horiz-adv-x="1004" d="M497-11q-205 0-321.5 97T59 349q0 167 116 264.5T497 711q207 0 323-97.5T936 349q0-192-149-287L912-82H760l-82 95q-80-24-181-24zm0 109q53 0 105 10L473 258h145l90-104q88 65 88 195 0 121-76 187t-223 66q-146 0-222-66t-76-187q0-120 76-185.5T497 98z"/><glyph glyph-name="R" unicode="R" horiz-adv-x="905" d="M116 0v700h461q123 0 189-58t66-162q0-94-59-150.5T607 266L854 0H683L446 257H253V0H116zm438 594H253V363h301q68 0 104.5 29.5T695 478q0 116-141 116z"/><glyph glyph-name="S" unicode="S" horiz-adv-x="887" d="M48 213l139 21Q215 95 451 95q243 0 243 99 0 46-38 66.5T520 292l-184 13q-133 14-199 60T71 498q0 100 94.5 156.5T435 711q335 0 381-211l-139-20q-15 64-74 94.5T433 605q-223 0-223-95 0-44 38.5-63.5T380 417l188-14q136-15 200.5-60.5T833 207q0-106-97.5-162T449-11Q92-11 48 213z"/><glyph glyph-name="T" unicode="T" horiz-adv-x="829" d="M345 0v591H27v109h775V591H482V0H345z"/><glyph glyph-name="U" unicode="U" horiz-adv-x="955" d="M858 307q0-152-100-235T477-11q-180 0-280 83T97 307v393h137V308q0-103 62.5-156.5T477 98q119 0 181.5 53.5T721 308v392h137V307z"/><glyph glyph-name="V" unicode="V" horiz-adv-x="881" d="M168 700l275-558 278 558h146L510 0H370L14 700h154z"/><glyph glyph-name="W" unicode="W" horiz-adv-x="1280" d="M284 0L15 700h146l196-543 216 543h134l218-541 196 541h144L995 0H860L638 547 416 0H284z"/><glyph glyph-name="X" unicode="X" horiz-adv-x="827" d="M177 0H14l310 358L20 700h170l228-261 224 261h163L499 353 812 0H643L407 270z"/><glyph glyph-name="Y" unicode="Y" horiz-adv-x="819" d="M340 0v279L6 700h168l238-307 241 307h161L477 276V0H340z"/><glyph glyph-name="Z" unicode="Z" horiz-adv-x="816" d="M51 0v104l526 488H54v108h712V599L236 108h530V0H51z"/><glyph glyph-name="bracketleft" unicode="[" horiz-adv-x="443" d="M116-150v850h309v-96H243V-54h182v-96H116z"/><glyph glyph-name="backslash" unicode="\" horiz-adv-x="474" d="M459-150H323L38 700h135z"/><glyph glyph-name="bracketright" unicode="]" horiz-adv-x="443" d="M326-150H18v96h182v658H18v96h308v-850z"/><glyph glyph-name="asciicircum" unicode="^" horiz-adv-x="613" d="M239 700h134l196-420H440L304 597 169 280H43z"/><glyph glyph-name="underscore" unicode="_" horiz-adv-x="610" d="M34-113V0h541v-113H34z"/><glyph glyph-name="grave" unicode="`" horiz-adv-x="500" d="M304 609H194L-1 768h169z"/><glyph glyph-name="a" unicode="a" horiz-adv-x="760" d="M57 384q42 173 311 173 156 0 228-51t72-159V132q0-46 42-46 8 0 22 2l-3-88q-30-9-62-9-116 0-119 111-44-53-118.5-83T265-11Q156-11 95.5 31.5T35 150t57.5 117T273 317l273 19v1q0 66-42.5 95.5T366 462q-168 0-183-98zm104-227q0-74 127-74 108 0 184 44.5T548 239v15l-273-20q-114-9-114-77z"/><glyph glyph-name="b" unicode="b" horiz-adv-x="857" d="M214 0H98v750h130V443q88 114 265 114 142 0 225-77.5T801 273 718.5 66.5 493-11q-181 0-270 118zm238 91q105 0 160.5 48.5T668 273q0 84-56 133t-160 49q-103 0-163.5-50T228 272q0-82 60-131.5T452 91z"/><glyph glyph-name="c" unicode="c" horiz-adv-x="778" d="M738 358l-129-24q-26 122-203 122-107 0-162-47.5T189 272q0-87 55.5-134.5T407 90q179 0 205 124l128-24Q718 93 631.5 41T407-11q-165 0-258 76T56 272q0 132 92.5 208.5T406 557q138 0 224-51t108-148z"/><glyph glyph-name="d" unicode="d" horiz-adv-x="857" d="M364-11q-143 0-225.5 77.5T56 273t82.5 206.5T364 557q173 0 264-112v305h130V0H641l-9 106q-42-55-111-86T364-11zm40 102q104 0 164 49.5T628 272q0 83-60 133t-164 50-159.5-49T189 273q0-85 55-133.5T404 91z"/><glyph glyph-name="e" unicode="e" horiz-adv-x="803" d="M411-11q-167 0-261 76.5T56 274q0 129 93.5 206T407 557q159 0 252-73.5T752 287q0-22-5-47H184q11-74 68-114t159-40q178 0 212 93l125-22Q720 73 639 31T411-11zm-3 473q-191 0-221-137h436q-11 66-66 101.5T408 462z"/><glyph glyph-name="f" unicode="f" horiz-adv-x="517" d="M15 546h119v12q0 203 243 203 67 0 132-13l-4-96q-51 10-111 10-70 0-100.5-24T263 558v-12h244v-98H263V0H134v448H15v98z"/><glyph glyph-name="g" unicode="g" horiz-adv-x="775" d="M375 557q151 0 232-52 50 75 152 66l-6-106q-57 9-97-9 20-34 20-74 0-81-79.5-126T375 211q-74 0-131 12-56-10-56-48 0-48 87-49l262-6q214-4 214-142 0-189-380-189Q26-211 26-65q0 91 125 114-40 11-62 37t-22 61q0 76 95 104-89 45-89 131 0 82 80 128.5T375 557zm171-175q0 44-44.5 68T375 474t-127-24-45-68q0-43 44.5-65.5T375 294q171 0 171 88zM159-45q0-42 52.5-60.5T376-124q247 0 247 89 0 57-97 58l-265 2q-102-5-102-70z"/><glyph glyph-name="h" unicode="h" horiz-adv-x="832" d="M98 0v750h130V433q42 58 110 91t152 33q119 0 185-62.5T741 323V0H611v297q0 71-42.5 112T448 450q-98 0-159-52.5T228 258V0H98z"/><glyph glyph-name="i" unicode="i" d="M96 622v117h135V622H96zM99 0v546h129V0H99z"/><glyph glyph-name="j" unicode="j" d="M96 622v117h135V622H96zm2-633v557h130V-4q0-110-48-158.5T28-211q-39 0-84 8l-4 98q37-5 60-5 52 0 75 23t23 76z"/><glyph glyph-name="k" unicode="k" horiz-adv-x="742" d="M98 0v750h129V306l318 240h172L390 304 740 0H561L297 234l-70-55V0H98z"/><glyph glyph-name="l" unicode="l" d="M228 0H98v750h130V0z"/><glyph glyph-name="m" unicode="m" horiz-adv-x="1242" d="M98 0v546h117l9-112q37 58 98.5 90.5T459 557q80 0 135.5-34t78.5-97q38 62 102 96.5T920 557q108 0 170-62t62-169V0h-131v302q0 69-37 108t-107 39q-85 0-136-51.5T690 260V0H560v304q0 68-38 106.5T414 449q-84 0-135-52t-51-137V0H98z"/><glyph glyph-name="n" unicode="n" horiz-adv-x="832" d="M98 0v546h116l10-119q41 61 110.5 95.5T490 557q119 0 185-62.5T741 323V0H611v297q0 71-42.5 112T448 450q-98 0-159-52.5T228 258V0H98z"/><glyph glyph-name="o" unicode="o" horiz-adv-x="818" d="M409-11q-167 0-260 76T56 273t93 208 260 76q168 0 261-76t93-208q0-133-93-208.5T409-11zm0 101q110 0 165.5 47T630 273t-55.5 136T409 456t-165-47-55-136 55.5-136T409 90z"/><glyph glyph-name="p" unicode="p" horiz-adv-x="857" d="M492-11q-85 0-153.5 29.5T228 101v-301H98v746h117l8-108q42 56 111 87.5T492 557q143 0 226-77.5T801 273 718.5 66.5 492-11zM452 91q105 0 160.5 48.5T668 273q0 84-56 133t-160 49-164-50-60-133q0-82 60-131.5T452 91z"/><glyph glyph-name="q" unicode="q" horiz-adv-x="857" d="M364-11q-143 0-225.5 77.5T56 273t82.5 206.5T364 557q88 0 157.5-31T633 439l8 107h117v-746H628v300Q538-11 364-11zm40 102q104 0 164 49.5T628 272q0 83-60 133t-164 50-159.5-49T189 273q0-85 55-133.5T404 91z"/><glyph glyph-name="r" unicode="r" horiz-adv-x="546" d="M98 0v546h117l10-140q43 69 115 109.5T497 556q20 0 26-1l-4-132q-21 6-54 6-104 0-170-55t-67-156V0H98z"/><glyph glyph-name="s" unicode="s" horiz-adv-x="734" d="M359 465q-175 0-175-67 0-31 28.5-45.5T315 332l134-8q127-11 182-47.5T686 167q0-85-81-131.5T368-11q-150 0-227.5 42.5T41 166l124 18Q184 81 366 81q193 0 193 72 0 34-27.5 49T433 223l-135 8q-125 10-181.5 47.5T60 388q0 79 78.5 124T359 557t218.5-40.5T673 390l-121-18q-10 48-56 70.5T359 465z"/><glyph glyph-name="t" unicode="t" horiz-adv-x="553" d="M127 193v255H12v98h75q23 0 33.5 2.5t19 18.5 11.5 41 6 78h101V546h253v-98H258V208q0-65 29-91t102-26q62 0 130 14L515 5q-80-16-159-16-118 0-173.5 47T127 193z"/><glyph glyph-name="u" unicode="u" horiz-adv-x="813" d="M585 289v257h130V0H599l-10 116q-40-60-106.5-93.5T334-11q-114 0-180 60T88 220v326h130V241q0-71 41-107.5T372 97q93 0 153.5 51T585 289z"/><glyph glyph-name="v" unicode="v" horiz-adv-x="704" d="M299 0L9 546h144l203-404 204 404h135L406 0H299z"/><glyph glyph-name="w" unicode="w" horiz-adv-x="1060" d="M243 0L13 546h135l159-402 170 402h109l174-400 158 400h129L816 0H709L531 413 351 0H243z"/><glyph glyph-name="x" unicode="x" horiz-adv-x="720" d="M168 0H14l262 282L25 546h159l179-189 181 189h151L440 280 706 0H546L356 203z"/><glyph glyph-name="y" unicode="y" horiz-adv-x="700" d="M554 546h136L404-27q-53-103-106.5-143.5T156-211q-50 0-89 12l-5 98q32-7 69-7 61 0 94.5 24.5T295 13L10 546h144l207-409z"/><glyph glyph-name="z" unicode="z" horiz-adv-x="684" d="M49 0v97l419 352H55v97h582v-97L218 97h421V0H49z"/><glyph glyph-name="braceleft" unicode="{" horiz-adv-x="480" d="M157 275q71-13 103.5-52.5T293 107V45q0-56 19.5-78T382-55q37 0 74 5l5-96q-43-7-94-7-101 0-149 43T170 26v90q0 58-27 80.5T30 228v93q86 9 113 32t27 81v89q0 94 48 137t149 43q41 0 94-7l-5-96q-37 5-74 5-49 0-69-22.5T293 505v-67q0-73-32.5-111.5T157 275z"/><glyph glyph-name="bar" unicode="|" horiz-adv-x="360" d="M245-170H116v930h129v-930z"/><glyph glyph-name="braceright" unicode="}" horiz-adv-x="480" d="M450 321v-93q-86-9-113-31.5T310 116V26q0-93-48-136t-149-43q-52 0-94 7l4 96q38-5 75-5 49 0 68.5 22T186 45v62q0 75 32.5 115T323 275q-72 13-104.5 51.5T186 438v67q0 55-19.5 77.5T98 605q-37 0-75-5l-4 96q52 7 94 7 101 0 149-43t48-137v-89q0-58 27-81t113-32z"/><glyph glyph-name="asciitilde" unicode="~" horiz-adv-x="603" d="M184 343q-58 0-128-42v98q75 41 136 41 51 0 121.5-32T418 376q57 0 128 42v-98q-75-41-135-41-50 0-120 32t-107 32z"/><glyph glyph-name="uni00A0" horiz-adv-x="288"/><glyph glyph-name="exclamdown" unicode="¡" horiz-adv-x="366" d="M252 546V422H113v124h139zM123 346h120l8-499H114z"/><glyph glyph-name="cent" unicode="¢" horiz-adv-x="776" d="M244-80l28 85q-104 27-160 96.5T56 272q0 132 92.5 208.5T406 557q17 0 49-2l21 65h76l-25-75q176-38 211-187l-129-24q-18 86-115 112L376 90q10-1 31-1 179 0 205 125l128-24Q718 93 631.5 41T407-11q-33 0-63 3l-24-72h-76zm-55 352q0-130 116-168l117 352h-16q-107 0-162-47.5T189 272z"/><glyph glyph-name="sterling" unicode="£" horiz-adv-x="822" d="M47 288v76h119q-45 78-45 140 0 94 84.5 150.5T432 711q145 0 227.5-48T768 515l-147-24q-24 115-187 115-85 0-127.5-28T264 500q0-12 3-25t5-21.5 10-24.5l10-20 13.5-23.5L318 364h341v-76H353q7-28 7-51 0-42-22-77t-62-56h494V0H47v104h34q64 0 102.5 31.5T222 218q0 33-15 70H47z"/><glyph glyph-name="currency" unicode="¤" horiz-adv-x="560" d="M280 175q-54 0-99 21l-87-87-66 67 84 83q-24 39-24 91t24 90l-84 84 66 66 88-88q43 20 98 20t97-20l88 88 67-66-85-85q24-37 24-89t-23-90l84-84-67-67-87 87q-45-21-98-21zm0 85q47 0 74 24.5t27 65.5-27 64.5-74 23.5-74-23.5-27-64.5 27-65.5 74-24.5z"/><glyph glyph-name="yen" unicode="¥" horiz-adv-x="835" d="M68 219v72h271l-73 92H59v72h150L14 700h168l239-308 240 308h161L627 455h147v-72H570l-73-92h267v-72H485V0H348v219H68z"/><glyph glyph-name="brokenbar" unicode="¦" horiz-adv-x="360" d="M245 355H116v405h129V355zm0-525H116v425h129v-425z"/><glyph glyph-name="section" unicode="§" horiz-adv-x="845" d="M430-211q-175 0-269 52.5T48 3l143 17q24-132 243-132 208 0 208 93 0 38-34.5 58T470 75L316 94q-126 19-179.5 60.5T83 267q0 94 109 145Q77 456 77 559q0 93 89.5 147.5T421 761q331 0 364-201l-143-17q-12 62-65.5 90.5T419 662q-200 0-200-91 0-32 31.5-52T370 485l169-23q127-21 181-61.5T774 287q0-95-97-148 59-24 83-59t24-87q0-96-91-150t-263-54zm102 387q27-4 51-9 58 39 58 91 0 42-37 65.5T477 361l-173 23q-14 2-22 4-66-38-66-90 0-42 36.5-65T382 195z"/><glyph glyph-name="dieresis" unicode="¨" horiz-adv-x="500" d="M305 622v122h138V622H305zm-249 0v122h138V622H56z"/><glyph glyph-name="copyright" unicode="©" horiz-adv-x="1002" d="M501-51Q293-51 171.5 60T50 349t122 290 329 112 328.5-111.5T951 350 829.5 60.5 501-51zm0 55q183 0 286 94.5T890 350 787 601.5 501 696q-184 0-286.5-95T112 349q0-156 103-250.5T501 4zm209 402l-81-12q-22 76-121 76-61 0-95.5-32T378 351t34.5-86.5T508 233q106 0 123 78l80-10q-14-63-67.5-97T508 170q-98 0-155.5 49T295 351t58 132 155 49q167 0 202-126z"/><glyph glyph-name="ordfeminine" unicode="ª" horiz-adv-x="507" d="M65 602q24 105 189 105 180 0 180-127V454q0-21 22-21 10 0 14 1l-3-61q-15-4-42-4-76 0-82 58-51-59-155-59-66 0-101.5 26T51 464q0 43 33 67.5T193 562l148 10v8q0 64-90 64-85 0-94-52zm81-131q0-41 64-41 54 0 93 25t39 62v5l-145-12q-51-4-51-39z"/><glyph glyph-name="guillemotleft" unicode="«" horiz-adv-x="815" d="M374 163V34L46 208v134l328 173V390L129 276zm379 0V34L425 208v134l328 173V390L508 276z"/><glyph glyph-name="logicalnot" unicode="¬" horiz-adv-x="603" d="M56 401h490V138H439v168H56v95z"/><glyph glyph-name="uni00AD" unicode="­" horiz-adv-x="0"/><glyph glyph-name="registered" unicode="®" horiz-adv-x="962" d="M481-11Q283-11 166.5 90.5T50 349q0 159 116.5 260.5T481 711q197 0 313.5-101.5T911 350 794.5 90.5 481-11zm0 54q174 0 271 84t97 223q0 138-97 222t-271 84q-175 0-272-84t-97-223 97.5-222.5T481 43zM314 175v352h234q63 0 96.5-28.5T678 419q0-43-25-70.5T583 313l116-138h-89L504 303H387V175h-73zm226 294H387V361h153q66 0 66 54t-66 54z"/><glyph glyph-name="macron" unicode="¯" horiz-adv-x="500" d="M54 629v88h392v-88H54z"/><glyph glyph-name="degree" unicode="°" horiz-adv-x="561" d="M281 710q94 0 149-45.5T485 545q0-73-55-119t-149-46-149.5 46T76 545q0 74 55 119.5T281 710zm0-247q47 0 73.5 22.5T381 545q0 38-26.5 60T281 627q-48 0-74.5-22T180 545q0-37 26.5-59.5T281 463z"/><glyph glyph-name="plusminus" unicode="±" horiz-adv-x="603" d="M546 346H354V183H248v163H56v95h192v162h106V441h192v-95zm0-336H56v95h490V10z"/><glyph glyph-name="twosuperior" unicode="²" horiz-adv-x="450" d="M34 524l215 97q42 22 55 37t13 35q0 52-94 52-96 0-104-64l-90 14q9 56 58.5 86.5T221 812q92 0 141-30.5t49-84.5q0-41-28-70t-110-63l-91-39h231v-68H34v67z"/><glyph glyph-name="threesuperior" unicode="³" horiz-adv-x="452" d="M420 557q0-49-50-77t-148-28Q42 452 25 553l88 13q9-50 109-50 103 0 103 47 0 40-64 40H156v62h106q59 0 59 39 0 44-97 44t-108-50l-86 13q10 48 59.5 74.5T223 812q92 0 141-25.5t49-72.5q0-56-65-77 72-18 72-80z"/><glyph glyph-name="acute" unicode="´" horiz-adv-x="500" d="M195 609l137 159h168L305 609H195z"/><glyph glyph-name="paragraph" unicode="¶" horiz-adv-x="893" d="M464-150H332v456h-72q-95 0-151.5 53T52 500q0 91 56.5 145.5T260 700h204v-850zm314 0H646v850h132v-850z"/><glyph glyph-name="periodcentered" unicode="·" horiz-adv-x="500" d="M178 285v134h143V285H178z"/><glyph glyph-name="cedilla" unicode="¸" horiz-adv-x="500" d="M456-122q0-91-171-91-69 0-143 15l4 60q73-14 122-14 82 0 82 31 0 26-41 26-27 0-49-13l-65 9L212 6h83l-9-57q30 9 59 9 54 0 82.5-21t28.5-59z"/><glyph glyph-name="onesuperior" unicode="¹" horiz-adv-x="414" d="M34 457v70h140v207L41 712v69l149 26h76V527h123v-70H34z"/><glyph glyph-name="ordmasculine" unicode="º" horiz-adv-x="541" d="M270 368q-101 0-156 46T59 538t55 123.5T270 707q102 0 157-45.5T482 538t-55-124-157-46zm0 67q56 0 85 27t29 76q0 48-29 75t-85 27-84.5-27-28.5-75q0-49 28.5-76t84.5-27z"/><glyph glyph-name="guillemotright" unicode="»" horiz-adv-x="815" d="M389 208L61 34v125l246 115L61 387v128l328-173V208zm379 0L440 34v125l246 115-246 113v128l328-173V208z"/><glyph glyph-name="onequarter" unicode="¼" horiz-adv-x="1143" d="M34 350v70h140v207L41 605v69l149 26h76V420h123v-70H34zM315 0H191l679 700h124zm733 0h-86v64H692v57l277 230h79V128h70V64h-70V0zM790 128h172v144z"/><glyph glyph-name="onehalf" unicode="½" horiz-adv-x="1161" d="M34 350v70h140v207L41 605v69l149 26h76V420h123v-70H34zM315 0H191l679 700h124zm430 67l215 97q42 22 55 37t13 35q0 52-94 52-96 0-104-64l-90 14q9 56 58.5 86.5T932 355q92 0 141-30.5t49-84.5q0-41-28-70t-110-63l-91-39h231V0H745v67z"/><glyph glyph-name="threequarters" unicode="¾" horiz-adv-x="1135" d="M420 450q0-49-50-77t-148-28Q42 345 25 446l88 13q9-50 109-50 103 0 103 47 0 40-64 40H156v62h106q59 0 59 39 0 44-97 44t-108-50l-86 13q10 48 59.5 74.5T223 705q92 0 141-25.5t49-72.5q0-56-65-77 72-18 72-80zM308 0H184l679 700h124zm733 0h-86v64H685v57l277 230h79V128h70V64h-70V0zM783 128h172v144z"/><glyph glyph-name="questiondown" unicode="¿" horiz-adv-x="772" d="M472 546V422H333v124h139zM384-56q198 0 214 144l135-24Q719-44 627-104t-243-60q-158 0-245 55.5T52 37q0 56 28.5 94.5t69.5 59 82.5 39 71 47T335 346h135q-3-60-33-102t-70.5-63.5-81-38.5-68.5-41-28-58q0-45 47.5-72T384-56z"/><glyph glyph-name="Agrave" unicode="À" horiz-adv-x="916" d="M512 762H402L207 921h169zM756 0l-88 167H242L154 0H10l377 700h140L905 0H756zM297 272h315L455 570z"/><glyph glyph-name="Aacute" unicode="Á" horiz-adv-x="916" d="M403 762l137 159h168L513 762H403zM756 0l-88 167H242L154 0H10l377 700h140L905 0H756zM297 272h315L455 570z"/><glyph glyph-name="Acircumflex" unicode="Â" horiz-adv-x="916" d="M580 762l-124 96-123-96H233l149 159h153l148-159H580zM756 0l-88 167H242L154 0H10l377 700h140L905 0H756zM297 272h315L455 570z"/><glyph glyph-name="Atilde" unicode="Ã" horiz-adv-x="916" d="M653 918q18-164-99-164-28 0-55 13.5T454 797t-38.5 29.5T378 840q-43 0-33-75h-84q-17 165 101 165 34 0 67.5-22t60.5-43.5 46-21.5q43 0 32 75h85zM756 0l-88 167H242L154 0H10l377 700h140L905 0H756zM297 272h315L455 570z"/><glyph glyph-name="Adieresis" unicode="Ä" horiz-adv-x="916" d="M513 775v122h138V775H513zm-249 0v122h138V775H264zM756 0l-88 167H242L154 0H10l377 700h140L905 0H756zM297 272h315L455 570z"/><glyph glyph-name="Aring" unicode="Å" horiz-adv-x="916" d="M459 747q-68 0-107.5 30T312 859q0 50 39.5 80T459 969q67 0 105.5-29.5T603 859q0-52-38.5-82T459 747zm0 56q76 0 76 56 0 53-76 53-78 0-78-53 0-56 78-56zM756 0l-88 167H242L154 0H10l377 700h140L905 0H756zM297 272h315L455 570z"/><glyph glyph-name="AE" unicode="Æ" horiz-adv-x="1398" d="M700 0v173H287L153 0H0l539 700h795V594H835V410h444V306H835V106h507V0H700zM367 276h333v318h-86z"/><glyph glyph-name="Ccedilla" unicode="Ç" horiz-adv-x="945" d="M59 350q0 165 116.5 263T491 711q168 0 271-61.5T896 471l-142-28q-42 159-263 159-141 0-216.5-66T199 350q0-121 75-186.5T491 98q233 0 266 164l140-27Q870 118 770 55T507-11l-6-40q30 9 59 9 54 0 82.5-21t28.5-59q0-91-171-91-70 0-143 15l4 60q73-14 122-14 82 0 82 31 0 26-41 26-27 0-49-13l-65 9 15 91Q251 8 155 102.5T59 350z"/><glyph glyph-name="Egrave" unicode="È" horiz-adv-x="840" d="M502 762H392L197 921h169zM116 0v700h661V594H250V410h471V305H250V106h534V0H116z"/><glyph glyph-name="Eacute" unicode="É" horiz-adv-x="840" d="M376 762l137 159h168L486 762H376zM116 0v700h661V594H250V410h471V305H250V106h534V0H116z"/><glyph glyph-name="Ecircumflex" unicode="Ê" horiz-adv-x="840" d="M567 762l-124 96-123-96H220l149 159h153l148-159H567zM116 0v700h661V594H250V410h471V305H250V106h534V0H116z"/><glyph glyph-name="Edieresis" unicode="Ë" horiz-adv-x="840" d="M501 775v122h138V775H501zm-249 0v122h138V775H252zM116 0v700h661V594H250V410h471V305H250V106h534V0H116z"/><glyph glyph-name="Igrave" unicode="Ì" horiz-adv-x="369" d="M239 762H129L-66 921h169zM116 0v700h137V0H116z"/><glyph glyph-name="Iacute" unicode="Í" horiz-adv-x="369" d="M130 762l137 159h168L240 762H130zM116 0v700h137V0H116z"/><glyph glyph-name="Icircumflex" unicode="Î" horiz-adv-x="369" d="M307 762l-124 96-123-96H-40l149 159h153l148-159H307zM116 0v700h137V0H116z"/><glyph glyph-name="Idieresis" unicode="Ï" horiz-adv-x="369" d="M240 775v122h138V775H240zm-249 0v122h138V775H-9zM116 0v700h137V0H116z"/><glyph glyph-name="Eth" unicode="Ð" horiz-adv-x="990" d="M127 0v309H9v84h118v307h400q191 0 295-93t104-258T822 92 527 0H127zm405 109q124 0 188.5 62.5T785 349q0 116-64.5 179T532 591H264V393h208v-84H264V109h268z"/><glyph glyph-name="Ntilde" unicode="Ñ" horiz-adv-x="1007" d="M701 918q18-164-99-164-28 0-55 13.5T502 797t-38.5 29.5T426 840q-43 0-33-75h-84q-17 165 101 165 34 0 67.5-22t60.5-43.5 46-21.5q43 0 32 75h85zM116 0v700h135l514-549v549h126V0H756L242 547V0H116z"/><glyph glyph-name="Ograve" unicode="Ò" horiz-adv-x="995" d="M551 762H441L246 921h169zM497-11q-205 0-321.5 97T59 349q0 167 116 264.5T497 711q207 0 323-97.5T936 349q0-166-116-263T497-11zm0 109q147 0 223 66t76 185q0 121-76 187t-223 66q-146 0-222-66t-76-187q0-120 76-185.5T497 98z"/><glyph glyph-name="Oacute" unicode="Ó" horiz-adv-x="995" d="M442 762l137 159h168L552 762H442zm55-773q-205 0-321.5 97T59 349q0 167 116 264.5T497 711q207 0 323-97.5T936 349q0-166-116-263T497-11zm0 109q147 0 223 66t76 185q0 121-76 187t-223 66q-146 0-222-66t-76-187q0-120 76-185.5T497 98z"/><glyph glyph-name="Ocircumflex" unicode="Ô" horiz-adv-x="995" d="M619 762l-124 96-123-96H272l149 159h153l148-159H619zM497-11q-205 0-321.5 97T59 349q0 167 116 264.5T497 711q207 0 323-97.5T936 349q0-166-116-263T497-11zm0 109q147 0 223 66t76 185q0 121-76 187t-223 66q-146 0-222-66t-76-187q0-120 76-185.5T497 98z"/><glyph glyph-name="Otilde" unicode="Õ" horiz-adv-x="995" d="M692 918q18-164-99-164-28 0-55 13.5T493 797t-38.5 29.5T417 840q-43 0-33-75h-84q-16 165 101 165 34 0 67.5-22t60.5-43.5 46-21.5q43 0 32 75h85zM497-11q-205 0-321.5 97T59 349q0 167 116 264.5T497 711q207 0 323-97.5T936 349q0-166-116-263T497-11zm0 109q147 0 223 66t76 185q0 121-76 187t-223 66q-146 0-222-66t-76-187q0-120 76-185.5T497 98z"/><glyph glyph-name="Odieresis" unicode="Ö" horiz-adv-x="995" d="M552 775v122h138V775H552zm-249 0v122h138V775H303zM497-11q-205 0-321.5 97T59 349q0 167 116 264.5T497 711q207 0 323-97.5T936 349q0-166-116-263T497-11zm0 109q147 0 223 66t76 185q0 121-76 187t-223 66q-146 0-222-66t-76-187q0-120 76-185.5T497 98z"/><glyph glyph-name="multiply" unicode="×" horiz-adv-x="603" d="M463 147L301 291 139 147l-66 70 156 138L74 493l66 70 161-143 162 144 66-70-156-139 155-138z"/><glyph glyph-name="Oslash" unicode="Ø" horiz-adv-x="995" d="M90 0l85 86Q59 182 59 349t116 264.5T497 711q146 0 250-51l40 40h120l-87-87q116-96 116-264 0-166-116-263T497-11q-143 0-248 50L210 0H90zm109 349q0-109 64-175l397 399q-67 29-163 29-146 0-222-66t-76-187zM497 98q147 0 223 65.5T796 349q0 112-64 175L336 126q67-28 161-28z"/><glyph glyph-name="Ugrave" unicode="Ù" horiz-adv-x="955" d="M534 762H424L229 921h169zm324-455q0-152-100-235T477-11q-180 0-280 83T97 307v393h137V308q0-103 62.5-156.5T477 98q119 0 181.5 53.5T721 308v392h137V307z"/><glyph glyph-name="Uacute" unicode="Ú" horiz-adv-x="955" d="M422 762l137 159h168L532 762H422zm436-455q0-152-100-235T477-11q-180 0-280 83T97 307v393h137V308q0-103 62.5-156.5T477 98q119 0 181.5 53.5T721 308v392h137V307z"/><glyph glyph-name="Ucircumflex" unicode="Û" horiz-adv-x="955" d="M599 762l-124 96-123-96H252l149 159h153l148-159H599zm259-455q0-152-100-235T477-11q-180 0-280 83T97 307v393h137V308q0-103 62.5-156.5T477 98q119 0 181.5 53.5T721 308v392h137V307z"/><glyph glyph-name="Udieresis" unicode="Ü" horiz-adv-x="955" d="M532 775v122h138V775H532zm-249 0v122h138V775H283zm575-468q0-152-100-235T477-11q-180 0-280 83T97 307v393h137V308q0-103 62.5-156.5T477 98q119 0 181.5 53.5T721 308v392h137V307z"/><glyph glyph-name="Yacute" unicode="Ý" horiz-adv-x="819" d="M355 762l137 159h168L465 762H355zM340 0v279L6 700h168l238-307 241 307h161L477 276V0H340z"/><glyph glyph-name="Thorn" unicode="Þ" horiz-adv-x="880" d="M116 0v700h137V597h308q127 0 200-65.5T834 353q0-112-74.5-177T556 111H253V0H116zm420 489H253V219h283q77 0 118 34.5t41 98.5q0 66-41 101.5T536 489z"/><glyph glyph-name="germandbls" unicode="ß" horiz-adv-x="903" d="M89 0v486q0 128 101.5 201.5T463 761q148 0 225.5-53T766 564q0-52-29-92t-85-61q99-15 149.5-65T852 217q0-107-90-167.5T510-11q-120 0-212 34l25 100q79-32 175-32 221 0 221 128 0 123-193 123H353v102h128q79 0 119.5 28t40.5 80q0 109-180 109-115 0-179-42.5T218 494V0H89z"/><glyph glyph-name="agrave" unicode="à" horiz-adv-x="760" d="M440 609H330L135 768h169zM57 384q42 173 311 173 156 0 228-51t72-159V132q0-46 42-46 8 0 22 2l-3-88q-30-9-62-9-116 0-119 111-44-53-118.5-83T265-11Q156-11 95.5 31.5T35 150t57.5 117T273 317l273 19v1q0 66-42.5 95.5T366 462q-168 0-183-98zm104-227q0-74 127-74 108 0 184 44.5T548 239v15l-273-20q-114-9-114-77z"/><glyph glyph-name="aacute" unicode="á" horiz-adv-x="760" d="M331 609l137 159h168L441 609H331zM57 384q42 173 311 173 156 0 228-51t72-159V132q0-46 42-46 8 0 22 2l-3-88q-30-9-62-9-116 0-119 111-44-53-118.5-83T265-11Q156-11 95.5 31.5T35 150t57.5 117T273 317l273 19v1q0 66-42.5 95.5T366 462q-168 0-183-98zm104-227q0-74 127-74 108 0 184 44.5T548 239v15l-273-20q-114-9-114-77z"/><glyph glyph-name="acircumflex" unicode="â" horiz-adv-x="760" d="M508 609l-124 96-123-96H161l149 159h153l148-159H508zM57 384q42 173 311 173 156 0 228-51t72-159V132q0-46 42-46 8 0 22 2l-3-88q-30-9-62-9-116 0-119 111-44-53-118.5-83T265-11Q156-11 95.5 31.5T35 150t57.5 117T273 317l273 19v1q0 66-42.5 95.5T366 462q-168 0-183-98zm104-227q0-74 127-74 108 0 184 44.5T548 239v15l-273-20q-114-9-114-77z"/><glyph glyph-name="atilde" unicode="ã" horiz-adv-x="760" d="M581 765q18-164-99-164-28 0-55 13.5T382 644t-38.5 29.5T306 687q-43 0-33-75h-84q-17 165 101 165 27 0 54-13.5t45-30 38.5-30T464 690q43 0 32 75h85zM57 384q42 173 311 173 156 0 228-51t72-159V132q0-46 42-46 8 0 22 2l-3-88q-30-9-62-9-116 0-119 111-44-53-118.5-83T265-11Q156-11 95.5 31.5T35 150t57.5 117T273 317l273 19v1q0 66-42.5 95.5T366 462q-168 0-183-98zm104-227q0-74 127-74 108 0 184 44.5T548 239v15l-273-20q-114-9-114-77z"/><glyph glyph-name="adieresis" unicode="ä" horiz-adv-x="760" d="M441 622v122h138V622H441zm-249 0v122h138V622H192zM57 384q42 173 311 173 156 0 228-51t72-159V132q0-46 42-46 8 0 22 2l-3-88q-30-9-62-9-116 0-119 111-44-53-118.5-83T265-11Q156-11 95.5 31.5T35 150t57.5 117T273 317l273 19v1q0 66-42.5 95.5T366 462q-168 0-183-98zm104-227q0-74 127-74 108 0 184 44.5T548 239v15l-273-20q-114-9-114-77z"/><glyph glyph-name="aring" unicode="å" horiz-adv-x="760" d="M387 594q-68 0-107.5 30T240 706q0 50 39.5 80T387 816q67 0 105.5-29.5T531 706q0-52-38.5-82T387 594zm0 56q76 0 76 56 0 53-76 53-78 0-78-53 0-56 78-56zM57 384q42 173 311 173 156 0 228-51t72-159V132q0-46 42-46 8 0 22 2l-3-88q-30-9-62-9-116 0-119 111-44-53-118.5-83T265-11Q156-11 95.5 31.5T35 150t57.5 117T273 317l273 19v1q0 66-42.5 95.5T366 462q-168 0-183-98zm104-227q0-74 127-74 108 0 184 44.5T548 239v15l-273-20q-114-9-114-77z"/><glyph glyph-name="ae" unicode="æ" horiz-adv-x="1266" d="M293-11Q161-11 98 31.5T35 150t57.5 117T273 317l273 19q-2 66-43 96t-135 30q-168 0-184-98L58 384q43 173 312 173 185 0 253-93 83 93 261 93 153 0 242-74t89-196q0-27-4-47H671Q692 86 888 86q166 0 198 93l126-22Q1156-11 888-11q-198 0-287 119Q505-11 293-11zm591 473q-182 0-210-137h412q-12 66-65.5 101.5T884 462zM161 157q0-74 135-74 114 0 184 44.5T548 240v14l-273-20q-114-9-114-77z"/><glyph glyph-name="ccedilla" unicode="ç" horiz-adv-x="778" d="M738 358l-129-24q-26 122-203 122-107 0-162-47.5T189 272q0-87 55.5-134.5T407 90q179 0 205 124l128-24Q718 94 634 42.5T416-11l-6-40q30 9 59 9 54 0 82.5-21t28.5-59q0-91-171-91-70 0-143 15l4 60q73-14 122-14 82 0 82 31 0 26-41 26-27 0-49-13l-65 9 15 92Q202 9 129 82.5T56 272q0 132 92.5 208.5T406 557q138 0 224-51t108-148z"/><glyph glyph-name="egrave" unicode="è" horiz-adv-x="803" d="M456 609H346L151 768h169zM411-11q-167 0-261 76.5T56 274q0 129 93.5 206T407 557q159 0 252-73.5T752 287q0-22-5-47H184q11-74 68-114t159-40q178 0 212 93l125-22Q720 73 639 31T411-11zm-3 473q-191 0-221-137h436q-11 66-66 101.5T408 462z"/><glyph glyph-name="eacute" unicode="é" horiz-adv-x="803" d="M347 609l137 159h168L457 609H347zm64-620q-167 0-261 76.5T56 274q0 129 93.5 206T407 557q159 0 252-73.5T752 287q0-22-5-47H184q11-74 68-114t159-40q178 0 212 93l125-22Q720 73 639 31T411-11zm-3 473q-191 0-221-137h436q-11 66-66 101.5T408 462z"/><glyph glyph-name="ecircumflex" unicode="ê" horiz-adv-x="803" d="M524 609l-124 96-123-96H177l149 159h153l148-159H524zM411-11q-167 0-261 76.5T56 274q0 129 93.5 206T407 557q159 0 252-73.5T752 287q0-22-5-47H184q11-74 68-114t159-40q178 0 212 93l125-22Q720 73 639 31T411-11zm-3 473q-191 0-221-137h436q-11 66-66 101.5T408 462z"/><glyph glyph-name="edieresis" unicode="ë" horiz-adv-x="803" d="M457 622v122h138V622H457zm-249 0v122h138V622H208zM411-11q-167 0-261 76.5T56 274q0 129 93.5 206T407 557q159 0 252-73.5T752 287q0-22-5-47H184q11-74 68-114t159-40q178 0 212 93l125-22Q720 73 639 31T411-11zm-3 473q-191 0-221-137h436q-11 66-66 101.5T408 462z"/><glyph glyph-name="igrave" unicode="ì" d="M218 609H108L-87 768H82zM98 0v546h130V0H98z"/><glyph glyph-name="iacute" unicode="í" d="M109 609l137 159h168L219 609H109zM98 0v546h130V0H98z"/><glyph glyph-name="icircumflex" unicode="î" d="M286 609l-124 96-123-96H-61L88 768h153l148-159H286zM98 0v546h130V0H98z"/><glyph glyph-name="idieresis" unicode="ï" d="M219 622v122h138V622H219zm-249 0v122h138V622H-30zM98 0v546h130V0H98z"/><glyph glyph-name="eth" unicode="ð" horiz-adv-x="817" d="M401-11q-163 0-253 67T58 238q0 113 85 179.5T382 484q156 0 234-81-25 92-124 187l-174-53v77l108 32q-47 38-123 91l146 23q47-33 98-77l161 48v-76l-100-30q80-84 114-168t34-178q0-136-90-213T401-11zm4 100q107 0 160 39t53 110-53.5 109.5T405 386q-108 0-161.5-38.5T190 237q0-71 54-109.5T405 89z"/><glyph glyph-name="ntilde" unicode="ñ" horiz-adv-x="832" d="M611 765q18-164-99-164-28 0-55 13.5T412 644t-38.5 29.5T336 687q-43 0-33-75h-84q-17 165 101 165 27 0 54-13.5t45-30 38.5-30T494 690q43 0 32 75h85zM98 0v546h116l10-119q41 61 110.5 95.5T490 557q119 0 185-62.5T741 323V0H611v297q0 71-42.5 112T448 450q-98 0-159-52.5T228 258V0H98z"/><glyph glyph-name="ograve" unicode="ò" horiz-adv-x="818" d="M463 609H353L158 768h169zM409-11q-167 0-260 76T56 273t93 208 260 76q168 0 261-76t93-208q0-133-93-208.5T409-11zm0 101q110 0 165.5 47T630 273t-55.5 136T409 456t-165-47-55-136 55.5-136T409 90z"/><glyph glyph-name="oacute" unicode="ó" horiz-adv-x="818" d="M354 609l137 159h168L464 609H354zm55-620q-167 0-260 76T56 273t93 208 260 76q168 0 261-76t93-208q0-133-93-208.5T409-11zm0 101q110 0 165.5 47T630 273t-55.5 136T409 456t-165-47-55-136 55.5-136T409 90z"/><glyph glyph-name="ocircumflex" unicode="ô" horiz-adv-x="818" d="M531 609l-124 96-123-96H184l149 159h153l148-159H531zM409-11q-167 0-260 76T56 273t93 208 260 76q168 0 261-76t93-208q0-133-93-208.5T409-11zm0 101q110 0 165.5 47T630 273t-55.5 136T409 456t-165-47-55-136 55.5-136T409 90z"/><glyph glyph-name="otilde" unicode="õ" horiz-adv-x="818" d="M604 765q18-164-99-164-28 0-55 13.5T405 644t-38.5 29.5T329 687q-43 0-33-75h-84q-16 165 101 165 27 0 54-13.5t45-30 38.5-30T487 690q43 0 32 75h85zM409-11q-167 0-260 76T56 273t93 208 260 76q168 0 261-76t93-208q0-133-93-208.5T409-11zm0 101q110 0 165.5 47T630 273t-55.5 136T409 456t-165-47-55-136 55.5-136T409 90z"/><glyph glyph-name="odieresis" unicode="ö" horiz-adv-x="818" d="M464 622v122h138V622H464zm-249 0v122h138V622H215zM409-11q-167 0-260 76T56 273t93 208 260 76q168 0 261-76t93-208q0-133-93-208.5T409-11zm0 101q110 0 165.5 47T630 273t-55.5 136T409 456t-165-47-55-136 55.5-136T409 90z"/><glyph glyph-name="divide" unicode="÷" horiz-adv-x="603" d="M235 494v116h132V494H235zm311-188H56v95h490v-95zM235 97v116h132V97H235z"/><glyph glyph-name="oslash" unicode="ø" horiz-adv-x="818" d="M61 0l79 73q-84 75-84 200 0 132 93 208t260 76q122 0 208-42l34 31h106l-78-72q84-75 84-201 0-133-93-208.5T409-11q-124 0-208 43L167 0H61zm126 273q0-75 39-120l307 283q-48 22-124 22-110 0-166-47.5T187 273zM409 88q111 0 167 47.5T632 273q0 74-39 121L285 110q48-22 124-22z"/><glyph glyph-name="ugrave" unicode="ù" horiz-adv-x="813" d="M460 609H350L155 768h169zm125-320v257h130V0H599l-10 116q-40-60-106.5-93.5T334-11q-114 0-180 60T88 220v326h130V241q0-71 41-107.5T372 97q93 0 153.5 51T585 289z"/><glyph glyph-name="uacute" unicode="ú" horiz-adv-x="813" d="M351 609l137 159h168L461 609H351zm234-320v257h130V0H599l-10 116q-40-60-106.5-93.5T334-11q-114 0-180 60T88 220v326h130V241q0-71 41-107.5T372 97q93 0 153.5 51T585 289z"/><glyph glyph-name="ucircumflex" unicode="û" horiz-adv-x="813" d="M528 609l-124 96-123-96H181l149 159h153l148-159H528zm57-320v257h130V0H599l-10 116q-40-60-106.5-93.5T334-11q-114 0-180 60T88 220v326h130V241q0-71 41-107.5T372 97q93 0 153.5 51T585 289z"/><glyph glyph-name="udieresis" unicode="ü" horiz-adv-x="813" d="M461 622v122h138V622H461zm-249 0v122h138V622H212zm373-333v257h130V0H599l-10 116q-40-60-106.5-93.5T334-11q-114 0-180 60T88 220v326h130V241q0-71 41-107.5T372 97q93 0 153.5 51T585 289z"/><glyph glyph-name="yacute" unicode="ý" horiz-adv-x="700" d="M295 609l137 159h168L405 609H295zm259-63h136L404-27q-53-103-106.5-143.5T156-211q-50 0-89 12l-5 98q32-7 69-7 61 0 94.5 24.5T295 13L10 546h144l207-409z"/><glyph glyph-name="thorn" unicode="þ" horiz-adv-x="857" d="M492-11q-175 0-264 113v-302H98v950h130V443q88 114 264 114 143 0 226-77.5T801 273 718.5 66.5 492-11zM452 91q105 0 160.5 48.5T668 273q0 84-56 133t-160 49-164-50-60-133q0-82 60-131.5T452 91z"/><glyph glyph-name="ydieresis" unicode="ÿ" horiz-adv-x="700" d="M405 622v122h138V622H405zm-249 0v122h138V622H156zm398-76h136L404-27q-53-103-106.5-143.5T156-211q-50 0-89 12l-5 98q32-7 69-7 61 0 94.5 24.5T295 13L10 546h144l207-409z"/><glyph glyph-name="Amacron" unicode="Ā" horiz-adv-x="916" d="M262 782v88h392v-88H262zM756 0l-88 167H242L154 0H10l377 700h140L905 0H756zM297 272h315L455 570z"/><glyph glyph-name="amacron" unicode="ā" horiz-adv-x="760" d="M190 629v88h392v-88H190zM57 384q42 173 311 173 156 0 228-51t72-159V132q0-46 42-46 8 0 22 2l-3-88q-30-9-62-9-116 0-119 111-44-53-118.5-83T265-11Q156-11 95.5 31.5T35 150t57.5 117T273 317l273 19v1q0 66-42.5 95.5T366 462q-168 0-183-98zm104-227q0-74 127-74 108 0 184 44.5T548 239v15l-273-20q-114-9-114-77z"/><glyph glyph-name="Abreve" unicode="Ă" horiz-adv-x="916" d="M550 915h99q0-156-191-156-192 0-192 156h99q0-83 93-83 92 0 92 83zM756 0l-88 167H242L154 0H10l377 700h140L905 0H756zM297 272h315L455 570z"/><glyph glyph-name="abreve" unicode="ă" horiz-adv-x="760" d="M478 762h99q0-156-191-156-192 0-192 156h99q0-83 93-83 92 0 92 83zM57 384q42 173 311 173 156 0 228-51t72-159V132q0-46 42-46 8 0 22 2l-3-88q-30-9-62-9-116 0-119 111-44-53-118.5-83T265-11Q156-11 95.5 31.5T35 150t57.5 117T273 317l273 19v1q0 66-42.5 95.5T366 462q-168 0-183-98zm104-227q0-74 127-74 108 0 184 44.5T548 239v15l-273-20q-114-9-114-77z"/><glyph glyph-name="Aogonek" unicode="Ą" horiz-adv-x="916" d="M651-114q0 79 101 121l-86 162H243L154 0H10l377 700h140L905 0Q756-28 756-82q0-37 60-37 41 0 92 15l-4-93q-48-17-111-17-68 0-105 26t-37 74zM297 272h315L455 570z"/><glyph glyph-name="aogonek" unicode="ą" horiz-adv-x="760" d="M727-197q-48-17-109-17-70 0-107 26t-37 75q0 82 116 123-42 28-42 95-44-55-118-85.5T265-11Q156-11 95.5 31.5T35 150t57.5 116.5T273 316l273 19v2q0 66-42 95.5T368 462q-170 0-185-98L57 384q42 173 313 173 155 0 226.5-51T668 347V132q0-46 42-46 8 0 22 2l-3-88Q626-34 606-45q-27-16-27-37 0-37 61-37 42 0 91 15zM161 157q0-74 127-74 108 0 184 44.5T548 239v15l-273-20q-114-10-114-77z"/><glyph glyph-name="Cacute" unicode="Ć" horiz-adv-x="945" d="M424 762l137 159h168L534 762H424zM59 350q0 165 116.5 263T491 711q168 0 271-61.5T896 471l-142-28q-42 159-263 159-141 0-216.5-66T199 350q0-121 75-186.5T491 98q233 0 266 164l140-27Q869 115 765 52T491-11q-204 0-318 97T59 350z"/><glyph glyph-name="cacute" unicode="ć" horiz-adv-x="778" d="M334 609l137 159h168L444 609H334zm404-251l-129-24q-26 122-203 122-107 0-162-47.5T189 272q0-87 55.5-134.5T407 90q179 0 205 124l128-24Q718 93 631.5 41T407-11q-165 0-258 76T56 272q0 132 92.5 208.5T406 557q138 0 224-51t108-148z"/><glyph glyph-name="Ccircumflex" unicode="Ĉ" horiz-adv-x="945" d="M603 762l-124 96-123-96H256l149 159h153l148-159H603zM59 350q0 165 116.5 263T491 711q168 0 271-61.5T896 471l-142-28q-42 159-263 159-141 0-216.5-66T199 350q0-121 75-186.5T491 98q233 0 266 164l140-27Q869 115 765 52T491-11q-204 0-318 97T59 350z"/><glyph glyph-name="ccircumflex" unicode="ĉ" horiz-adv-x="778" d="M514 609l-124 96-123-96H167l149 159h153l148-159H514zm224-251l-129-24q-26 122-203 122-107 0-162-47.5T189 272q0-87 55.5-134.5T407 90q179 0 205 124l128-24Q718 93 631.5 41T407-11q-165 0-258 76T56 272q0 132 92.5 208.5T406 557q138 0 224-51t108-148z"/><glyph glyph-name="Cdotaccent" unicode="Ċ" horiz-adv-x="945" d="M413 775v129h135V775H413zM59 350q0 165 116.5 263T491 711q168 0 271-61.5T896 471l-142-28q-42 159-263 159-141 0-216.5-66T199 350q0-121 75-186.5T491 98q233 0 266 164l140-27Q869 115 765 52T491-11q-204 0-318 97T59 350z"/><glyph glyph-name="cdotaccent" unicode="ċ" horiz-adv-x="778" d="M326 622v129h135V622H326zm412-264l-129-24q-26 122-203 122-107 0-162-47.5T189 272q0-87 55.5-134.5T407 90q179 0 205 124l128-24Q718 93 631.5 41T407-11q-165 0-258 76T56 272q0 132 92.5 208.5T406 557q138 0 224-51t108-148z"/><glyph glyph-name="Ccaron" unicode="Č" horiz-adv-x="945" d="M706 921L556 762H403L256 921h103l124-96 122 96h101zM59 350q0 165 116.5 263T491 711q168 0 271-61.5T896 471l-142-28q-42 159-263 159-141 0-216.5-66T199 350q0-121 75-186.5T491 98q233 0 266 164l140-27Q869 115 765 52T491-11q-204 0-318 97T59 350z"/><glyph glyph-name="ccaron" unicode="č" horiz-adv-x="778" d="M617 768L467 609H314L167 768h103l124-96 122 96h101zm121-410l-129-24q-26 122-203 122-107 0-162-47.5T189 272q0-87 55.5-134.5T407 90q179 0 205 124l128-24Q718 93 631.5 41T407-11q-165 0-258 76T56 272q0 132 92.5 208.5T406 557q138 0 224-51t108-148z"/><glyph glyph-name="Dcaron" unicode="Ď" horiz-adv-x="979" d="M714 921L564 762H411L264 921h103l124-96 122 96h101zM116 0v700h400q191 0 295-93t104-258T811 92 516 0H116zm405 109q124 0 188.5 62.5T774 349q0 116-64.5 179T521 591H253V109h268z"/><glyph glyph-name="dcaron" unicode="ď" horiz-adv-x="940" d="M364-11q-143 0-225.5 77.5T56 273t82.5 206.5T364 557q173 0 264-112v305h130V0H641l-9 106q-42-55-111-86T364-11zm493 544v217h129l-43-217h-86zM404 91q104 0 164 49.5T628 272q0 83-60 133t-164 50-159.5-49T189 273q0-85 55-133.5T404 91z"/><glyph glyph-name="Dcroat" unicode="Đ" horiz-adv-x="990" d="M127 0v309H9v84h118v307h400q191 0 295-93t104-258T822 92 527 0H127zm405 109q124 0 188.5 62.5T785 349q0 116-64.5 179T532 591H264V393h208v-84H264V109h268z"/><glyph glyph-name="dcroat" unicode="đ" horiz-adv-x="857" d="M364-11q-143 0-225.5 75.5T56 266t82.5 202T364 544q86 0 154-29t110-82v174H427v72h201v71h130v-71h93v-72h-93V0H641l-8 105Q544-11 364-11zm40 102q104 0 164 47.5T628 266t-60 128.5T404 443t-159.5-47.5T189 266q0-81 55.5-128T404 91z"/><glyph glyph-name="Emacron" unicode="Ē" horiz-adv-x="840" d="M248 782v88h392v-88H248zM116 0v700h661V594H250V410h471V305H250V106h534V0H116z"/><glyph glyph-name="emacron" unicode="ē" horiz-adv-x="803" d="M206 629v88h392v-88H206zM411-11q-167 0-261 76.5T56 274q0 129 93.5 206T407 557q159 0 252-73.5T752 287q0-22-5-47H184q11-74 68-114t159-40q178 0 212 93l125-22Q720 73 639 31T411-11zm-3 473q-191 0-221-137h436q-11 66-66 101.5T408 462z"/><glyph glyph-name="Ebreve" unicode="Ĕ" horiz-adv-x="840" d="M537 915h99q0-156-191-156-192 0-192 156h99q0-83 93-83 92 0 92 83zM116 0v700h661V594H250V410h471V305H250V106h534V0H116z"/><glyph glyph-name="ebreve" unicode="ĕ" horiz-adv-x="803" d="M494 762h99q0-156-191-156-192 0-192 156h99q0-83 93-83 92 0 92 83zM411-11q-167 0-261 76.5T56 274q0 129 93.5 206T407 557q159 0 252-73.5T752 287q0-22-5-47H184q11-74 68-114t159-40q178 0 212 93l125-22Q720 73 639 31T411-11zm-3 473q-191 0-221-137h436q-11 66-66 101.5T408 462z"/><glyph glyph-name="Edotaccent" unicode="Ė" horiz-adv-x="840" d="M378 775v129h135V775H378zM116 0v700h661V594H250V410h471V305H250V106h534V0H116z"/><glyph glyph-name="edotaccent" unicode="ė" horiz-adv-x="803" d="M334 622v129h135V622H334zm77-633q-167 0-261 76.5T56 274q0 129 93.5 206T407 557q159 0 252-73.5T752 287q0-22-5-47H184q11-74 68-114t159-40q178 0 212 93l125-22Q720 73 639 31T411-11zm-3 473q-191 0-221-137h436q-11 66-66 101.5T408 462z"/><glyph glyph-name="Eogonek" unicode="Ę" horiz-adv-x="840" d="M116 0v700h661V594H250V410h471V305H250V106h534V0h-1Q633-28 633-81q0-38 61-38 42 0 91 15l-3-93q-49-17-109-17-144 0-144 100 0 72 86 114H116z"/><glyph glyph-name="eogonek" unicode="ę" horiz-adv-x="803" d="M744-197q-49-17-109-17-70 0-107 26t-37 75q0 61 67 118-60-16-147-16-167 0-261 76.5T56 274q0 129 93.5 206T407 557q159 0 252-73.5T752 287q0-22-5-47H184q11-74 68-114t159-40q178 0 212 93l125-22q-21-57-60.5-105t-66-77.5T595-80q0-39 61-39 42 0 91 15zM408 462q-191 0-221-137h436q-11 66-66 101.5T408 462z"/><glyph glyph-name="Ecaron" unicode="Ě" horiz-adv-x="840" d="M670 921L520 762H367L220 921h103l124-96 122 96h101zM116 0v700h661V594H250V410h471V305H250V106h534V0H116z"/><glyph glyph-name="ecaron" unicode="ě" horiz-adv-x="803" d="M627 768L477 609H324L177 768h103l124-96 122 96h101zM411-11q-167 0-261 76.5T56 274q0 129 93.5 206T407 557q159 0 252-73.5T752 287q0-22-5-47H184q11-74 68-114t159-40q178 0 212 93l125-22Q720 73 639 31T411-11zm-3 473q-191 0-221-137h436q-11 66-66 101.5T408 462z"/><glyph glyph-name="Gcircumflex" unicode="Ĝ" horiz-adv-x="1000" d="M616 762l-124 96-123-96H269l149 159h153l148-159H616zM59 349q0 168 118.5 265T505 711q167 0 269.5-57T909 489l-137-29q-45 142-268 142-148 0-226.5-65.5T199 349q0-121 77.5-186T502 98q124 0 195.5 43T786 263H490v100h431V0H820l-12 131Q714-11 487-11q-201 0-314.5 96.5T59 349z"/><glyph glyph-name="gcircumflex" unicode="ĝ" horiz-adv-x="775" d="M499 609l-124 96-123-96H152l149 159h153l148-159H499zm-124-52q151 0 232-52 50 75 152 66l-6-106q-57 9-97-9 20-34 20-74 0-81-79.5-126T375 211q-74 0-131 12-56-10-56-48 0-48 87-49l262-6q214-4 214-142 0-189-380-189Q26-211 26-65q0 91 125 114-40 11-62 37t-22 61q0 76 95 104-89 45-89 131 0 82 80 128.5T375 557zm171-175q0 44-44.5 68T375 474t-127-24-45-68q0-43 44.5-65.5T375 294q171 0 171 88zM159-45q0-42 52.5-60.5T376-124q247 0 247 89 0 57-97 58l-265 2q-102-5-102-70z"/><glyph glyph-name="Gbreve" unicode="Ğ" horiz-adv-x="1000" d="M586 915h99q0-156-191-156-192 0-192 156h99q0-83 93-83 92 0 92 83zM59 349q0 168 118.5 265T505 711q167 0 269.5-57T909 489l-137-29q-45 142-268 142-148 0-226.5-65.5T199 349q0-121 77.5-186T502 98q124 0 195.5 43T786 263H490v100h431V0H820l-12 131Q714-11 487-11q-201 0-314.5 96.5T59 349z"/><glyph glyph-name="gbreve" unicode="ğ" horiz-adv-x="775" d="M469 762h99q0-156-191-156-192 0-192 156h99q0-83 93-83 92 0 92 83zm-94-205q151 0 232-52 50 75 152 66l-6-106q-57 9-97-9 20-34 20-74 0-81-79.5-126T375 211q-74 0-131 12-56-10-56-48 0-48 87-49l262-6q214-4 214-142 0-189-380-189Q26-211 26-65q0 91 125 114-40 11-62 37t-22 61q0 76 95 104-89 45-89 131 0 82 80 128.5T375 557zm171-175q0 44-44.5 68T375 474t-127-24-45-68q0-43 44.5-65.5T375 294q171 0 171 88zM159-45q0-42 52.5-60.5T376-124q247 0 247 89 0 57-97 58l-265 2q-102-5-102-70z"/><glyph glyph-name="Gdotaccent" unicode="Ġ" horiz-adv-x="1000" d="M426 775v129h135V775H426zM59 349q0 168 118.5 265T505 711q167 0 269.5-57T909 489l-137-29q-45 142-268 142-148 0-226.5-65.5T199 349q0-121 77.5-186T502 98q124 0 195.5 43T786 263H490v100h431V0H820l-12 131Q714-11 487-11q-201 0-314.5 96.5T59 349z"/><glyph glyph-name="gdotaccent" unicode="ġ" horiz-adv-x="775" d="M308 622v129h135V622H308zm67-65q151 0 232-52 50 75 152 66l-6-106q-57 9-97-9 20-34 20-74 0-81-79.5-126T375 211q-74 0-131 12-56-10-56-48 0-48 87-49l262-6q214-4 214-142 0-189-380-189Q26-211 26-65q0 91 125 114-40 11-62 37t-22 61q0 76 95 104-89 45-89 131 0 82 80 128.5T375 557zm171-175q0 44-44.5 68T375 474t-127-24-45-68q0-43 44.5-65.5T375 294q171 0 171 88zM159-45q0-42 52.5-60.5T376-124q247 0 247 89 0 57-97 58l-265 2q-102-5-102-70z"/><glyph glyph-name="Gcommaaccent" unicode="Ģ" horiz-adv-x="1000" d="M59 349q0 168 118.5 265T505 711q167 0 269.5-57T909 489l-137-29q-45 142-268 142-148 0-226.5-65.5T199 349q0-121 77.5-186T502 98q124 0 195.5 43T786 263H490v100h431V0H820l-12 131Q714-11 487-11q-201 0-314.5 96.5T59 349zm258-558l89 147h153L419-209H317z"/><glyph glyph-name="gcommaaccent" unicode="ģ" horiz-adv-x="775" d="M562 764L455 609H297l162 155h103zM375 557q151 0 232-52 50 75 152 66l-6-106q-57 9-97-9 20-34 20-74 0-81-79.5-126T375 211q-74 0-131 12-56-10-56-48 0-48 87-49l262-6q214-4 214-142 0-189-380-189Q26-211 26-65q0 91 125 114-40 11-62 37t-22 61q0 76 95 104-89 45-89 131 0 82 80 128.5T375 557zm171-175q0 44-44.5 68T375 474t-127-24-45-68q0-43 44.5-65.5T375 294q171 0 171 88zM159-45q0-42 52.5-60.5T376-124q247 0 247 89 0 57-97 58l-265 2q-102-5-102-70z"/><glyph glyph-name="Hcircumflex" unicode="Ĥ" horiz-adv-x="1022" d="M634 762l-124 96-123-96H287l149 159h153l148-159H634zM116 0v700h137V416h516v284h137V0H769v306H253V0H116z"/><glyph glyph-name="hcircumflex" unicode="ĥ" horiz-adv-x="832" d="M445 812l-124 96-123-96H98l149 159h153l148-159H445zM98 0v750h130V433q42 58 110 91t152 33q119 0 185-62.5T741 323V0H611v297q0 71-42.5 112T448 450q-98 0-159-52.5T228 258V0H98z"/><glyph glyph-name="Hbar" unicode="Ħ" horiz-adv-x="1022" d="M116 0v522H6v72h110v106h137V594h516v106h137V594h110v-72H906V0H769v306H253V0H116zm137 415h516v107H253V415z"/><glyph glyph-name="hbar" unicode="ħ" horiz-adv-x="832" d="M98 0v607H5v72h93v71h130v-71h201v-72H228V421q42 58 110 90.5T490 544q119 0 185-62t66-171V0H611v284q0 72-42.5 112.5T448 437q-98 0-159-52.5T228 245V0H98z"/><glyph glyph-name="Itilde" unicode="Ĩ" horiz-adv-x="369" d="M380 918q18-164-99-164-28 0-55 13.5T181 797t-38.5 29.5T105 840q-43 0-33-75h-84Q-28 930 89 930q34 0 67.5-22t60.5-43.5 46-21.5q43 0 32 75h85zM116 0v700h137V0H116z"/><glyph glyph-name="itilde" unicode="ĩ" d="M359 765q18-164-99-164-28 0-55 13.5T160 644t-38.5 29.5T84 687q-43 0-33-75h-84Q-50 777 68 777q27 0 54-13.5t45-30 38.5-30T242 690q43 0 32 75h85zM98 0v546h130V0H98z"/><glyph glyph-name="Imacron" unicode="Ī" horiz-adv-x="369" d="M-11 782v88h392v-88H-11zM116 0v700h137V0H116z"/><glyph glyph-name="imacron" unicode="ī" d="M-32 629v88h392v-88H-32zM98 0v546h130V0H98z"/><glyph glyph-name="Ibreve" unicode="Ĭ" horiz-adv-x="369" d="M277 915h99q0-156-191-156Q-7 759-7 915h99q0-83 93-83 92 0 92 83zM116 0v700h137V0H116z"/><glyph glyph-name="ibreve" unicode="ĭ" d="M256 762h99q0-156-191-156-192 0-192 156h99q0-83 93-83 92 0 92 83zM98 0v546h130V0H98z"/><glyph glyph-name="Iogonek" unicode="Į" horiz-adv-x="369" d="M27-113q0 77 89 121v692h137V0Q131-28 131-81q0-38 67-38 43 0 94 15l-3-93q-53-17-114-17-71 0-109.5 26T27-113z"/><glyph glyph-name="iogonek" unicode="į" d="M96 622v117h135V622H96zM3-114Q3-34 99 11v535h129V0Q107-28 107-82q0-37 66-37 43 0 95 15l-4-93q-51-17-114-17-71 0-109 26T3-114z"/><glyph glyph-name="Idotaccent" unicode="İ" horiz-adv-x="369" d="M117 775v129h135V775H117zM116 0v700h137V0H116z"/><glyph glyph-name="dotlessi" unicode="ı" d="M98 0v546h130V0H98z"/><glyph glyph-name="IJ" unicode="Ĳ" horiz-adv-x="920" d="M116 0v700h137V0H116zm698 251q0-135-65-198.5T540-11q-66 0-140 13l-5 111q66-11 121-11 88 0 124.5 33.5T677 248v452h137V251z"/><glyph glyph-name="ij" unicode="ĳ" horiz-adv-x="654" d="M96 622v117h135V622H96zm327 0v117h135V622H423zM99 0v546h129V0H99zm326-11v557h130V-4q0-110-48-158.5T355-211q-39 0-84 8l-4 98q37-5 60-5 52 0 75 23t23 76z"/><glyph glyph-name="Jcircumflex" unicode="Ĵ" horiz-adv-x="551" d="M499 762l-124 96-123-96H152l149 159h153l148-159H499zm-54-511q0-135-65-198.5T171-11Q105-11 31 2l-5 111q66-11 121-11 88 0 124.5 33.5T308 248v452h137V251z"/><glyph glyph-name="jcircumflex" unicode="ĵ" d="M286 609l-124 96-123-96H-61L88 768h153l148-159H286zM98-11v557h130V-4q0-110-48-158.5T28-211q-39 0-84 8l-4 98q37-5 60-5 52 0 75 23t23 76z"/><glyph glyph-name="Kcommaaccent" unicode="Ķ" horiz-adv-x="896" d="M116 0v700h135V372l433 328h185L447 380 896 0H699L340 299l-89-68V0H116zm178-209l89 147h153L396-209H294z"/><glyph glyph-name="kcommaaccent" unicode="ķ" horiz-adv-x="742" d="M98 0v750h129V306l318 240h172L390 304 740 0H561L297 234l-70-55V0H98zm132-209l89 147h153L332-209H230z"/><glyph glyph-name="kgreenlandic" unicode="ĸ" horiz-adv-x="742" d="M98 0v546h129V306l318 240h172L390 304 740 0H563L297 234l-70-55V0H98z"/><glyph glyph-name="Lacute" unicode="Ĺ" horiz-adv-x="759" d="M130 762l137 159h168L240 762H130zM116 0v700h137V109h472V0H116z"/><glyph glyph-name="lacute" unicode="ĺ" d="M109 812l137 159h168L219 812H109zM228 0H98v750h130V0z"/><glyph glyph-name="Lcommaaccent" unicode="Ļ" horiz-adv-x="759" d="M116 0v700h137V109h472V0H116zm136-209l89 147h153L354-209H252z"/><glyph glyph-name="lcommaaccent" unicode="ļ" d="M228 0H98v750h130V0zM-4-209L85-62h153L98-209H-4z"/><glyph glyph-name="Lcaron" unicode="Ľ" horiz-adv-x="759" d="M116 0v700h137V109h472V0H116zm297 483v217h129l-43-217h-86z"/><glyph glyph-name="lcaron" unicode="ľ" horiz-adv-x="410" d="M228 0H98v750h130V0zm99 533v217h129l-43-217h-86z"/><glyph glyph-name="Ldot" unicode="Ŀ" horiz-adv-x="759" d="M116 0v700h137V109h472V0H116zm375 315v134h143V315H491z"/><glyph glyph-name="ldot" unicode="ŀ" horiz-adv-x="459" d="M228 0H98v750h130V0zm93 304v134h143V304H321z"/><glyph glyph-name="Lslash" unicode="Ł" horiz-adv-x="772" d="M129 0v291L11 255v87l118 36v322h137V421l193 59v-88l-193-59V109h472V0H129z"/><glyph glyph-name="lslash" unicode="ł" horiz-adv-x="367" d="M248 0H118v308L7 271v79l111 37v363h130V431l112 37v-79l-112-37V0z"/><glyph glyph-name="Nacute" unicode="Ń" horiz-adv-x="1007" d="M451 762l137 159h168L561 762H451zM116 0v700h135l514-549v549h126V0H756L242 547V0H116z"/><glyph glyph-name="nacute" unicode="ń" horiz-adv-x="832" d="M361 609l137 159h168L471 609H361zM98 0v546h116l10-119q41 61 110.5 95.5T490 557q119 0 185-62.5T741 323V0H611v297q0 71-42.5 112T448 450q-98 0-159-52.5T228 258V0H98z"/><glyph glyph-name="Ncommaaccent" unicode="Ņ" horiz-adv-x="1007" d="M116 0v700h135l514-549v549h126V0H756L242 547V0H116zm221-209l89 147h153L439-209H337z"/><glyph glyph-name="ncommaaccent" unicode="ņ" horiz-adv-x="832" d="M98 0v546h116l10-119q41 61 110.5 95.5T490 557q119 0 185-62.5T741 323V0H611v297q0 71-42.5 112T448 450q-98 0-159-52.5T228 258V0H98zm161-209l89 147h153L361-209H259z"/><glyph glyph-name="Ncaron" unicode="Ň" horiz-adv-x="1007" d="M731 921L581 762H428L281 921h103l124-96 122 96h101zM116 0v700h135l514-549v549h126V0H756L242 547V0H116z"/><glyph glyph-name="ncaron" unicode="ň" horiz-adv-x="832" d="M641 768L491 609H338L191 768h103l124-96 122 96h101zM98 0v546h116l10-119q41 61 110.5 95.5T490 557q119 0 185-62.5T741 323V0H611v297q0 71-42.5 112T448 450q-98 0-159-52.5T228 258V0H98z"/><glyph glyph-name="napostrophe" unicode="ŉ" horiz-adv-x="832" d="M99 602l89 147h153L201 602H99zM98 0v546h116l10-119q41 61 110.5 95.5T490 557q119 0 185-62.5T741 323V0H611v297q0 71-42.5 112T448 450q-98 0-159-52.5T228 258V0H98z"/><glyph glyph-name="Eng" unicode="Ŋ" horiz-adv-x="1007" d="M116 0v700h135l514-542v542h126V38q0-134-62-191.5T625-211q-65 0-129 13l-4 102q59-11 114-11 76 0 113 25.5T763 2L242 549V0H116z"/><glyph glyph-name="eng" unicode="ŋ" horiz-adv-x="832" d="M98 0v546h116l10-119q41 61 110.5 95.5T490 557q119 0 185-62.5T741 323V-4q0-110-48-158.5T541-211q-38 0-83 8l-5 98q37-5 60-5 52 0 75 23t23 76v308q0 71-42.5 112T448 450q-98 0-159-52.5T228 258V0H98z"/><glyph glyph-name="Omacron" unicode="Ō" horiz-adv-x="995" d="M301 782v88h392v-88H301zM497-11q-205 0-321.5 97T59 349q0 167 116 264.5T497 711q207 0 323-97.5T936 349q0-166-116-263T497-11zm0 109q147 0 223 66t76 185q0 121-76 187t-223 66q-146 0-222-66t-76-187q0-120 76-185.5T497 98z"/><glyph glyph-name="omacron" unicode="ō" horiz-adv-x="818" d="M213 629v88h392v-88H213zM409-11q-167 0-260 76T56 273t93 208 260 76q168 0 261-76t93-208q0-133-93-208.5T409-11zm0 101q110 0 165.5 47T630 273t-55.5 136T409 456t-165-47-55-136 55.5-136T409 90z"/><glyph glyph-name="Obreve" unicode="Ŏ" horiz-adv-x="995" d="M589 915h99q0-156-191-156-192 0-192 156h99q0-83 93-83 92 0 92 83zM497-11q-205 0-321.5 97T59 349q0 167 116 264.5T497 711q207 0 323-97.5T936 349q0-166-116-263T497-11zm0 109q147 0 223 66t76 185q0 121-76 187t-223 66q-146 0-222-66t-76-187q0-120 76-185.5T497 98z"/><glyph glyph-name="obreve" unicode="ŏ" horiz-adv-x="818" d="M501 762h99q0-156-191-156-192 0-192 156h99q0-83 93-83 92 0 92 83zM409-11q-167 0-260 76T56 273t93 208 260 76q168 0 261-76t93-208q0-133-93-208.5T409-11zm0 101q110 0 165.5 47T630 273t-55.5 136T409 456t-165-47-55-136 55.5-136T409 90z"/><glyph glyph-name="Ohungarumlaut" unicode="Ő" horiz-adv-x="995" d="M330 762l103 159h143L431 762H330zm217 0l103 159h143L647 762H547zM497-11q-205 0-321.5 97T59 349q0 167 116 264.5T497 711q207 0 323-97.5T936 349q0-166-116-263T497-11zm0 109q147 0 223 66t76 185q0 121-76 187t-223 66q-146 0-222-66t-76-187q0-120 76-185.5T497 98z"/><glyph glyph-name="ohungarumlaut" unicode="ő" horiz-adv-x="818" d="M238 609l103 159h143L339 609H238zm217 0l103 159h143L555 609H455zM409-11q-167 0-260 76T56 273t93 208 260 76q168 0 261-76t93-208q0-133-93-208.5T409-11zm0 101q110 0 165.5 47T630 273t-55.5 136T409 456t-165-47-55-136 55.5-136T409 90z"/><glyph glyph-name="OE" unicode="Œ" horiz-adv-x="1400" d="M59 349q0 162 118.5 256.5T506 700h830V594H837V410h444V306H837V106h507V0H506Q296 0 177.5 93.5T59 349zm447-244h196v489H506q-150 0-228.5-63.5T199 349q0-117 78.5-180.5T506 105z"/><glyph glyph-name="oe" unicode="œ" horiz-adv-x="1359" d="M403-11q-164 0-255.5 76T56 273t91.5 208T403 557q199 0 288-115 88 115 281 115 154 0 245-73.5t91-196.5q0-22-5-47H757Q778 86 977 86q170 0 202 93l125-22q-28-85-107.5-126.5T977-11q-196 0-286 115Q602-11 403-11zm569 473q-184 0-212-137h420q-12 66-67.5 101.5T972 462zM403 89q107 0 161 47.5T618 273t-54 136-161 47q-106 0-160-47t-54-136 54-136.5T403 89z"/><glyph glyph-name="Racute" unicode="Ŕ" horiz-adv-x="905" d="M397 762l137 159h168L507 762H397zM116 0v700h461q123 0 189-58t66-162q0-94-59-150.5T607 266L854 0H683L446 257H253V0H116zm438 594H253V363h301q68 0 104.5 29.5T695 478q0 116-141 116z"/><glyph glyph-name="racute" unicode="ŕ" horiz-adv-x="546" d="M230 609l137 159h168L340 609H230zM98 0v546h117l10-140q43 69 115 109.5T497 556q20 0 26-1l-4-132q-21 6-54 6-104 0-170-55t-67-156V0H98z"/><glyph glyph-name="Rcommaaccent" unicode="Ŗ" horiz-adv-x="905" d="M116 0v700h461q123 0 189-58t66-162q0-94-59-150.5T607 266L854 0H683L446 257H253V0H116zm438 594H253V363h301q68 0 104.5 29.5T695 478q0 116-141 116zM290-209l89 147h153L392-209H290z"/><glyph glyph-name="rcommaaccent" unicode="ŗ" horiz-adv-x="546" d="M98 0v546h117l10-140q43 69 115 109.5T497 556q20 0 26-1l-4-132q-21 6-54 6-104 0-170-55t-67-156V0H98zM-4-209L85-62h153L98-209H-4z"/><glyph glyph-name="Rcaron" unicode="Ř" horiz-adv-x="905" d="M677 921L527 762H374L227 921h103l124-96 122 96h101zM116 0v700h461q123 0 189-58t66-162q0-94-59-150.5T607 266L854 0H683L446 257H253V0H116zm438 594H253V363h301q68 0 104.5 29.5T695 478q0 116-141 116z"/><glyph glyph-name="rcaron" unicode="ř" horiz-adv-x="546" d="M518 768L368 609H215L68 768h103l124-96 122 96h101zM98 0v546h117l10-140q43 69 115 109.5T497 556q20 0 26-1l-4-132q-21 6-54 6-104 0-170-55t-67-156V0H98z"/><glyph glyph-name="Sacute" unicode="Ś" horiz-adv-x="887" d="M384 762l137 159h168L494 762H384zM48 213l139 21Q215 95 451 95q243 0 243 99 0 46-38 66.5T520 292l-184 13q-133 14-199 60T71 498q0 100 94.5 156.5T435 711q335 0 381-211l-139-20q-15 64-74 94.5T433 605q-223 0-223-95 0-44 38.5-63.5T380 417l188-14q136-15 200.5-60.5T833 207q0-106-97.5-162T449-11Q92-11 48 213z"/><glyph glyph-name="sacute" unicode="ś" horiz-adv-x="734" d="M305 609l137 159h168L415 609H305zm54-144q-175 0-175-67 0-31 28.5-45.5T315 332l134-8q127-11 182-47.5T686 167q0-85-81-131.5T368-11q-150 0-227.5 42.5T41 166l124 18Q184 81 366 81q193 0 193 72 0 34-27.5 49T433 223l-135 8q-125 10-181.5 47.5T60 388q0 79 78.5 124T359 557t218.5-40.5T673 390l-121-18q-10 48-56 70.5T359 465z"/><glyph glyph-name="Scircumflex" unicode="Ŝ" horiz-adv-x="887" d="M561 762l-124 96-123-96H214l149 159h153l148-159H561zM48 213l139 21Q215 95 451 95q243 0 243 99 0 46-38 66.5T520 292l-184 13q-133 14-199 60T71 498q0 100 94.5 156.5T435 711q335 0 381-211l-139-20q-15 64-74 94.5T433 605q-223 0-223-95 0-44 38.5-63.5T380 417l188-14q136-15 200.5-60.5T833 207q0-106-97.5-162T449-11Q92-11 48 213z"/><glyph glyph-name="scircumflex" unicode="ŝ" horiz-adv-x="734" d="M487 609l-124 96-123-96H140l149 159h153l148-159H487zM359 465q-175 0-175-67 0-31 28.5-45.5T315 332l134-8q127-11 182-47.5T686 167q0-85-81-131.5T368-11q-150 0-227.5 42.5T41 166l124 18Q184 81 366 81q193 0 193 72 0 34-27.5 49T433 223l-135 8q-125 10-181.5 47.5T60 388q0 79 78.5 124T359 557t218.5-40.5T673 390l-121-18q-10 48-56 70.5T359 465z"/><glyph glyph-name="Scedilla" unicode="Ş" horiz-adv-x="887" d="M48 213l139 21Q215 95 451 95q243 0 243 99 0 46-38 66.5T520 292l-184 13q-133 14-199 60T71 498q0 100 94.5 156.5T435 711q335 0 381-211l-139-20q-15 64-74 94.5T433 605q-223 0-223-95 0-44 38.5-63.5T380 417l188-14q136-15 200.5-60.5T833 207q0-101-88.5-157T483-10l-6-41q30 9 59 9 54 0 82.5-21t28.5-59q0-91-171-91-70 0-143 15l4 60q73-14 122-14 82 0 82 31 0 26-41 26-27 0-49-13l-65 9 14 89Q89 5 48 213z"/><glyph glyph-name="scedilla" unicode="ş" horiz-adv-x="734" d="M359 465q-175 0-175-67 0-31 28.5-45.5T315 332l134-8q127-11 182-47.5T686 167q0-81-74-127.5T396-11l-6-40q30 9 59 9 54 0 82.5-21t28.5-59q0-91-171-91-69 0-143 15l4 60q73-14 122-14 82 0 82 31 0 26-41 26-27 0-49-13l-65 9 14 90Q191-2 126 40.5T41 166l124 18Q184 81 366 81q193 0 193 72 0 34-27.5 49T433 223l-135 8q-125 10-181.5 47.5T60 388q0 79 78.5 124T359 557t218.5-40.5T673 390l-121-18q-10 48-56 70.5T359 465z"/><glyph glyph-name="Scaron" unicode="Š" horiz-adv-x="887" d="M664 921L514 762H361L214 921h103l124-96 122 96h101zM48 213l139 21Q215 95 451 95q243 0 243 99 0 46-38 66.5T520 292l-184 13q-133 14-199 60T71 498q0 100 94.5 156.5T435 711q335 0 381-211l-139-20q-15 64-74 94.5T433 605q-223 0-223-95 0-44 38.5-63.5T380 417l188-14q136-15 200.5-60.5T833 207q0-106-97.5-162T449-11Q92-11 48 213z"/><glyph glyph-name="scaron" unicode="š" horiz-adv-x="734" d="M590 768L440 609H287L140 768h103l124-96 122 96h101zM359 465q-175 0-175-67 0-31 28.5-45.5T315 332l134-8q127-11 182-47.5T686 167q0-85-81-131.5T368-11q-150 0-227.5 42.5T41 166l124 18Q184 81 366 81q193 0 193 72 0 34-27.5 49T433 223l-135 8q-125 10-181.5 47.5T60 388q0 79 78.5 124T359 557t218.5-40.5T673 390l-121-18q-10 48-56 70.5T359 465z"/><glyph glyph-name="uni0162" unicode="Ţ" horiz-adv-x="829" d="M345 0v591H27v109h775V591H482V0H345zm-99-209l89 147h153L348-209H246z"/><glyph glyph-name="uni0163" unicode="ţ" horiz-adv-x="553" d="M127 193v255H12v98h75q23 0 33.5 2.5t19 18.5 11.5 41 6 78h101V546h253v-98H258V208q0-65 29-91t102-26q62 0 130 14L515 5q-80-16-159-16-118 0-173.5 47T127 193zm10-402l89 147h153L239-209H137z"/><glyph glyph-name="Tcaron" unicode="Ť" horiz-adv-x="829" d="M639 921L489 762H336L189 921h103l124-96 122 96h101zM345 0v591H27v109h775V591H482V0H345z"/><glyph glyph-name="tcaron" unicode="ť" horiz-adv-x="553" d="M324 605v217h129l-43-217h-86zM127 193v255H12v98h75q23 0 33.5 2.5t19 18.5 11.5 41 6 78h101V546h253v-98H258V208q0-65 29-91t102-26q62 0 130 14L515 5q-80-16-159-16-118 0-173.5 47T127 193z"/><glyph glyph-name="Tbar" unicode="Ŧ" horiz-adv-x="829" d="M345 0v303H173v71h172v217H27v109h775V591H482V374h171v-71H482V0H345z"/><glyph glyph-name="tbar" unicode="ŧ" horiz-adv-x="553" d="M127 193v50H25v71h102v134H12v98h75q23 0 33.5 2.5t19 18.5 11.5 41 6 78h101V546h253v-98H258V314h198v-71H258v-35q0-65 29-91t102-26q62 0 130 14L515 5q-80-16-159-16-118 0-173.5 47T127 193z"/><glyph glyph-name="Utilde" unicode="Ũ" horiz-adv-x="955" d="M672 918q18-164-99-164-28 0-55 13.5T473 797t-38.5 29.5T397 840q-43 0-33-75h-84q-16 165 101 165 34 0 67.5-22t60.5-43.5 46-21.5q43 0 32 75h85zm186-611q0-152-100-235T477-11q-180 0-280 83T97 307v393h137V308q0-103 62.5-156.5T477 98q119 0 181.5 53.5T721 308v392h137V307z"/><glyph glyph-name="utilde" unicode="ũ" horiz-adv-x="813" d="M601 765q18-164-99-164-28 0-55 13.5T402 644t-38.5 29.5T326 687q-43 0-33-75h-84q-17 165 101 165 27 0 54-13.5t45-30 38.5-30T484 690q43 0 32 75h85zm-16-476v257h130V0H599l-10 116q-40-60-106.5-93.5T334-11q-114 0-180 60T88 220v326h130V241q0-71 41-107.5T372 97q93 0 153.5 51T585 289z"/><glyph glyph-name="Umacron" unicode="Ū" horiz-adv-x="955" d="M281 782v88h392v-88H281zm577-475q0-152-100-235T477-11q-180 0-280 83T97 307v393h137V308q0-103 62.5-156.5T477 98q119 0 181.5 53.5T721 308v392h137V307z"/><glyph glyph-name="umacron" unicode="ū" horiz-adv-x="813" d="M210 629v88h392v-88H210zm375-340v257h130V0H599l-10 116q-40-60-106.5-93.5T334-11q-114 0-180 60T88 220v326h130V241q0-71 41-107.5T372 97q93 0 153.5 51T585 289z"/><glyph glyph-name="Ubreve" unicode="Ŭ" horiz-adv-x="955" d="M569 915h99q0-156-191-156-192 0-192 156h99q0-83 93-83 92 0 92 83zm289-608q0-152-100-235T477-11q-180 0-280 83T97 307v393h137V308q0-103 62.5-156.5T477 98q119 0 181.5 53.5T721 308v392h137V307z"/><glyph glyph-name="ubreve" unicode="ŭ" horiz-adv-x="813" d="M498 762h99q0-156-191-156-192 0-192 156h99q0-83 93-83 92 0 92 83zm87-473v257h130V0H599l-10 116q-40-60-106.5-93.5T334-11q-114 0-180 60T88 220v326h130V241q0-71 41-107.5T372 97q93 0 153.5 51T585 289z"/><glyph glyph-name="Uring" unicode="Ů" horiz-adv-x="955" d="M478 747q-68 0-107.5 30T331 859q0 50 39.5 80T478 969q67 0 105.5-29.5T622 859q0-52-38.5-82T478 747zm0 56q76 0 76 56 0 53-76 53-78 0-78-53 0-56 78-56zm380-496q0-152-100-235T477-11q-180 0-280 83T97 307v393h137V308q0-103 62.5-156.5T477 98q119 0 181.5 53.5T721 308v392h137V307z"/><glyph glyph-name="uring" unicode="ů" horiz-adv-x="813" d="M407 594q-68 0-107.5 30T260 706q0 50 39.5 80T407 816q67 0 105.5-29.5T551 706q0-52-38.5-82T407 594zm0 56q76 0 76 56 0 53-76 53-78 0-78-53 0-56 78-56zm178-361v257h130V0H599l-10 116q-40-60-106.5-93.5T334-11q-114 0-180 60T88 220v326h130V241q0-71 41-107.5T372 97q93 0 153.5 51T585 289z"/><glyph glyph-name="Uhungarumlaut" unicode="Ű" horiz-adv-x="955" d="M309 762l103 159h143L410 762H309zm217 0l103 159h143L626 762H526zm332-455q0-152-100-235T477-11q-180 0-280 83T97 307v393h137V308q0-103 62.5-156.5T477 98q119 0 181.5 53.5T721 308v392h137V307z"/><glyph glyph-name="uhungarumlaut" unicode="ű" horiz-adv-x="813" d="M235 609l103 159h143L336 609H235zm217 0l103 159h143L552 609H452zm133-320v257h130V0H599l-10 116q-40-60-106.5-93.5T334-11q-114 0-180 60T88 220v326h130V241q0-71 41-107.5T372 97q93 0 153.5 51T585 289z"/><glyph glyph-name="Uogonek" unicode="Ų" horiz-adv-x="955" d="M516-214q-69 0-105.5 26T374-115q0 65 72 105-166 7-257.5 89.5T97 307v393h137V308q0-103 62.5-156.5T477 98q119 0 181.5 53.5T721 308v392h137V307q0-201-174-278-32-15-92.5-36.5t-87-36.5T478-81q0-38 60-38 42 0 92 15l-3-93q-49-17-111-17z"/><glyph glyph-name="uogonek" unicode="ų" horiz-adv-x="813" d="M460-114q0 91 137 134l-8 96q-40-60-106.5-93.5T334-11q-114 0-180 60T88 220v326h130V241q0-71 41-107.5T372 97q93 0 153.5 51T585 289v257h130V0h-1Q564-28 564-81q0-38 61-38 41 0 91 15l-3-93q-49-17-109-17-144 0-144 100z"/><glyph glyph-name="Wcircumflex" unicode="Ŵ" horiz-adv-x="1280" d="M762 762l-124 96-123-96H415l149 159h153l148-159H762zM284 0L15 700h146l196-543 216 543h134l218-541 196 541h144L995 0H860L638 547 416 0H284z"/><glyph glyph-name="wcircumflex" unicode="ŵ" horiz-adv-x="1060" d="M652 609l-124 96-123-96H305l149 159h153l148-159H652zM243 0L13 546h135l159-402 170 402h109l174-400 158 400h129L816 0H709L531 413 351 0H243z"/><glyph glyph-name="Ycircumflex" unicode="Ŷ" horiz-adv-x="819" d="M532 762l-124 96-123-96H185l149 159h153l148-159H532zM340 0v279L6 700h168l238-307 241 307h161L477 276V0H340z"/><glyph glyph-name="ycircumflex" unicode="ŷ" horiz-adv-x="700" d="M472 609l-124 96-123-96H125l149 159h153l148-159H472zm82-63h136L404-27q-53-103-106.5-143.5T156-211q-50 0-89 12l-5 98q32-7 69-7 61 0 94.5 24.5T295 13L10 546h144l207-409z"/><glyph glyph-name="Ydieresis" unicode="Ÿ" horiz-adv-x="819" d="M465 775v122h138V775H465zm-249 0v122h138V775H216zM340 0v279L6 700h168l238-307 241 307h161L477 276V0H340z"/><glyph glyph-name="Zacute" unicode="Ź" horiz-adv-x="816" d="M346 762l137 159h168L456 762H346zM51 0v104l526 488H54v108h712V599L236 108h530V0H51z"/><glyph glyph-name="zacute" unicode="ź" horiz-adv-x="684" d="M287 609l137 159h168L397 609H287zM49 0v97l419 352H55v97h582v-97L218 97h421V0H49z"/><glyph glyph-name="Zdotaccent" unicode="Ż" horiz-adv-x="816" d="M340 775v129h135V775H340zM51 0v104l526 488H54v108h712V599L236 108h530V0H51z"/><glyph glyph-name="zdotaccent" unicode="ż" horiz-adv-x="684" d="M276 622v129h135V622H276zM49 0v97l419 352H55v97h582v-97L218 97h421V0H49z"/><glyph glyph-name="Zcaron" unicode="Ž" horiz-adv-x="816" d="M633 921L483 762H330L183 921h103l124-96 122 96h101zM51 0v104l526 488H54v108h712V599L236 108h530V0H51z"/><glyph glyph-name="zcaron" unicode="ž" horiz-adv-x="684" d="M569 768L419 609H266L119 768h103l124-96 122 96h101zM49 0v97l419 352H55v97h582v-97L218 97h421V0H49z"/><glyph glyph-name="uni0191" unicode="Ƒ" horiz-adv-x="821" d="M116 700h661V591H253V382h468V273H253V48q0-259-252-259-51 0-119 13l-5 111q53-11 95-11 77 0 110.5 33T116 48v652z"/><glyph glyph-name="uni0192" unicode="ƒ" horiz-adv-x="519" d="M136-11v459H17v98h119v12q0 203 243 203 67 0 132-13l-4-96q-50 10-111 10-69 0-99.5-24T266 558v-12h243v-98H266V-4q0-110-48-158.5T66-211q-42 0-84 8l-4 98q37-5 60-5 52 0 75 23t23 76z"/><glyph glyph-name="uni0218" unicode="Ș" horiz-adv-x="887" d="M48 213l139 21Q215 95 451 95q243 0 243 99 0 46-38 66.5T520 292l-184 13q-133 14-199 60T71 498q0 100 94.5 156.5T435 711q335 0 381-211l-139-20q-15 64-74 94.5T433 605q-223 0-223-95 0-44 38.5-63.5T380 417l188-14q136-15 200.5-60.5T833 207q0-106-97.5-162T449-11Q92-11 48 213zm230-422l89 147h153L380-209H278z"/><glyph glyph-name="uni0219" unicode="ș" horiz-adv-x="734" d="M359 465q-175 0-175-67 0-31 28.5-45.5T315 332l134-8q127-11 182-47.5T686 167q0-85-81-131.5T368-11q-150 0-227.5 42.5T41 166l124 18Q184 81 366 81q193 0 193 72 0 34-27.5 49T433 223l-135 8q-125 10-181.5 47.5T60 388q0 79 78.5 124T359 557t218.5-40.5T673 390l-121-18q-10 48-56 70.5T359 465zM210-209l89 147h153L312-209H210z"/><glyph glyph-name="uni021A" unicode="Ț" horiz-adv-x="829" d="M345 0v591H27v109h775V591H482V0H345zm-99-209l89 147h153L348-209H246z"/><glyph glyph-name="uni021B" unicode="ț" horiz-adv-x="553" d="M127 193v255H12v98h75q23 0 33.5 2.5t19 18.5 11.5 41 6 78h101V546h253v-98H258V208q0-65 29-91t102-26q62 0 130 14L515 5q-80-16-159-16-118 0-173.5 47T127 193zm10-402l89 147h153L239-209H137z"/><glyph glyph-name="dotlessj" unicode="ȷ" d="M98-11v557h130V-4q0-110-48-158.5T28-211q-39 0-84 8l-4 98q37-5 60-5 52 0 75 23t23 76z"/><glyph glyph-name="uni02BC" unicode="ʼ" horiz-adv-x="322" d="M89 700h141V571q0-92-36-130.5T71 401l-6 73q51 0 68 17.5t17 69.5v9H89v130z"/><glyph glyph-name="circumflex" unicode="ˆ" horiz-adv-x="500" d="M372 609l-124 96-123-96H25l149 159h153l148-159H372z"/><glyph glyph-name="caron" unicode="ˇ" horiz-adv-x="500" d="M475 768L325 609H172L25 768h103l124-96 122 96h101z"/><glyph glyph-name="breve" unicode="˘" horiz-adv-x="500" d="M342 762h99q0-156-191-156-192 0-192 156h99q0-83 93-83 92 0 92 83z"/><glyph glyph-name="dotaccent" unicode="˙" horiz-adv-x="500" d="M182 622v129h135V622H182z"/><glyph glyph-name="ring" unicode="˚" horiz-adv-x="500" d="M251 594q-68 0-107.5 30T104 706q0 50 39.5 80T251 816q67 0 105.5-29.5T395 706q0-52-38.5-82T251 594zm0 56q76 0 76 56 0 53-76 53-78 0-78-53 0-56 78-56z"/><glyph glyph-name="ogonek" unicode="˛" horiz-adv-x="500" d="M206-114q0 53 47 90.5T410 38l50-38Q310-28 310-81q0-38 61-38 41 0 91 15l-3-93q-49-17-109-17-144 0-144 100z"/><glyph glyph-name="tilde" unicode="˜" horiz-adv-x="500" d="M445 765q18-164-99-164-28 0-55 13.5T246 644t-38.5 29.5T170 687q-43 0-33-75H53Q36 777 154 777q27 0 54-13.5t45-30 38.5-30T328 690q43 0 32 75h85z"/><glyph glyph-name="hungarumlaut" unicode="˝" horiz-adv-x="500" d="M79 609l103 159h143L180 609H79zm217 0l103 159h143L396 609H296z"/><glyph glyph-name="pi" unicode="π" horiz-adv-x="867" d="M24 450v96h819v-96H741V0H609v450H256V0H124v450H24z"/><glyph glyph-name="uni0400" unicode="Ѐ" horiz-adv-x="840" d="M506 764H396L201 923h169zM116 0v700h661V594H250V410h471V305H250V106h534V0H116z"/><glyph glyph-name="afii10023" unicode="Ё" horiz-adv-x="840" d="M502 767v122h138V767H502zm-249 0v122h138V767H253zM116 0v700h661V594H250V410h471V305H250V106h534V0H116z"/><glyph glyph-name="afii10051" unicode="Ђ" horiz-adv-x="1120" d="M345 0v591H27v109h775V591H482V333q96 124 293 124 123 0 193-59t70-161v-35q0-213-257-213-63 0-118 12l-4 96q55-10 101-10 141 0 141 114v28q0 59-43.5 93T734 356q-106 0-179-55t-73-138V0H345z"/><glyph glyph-name="afii10052" unicode="Ѓ" horiz-adv-x="772" d="M359 775l137 159h168L469 775H359zM116 0v700h627V591H253V0H116z"/><glyph glyph-name="afii10053" unicode="Є" horiz-adv-x="945" d="M59 350q0 165 116.5 263T491 711q168 0 271-61.5T896 471l-142-28q-42 159-263 159-124 0-197-51t-90-145h439V305H202q14-100 88-153.5T491 98q233 0 266 164l140-27Q869 115 765 52T491-11q-204 0-318 97T59 350z"/><glyph glyph-name="afii10054" unicode="Ѕ" horiz-adv-x="887" d="M48 213l139 21Q215 95 451 95q243 0 243 99 0 46-38 66.5T520 292l-184 13q-133 14-199 60T71 498q0 100 94.5 156.5T435 711q335 0 381-211l-139-20q-15 64-74 94.5T433 605q-223 0-223-95 0-44 38.5-63.5T380 417l188-14q136-15 200.5-60.5T833 207q0-106-97.5-162T449-11Q92-11 48 213z"/><glyph glyph-name="afii10055" unicode="І" horiz-adv-x="369" d="M116 0v700h137V0H116z"/><glyph glyph-name="afii10056" unicode="Ї" horiz-adv-x="369" d="M240 775v122h138V775H240zm-249 0v122h138V775H-9zM116 0v700h137V0H116z"/><glyph glyph-name="afii10057" unicode="Ј" horiz-adv-x="551" d="M445 251q0-135-65-198.5T171-11Q105-11 31 2l-5 111q66-11 121-11 88 0 124.5 33.5T308 248v452h137V251z"/><glyph glyph-name="afii10058" unicode="Љ" horiz-adv-x="1480" d="M9 105q81 8 113 53 29 38 38.5 122.5T175 579l3 121h670V466h326q121 0 192.5-63t71.5-170-71.5-170T1174 0H711v591H311l-1-27q-6-237-23.5-338T223 70q-34-41-81-59T20-9zm1147 255H848V106h308q67 0 105 33t38 94q0 62-37.5 94.5T1156 360z"/><glyph glyph-name="afii10059" unicode="Њ" horiz-adv-x="1557" d="M116 0v700h137V430h519v270h137V430h350q117 0 186.5-58t69.5-156q0-99-69-157.5T1259 0H772v321H253V0H116zm1128 324H909V106h335q63 0 98 28.5t35 81.5q0 52-35 80t-98 28z"/><glyph glyph-name="afii10060" unicode="Ћ" horiz-adv-x="1093" d="M340 0v591H22v109h775V591H477V333q91 118 268 118 125 0 192-62t67-169V0H868v186q0 76-42.5 117.5T701 345q-101 0-162.5-54T477 149V0H340z"/><glyph glyph-name="afii10061" unicode="Ќ" horiz-adv-x="893" d="M394 765l137 159h168L504 765H394zM116 0v700h135V370l437 330h188L424 367 892 0H694L251 346V0H116z"/><glyph glyph-name="uni040D" unicode="Ѝ" horiz-adv-x="1010" d="M568 765H458L263 924h169zM116 0v700h132V171l514 529h132V0H762v529L248 0H116z"/><glyph glyph-name="afii10062" unicode="Ў" horiz-adv-x="847" d="M554 930h122q0-90-67-142.5T428 735q-113 0-179.5 52.5T182 930h121q0-47 34-74.5t91-27.5q58 0 92 27.5t34 74.5zM242 0l120 189L11 700h158l269-394 249 394h151L396 0H242z"/><glyph glyph-name="afii10145" unicode="Џ" horiz-adv-x="979" d="M116 0v700h137V108h474v592h137V0H555v-164H425V0H116z"/><glyph glyph-name="afii10017" unicode="А" horiz-adv-x="916" d="M756 0l-88 167H242L154 0H10l377 700h140L905 0H756zM297 272h315L455 570z"/><glyph glyph-name="afii10018" unicode="Б" horiz-adv-x="907" d="M116 0v700h678V593H248V425h358q111 0 175.5-57.5T846 211q0-98-64-154.5T607 0H116zm473 321H248V103h341q59 0 90.5 28t31.5 80q0 53-32.5 81.5T589 321z"/><glyph glyph-name="afii10019" unicode="В" horiz-adv-x="936" d="M116 0v700h494q108 0 169.5-47T841 522q0-55-30.5-97.5T721 362q73-18 112-62.5T872 190q0-90-64.5-140T625 0H116zm469 599H250V405h336q55 0 87.5 26t32.5 73q0 46-31 70.5T585 599zm13-296H250V101h351q130 0 130 99 0 50-35 76.5T598 303z"/><glyph glyph-name="afii10020" unicode="Г" horiz-adv-x="772" d="M116 0v700h627V591H253V0H116z"/><glyph glyph-name="afii10021" unicode="Д" horiz-adv-x="963" d="M10-167v275h69q36 33 56 77t32.5 135.5T183 567l4 133h647V108h97v-275H801V0H140v-167H10zm263 370q-18-54-55-95h481v483H315l-1-22q-6-262-41-366z"/><glyph glyph-name="afii10022" unicode="Е" horiz-adv-x="840" d="M116 0v700h661V594H250V410h471V305H250V106h534V0H116z"/><glyph glyph-name="afii10024" unicode="Ж" horiz-adv-x="1199" d="M532 0v349L175 0H1l380 367L14 700h170l348-328v328h135V377l350 323h170L819 372 1198 0h-176L667 352V0H532z"/><glyph glyph-name="afii10025" unicode="З" horiz-adv-x="898" d="M836 198q0-102-102-155.5T441-11Q88-11 54 211l140 26q9-74 68.5-110.5T440 90q247 0 247 114 0 103-180 103H301v101h201q172 0 172 99 0 103-233 103-216 0-242-137L67 500q45 211 374 211 185 0 281-49t96-143q0-114-142-155 160-34 160-166z"/><glyph glyph-name="afii10026" unicode="И" horiz-adv-x="1010" d="M116 0v700h132V171l514 529h132V0H762v529L248 0H116z"/><glyph glyph-name="afii10027" unicode="Й" horiz-adv-x="1010" d="M637 929h122q0-90-67-142.5T511 734q-113 0-179.5 52.5T265 929h121q0-47 34-74.5t91-27.5q58 0 92 27.5t34 74.5zM116 0v700h132V171l514 529h132V0H762v529L248 0H116z"/><glyph glyph-name="afii10028" unicode="К" horiz-adv-x="893" d="M116 0v700h135V370l437 330h188L424 367 892 0H694L251 346V0H116z"/><glyph glyph-name="afii10029" unicode="Л" horiz-adv-x="964" d="M9 105q81 8 113 53 29 38 38.5 122.5T175 579l3 121h669V0H711v591H311l-1-27q-6-237-23.5-338T223 70q-34-41-81-59T20-9z"/><glyph glyph-name="afii10030" unicode="М" horiz-adv-x="1182" d="M116 0v700h146l331-463 328 463h145V0H938v530L651 119H532L244 525V0H116z"/><glyph glyph-name="afii10031" unicode="Н" horiz-adv-x="1022" d="M116 0v700h137V416h516v284h137V0H769v306H253V0H116z"/><glyph glyph-name="afii10032" unicode="О" horiz-adv-x="995" d="M497-11q-205 0-321.5 97T59 349q0 167 116 264.5T497 711q207 0 323-97.5T936 349q0-166-116-263T497-11zm0 109q147 0 223 66t76 185q0 121-76 187t-223 66q-146 0-222-66t-76-187q0-120 76-185.5T497 98z"/><glyph glyph-name="afii10033" unicode="П" horiz-adv-x="1012" d="M116 0v700h780V0H759v591H253V0H116z"/><glyph glyph-name="afii10034" unicode="Р" horiz-adv-x="880" d="M116 0v700h445q126 0 199.5-66T834 455q0-111-74.5-176T556 214H253V0H116zm420 592H253V322h283q77 0 118 34t41 99q0 66-41 101.5T536 592z"/><glyph glyph-name="afii10035" unicode="С" horiz-adv-x="945" d="M59 350q0 165 116.5 263T491 711q168 0 271-61.5T896 471l-142-28q-42 159-263 159-141 0-216.5-66T199 350q0-121 75-186.5T491 98q233 0 266 164l140-27Q869 115 765 52T491-11q-204 0-318 97T59 350z"/><glyph glyph-name="afii10036" unicode="Т" horiz-adv-x="829" d="M345 0v591H27v109h775V591H482V0H345z"/><glyph glyph-name="afii10037" unicode="У" horiz-adv-x="847" d="M242 0l120 189L11 700h158l269-394 249 394h151L396 0H242z"/><glyph glyph-name="afii10038" unicode="Ф" horiz-adv-x="1064" d="M462-25v97h-29q-181 0-284.5 75.5T45 356t104.5 210T433 643h29v81h138v-81h31q180 0 284-77t104-210-103.5-208.5T631 72h-31v-97H462zm425 381q0 89-65.5 136.5T633 540h-36V175h36q123 0 188.5 47T887 356zm-711 0q0-87 66-134t189-47h33v365h-33q-123 0-189-47.5T176 356z"/><glyph glyph-name="afii10039" unicode="Х" horiz-adv-x="827" d="M177 0H14l310 358L20 700h170l228-261 224 261h163L499 353 812 0H643L407 270z"/><glyph glyph-name="afii10040" unicode="Ц" horiz-adv-x="993" d="M116 0v700h137V108h483v592h137V108h92v-275H834V0H116z"/><glyph glyph-name="afii10041" unicode="Ч" horiz-adv-x="930" d="M85 483v217h136V509q0-86 50.5-122T429 351q110 0 249 43v306h136V0H678v288q-143-53-283-53-156 0-233 60T85 483z"/><glyph glyph-name="afii10042" unicode="Ш" horiz-adv-x="1345" d="M116 0v700h137V109h351v591h137V109h351v591h136V0H116z"/><glyph glyph-name="afii10043" unicode="Щ" horiz-adv-x="1348" d="M116 0v700h137V109h351v591h137V109h351v591h136V109h92v-276h-130V0H116z"/><glyph glyph-name="afii10044" unicode="Ъ" horiz-adv-x="996" d="M249 0v593H10v107h373V466h308q122 0 193.5-63T956 233 884.5 63 691 0H249zm424 360H383V106h290q68 0 105.5 33t37.5 94q0 62-37.5 94.5T673 360z"/><glyph glyph-name="afii10045" unicode="Ы" horiz-adv-x="1194" d="M941 1v700h137V1H941zM116 0v700h137V466h326q121 0 192.5-63T843 233 771.5 63 579 0H116zm445 360H253V106h308q67 0 105 33t38 94q0 62-37.5 94.5T561 360z"/><glyph glyph-name="afii10046" unicode="Ь" horiz-adv-x="885" d="M116 0v700h137V466h326q121 0 192.5-63T843 233 771.5 63 579 0H116zm445 360H253V106h308q67 0 105 33t38 94q0 62-37.5 94.5T561 360z"/><glyph glyph-name="afii10047" unicode="Э" horiz-adv-x="944" d="M189 449L53 477q32 114 136 174t272 60q194 0 308.5-97T884 350 771 86 458-11q-173 0-278.5 62T47 233l139 27Q219 95 458 95q126 0 199 54.5T743 305H317v101h425q-17 97-88.5 148T461 605q-229 0-272-156z"/><glyph glyph-name="afii10048" unicode="Ю" horiz-adv-x="1312" d="M116 0v700h137V413h128q21 139 134.5 218.5T815 711q206 0 322-97.5T1253 349q0-166-116-263T815-11q-192 0-307 84.5T378 306H253V0H116zm699 98q145 0 221 65.5t76 185.5q0 121-76 187t-221 66q-147 0-222.5-66T517 349q0-120 75.5-185.5T815 98z"/><glyph glyph-name="afii10049" unicode="Я" horiz-adv-x="910" d="M794 0H657v251H469L223 0H57l252 256q-110 7-174 66T71 475q0 103 70 164t188 61h465V0zM352 354h305v242H352q-67 0-103.5-31.5T212 475t36.5-89.5T352 354z"/><glyph glyph-name="afii10065" unicode="а" horiz-adv-x="760" d="M57 384q42 173 311 173 156 0 228-51t72-159V132q0-46 42-46 8 0 22 2l-3-88q-30-9-62-9-116 0-119 111-44-53-118.5-83T265-11Q156-11 95.5 31.5T35 150t57.5 117T273 317l273 19v1q0 66-42.5 95.5T366 462q-168 0-183-98zm104-227q0-74 127-74 108 0 184 44.5T548 239v15l-273-20q-114-9-114-77z"/><glyph glyph-name="afii10066" unicode="б" horiz-adv-x="833" d="M422-11q-176 0-265.5 83T67 310v34q0 203 87.5 296.5T438 743l168 7q67 3 116 14l10-99q-50-15-124-18l-170-6q-127-5-185-56.5T185 410q39 58 113 89.5T469 531q149 0 228.5-70.5T777 263q0-126-95-200T422-11zm1 101q110 0 165.5 45T644 264q0 174-214 174-108 0-168-45t-60-126q0-84 55.5-130.5T423 90z"/><glyph glyph-name="afii10067" unicode="в" horiz-adv-x="786" d="M98 0v546h426q87 0 136-36.5T709 407q0-95-103-124 62-13 95.5-48.5T735 145q0-69-52-107T537 0H98zm392 458H224V321h266q90 0 90 71 0 66-90 66zm11-222H224V87h280q98 0 98 73 0 76-101 76z"/><glyph glyph-name="afii10068" unicode="г" horiz-adv-x="625" d="M98 0v546h511V444H228V0H98z"/><glyph glyph-name="afii10069" unicode="д" horiz-adv-x="805" d="M12-158v259h64q45 43 61.5 121T159 486l2 60h531V101h86v-259H656V0H133v-158H12zm236 333q-13-41-41-74h362v349H279q-4-193-31-275z"/><glyph glyph-name="afii10070" unicode="е" horiz-adv-x="803" d="M411-11q-167 0-261 76.5T56 274q0 129 93.5 206T407 557q159 0 252-73.5T752 287q0-22-5-47H184q11-74 68-114t159-40q178 0 212 93l125-22Q720 73 639 31T411-11zm-3 473q-191 0-221-137h436q-11 66-66 101.5T408 462z"/><glyph glyph-name="afii10072" unicode="ж" horiz-adv-x="996" d="M434 0v277L166 0H2l292 295L11 546h162l261-248v248h126V297l263 249h162L702 295 994 0H829L560 278V0H434z"/><glyph glyph-name="afii10073" unicode="з" horiz-adv-x="743" d="M692 153q0-164-330-164-149 0-229.5 43T37 168l127 22q8-58 55-84.5T363 79q195 0 195 83 0 76-143 76H253v86h161q136 0 136 71 0 72-184 72-94 0-140.5-25T168 363L48 385q34 172 318 172 312 0 312-146 0-97-127-127 141-21 141-131z"/><glyph glyph-name="afii10074" unicode="и" horiz-adv-x="832" d="M98 0v546h128V152l380 394h128V0H606v394L226 0H98z"/><glyph glyph-name="afii10075" unicode="й" horiz-adv-x="832" d="M530 763h112q0-75-60-118t-159-43-159 43-60 118h111q0-39 29-61.5t79-22.5 78.5 22.5T530 763zM98 0v546h128V152l380 394h128V0H606v394L226 0H98z"/><glyph glyph-name="afii10076" unicode="к" horiz-adv-x="749" d="M98 0v546h130V294l336 252h175L389 291 747 0H567L228 275V0H98z"/><glyph glyph-name="afii10077" unicode="л" horiz-adv-x="792" d="M16 92q57 3 85 35 25 29 34.5 94.5T147 423l2 123h544V0H563v443H271l-1-36q-2-151-19.5-233T195 51Q144-5 22-8z"/><glyph glyph-name="afii10078" unicode="м" horiz-adv-x="1007" d="M220 0H98v546h145l261-351 259 351h145V0H786v405L562 97H446L220 405V0z"/><glyph glyph-name="afii10079" unicode="н" horiz-adv-x="841" d="M98 0v546h130V337h384v209h130V0H612v236H228V0H98z"/><glyph glyph-name="afii10080" unicode="о" horiz-adv-x="818" d="M409-11q-167 0-260 76T56 273t93 208 260 76q168 0 261-76t93-208q0-133-93-208.5T409-11zm0 101q110 0 165.5 47T630 273t-55.5 136T409 456t-165-47-55-136 55.5-136T409 90z"/><glyph glyph-name="afii10081" unicode="п" horiz-adv-x="828" d="M98 0v546h632V0H600v443H228V0H98z"/><glyph glyph-name="afii10082" unicode="р" horiz-adv-x="857" d="M492-11q-85 0-153.5 29.5T228 101v-301H98v746h117l8-108q42 56 111 87.5T492 557q143 0 226-77.5T801 273 718.5 66.5 492-11zM452 91q105 0 160.5 48.5T668 273q0 84-56 133t-160 49-164-50-60-133q0-82 60-131.5T452 91z"/><glyph glyph-name="afii10083" unicode="с" horiz-adv-x="778" d="M738 358l-129-24q-26 122-203 122-107 0-162-47.5T189 272q0-87 55.5-134.5T407 90q179 0 205 124l128-24Q718 93 631.5 41T407-11q-165 0-258 76T56 272q0 132 92.5 208.5T406 557q138 0 224-51t108-148z"/><glyph glyph-name="afii10084" unicode="т" horiz-adv-x="681" d="M275 0v443H18v103h645V443H405V0H275z"/><glyph glyph-name="afii10085" unicode="у" horiz-adv-x="700" d="M554 546h136L404-27q-53-103-106.5-143.5T156-211q-50 0-89 12l-5 98q32-7 69-7 61 0 94.5 24.5T295 13L10 546h144l207-409z"/><glyph glyph-name="afii10086" unicode="ф" horiz-adv-x="979" d="M426-200V-8Q247-4 150.5 69.5T54 272q0 130 96.5 204T426 554v196h127V554q179-4 275.5-78T925 272q0-129-96.5-202.5T553-8v-192H426zm372 472q0 180-245 189V85q245 9 245 187zm-618 0q0-178 246-187v376q-246-9-246-189z"/><glyph glyph-name="afii10087" unicode="х" horiz-adv-x="720" d="M168 0H14l262 282L25 546h159l179-189 181 189h151L440 280 706 0H546L356 203z"/><glyph glyph-name="afii10088" unicode="ц" horiz-adv-x="833" d="M98 0v546h130V102h365v444h130V102h86v-260H688V0H98z"/><glyph glyph-name="afii10089" unicode="ч" horiz-adv-x="775" d="M202 416q0-75 37-103.5T365 284q91 0 181 34v228h130V0H546v227q-115-42-220-42-131 0-192.5 52T72 401v145h130V416z"/><glyph glyph-name="afii10090" unicode="ш" horiz-adv-x="1106" d="M98 0v546h127V102h264v444h127V102h264v444h127V0H98z"/><glyph glyph-name="afii10091" unicode="щ" horiz-adv-x="1117" d="M98 0v546h127V102h264v444h127V102h264v444h127V102h86v-260H972V0H98z"/><glyph glyph-name="afii10092" unicode="ъ" horiz-adv-x="827" d="M195 0v446H8v100h314V378h247q104 0 162-50.5T789 188q0-88-58-138T569 0H195zm354 287H322V92h227q115 0 115 96 0 99-115 99z"/><glyph glyph-name="afii10093" unicode="ы" horiz-adv-x="1023" d="M794 0v546h130V0H794zM98 0v546h130V378h264q104 0 161.5-50.5T711 188q0-88-58-138T492 0H98zm374 287H228V92h244q115 0 115 96 0 48-30 73.5T472 287z"/><glyph glyph-name="afii10094" unicode="ь" horiz-adv-x="750" d="M98 0v546h130V378h264q104 0 161.5-50.5T711 188q0-88-58-138T492 0H98zm374 287H228V92h244q115 0 115 96 0 48-30 73.5T472 287z"/><glyph glyph-name="afii10095" unicode="э" horiz-adv-x="785" d="M168 346L44 370q23 92 109.5 139.5T379 557q165 0 257.5-77T729 273q0-131-92.5-207.5T378-11Q89-11 41 178l125 24Q192 87 378 87q200 0 223 146H267v88h332q-28 138-220 138-185 0-211-113z"/><glyph glyph-name="afii10096" unicode="ю" horiz-adv-x="1096" d="M98 0v546h130V332h109q20 106 111 165.5T686 557q167 0 260-76t93-208q0-133-92.5-208.5T686-11q-153 0-244.5 64T335 230H228V0H98zm588 89q109 0 164.5 47.5T906 273t-55.5 136T686 456q-110 0-165-47t-55-136 55.5-136.5T686 89z"/><glyph glyph-name="afii10097" unicode="я" horiz-adv-x="762" d="M51 371q0 82 60 128.5T276 546h388V0H536v193H379L196 0H43l195 204q-91 9-139 51.5T51 371zm235-86h250v171H286q-52 0-80.5-22T177 370t28.5-63.5T286 285z"/><glyph glyph-name="uni0450" unicode="ѐ" horiz-adv-x="803" d="M458 609H348L153 768h169zM411-11q-167 0-261 76.5T56 274q0 129 93.5 206T407 557q159 0 252-73.5T752 287q0-22-5-47H184q11-74 68-114t159-40q178 0 212 93l125-22Q720 73 639 31T411-11zm-3 473q-191 0-221-137h436q-11 66-66 101.5T408 462z"/><glyph glyph-name="afii10071" unicode="ё" horiz-adv-x="803" d="M457 622v122h138V622H457zm-249 0v122h138V622H208zM411-11q-167 0-261 76.5T56 274q0 129 93.5 206T407 557q159 0 252-73.5T752 287q0-22-5-47H184q11-74 68-114t159-40q178 0 212 93l125-22Q720 73 639 31T411-11zm-3 473q-191 0-221-137h436q-11 66-66 101.5T408 462z"/><glyph glyph-name="afii10099" unicode="ђ" horiz-adv-x="836" d="M109 0v553H6v98h103v99h131v-99h225v-98H240V372q42 57 109.5 89T499 493q119 0 184-62t65-172V2q0-115-47.5-164T541-211q-47 0-85 9l-5 97q33-5 61-5 56 0 81 23.5T618-9v242q0 71-42 112t-120 41q-97 0-156.5-52.5T240 194V0H109z"/><glyph glyph-name="afii10100" unicode="ѓ" horiz-adv-x="625" d="M282 609l137 159h168L392 609H282zM98 0v546h511V444H228V0H98z"/><glyph glyph-name="afii10101" unicode="є" horiz-adv-x="788" d="M520 319v-87H188q12-70 68-108t152-38q184 0 211 115l128-24Q722 85 634.5 37T408-11q-164 0-258 76.5T56 272q0 131 93.5 208T408 557q141 0 227.5-47.5T744 371l-128-24q-29 113-208 113-191 0-219-141h331z"/><glyph glyph-name="afii10102" unicode="ѕ" horiz-adv-x="734" d="M359 465q-175 0-175-67 0-31 28.5-45.5T315 332l134-8q127-11 182-47.5T686 167q0-85-81-131.5T368-11q-150 0-227.5 42.5T41 166l124 18Q184 81 366 81q193 0 193 72 0 34-27.5 49T433 223l-135 8q-125 10-181.5 47.5T60 388q0 79 78.5 124T359 557t218.5-40.5T673 390l-121-18q-10 48-56 70.5T359 465z"/><glyph glyph-name="afii10103" unicode="і" d="M96 622v117h135V622H96zM99 0v546h129V0H99z"/><glyph glyph-name="afii10104" unicode="ї" d="M19 622v122h110V622H19zm179 0v122h110V622H198zM99 0v546h129V0H99z"/><glyph glyph-name="afii10105" unicode="ј" d="M96 622v117h135V622H96zm2-633v557h130V-4q0-110-48-158.5T28-211q-39 0-84 8l-4 98q37-5 60-5 52 0 75 23t23 76z"/><glyph glyph-name="afii10106" unicode="љ" horiz-adv-x="1215" d="M16 92q57 3 85 35 25 29 34.5 94.5T147 423l2 123h544V378h264q104 0 161.5-50.5T1176 188q0-88-58-138T957 0H563v443H271l-1-36q-2-151-19.5-233T195 51Q144-5 22-8zm921 195H693V92h244q115 0 115 96 0 48-30 73.5T937 287z"/><glyph glyph-name="afii10107" unicode="њ" horiz-adv-x="1274" d="M98 0v546h130V344h383v202h130V344h287q98 0 153-45.5t55-125.5q0-81-55-127T1028 0H611v243H228V0H98zm910 252H741V92h267q103 0 103 81 0 79-103 79z"/><glyph glyph-name="afii10108" unicode="ћ" horiz-adv-x="839" d="M111 0v553H7v98h104v99h129v-99h226v-98H240V370q42 58 109.5 90.5T500 493q119 0 184.5-62T750 259V0H619v233q0 71-42 112t-119 41q-97 0-157.5-52.5T240 194V0H111z"/><glyph glyph-name="afii10109" unicode="ќ" horiz-adv-x="749" d="M318 609l137 159h168L428 609H318zM98 0v546h130V294l336 252h175L389 291 747 0H567L228 275V0H98z"/><glyph glyph-name="uni045D" unicode="ѝ" horiz-adv-x="832" d="M480 609H370L175 768h169zM98 0v546h128V152l380 394h128V0H606v394L226 0H98z"/><glyph glyph-name="afii10110" unicode="ў" horiz-adv-x="701" d="M461 767h115q0-77-59-122t-162-45q-102 0-161.5 45T134 767h116q0-39 28-61t77-22 77.5 22 28.5 61zm93-221h136L404-27q-53-103-106.5-143.5T156-211q-50 0-89 12l-5 98q32-7 69-7 63 0 96 25t66 100L10 546h144l207-409z"/><glyph glyph-name="afii10193" unicode="џ" horiz-adv-x="825" d="M98 0v546h130V102h368v444h130V0H473v-158H351V0H98z"/><glyph glyph-name="afii10146" unicode="Ѣ" horiz-adv-x="865" d="M132 0v522H12v91h120v88h132v-88h267v-91H264V421h309q116 0 184-56.5T825 212q0-97-68-154.5T573 0H132zm426 319H264V100h294q62 0 97 28.5t35 81.5-35 81-97 28z"/><glyph glyph-name="afii10194" unicode="ѣ" horiz-adv-x="741" d="M110 0v487H7v89h103v174h129V576h219v-89H239V365h244q104 0 162-49t58-135q0-85-58-133T483 0H110zm353 275H239V89h224q115 0 115 92 0 94-115 94z"/><glyph glyph-name="afii10147" unicode="Ѳ" horiz-adv-x="1000" d="M497-11q-205 0-321.5 97T59 349q0 167 116 264.5T497 711q207 0 323-97.5T936 349q0-166-116-263T497-11zm0 614q-129 0-203.5-51T202 405h591q-17 96-91.5 147T497 603zm0-506q132 0 207.5 52.5T795 301H200q15-99 90.5-151.5T497 97z"/><glyph glyph-name="afii10195" unicode="ѳ" horiz-adv-x="818" d="M409-11q-167 0-260 76T56 273t93 208 260 76q168 0 261-76t93-208q0-133-93-208.5T409-11zm0 468q-192 0-217-142h435q-25 142-218 142zm0-369q193 0 218 142H192Q217 88 409 88z"/><glyph glyph-name="afii10148" unicode="Ѵ" horiz-adv-x="896" d="M363 0L13 700h153l270-559 205 416q41 86 85 119.5T840 710q24 0 41-3l6-119q-47 4-75-11.5T761 518L503 0H363z"/><glyph glyph-name="afii10196" unicode="ѵ" horiz-adv-x="718" d="M299 0L9 546h144l205-412 150 303q31 67 65.5 93.5T660 557q28 0 47-5l4-108q-39 4-59-8t-41-50L407 0H299z"/><glyph glyph-name="afii10050" unicode="Ґ" horiz-adv-x="772" d="M116 0v700h497v134h130V591H253V0H116z"/><glyph glyph-name="afii10098" unicode="ґ" horiz-adv-x="625" d="M98 0v546h389v140h122V444H228V0H98z"/><glyph glyph-name="Wgrave" unicode="Ẁ" horiz-adv-x="1280" d="M694 762H584L389 921h169zM284 0L15 700h146l196-543 216 543h134l218-541 196 541h144L995 0H860L638 547 416 0H284z"/><glyph glyph-name="wgrave" unicode="ẁ" horiz-adv-x="1060" d="M584 609H474L279 768h169zM243 0L13 546h135l159-402 170 402h109l174-400 158 400h129L816 0H709L531 413 351 0H243z"/><glyph glyph-name="Wacute" unicode="Ẃ" horiz-adv-x="1280" d="M585 762l137 159h168L695 762H585zM284 0L15 700h146l196-543 216 543h134l218-541 196 541h144L995 0H860L638 547 416 0H284z"/><glyph glyph-name="wacute" unicode="ẃ" horiz-adv-x="1060" d="M475 609l137 159h168L585 609H475zM243 0L13 546h135l159-402 170 402h109l174-400 158 400h129L816 0H709L531 413 351 0H243z"/><glyph glyph-name="Wdieresis" unicode="Ẅ" horiz-adv-x="1280" d="M695 775v122h138V775H695zm-249 0v122h138V775H446zM284 0L15 700h146l196-543 216 543h134l218-541 196 541h144L995 0H860L638 547 416 0H284z"/><glyph glyph-name="wdieresis" unicode="ẅ" horiz-adv-x="1060" d="M585 622v122h138V622H585zm-249 0v122h138V622H336zM243 0L13 546h135l159-402 170 402h109l174-400 158 400h129L816 0H709L531 413 351 0H243z"/><glyph glyph-name="uni1E9E" unicode="ẞ" horiz-adv-x="1039" d="M101 0v418q0 139 95 216t278 77q137 0 337-19V588L630 417l146-15q119-16 170.5-65.5T998 209q0-102-91.5-161T638-11q-162 0-291 55l39 103q108-52 245-52 231 0 231 110 0 42-28.5 65.5T728 304l-240 21v84l192 186q-80 7-206 7-236 0-236-178V0H101z"/><glyph glyph-name="Ygrave" unicode="Ỳ" horiz-adv-x="819" d="M464 762H354L159 921h169zM340 0v279L6 700h168l238-307 241 307h161L477 276V0H340z"/><glyph glyph-name="ygrave" unicode="ỳ" horiz-adv-x="700" d="M404 609H294L99 768h169zm150-63h136L404-27q-53-103-106.5-143.5T156-211q-50 0-89 12l-5 98q32-7 69-7 61 0 94.5 24.5T295 13L10 546h144l207-409z"/><glyph glyph-name="endash" unicode="–" horiz-adv-x="664" d="M51 234v114h562V234H51z"/><glyph glyph-name="emdash" unicode="—" horiz-adv-x="1329" d="M51 234v114h1226V234H51z"/><glyph glyph-name="quoteleft" unicode="‘" horiz-adv-x="322" d="M220 400H78v129q0 92 36 130.5T238 700l6-74q-52 0-69-17.5T158 539v-9h62V400z"/><glyph glyph-name="quoteright" unicode="’" horiz-adv-x="322" d="M102 700h142V571q0-92-36.5-130.5T84 400l-6 73q52 0 69 17.5t17 69.5v10h-62v130z"/><glyph glyph-name="quotesinglbase" unicode="‚" horiz-adv-x="322" d="M89 130h141V1q0-92-36-130.5T71-169l-6 73q51 0 68 17.5T150-9v9H89v130z"/><glyph glyph-name="quotedblleft" unicode="“" horiz-adv-x="565" d="M78 400v129q0 92 36 130.5T238 700l6-74q-52 0-69-17.5T158 539v-9h62V400H78zm243 0v129q0 91 36 130t123 41l7-74q-52 0-69-17.5T401 539v-9h61V400H321z"/><glyph glyph-name="quotedblright" unicode="”" horiz-adv-x="565" d="M102 700h142V571q0-92-36.5-130.5T84 400l-6 73q52 0 69 17.5t17 69.5v10h-62v130zm243 0h142V571q0-92-36.5-130.5T327 400l-6 73q51 0 68 17.5t17 69.5v10h-61v130z"/><glyph glyph-name="quotedblbase" unicode="„" horiz-adv-x="565" d="M89 130h141V1q0-92-36-130.5T71-169l-6 73q51 0 68 17.5T150-9v9H89v130zm242 0h142V1q0-92-36-130.5T313-169l-6 73q52 0 69 17.5T393-9v9h-62v130z"/><glyph glyph-name="dagger" unicode="†" horiz-adv-x="669" d="M620 420H398v-570H271v570H49v115h222v215h127V535h222V420z"/><glyph glyph-name="daggerdbl" unicode="‡" horiz-adv-x="697" d="M63 181h222v239H63v115h222v215h127V535h222V420H412V181h222V66H412v-216H285V66H63v115z"/><glyph glyph-name="bullet" unicode="•" horiz-adv-x="362" d="M92 232v191h178V232H92z"/><glyph glyph-name="ellipsis" unicode="…" horiz-adv-x="992" d="M91 0v130h139V0H91zm335 0v130h139V0H426zm335 0v130h139V0H761z"/><glyph glyph-name="perthousand" unicode="‰" horiz-adv-x="1353" d="M254 380q-94 0-149.5 46T49 545q0 74 55 119.5T254 710q94 0 149-45.5T458 545q0-73-55-119t-149-46zM229 0H84l721 700h145zm25 465q46 0 72 21.5t26 58.5-25.5 58.5T254 625q-48 0-74-21.5T154 545t26.5-58.5T254 465zM781-10q-94 0-149.5 45T576 154q0 73 55.5 119T781 319q100 0 153-55 55 55 154 55 94 0 149.5-46t55.5-119q0-74-55-119t-150-45q-101 0-153 54-54-54-154-54zm0 84q47 0 73 21.5t26 58.5-26 58.5-73 21.5-73-21.5-26-58.5 26-58.5T781 74zm307 0q47 0 73 21.5t26 58.5-26 58.5-73 21.5-73-21.5-26-58.5 26-58.5 73-21.5z"/><glyph glyph-name="guilsinglleft" unicode="‹" horiz-adv-x="436" d="M374 163V34L46 208v134l328 173V390L129 276z"/><glyph glyph-name="guilsinglright" unicode="›" horiz-adv-x="436" d="M389 208L61 34v125l246 115L61 387v128l328-173V208z"/><glyph glyph-name="fraction" unicode="⁄" horiz-adv-x="803" d="M124 0H0l679 700h124z"/><glyph glyph-name="zerosuperior" unicode="⁰" horiz-adv-x="489" d="M244 452q-101 0-157 48T31 632t56 132 157 48q102 0 158-48t56-132-56.5-132T244 452zm0 70q57 0 87.5 28.5T362 632t-30.5 81-87.5 28-87-28-30-81 30-81.5 87-28.5z"/><glyph glyph-name="foursuperior" unicode="⁴" horiz-adv-x="476" d="M381 457h-86v64H25v57l277 230h79V585h70v-64h-70v-64zM123 585h172v144z"/><glyph glyph-name="fivesuperior" unicode="⁵" horiz-adv-x="440" d="M219 452q-164 0-192 91l86 17q16-46 107-46 102 0 102 59 0 56-101 56-67 0-105-28l-73 10 20 196h324v-63H136l-9-83q46 25 117 25 81 0 124-29t43-83q0-59-49-90.5T219 452z"/><glyph glyph-name="sixsuperior" unicode="⁶" horiz-adv-x="458" d="M31 625q0 90 55.5 138.5T241 812q143 0 185-80l-85-27q-27 44-102 44-109 0-118-105 44 36 136 36 87 0 130-29t43-80q0-52-50.5-85.5T237 452Q31 452 31 625zm204-110q104 0 104 56 0 54-103 54-50 0-78-14t-28-39q0-26 28-41.5t77-15.5z"/><glyph glyph-name="sevensuperior" unicode="⁷" horiz-adv-x="409" d="M384 752L196 457H96l189 282H24v68h360v-55z"/><glyph glyph-name="eightsuperior" unicode="⁸" horiz-adv-x="473" d="M237 452q-103 0-155.5 27T29 555q0 59 85 84-70 23-70 76 0 46 50 71.5T237 812q92 0 142-26t50-71q0-52-70-77 85-25 85-83 0-49-52.5-76T237 452zm0 301q-100 0-100-43 0-44 100-44 98 0 98 44 0 43-98 43zm0-243q111 0 111 49 0 48-111 48-112 0-112-48 0-49 112-49z"/><glyph glyph-name="ninesuperior" unicode="⁹" horiz-adv-x="458" d="M427 638q0-90-56-138t-154-48q-144 0-185 79l85 27q26-44 101-44 112 0 119 106-45-37-136-37-87 0-130 29t-43 81 50 85.5T221 812q206 0 206-174zM223 749q-50 0-77-15t-27-41q0-55 103-55 49 0 77.5 14t28.5 39q0 27-28 42.5T223 749z"/><glyph glyph-name="zeroinferior" unicode="₀" horiz-adv-x="489" d="M244-112q-101 0-157 48T31 68t56 132 157 48q102 0 158-48t56-132-56.5-132T244-112zm0 70q57 0 87.5 28.5T362 68t-30.5 81-87.5 28-87-28-30-81 30-81.5T244-42z"/><glyph glyph-name="oneinferior" unicode="₁" horiz-adv-x="414" d="M34-107v70h140v207L41 148v69l149 26h76V-37h123v-70H34z"/><glyph glyph-name="twoinferior" unicode="₂" horiz-adv-x="450" d="M34-40l215 97q42 22 55 37t13 35q0 52-94 52-96 0-104-64l-90 14q9 56 58.5 86.5T221 248q92 0 141-30.5t49-84.5q0-41-28-70T273 0l-91-39h231v-68H34v67z"/><glyph glyph-name="threeinferior" unicode="₃" horiz-adv-x="452" d="M420-7q0-49-50-77t-148-28Q42-112 25-11l88 13q9-50 109-50 103 0 103 47 0 40-64 40H156v62h106q59 0 59 39 0 44-97 44t-108-50l-86 13q10 48 59.5 74.5T223 248q92 0 141-25.5t49-72.5q0-56-65-77 72-18 72-80z"/><glyph glyph-name="fourinferior" unicode="₄" horiz-adv-x="476" d="M381-107h-86v64H25v57l277 230h79V21h70v-64h-70v-64zM123 21h172v144z"/><glyph glyph-name="fiveinferior" unicode="₅" horiz-adv-x="440" d="M219-112Q55-112 27-21l86 17q16-46 107-46 102 0 102 59 0 56-101 56-67 0-105-28L43 47l20 196h324v-63H136l-9-83q46 25 117 25 81 0 124-29t43-83q0-59-49-90.5T219-112z"/><glyph glyph-name="sixinferior" unicode="₆" horiz-adv-x="458" d="M31 61q0 90 55.5 138.5T241 248q143 0 185-80l-85-27q-27 44-102 44-109 0-118-105 44 36 136 36 87 0 130-29t43-80q0-52-50.5-85.5T237-112Q31-112 31 61zM235-49q104 0 104 56 0 54-103 54-50 0-78-14T130 8q0-26 28-41.5T235-49z"/><glyph glyph-name="seveninferior" unicode="₇" horiz-adv-x="409" d="M384 188L196-107H96l189 282H24v68h360v-55z"/><glyph glyph-name="eightinferior" unicode="₈" horiz-adv-x="473" d="M237-112q-103 0-155.5 27T29-9q0 59 85 84-70 23-70 76 0 46 50 71.5T237 248q92 0 142-26t50-71q0-52-70-77 85-25 85-83 0-49-52.5-76T237-112zm0 301q-100 0-100-43 0-44 100-44 98 0 98 44 0 43-98 43zm0-243q111 0 111 49 0 48-111 48-112 0-112-48 0-49 112-49z"/><glyph glyph-name="nineinferior" unicode="₉" horiz-adv-x="458" d="M427 74q0-90-56-138t-154-48Q73-112 32-33l85 27q26-44 101-44 112 0 119 106-45-37-136-37-87 0-130 29t-43 81 50 85.5T221 248q206 0 206-174zM223 185q-50 0-77-15t-27-41q0-55 103-55 49 0 77.5 14t28.5 39q0 27-28 42.5T223 185z"/><glyph glyph-name="colonmonetary" unicode="₡" horiz-adv-x="945" d="M263-80l24 101Q177 61 118 146T59 350q0 156 104 252.5T448 710l16 70h74l-16-70q41-2 77-6l18 76h75l-21-92q181-51 225-217l-142-28q-24 93-110 131L534 100q193 14 223 162l140-27Q870 118 770 55T508-11l-16-69h-75l17 71q-38 3-77 11l-19-82h-75zm119 190q31-8 77-11l115 496q-35 7-77 7zM199 350q0-150 115-214l107 461q-108-15-165-79t-57-168z"/><glyph glyph-name="uni20A9" unicode="₩" horiz-adv-x="1287" d="M287 0L177 286H50v71h100l-36 93H27v71h60L18 700h146l65-179h278l71 179h130l72-179h280l65 179h143l-69-179h60v-71h-87l-36-93h100v-71h-128L998 0H864L641 550 418 0H287zm558 357h155l34 93H808zm-557 0h155l37 93H254zm586-71l53-132 48 132H874zm-560 0l48-134 53 134H314z"/><glyph glyph-name="uni20AA" unicode="₪" horiz-adv-x="1106" d="M625 394q0 64-26 91t-87 27H239V0H107v626h391q109 0 156-44t47-148V231h-76v163zm383-145q0-138-60.5-193.5T738 0H414v385h75V113h240q81 0 114 31t33 105v367h132V249z"/><glyph glyph-name="dong" unicode="₫" horiz-adv-x="864" d="M364-11q-143 0-225.5 75.5T56 266t82.5 202T364 544q86 0 154-29t110-82v174H427v72h201v71h130v-71h93v-72h-93V0H641l-8 105Q544-11 364-11zm40 102q104 0 164 47.5T628 266t-60 128.5T404 443t-159.5-47.5T189 266q0-81 55.5-128T404 91zM87-149v71h667v-71H87z"/><glyph glyph-name="Euro" unicode="€" horiz-adv-x="1019" d="M23 232v72h112q-2 30-2 46 0 24 3 46H23v71h128q37 115 145 179.5T564 711q168 0 271.5-61.5T970 471l-142-28q-42 159-264 159-204 0-268-135h319l-7-71H276q-3-22-3-46t3-46h323l-7-72H297Q359 98 564 98q233 0 266 164l140-27Q943 115 839 52T564-11q-164 0-270.5 64T150 232H23z"/><glyph glyph-name="uni20AD" unicode="₭" horiz-adv-x="910" d="M128 0v338H16v76h112v286h135V369l433 331h185L504 414h264v-76H510L909 0H713L353 299l-90-68V0H128z"/><glyph glyph-name="uni20AE" unicode="₮" horiz-adv-x="823" d="M146 161v71l199 27v93l-199-27v71l199 27v168H27v109h775V591H482V442l200 28v-72l-200-27v-93l200 28v-72l-200-27V0H345v188z"/><glyph glyph-name="uni20B1" unicode="₱" horiz-adv-x="951" d="M126 0v302H8v71h118v84H8v72h118v171h408q108 0 182.5-44.5T821 529h130v-72H838q2-26 2-40 0-23-3-44h114v-71H820q-31-80-106-123.5T529 135H262V0H126zm383 597H262v-68h408q-47 68-161 68zm191-180q0 22-3 40H262v-84h434q4 19 4 44zM509 238q111 0 158 64H262v-64h247z"/><glyph glyph-name="uni20B4" unicode="₴" horiz-adv-x="965" d="M27 238v72h125q57 57 224 72l188 13q34 4 50 7H27v72h691q3 12 3 25 0 52-55 81t-164 29q-204 0-239-91l-134 20q51 173 373 173 173 0 263-56t90-158q0-16-1-23h82v-72H807q-56-60-223-75l-186-13q-24-2-35-4h573v-72H241q-4-12-4-30 0-118 243-118 217 0 255 107l134-20Q819-11 480-11q-378 0-378 219 0 12 2 30H27z"/><glyph glyph-name="uni20B5" unicode="₵" horiz-adv-x="945" d="M59 350q0 156 104.5 253T450 710v70h79v-70q307-14 367-239l-142-28q-39 145-225 158V99q198 14 228 163l140-27Q871 121 777 59T529-10v-70h-79v70Q264 0 161.5 96T59 350zm140 0q0-112 64.5-176.5T450 100v500q-122-9-186.5-74T199 350z"/><glyph glyph-name="uni20B8" unicode="₸" horiz-adv-x="842" d="M33 628v72h776v-72H33zM352 0v421H33v109h776V421H488V0H352z"/><glyph glyph-name="uni20B9" unicode="₹" horiz-adv-x="812" d="M85 254v100h291q125 0 145 88H85v72h436q-23 85-145 85H85v101h700v-72H600q49-43 60-114h125v-72H659q-13-87-84-136t-189-49l-103-2L669 0H464z"/><glyph glyph-name="uni20BA" unicode="₺" horiz-adv-x="852" d="M128 0v261L-1 239v72l129 22v96L-1 407v72l129 22v199h137V524l218 37v-72l-218-37v-96l218 37v-71l-218-37V108h253q88 0 130.5 36.5T705 275l127-26q-20-134-94.5-191.5T518 0H128z"/><glyph glyph-name="uni20BC" unicode="₼" horiz-adv-x="976" d="M551 100H423v344q-197-22-197-188V0H89v253q0 132 86 210t248 91v146h128V555q163-13 249.5-91.5T887 253V0H750v256q0 167-199 189V100z"/><glyph glyph-name="uni20BD" unicode="₽" horiz-adv-x="913" d="M30 81v72h119v88H30v107h119v352h448q125 0 198-62t73-169q0-105-74.5-166.5T592 241H286v-88h312V81H286V0H149v81H30zm544 512H286V348h288q74 0 114 31.5t40 89.5q0 59-40 91.5T574 593z"/><glyph glyph-name="uni2113" unicode="ℓ" horiz-adv-x="731" d="M12 229l112 34v213q0 109 74.5 172T401 711q130 0 199-53.5T669 511q0-75-35-126t-124-96-256-93q2-59 36.5-83.5T411 88q89 0 188 29l-2-101Q480-11 386-11q-125 0-187.5 41.5T126 162L12 127v102zm242 255V297q166 51 226.5 98T541 511q0 103-138 103-72 0-110.5-33T254 484z"/><glyph glyph-name="uni2116" unicode="№" horiz-adv-x="1400" d="M1181 443q-79 0-125 36.5t-46 97.5 45.5 97 125.5 36q79 0 124.5-36.5T1351 576t-45.5-97-124.5-36zM112 0v700h136l518-551v551h126V0H757L238 549V0H112zm1069 643q-39 0-61-17.5t-22-48.5 22.5-49.5T1181 509t59.5 17.5T1262 576t-21.5 49.5T1181 643zm-158-328v67h314v-67h-314z"/><glyph glyph-name="trademark" unicode="™" horiz-adv-x="914" d="M144 350v283H15v67h338v-67H224V350h-80zm275 0v350h87l126-201 126 201h85V350h-75v250L659 423h-57L493 600V350h-74z"/><glyph glyph-name="estimated" unicode="℮" horiz-adv-x="783" d="M732 287H180q-4 0-4-3V117q0-11 7-20Q270 8 393 8q130 0 219 100h49q-48-54-118.5-86T392-10q-141 0-241 89.5T51 296t100 216.5T392 602t240.5-89.5T732 296v-9zm-125 22v168q0 12-9 21-86 86-205 86-122 0-209-89-8-10-8-22V309q0-5 4-5h423q4 0 4 5z"/><glyph glyph-name="oneseventh" unicode="⅐" horiz-adv-x="1189" d="M34 350v70h140v207L41 605v69l149 26h76V420h123v-70H34zM315 0H191l679 700h124zm849 295L976 0H876l189 282H804v68h360v-55z"/><glyph glyph-name="oneninth" unicode="⅑" horiz-adv-x="1177" d="M34 350v70h140v207L41 605v69l149 26h76V420h123v-70H34zM315 0H191l679 700h124zm830 181q0-90-56-138T935-5Q791-5 750 74l85 27q26-44 101-44 112 0 119 106-45-37-136-37-87 0-130 29t-43 81 50 85.5T939 355q206 0 206-174zM941 292q-50 0-77-15t-27-41q0-55 103-55 49 0 77.5 14t28.5 39q0 27-28 42.5T941 292z"/><glyph glyph-name="onethird" unicode="⅓" horiz-adv-x="1168" d="M34 350v70h140v207L41 605v69l149 26h76V420h123v-70H34zM315 0H191l679 700h124zm820 100q0-49-50-77T937-5Q757-5 740 96l88 13q9-50 109-50 103 0 103 47 0 40-64 40H871v62h106q59 0 59 39 0 44-97 44t-108-50l-86 13q10 48 59.5 74.5T938 355q92 0 141-25.5t49-72.5q0-56-65-77 72-18 72-80z"/><glyph glyph-name="twothirds" unicode="⅔" horiz-adv-x="1195" d="M34 417l215 97q42 22 55 37t13 35q0 52-94 52-96 0-104-64l-90 14q9 56 58.5 86.5T221 705q92 0 141-30.5t49-84.5q0-41-28-70t-110-63l-91-39h231v-68H34v67zM342 0H218l679 700h124zm821 100q0-49-50-77T965-5Q785-5 768 96l88 13q9-50 109-50 103 0 103 47 0 40-64 40H899v62h106q59 0 59 39 0 44-97 44t-108-50l-86 13q10 48 59.5 74.5T966 355q92 0 141-25.5t49-72.5q0-56-65-77 72-18 72-80z"/><glyph glyph-name="onefifth" unicode="⅕" horiz-adv-x="1179" d="M34 350v70h140v207L41 605v69l149 26h76V420h123v-70H34zM315 0H191l679 700h124zm642-5Q793-5 765 86l86 17q16-46 107-46 102 0 102 59 0 56-101 56-67 0-105-28l-73 10 20 196h324v-63H874l-9-83q46 25 117 25 81 0 124-29t43-83q0-59-49-90.5T957-5z"/><glyph glyph-name="twofifths" unicode="⅖" horiz-adv-x="1206" d="M34 417l215 97q42 22 55 37t13 35q0 52-94 52-96 0-104-64l-90 14q9 56 58.5 86.5T221 705q92 0 141-30.5t49-84.5q0-41-28-70t-110-63l-91-39h231v-68H34v67zM342 0H218l679 700h124zm643-5Q821-5 793 86l86 17q16-46 107-46 102 0 102 59 0 56-101 56-67 0-105-28l-73 10 20 196h324v-63H902l-9-83q46 25 117 25 81 0 124-29t43-83q0-59-49-90.5T985-5z"/><glyph glyph-name="threefifths" unicode="⅗" horiz-adv-x="1172" d="M420 450q0-49-50-77t-148-28Q42 345 25 446l88 13q9-50 109-50 103 0 103 47 0 40-64 40H156v62h106q59 0 59 39 0 44-97 44t-108-50l-86 13q10 48 59.5 74.5T223 705q92 0 141-25.5t49-72.5q0-56-65-77 72-18 72-80zM308 0H184l679 700h124zm643-5Q787-5 759 86l86 17q16-46 107-46 102 0 102 59 0 56-101 56-67 0-105-28l-73 10 20 196h324v-63H868l-9-83q46 25 117 25 81 0 124-29t43-83q0-59-49-90.5T951-5z"/><glyph glyph-name="fourfifths" unicode="⅘" horiz-adv-x="1196" d="M381 350h-86v64H25v57l277 230h79V478h70v-64h-70v-64zM331 0H207l679 700h124zM123 478h172v144zM974-5Q810-5 782 86l86 17q16-46 107-46 102 0 102 59 0 56-101 56-67 0-105-28l-73 10 20 196h324v-63H891l-9-83q46 25 117 25 81 0 124-29t43-83q0-59-49-90.5T974-5z"/><glyph glyph-name="onesixth" unicode="⅙" horiz-adv-x="1165" d="M34 350v70h140v207L41 605v69l149 26h76V420h123v-70H34zM315 0H191l679 700h124zm423 168q0 90 55.5 138.5T948 355q143 0 185-80l-85-27q-27 44-102 44-109 0-118-105 44 36 136 36 87 0 130-29t43-80q0-52-50.5-85.5T944-5Q738-5 738 168zM942 58q104 0 104 56 0 54-103 54-50 0-78-14t-28-39q0-26 28-41.5T942 58z"/><glyph glyph-name="fivesixths" unicode="⅚" horiz-adv-x="1141" d="M219 345q-164 0-192 91l86 17q16-46 107-46 102 0 102 59 0 56-101 56-67 0-105-28l-73 10 20 196h324v-63H136l-9-83q46 25 117 25 81 0 124-29t43-83q0-59-49-90.5T219 345zM291 0H167l679 700h124zm423 168q0 90 55.5 138.5T924 355q143 0 185-80l-85-27q-27 44-102 44-109 0-118-105 44 36 136 36 87 0 130-29t43-80q0-52-50.5-85.5T920-5Q714-5 714 168zM918 58q104 0 104 56 0 54-103 54-50 0-78-14t-28-39q0-26 28-41.5T918 58z"/><glyph glyph-name="oneeighth" unicode="⅛" horiz-adv-x="1192" d="M34 350v70h140v207L41 605v69l149 26h76V420h123v-70H34zM315 0H191l679 700h124zm640-5Q852-5 799.5 22T747 98q0 59 85 84-70 23-70 76 0 46 50 71.5T955 355q92 0 142-26t50-71q0-52-70-77 85-25 85-83 0-49-52.5-76T955-5zm0 301q-100 0-100-43 0-44 100-44 98 0 98 44 0 43-98 43zm0-243q111 0 111 49 0 48-111 48-112 0-112-48 0-49 112-49z"/><glyph glyph-name="threeeighths" unicode="⅜" horiz-adv-x="1185" d="M420 450q0-49-50-77t-148-28Q42 345 25 446l88 13q9-50 109-50 103 0 103 47 0 40-64 40H156v62h106q59 0 59 39 0 44-97 44t-108-50l-86 13q10 48 59.5 74.5T223 705q92 0 141-25.5t49-72.5q0-56-65-77 72-18 72-80zM308 0H184l679 700h124zm641-5Q846-5 793.5 22T741 98q0 59 85 84-70 23-70 76 0 46 50 71.5T949 355q92 0 142-26t50-71q0-52-70-77 85-25 85-83 0-49-52.5-76T949-5zm0 301q-100 0-100-43 0-44 100-44 98 0 98 44 0 43-98 43zm0-243q111 0 111 49 0 48-111 48-112 0-112-48 0-49 112-49z"/><glyph glyph-name="fiveeighths" unicode="⅝" horiz-adv-x="1169" d="M219 345q-164 0-192 91l86 17q16-46 107-46 102 0 102 59 0 56-101 56-67 0-105-28l-73 10 20 196h324v-63H136l-9-83q46 25 117 25 81 0 124-29t43-83q0-59-49-90.5T219 345zM291 0H167l679 700h124zm642-5Q830-5 777.5 22T725 98q0 59 85 84-70 23-70 76 0 46 50 71.5T933 355q92 0 142-26t50-71q0-52-70-77 85-25 85-83 0-49-52.5-76T933-5zm0 301q-100 0-100-43 0-44 100-44 98 0 98 44 0 43-98 43zm0-243q111 0 111 49 0 48-111 48-112 0-112-48 0-49 112-49z"/><glyph glyph-name="seveneighths" unicode="⅞" horiz-adv-x="1098" d="M384 645L196 350H96l189 282H24v68h360v-55zM221 0H97l679 700h124zm641-5Q759-5 706.5 22T654 98q0 59 85 84-70 23-70 76 0 46 50 71.5T862 355q92 0 142-26t50-71q0-52-70-77 85-25 85-83 0-49-52.5-76T862-5zm0 301q-100 0-100-43 0-44 100-44 98 0 98 44 0 43-98 43zm0-243q111 0 111 49 0 48-111 48-112 0-112-48 0-49 112-49z"/><glyph glyph-name="arrowleft" unicode="←" horiz-adv-x="753" d="M345 480L210 350h491V244H211l135-130-67-71L24 298l254 253z"/><glyph glyph-name="arrowup" unicode="↑" horiz-adv-x="752" d="M559 374L429 508V18H323v490L192 374l-71 67 255 255 254-254z"/><glyph glyph-name="arrowright" unicode="→" horiz-adv-x="752" d="M406 480l68 71 253-253L473 43l-68 71 135 130H50v106h491z"/><glyph glyph-name="arrowdown" unicode="↓" horiz-adv-x="752" d="M192 336l131-134v490h106V202l130 134 71-68L376 14 121 269z"/><glyph glyph-name="uni2194" unicode="↔" horiz-adv-x="915" d="M345 480L210 350h494L569 480l68 71 253-253L636 43l-68 71 135 130H211l135-130-67-71L24 298l254 253z"/><glyph glyph-name="uni2195" unicode="↕" horiz-adv-x="741" d="M186 260l130-134v451L186 444l-71 68 255 254 253-254-70-67-131 134V125l131 134 70-68L370-62 115 192z"/><glyph glyph-name="uni2196" unicode="↖" horiz-adv-x="752" d="M495 467H304l348-348-74-75-349 349V201h-93v360h359v-94z"/><glyph glyph-name="uni2197" unicode="↗" horiz-adv-x="752" d="M257 467v94h359V201h-94v191L174 44l-74 75 347 348H257z"/><glyph glyph-name="uni2198" unicode="↘" horiz-adv-x="752" d="M257 138h190L100 486l74 75 348-348v191h94V44H257v94z"/><glyph glyph-name="uni2199" unicode="↙" horiz-adv-x="752" d="M495 138V44H136v360h93V212l349 349 74-75-348-348h191z"/><glyph glyph-name="partialdiff" unicode="∂" horiz-adv-x="846" d="M405-11q-167 0-259 61.5T54 223q0 104 84.5 161.5T377 442q192 0 274-93-7 257-246 257-149 0-189-66L86 570q63 141 318 141 184 0 283.5-97T787 335q0-167-97.5-256.5T405-11zm2 105q103 0 160.5 35t57.5 97q0 53-58 86t-158 33q-105 0-161-32.5T192 221q0-61 55.5-94T407 94z"/><glyph glyph-name="product" unicode="∏" horiz-adv-x="1004" d="M116-122v822h772v-822H751v713H253v-713H116z"/><glyph glyph-name="summation" unicode="∑" horiz-adv-x="768" d="M51-150v102l285 324L52 598v102h671V591H227l273-311L228-41h508v-109H51z"/><glyph glyph-name="minus" unicode="−" horiz-adv-x="603" d="M546 306H56v95h490v-95z"/><glyph glyph-name="uni2215" unicode="∕" horiz-adv-x="803" d="M124 0H0l679 700h124z"/><glyph glyph-name="radical" unicode="√" horiz-adv-x="823" d="M348 0L134 379 29 331l-34 76 213 95 198-370 278 568h133L464 0H348z"/><glyph glyph-name="infinity" unicode="∞" horiz-adv-x="923" d="M667 121q-61 0-111.5 26.5T458 239q-42-56-88.5-87T255 121q-93 0-146.5 53.5T55 320q0 90 55 146t145 56q60 0 107.5-25.5T459 406q41 54 89.5 85T666 522q94 0 147.5-53T867 324q0-90-55-146.5T667 121zM164 321q0-49 27-76.5t71-27.5q43 0 74.5 27t66.5 79q-37 60-68 81.5T262 426q-43 0-70.5-28T164 321zm496 105q-45 0-78-26.5T514 322q34-59 68.5-82t77.5-23 70.5 28.5T758 324q0 48-27.5 75T660 426z"/><glyph glyph-name="integral" unicode="∫" horiz-adv-x="490" d="M165 536q0 206 208 206 52 0 107-11l-4-96q-40 9-86 9-50 0-72.5-23.5T295 542V0q0-211-211-211-37 0-92 11l-4 97q39-9 78-9 52 0 75.5 24T165-7v543z"/><glyph glyph-name="approxequal" unicode="≈" horiz-adv-x="603" d="M184 450q-58 0-128-42v98q75 41 136 41 51 0 121.5-32T418 483q57 0 128 42v-98q-75-41-135-41-50 0-120 32t-107 32zm0-225q-58 0-128-42v98q75 41 136 41 51 0 121.5-32T418 258q57 0 128 42v-98q-75-41-135-41-50 0-120 32t-107 32z"/><glyph glyph-name="notequal" unicode="≠" horiz-adv-x="603" d="M228 104H123l45 90H56v95h160l65 129H56v95h273l46 91h106l-46-91h111v-95H387l-65-129h224v-95H274z"/><glyph glyph-name="lessequal" unicode="≤" horiz-adv-x="600" d="M55 346v95l489 202V531L193 397l351-135V143zM545 7H55v95h490V7z"/><glyph glyph-name="greaterequal" unicode="≥" horiz-adv-x="600" d="M547 441v-95L58 143v113l350 135L58 525v118zm0-434H57v95h490V7z"/><glyph glyph-name="wave" unicode="⌇" horiz-adv-x="1022" d="M1022 0q-65 0-117.5 33.5t-87.5 87T753 239t-54 130-50.5 118.5-60.5 87-77 33.5-77-33.5-60.5-87T323 369t-54-130-64-118.5-87.5-87T0 0v100q42 0 76.5 33.5t60 87.5 50 119 54 130 64 119 87.5 87.5T511 710t119-33.5 87.5-87.5 64-119 54-130 50-119 60-87.5T1022 100q5 0 5-49 0-51-5-51z"/><glyph glyph-name="lozenge" unicode="◊" horiz-adv-x="810" d="M477 0H332L33 350l299 350h145l300-350zM188 352L409 97l212 256-220 246z"/><glyph glyph-name="commaaccent" unicode="" horiz-adv-x="500" d="M89-209l89 147h153L191-209H89z"/><glyph glyph-name="kgreenlandic.case" horiz-adv-x="1082" d="M116 0v700h135V372l433 328h185L447 380 896 0H699L340 299l-89-68V0H116zm977 700L986 545H828l162 155h103z"/><glyph glyph-name="napostrophe.case" horiz-adv-x="1206" d="M315 0v700h135l514-549v549h126V0H955L441 547V0H315zM3 553l89 147h153L105 553H3z"/><glyph glyph-name="i.dot" d="M96 622v117h135V622H96zM99 0v546h129V0H99z"/><glyph glyph-name="caron.alt" horiz-adv-x="500" d="M288 533v217h129l-43-217h-86z"/><glyph glyph-name="revcommaaccent" horiz-adv-x="500" d="M432 764L325 609H167l162 155h103z"/><glyph glyph-name="zero.tlf" horiz-adv-x="873" d="M436-11q-186 0-289.5 94.5T43 350t103.5 266.5T436 711t289.5-94.5T829 350 725.5 83.5 436-11zm0 109q123 0 187.5 64T688 350q0 123-64.5 187.5T436 602t-188-64.5T183 350q0-124 65-188t188-64z"/><glyph glyph-name="one.tlf" horiz-adv-x="873" d="M92 0v108h305v476l-288-50v112l305 54h120V108h280V0H92z"/><glyph glyph-name="two.tlf" horiz-adv-x="873" d="M98 107l365 208q100 57 134 94.5t34 83.5q0 53-49.5 82T436 604q-203 0-217-140L84 486q17 109 107 167t246 58q160 0 248.5-57T774 497q0-76-50.5-133.5T529 230L318 108h470V0H98v107z"/><glyph glyph-name="three.tlf" horiz-adv-x="873" d="M798 194q0-100-91.5-152.5T438-11q-168 0-258.5 50T67 194l138 26Q226 91 439 91t213 111q0 48-39.5 74T497 302H308v103h188q72 0 109.5 26t37.5 73q0 104-206 104-201 0-226-125L81 511q22 97 112.5 148.5T439 711q166 0 255.5-49T784 523q0-122-137-163 151-35 151-166z"/><glyph glyph-name="four.tlf" horiz-adv-x="873" d="M700 0H567v137H40v100l523 463h137V241h139V137H700V0zM194 241h373v326z"/><glyph glyph-name="five.tlf" horiz-adv-x="873" d="M430-11Q129-11 73 167l136 29Q238 96 430 96q217 0 217 132 0 65-54 100t-161 35q-156 0-212-62l-119 13 41 386h596V597H256l-23-196q91 57 234 57 150 0 234-59t84-170q1-115-90.5-177.5T430-11z"/><glyph glyph-name="six.tlf" horiz-adv-x="873" d="M67 341q0 176 102.5 273T460 711q140 0 229-45t116-131l-135-28q-32 99-211 99-250 0-254-262 39 45 113.5 70.5T491 440q154 0 238-57t84-163q0-109-94.5-170T453-11q-188 0-287 91T67 341zM454 94q107 0 164 33.5t57 91.5q0 59-57 91.5T454 343q-106 0-165.5-31.5T229 228q0-62 59.5-98T454 94z"/><glyph glyph-name="seven.tlf" horiz-adv-x="873" d="M773 593L385 0H225l397 591H101v109h672V593z"/><glyph glyph-name="eight.tlf" horiz-adv-x="873" d="M436-11q-183 0-281 54T57 193q0 59 46 102t131 66Q88 409 88 521q0 88 92 139t256 51 256.5-51T785 520q0-112-145-160 85-22 130-64.5T815 193q0-96-98-150T436-11zm210 521q0 101-210 101T226 510q0-100 210-100t210 100zM436 88q236 0 236 109T436 306 200 197 436 88z"/><glyph glyph-name="nine.tlf" horiz-adv-x="873" d="M805 359q0-176-102.5-273T412-11q-140 0-228.5 45T67 165l135 28q32-99 211-99 252 0 255 263-83-97-287-97-154 0-238 57T59 480q0 109 94.5 170T419 711q188 0 287-91t99-261zM418 606q-107 0-164-33.5T197 481q0-59 57-91.5T418 357q106 0 165.5 31.5T643 472q0 62-59.5 98T418 606z"/><glyph glyph-name="zero.posf" horiz-adv-x="904" d="M452-11q-186 0-290.5 82.5T57 300t104.5 228.5T452 611t290.5-82.5T847 300 742.5 71.5 452-11zm0 109q123 0 188.5 52T706 300q0 97-65.5 149.5T452 502t-188.5-52.5T198 300q0-98 65.5-150T452 98z"/><glyph glyph-name="one.posf" horiz-adv-x="760" d="M51 0v108h292v376L67 434v112l292 54h121V108h254V0H51z"/><glyph glyph-name="two.posf" horiz-adv-x="794" d="M60 107l367 149q100 43 132 74t32 73q0 102-196 102-202 0-214-141L46 386q17 109 106 167t245 58q161 0 249-54.5T734 407q0-76-55.5-128.5T468 174l-194-70h474V0H60v107z"/><glyph glyph-name="three.posf" horiz-adv-x="831" d="M774 80q0-102-91.5-156T414-130q-168 0-258.5 50T43 76l138 26Q204-28 415-28q213 0 213 116 0 50-39.5 77T473 192H284v103h188q72 0 109.5 27.5T619 400q0 108-206 108-201 0-226-125L57 411q22 97 112.5 148.5T415 611q166 0 255.5-50T760 419q0-127-138-169 152-37 152-170z"/><glyph glyph-name="four.posf" horiz-adv-x="851" d="M690-120H557V0H30v100l522 500h138V104h139V0H690v-120zM181 104h376v358z"/><glyph glyph-name="five.posf" horiz-adv-x="821" d="M412-130q-152 0-240 43T55 47l136 29Q221-24 412-24q217 0 217 144 0 133-215 133-156 0-212-62L83 205l41 395h596V497H238l-23-207q93 58 235 58 150 0 233.5-59T767 121q1-120-90.5-185.5T412-130z"/><glyph glyph-name="six.posf" horiz-adv-x="858" d="M59 341q0 176 102.5 273T452 711q140 0 229-45t116-131l-135-28q-32 99-211 99-250 0-254-262 39 45 113.5 70.5T483 440q154 0 238-57t84-163q0-109-94.5-170T445-11q-188 0-287 91T59 341zM446 94q107 0 164 33.5t57 91.5q0 59-57 91.5T446 343q-106 0-165.5-31.5T221 228q0-62 59.5-98T446 94z"/><glyph glyph-name="seven.posf" horiz-adv-x="721" d="M694 493L293-120H133l411 611H23v109h671V493z"/><glyph glyph-name="eight.posf" horiz-adv-x="861" d="M431-11q-183 0-281 54T52 193q0 59 46 102t131 66Q83 409 83 521q0 88 92 139t256 51 256.5-51T780 520q0-112-145-160 85-22 130-64.5T810 193q0-96-98-150T431-11zm210 521q0 101-210 101T221 510q0-100 210-100t210 100zM431 88q236 0 236 109T431 306 195 197 431 88z"/><glyph glyph-name="nine.posf" horiz-adv-x="859" d="M799 248q0-180-102-279.5T407-131q-141 0-229.5 45T61 45l135 28q34-99 211-99 252 0 255 272-84-97-286-97-154 0-238.5 57.5T53 370q0 113 94 176.5T413 610q189 0 287.5-93.5T799 248zM413 506q-108 0-165-35.5T191 372q0-60 57-92.5T413 247q106 0 165 31t59 84q0 66-59.5 105T413 506z"/><glyph glyph-name="zero.numerator" horiz-adv-x="489" d="M244 345q-101 0-157 48T31 525t56 132 157 48q102 0 158-48t56-132-56.5-132T244 345zm0 70q57 0 87.5 28.5T362 525t-30.5 81-87.5 28-87-28-30-81 30-81.5 87-28.5z"/><glyph glyph-name="one.numerator" horiz-adv-x="414" d="M34 350v70h140v207L41 605v69l149 26h76V420h123v-70H34z"/><glyph glyph-name="two.numerator" horiz-adv-x="450" d="M34 417l215 97q42 22 55 37t13 35q0 52-94 52-96 0-104-64l-90 14q9 56 58.5 86.5T221 705q92 0 141-30.5t49-84.5q0-41-28-70t-110-63l-91-39h231v-68H34v67z"/><glyph glyph-name="three.numerator" horiz-adv-x="452" d="M420 450q0-49-50-77t-148-28Q42 345 25 446l88 13q9-50 109-50 103 0 103 47 0 40-64 40H156v62h106q59 0 59 39 0 44-97 44t-108-50l-86 13q10 48 59.5 74.5T223 705q92 0 141-25.5t49-72.5q0-56-65-77 72-18 72-80z"/><glyph glyph-name="four.numerator" horiz-adv-x="476" d="M381 350h-86v64H25v57l277 230h79V478h70v-64h-70v-64zM123 478h172v144z"/><glyph glyph-name="five.numerator" horiz-adv-x="440" d="M219 345q-164 0-192 91l86 17q16-46 107-46 102 0 102 59 0 56-101 56-67 0-105-28l-73 10 20 196h324v-63H136l-9-83q46 25 117 25 81 0 124-29t43-83q0-59-49-90.5T219 345z"/><glyph glyph-name="six.numerator" horiz-adv-x="458" d="M31 518q0 90 55.5 138.5T241 705q143 0 185-80l-85-27q-27 44-102 44-109 0-118-105 44 36 136 36 87 0 130-29t43-80q0-52-50.5-85.5T237 345Q31 345 31 518zm204-110q104 0 104 56 0 54-103 54-50 0-78-14t-28-39q0-26 28-41.5t77-15.5z"/><glyph glyph-name="seven.numerator" horiz-adv-x="409" d="M384 645L196 350H96l189 282H24v68h360v-55z"/><glyph glyph-name="eight.numerator" horiz-adv-x="473" d="M237 345q-103 0-155.5 27T29 448q0 59 85 84-70 23-70 76 0 46 50 71.5T237 705q92 0 142-26t50-71q0-52-70-77 85-25 85-83 0-49-52.5-76T237 345zm0 301q-100 0-100-43 0-44 100-44 98 0 98 44 0 43-98 43zm0-243q111 0 111 49 0 48-111 48-112 0-112-48 0-49 112-49z"/><glyph glyph-name="nine.numerator" horiz-adv-x="458" d="M427 531q0-90-56-138t-154-48q-144 0-185 79l85 27q26-44 101-44 112 0 119 106-45-37-136-37-87 0-130 29t-43 81 50 85.5T221 705q206 0 206-174zM223 642q-50 0-77-15t-27-41q0-55 103-55 49 0 77.5 14t28.5 39q0 27-28 42.5T223 642z"/><glyph glyph-name="zero.denominator" horiz-adv-x="489" d="M244-5Q143-5 87 43T31 175t56 132 157 48q102 0 158-48t56-132-56.5-132T244-5zm0 70q57 0 87.5 28.5T362 175t-30.5 81-87.5 28-87-28-30-81 30-81.5T244 65z"/><glyph glyph-name="one.denominator" horiz-adv-x="414" d="M34 0v70h140v207L41 255v69l149 26h76V70h123V0H34z"/><glyph glyph-name="two.denominator" horiz-adv-x="450" d="M34 67l215 97q42 22 55 37t13 35q0 52-94 52-96 0-104-64l-90 14q9 56 58.5 86.5T221 355q92 0 141-30.5t49-84.5q0-41-28-70t-110-63l-91-39h231V0H34v67z"/><glyph glyph-name="three.denominator" horiz-adv-x="452" d="M420 100q0-49-50-77T222-5Q42-5 25 96l88 13q9-50 109-50 103 0 103 47 0 40-64 40H156v62h106q59 0 59 39 0 44-97 44t-108-50l-86 13q10 48 59.5 74.5T223 355q92 0 141-25.5t49-72.5q0-56-65-77 72-18 72-80z"/><glyph glyph-name="four.denominator" horiz-adv-x="476" d="M381 0h-86v64H25v57l277 230h79V128h70V64h-70V0zM123 128h172v144z"/><glyph glyph-name="five.denominator" horiz-adv-x="440" d="M219-5Q55-5 27 86l86 17q16-46 107-46 102 0 102 59 0 56-101 56-67 0-105-28l-73 10 20 196h324v-63H136l-9-83q46 25 117 25 81 0 124-29t43-83q0-59-49-90.5T219-5z"/><glyph glyph-name="six.denominator" horiz-adv-x="458" d="M31 168q0 90 55.5 138.5T241 355q143 0 185-80l-85-27q-27 44-102 44-109 0-118-105 44 36 136 36 87 0 130-29t43-80q0-52-50.5-85.5T237-5Q31-5 31 168zM235 58q104 0 104 56 0 54-103 54-50 0-78-14t-28-39q0-26 28-41.5T235 58z"/><glyph glyph-name="seven.denominator" horiz-adv-x="409" d="M384 295L196 0H96l189 282H24v68h360v-55z"/><glyph glyph-name="eight.denominator" horiz-adv-x="473" d="M237-5Q134-5 81.5 22T29 98q0 59 85 84-70 23-70 76 0 46 50 71.5T237 355q92 0 142-26t50-71q0-52-70-77 85-25 85-83 0-49-52.5-76T237-5zm0 301q-100 0-100-43 0-44 100-44 98 0 98 44 0 43-98 43zm0-243q111 0 111 49 0 48-111 48-112 0-112-48 0-49 112-49z"/><glyph glyph-name="nine.denominator" horiz-adv-x="458" d="M427 181q0-90-56-138T217-5Q73-5 32 74l85 27q26-44 101-44 112 0 119 106-45-37-136-37-87 0-130 29t-43 81 50 85.5T221 355q206 0 206-174zM223 292q-50 0-77-15t-27-41q0-55 103-55 49 0 77.5 14t28.5 39q0 27-28 42.5T223 292z"/><glyph glyph-name="twosevenths" horiz-adv-x="1217" d="M34 417l215 97q42 22 55 37t13 35q0 52-94 52-96 0-104-64l-90 14q9 56 58.5 86.5T221 705q92 0 141-30.5t49-84.5q0-41-28-70t-110-63l-91-39h231v-68H34v67zM342 0H218l679 700h124zm849 295L1003 0H903l189 282H831v68h360v-55z"/><glyph glyph-name="twoninths" horiz-adv-x="1204" d="M34 417l215 97q42 22 55 37t13 35q0 52-94 52-96 0-104-64l-90 14q9 56 58.5 86.5T221 705q92 0 141-30.5t49-84.5q0-41-28-70t-110-63l-91-39h231v-68H34v67zM342 0H218l679 700h124zm831 181q0-90-56-138T963-5Q819-5 778 74l85 27q26-44 101-44 112 0 119 106-45-37-136-37-87 0-130 29t-43 81 50 85.5T967 355q206 0 206-174zM969 292q-50 0-77-15t-27-41q0-55 103-55 49 0 77.5 14t28.5 39q0 27-28 42.5T969 292z"/><glyph glyph-name="threesevenths" horiz-adv-x="1182" d="M420 450q0-49-50-77t-148-28Q42 345 25 446l88 13q9-50 109-50 103 0 103 47 0 40-64 40H156v62h106q59 0 59 39 0 44-97 44t-108-50l-86 13q10 48 59.5 74.5T223 705q92 0 141-25.5t49-72.5q0-56-65-77 72-18 72-80zM308 0H184l679 700h124zm848 295L968 0H868l189 282H796v68h360v-55z"/><glyph glyph-name="foursevenths" horiz-adv-x="1206" d="M381 350h-86v64H25v57l277 230h79V478h70v-64h-70v-64zM331 0H207l679 700h124zM123 478h172v144zm1057-183L992 0H892l189 282H820v68h360v-55z"/><glyph glyph-name="fourninths" horiz-adv-x="1193" d="M381 350h-86v64H25v57l277 230h79V478h70v-64h-70v-64zM331 0H207l679 700h124zM123 478h172v144zm1039-297q0-90-56-138T952-5Q808-5 767 74l85 27q26-44 101-44 112 0 119 106-45-37-136-37-87 0-130 29t-43 81 50 85.5T956 355q206 0 206-174zM958 292q-50 0-77-15t-27-41q0-55 103-55 49 0 77.5 14t28.5 39q0 27-28 42.5T958 292z"/><glyph glyph-name="fivesevenths" horiz-adv-x="1166" d="M219 345q-164 0-192 91l86 17q16-46 107-46 102 0 102 59 0 56-101 56-67 0-105-28l-73 10 20 196h324v-63H136l-9-83q46 25 117 25 81 0 124-29t43-83q0-59-49-90.5T219 345zM291 0H167l679 700h124zm850 295L953 0H853l189 282H781v68h360v-55z"/><glyph glyph-name="fiveninths" horiz-adv-x="1154" d="M219 345q-164 0-192 91l86 17q16-46 107-46 102 0 102 59 0 56-101 56-67 0-105-28l-73 10 20 196h324v-63H136l-9-83q46 25 117 25 81 0 124-29t43-83q0-59-49-90.5T219 345zM291 0H167l679 700h124zm832 181q0-90-56-138T913-5Q769-5 728 74l85 27q26-44 101-44 112 0 119 106-45-37-136-37-87 0-130 29t-43 81 50 85.5T917 355q206 0 206-174zM919 292q-50 0-77-15t-27-41q0-55 103-55 49 0 77.5 14t28.5 39q0 27-28 42.5T919 292z"/><glyph glyph-name="sixsevenths" horiz-adv-x="1184" d="M31 518q0 90 55.5 138.5T241 705q143 0 185-80l-85-27q-27 44-102 44-109 0-118-105 44 36 136 36 87 0 130-29t43-80q0-52-50.5-85.5T237 345Q31 345 31 518zM309 0H185l679 700h124zm-74 408q104 0 104 56 0 54-103 54-50 0-78-14t-28-39q0-26 28-41.5t77-15.5zm924-113L971 0H871l189 282H799v68h360v-55z"/><glyph glyph-name="sevenninths" horiz-adv-x="1083" d="M384 645L196 350H96l189 282H24v68h360v-55zM221 0H97l679 700h124zm831 181q0-90-56-138T842-5Q698-5 657 74l85 27q26-44 101-44 112 0 119 106-45-37-136-37-87 0-130 29t-43 81 50 85.5T846 355q206 0 206-174zM848 292q-50 0-77-15t-27-41q0-55 103-55 49 0 77.5 14t28.5 39q0 27-28 42.5T848 292z"/><glyph glyph-name="eightninths" horiz-adv-x="1191" d="M237 345q-103 0-155.5 27T29 448q0 59 85 84-70 23-70 76 0 46 50 71.5T237 705q92 0 142-26t50-71q0-52-70-77 85-25 85-83 0-49-52.5-76T237 345zM329 0H205l679 700h124zm-92 646q-100 0-100-43 0-44 100-44 98 0 98 44 0 43-98 43zm0-243q111 0 111 49 0 48-111 48-112 0-112-48 0-49 112-49zm923-222q0-90-56-138T950-5Q806-5 765 74l85 27q26-44 101-44 112 0 119 106-45-37-136-37-87 0-130 29t-43 81 50 85.5T954 355q206 0 206-174zM956 292q-50 0-77-15t-27-41q0-55 103-55 49 0 77.5 14t28.5 39q0 27-28 42.5T956 292z"/><glyph glyph-name="mu" horiz-adv-x="815" d="M721 546V0H605l-10 117q-40-61-106.5-94.5T340-11q-69 0-117 22v-211H94v746h130V241q0-70 41-107t112-37q93 0 153.5 51T591 289v257h130z"/><glyph glyph-name="Omega" horiz-adv-x="952" d="M656 148V96h187V0H539v211q206 44 206 199 0 91-72 142.5T476 604q-126 0-197-51.5T208 409q0-78 50-127t156-71V0H108v96h189v52Q69 217 69 413q0 136 110 217t297 81q188 0 297.5-81T883 413q0-199-227-265z"/><glyph glyph-name="Delta" horiz-adv-x="910" d="M524 700L903 0H7l378 700h139zM206 104h493L452 571z"/><glyph glyph-name="at.case" horiz-adv-x="1186" d="M904 62q-65 0-106.5 25T745 158q-74-99-223-99-92 0-143 38.5T328 201q0 66 49.5 102.5T538 349l202 16v7q0 111-132 111-130 0-143-92l-117 14q16 79 84 120t177 41q249 0 249-189V192q0-67 65-67 61 0 101.5 58t40.5 163q0 167-123 268T601 715q-224 0-352.5-116T120 296q0-177 118-279.5T580-86q149 0 275 55l21-48q-135-62-296-62-251 0-386.5 118T58 296q0 211 148 342.5T601 770q240 0 383.5-116.5T1128 346q0-129-60-206.5T904 62zM447 210q0-32 24-50t71-18q84 0 142 42t58 102v7l-204-18q-91-8-91-65z"/><glyph glyph-name="questiondown.case" horiz-adv-x="772" d="M472 699V575H333v124h139zM384 97q198 0 214 144l135-24Q719 109 627 49T384-11q-158 0-245 55.5T52 190q0 56 28.5 94.5t69.5 59 82.5 39 71 47T335 499h135q-3-60-33-102t-70.5-63.5-81-38.5-68.5-41-28-58q0-45 47.5-72T384 97z"/><glyph glyph-name="exclamdown.case" horiz-adv-x="366" d="M252 699V575H113v124h139zM123 499h120l8-499H114z"/><glyph glyph-name="parenleft.case" horiz-adv-x="414" d="M256-80Q92 124 92 345q0 219 164 425h123q-83-116-120.5-217.5T221 345t37.5-207.5T379-80H256z"/><glyph glyph-name="parenright.case" horiz-adv-x="414" d="M158 770q164-205 164-425T158-80H34q83 115 120.5 216.5T192 345q0 106-37.5 207.5T34 770h124z"/><glyph glyph-name="braceleft.case" horiz-adv-x="480" d="M157 345q71-13 103.5-52.5T293 177v-62q0-56 19.5-78T382 15q37 0 74 5l5-96q-43-7-94-7-101 0-149 43T170 96v90q0 58-27 80.5T30 298v93q86 9 113 32t27 81v89q0 94 48 137t149 43q41 0 94-7l-5-96q-37 5-74 5-49 0-69-22.5T293 575v-67q0-73-32.5-111.5T157 345z"/><glyph glyph-name="braceright.case" horiz-adv-x="480" d="M450 391v-93q-86-9-113-31.5T310 186V96q0-93-48-136T113-83q-52 0-94 7l4 96q38-5 75-5 49 0 68.5 22t19.5 78v62q0 75 32.5 115T323 345q-72 13-104.5 51.5T186 508v67q0 55-19.5 77.5T98 675q-37 0-75-5l-4 96q52 7 94 7 101 0 149-43t48-137v-89q0-58 27-81t113-32z"/><glyph glyph-name="bracketleft.case" horiz-adv-x="443" d="M116-80v850h309v-96H243V16h182v-96H116z"/><glyph glyph-name="bracketright.case" horiz-adv-x="443" d="M326-80H18v96h182v658H18v96h308V-80z"/><glyph glyph-name="hyphen.case" horiz-adv-x="496" d="M51 304v114h393V304H51z"/><glyph glyph-name="endash.case" horiz-adv-x="664" d="M51 304v114h562V304H51z"/><glyph glyph-name="emdash.case" horiz-adv-x="1329" d="M51 304v114h1226V304H51z"/><glyph glyph-name="brokenbar.case" horiz-adv-x="360" d="M245 405H116v405h129V405zm0-525H116v425h129v-425z"/><glyph glyph-name="bar.case" horiz-adv-x="360" d="M245-120H116v930h129v-930z"/><glyph glyph-name="guillemotleft.case" horiz-adv-x="825" d="M374 233V104L46 278v134l328 173V460L129 346zm379 0V104L425 278v134l328 173V460L508 346z"/><glyph glyph-name="guillemotright.case" horiz-adv-x="824" d="M389 278L61 104v125l246 115L61 457v128l328-173V278zm379 0L440 104v125l246 115-246 113v128l328-173V278z"/><glyph glyph-name="guilsinglleft.case" horiz-adv-x="436" d="M374 233V104L46 278v134l328 173V460L129 346z"/><glyph glyph-name="guilsinglright.case" horiz-adv-x="436" d="M389 278L61 104v125l246 115L61 457v128l328-173V278z"/><glyph glyph-name="afii10021.bg" horiz-adv-x="941" d="M10-167v275h88l300 592h145l301-592h87v-275H801V0H140v-167H10zm228 275h460L468 566z"/><glyph glyph-name="afii10029.bg" horiz-adv-x="916" d="M755 0L455 564 154 0H8l376 700h145L907 0H755z"/><glyph glyph-name="afii10038.bg" horiz-adv-x="1068" d="M464-93V0h-25Q257 0 151 93T45 349q0 162 106.5 256.5T439 700h25v81h138v-81h27q181 0 287.5-94.5T1023 349q0-163-106-256T629 0h-27v-93H464zm427 442q0 119-68.5 182.5T628 595h-28V104h28q126 0 194.5 63T891 349zm-714 0q0-119 68.5-182T440 104h26v491h-26q-126 0-194.5-63.5T177 349z"/><glyph glyph-name="afii10066.sb" horiz-adv-x="827" d="M414-11q-175 0-265 66.5T59 240q0 149 153 207 28 9 50 13l-32 8q-73 21-104 53t-31 85q0 131 209 137l298 6q58 1 115 12l9-97q-61-14-124-14l-288-5q-47-1-67.5-12T226 598q0-29 31-43t130-33l101-20q149-28 215-90t66-164q0-122-90.5-190.5T414-11zm0 99q112 0 167 42t55 119q0 75-59 118t-163 43q-108 0-165-42t-57-117q0-77 56-120t166-43z"/><glyph glyph-name="afii10067.bg" horiz-adv-x="791" d="M73 505q0 126 84.5 191T404 761q151 0 232.5-53.5T718 554q0-126-133-168 154-37 154-177 0-106-84-163T408-11Q73-11 73 246v259zm126 4v-80h253q67 0 102.5 29t35.5 82q0 121-188 121-203 0-203-152zm0-265q0-78 51-116.5T408 89q198 0 198 126 0 56-39 87t-114 31H199v-89z"/><glyph glyph-name="afii10068.bg" horiz-adv-x="742" d="M380 467q-179 0-199-97L58 389q39 168 325 168 140 0 217.5-43T678 395q0-69-54-104t-182-54l-135-14q-72-12-98.5-27T182 149q0-69 185-69 190 0 209 106l124-18Q680 77 597 33T360-11q-152 0-230.5 42.5T51 153q0 72 54 107t184 55l136 14q74 11 100 24.5t26 44.5q0 69-171 69z"/><glyph glyph-name="afii10069.bg" horiz-adv-x="857" d="M367 23q-144 0-227.5 72T56 290t83.5 195T367 557q182 0 267-113l8 102h116V58q0-269-349-269-293 0-333 180l132 16q25-100 199-100 222 0 222 171v74Q543 23 367 23zm37 102q104 0 164.5 44T629 289q0 77-60.5 121.5T404 455q-103 0-159-43.5T189 290t56-121.5T404 125z"/><glyph glyph-name="afii10072.bg" horiz-adv-x="996" d="M434 0v277L166 0H2l292 295L11 546h162l261-248v452h126V297l263 249h162L702 295 994 0H829L560 278V0H434z"/><glyph glyph-name="afii10073.bg" horiz-adv-x="757" d="M166 334L46 362q44 195 332 195 153 0 235-51t82-146q0-127-136-167 150-37 150-181 0-108-86-165.5T373-211q-152 0-235 51T33-7l125 25q12-64 62.5-96T372-110q204 0 204 127 0 119-147 119H258v102h169q68 0 103 28.5t35 77.5q0 112-190 112-97 0-147-30.5T166 334z"/><glyph glyph-name="afii10074.bg" horiz-adv-x="813" d="M585 289v257h130V0H599l-10 116q-40-60-106.5-93.5T334-11q-114 0-180 60T88 220v326h130V241q0-71 41-107.5T372 97q93 0 153.5 51T585 289z"/><glyph glyph-name="afii10075.bg" horiz-adv-x="813" d="M511 763h111q0-75-60-118t-158-43q-99 0-159 43t-60 118h111q0-39 29-61.5t79-22.5 78.5 22.5T511 763zm74-474v257h130V0H599l-10 117q-40-61-106.5-94.5T334-11q-114 0-180 60T88 220v326h131V241q0-71 40.5-107.5T372 97q93 0 153.5 51T585 289z"/><glyph glyph-name="afii10076.bg" horiz-adv-x="749" d="M98 0v750h130V294l336 252h175L389 291 747 0H567L228 275V0H98z"/><glyph glyph-name="afii10077.bg" horiz-adv-x="713" d="M420 546L708 0H568L353 416 137 0H2l286 546h132z"/><glyph glyph-name="afii10081.bg" horiz-adv-x="832" d="M98 0v546h116l10-119q41 61 110.5 95.5T490 557q119 0 185-62.5T741 323V0H611v297q0 71-42.5 112T448 450q-98 0-159-52.5T228 258V0H98z"/><glyph glyph-name="afii10084.bg" horiz-adv-x="1242" d="M98 0v546h117l9-112q37 58 98.5 90.5T459 557q80 0 135.5-34t78.5-97q38 62 102 96.5T920 557q108 0 170-62t62-169V0h-131v302q0 69-37 108t-107 39q-85 0-136-51.5T690 260V0H560v304q0 68-38 106.5T414 449q-84 0-135-52t-51-137V0H98z"/><glyph glyph-name="afii10088.bg" horiz-adv-x="824" d="M585 289v257h130V102h91v-257H684V0h-85l-10 116q-40-60-106.5-93.5T334-11q-114 0-180 60T88 220v326h130V241q0-71 41-107.5T372 97q93 0 153.5 51T585 289z"/><glyph glyph-name="afii10090.bg" horiz-adv-x="1201" d="M531 286v260h130V235q0-65 35-101.5T796 97q82 0 129.5 51T973 286v260h130V0H986l-8 109q-37-56-94.5-88T756-11q-78 0-131 33.5T548 117q-36-60-97-94T315-11q-109 0-168 61.5T88 220v326h131V237q0-66 34.5-103T353 97q83 0 130.5 51T531 286z"/><glyph glyph-name="afii10091.bg" horiz-adv-x="1216" d="M531 286v260h130V235q0-65 35-101.5T796 97q82 0 129.5 51T973 286v260h130V102h93v-260h-121V0h-90l-8 108q-36-56-93.5-87.5T756-11q-78 0-131 33.5T548 117q-37-60-97.5-94T315-11q-109 0-168 61.5T88 220v326h131V237q0-66 34.5-103T353 97q83 0 130.5 51T531 286z"/><glyph glyph-name="afii10092.bg" horiz-adv-x="854" d="M8 445v101h317V378h249q119 0 179-49.5T813 191q0-96-78.5-149T500-11q-155 0-230 55t-75 153v248H8zm317-252q0-57 42-84t136-27q184 0 184 107 0 97-129 97H325v-93z"/><glyph glyph-name="afii10094.bg" horiz-adv-x="747" d="M707 191q0-96-78.5-149T394-11q-155 0-230 55T89 197v349h129V378h250q119 0 179-49.5T707 191zm-489 2q0-56 42.5-83.5T396 82q185 0 185 107 0 97-129 97H218v-93z"/><glyph glyph-name="afii10096.bg" horiz-adv-x="1096" d="M98 0v750h130V332h109q20 106 111 165.5T686 557q167 0 260-76t93-208q0-133-92.5-208.5T686-11q-153 0-244.5 64T335 230H228V0H98zm588 89q109 0 164.5 47.5T906 273t-55.5 136T686 456q-110 0-165-47t-55-136 55.5-136.5T686 89z"/><glyph glyph-name="uni045D.bg" horiz-adv-x="813" d="M464 609H354L159 768h169zm121-320v257h130V0H599l-10 116q-40-60-106.5-93.5T334-11q-114 0-180 60T88 220v326h130V241q0-71 41-107.5T372 97q93 0 153.5 51T585 289z"/><glyph glyph-name="breve_cyr" horiz-adv-x="594" d="M422 930h122q0-90-67-142.5T296 735q-113 0-179.5 52.5T50 930h121q0-47 34-74.5t91-27.5q58 0 92 27.5t34 74.5z"/></font>
</defs>
</svg>
