<?xml version="1.0" standalone="no"?>
<!DOCTYPE svg PUBLIC "-//W3C//DTD SVG 1.1//EN" "http://www.w3.org/Graphics/SVG/1.1/DTD/svg11.dtd" >
<svg xmlns="http://www.w3.org/2000/svg" xmlns:xlink="http://www.w3.org/1999/xlink" version="1.1">
<metadata>
Created by FontForge 20190801 at Fri Jul 12 08:56:22 2019
 By www-data
Copyright 2019 BlackFoundry
</metadata>
<defs>
<font id="GrtskTeraSemiBold" horiz-adv-x="834" >
  <font-face 
    font-family="GrtskTeraSemiBold"
    font-weight="600"
    font-stretch="normal"
    units-per-em="1000"
    panose-1="0 0 0 0 0 0 0 0 0 0"
    ascent="750"
    descent="-250"
    x-height="548"
    cap-height="700"
    bbox="-117 -215 1524 981"
    underline-thickness="97"
    underline-position="-202"
    unicode-range="U+000D-F6C3"
  />
<missing-glyph horiz-adv-x="1018" 
d="M104 0v700h810v-700h-810zM276 136h466v428h-466v-428z" />
    <glyph glyph-name=".notdef" horiz-adv-x="1018" 
d="M104 0v700h810v-700h-810zM276 136h466v428h-466v-428z" />
    <glyph glyph-name=".null" horiz-adv-x="0" 
 />
    <glyph glyph-name=".null" horiz-adv-x="0" 
 />
    <glyph glyph-name="nonmarkingreturn" horiz-adv-x="333" 
 />
    <glyph glyph-name="CR" unicode="&#xd;" horiz-adv-x="0" 
 />
    <glyph glyph-name="space" unicode=" " horiz-adv-x="274" 
 />
    <glyph glyph-name="exclam" unicode="!" horiz-adv-x="376" 
d="M263 211h-150l-11 489h172zM103 0v145h171v-145h-171z" />
    <glyph glyph-name="quotedbl" unicode="&#x22;" horiz-adv-x="578" 
d="M88 375l-8 325h159l-8 -325h-143zM347 375l-8 325h159l-8 -325h-143z" />
    <glyph glyph-name="numbersign" unicode="#" horiz-adv-x="1015" 
d="M115 0l50 156h-143v122h182l46 144h-166v121h205l50 157h163l-50 -157h230l50 157h163l-50 -157h148v-121h-187l-46 -144h171v-122h-210l-50 -156h-163l50 156h-230l-50 -156h-163zM367 278h230l46 144h-230z" />
    <glyph glyph-name="dollar" unicode="$" horiz-adv-x="892" 
d="M41 213l175 25q26 -108 188 -120v167l-80 5q-261 24 -261 199q0 98 88.5 156.5t252.5 64.5v70h81v-70q299 -12 341 -209l-174 -25q-13 49 -53 75t-114 31v-160l93 -6q137 -14 201.5 -62.5t64.5 -139.5q0 -103 -90 -161t-269 -63v-70h-81v70q-320 12 -363 223zM381 428
l23 -1v156q-167 -6 -167 -78q0 -36 32 -52.5t112 -24.5zM518 278l-33 2v-163q184 6 184 80q0 38 -32 55.5t-119 25.5z" />
    <glyph glyph-name="percent" unicode="%" horiz-adv-x="1095" 
d="M265 710q103 0 163 -48t60 -126t-60 -126t-163 -48q-104 0 -163.5 48t-59.5 126t60 126t163 48zM825 700h184l-740 -700h-184zM265 465q44 0 68.5 19t24.5 52t-24.5 52t-68.5 19t-68 -19t-24 -52t24 -52t68 -19zM830 338q103 0 163 -48t60 -126t-59.5 -126t-163.5 -48
t-164 48t-60 126t60.5 126t163.5 48zM830 93q45 0 69 19t24 52t-24.5 52t-68.5 19q-45 0 -69 -19t-24 -52t24.5 -52t68.5 -19z" />
    <glyph glyph-name="ampersand" unicode="&#x26;" horiz-adv-x="966" 
d="M380 -11q-171 0 -253 55.5t-82 147.5q0 63 44 108.5t143 78.5q-52 43 -71 76t-19 74q0 82 73 132t201 50q123 0 195 -49.5t72 -129.5q0 -59 -41 -101t-138 -77l163 -118q38 51 54 121l163 -21q-18 -107 -94 -189l204 -147h-235l-83 59q-128 -70 -296 -70zM308 526
q0 -22 17 -40.5t65 -50.5q76 24 103.5 44.5t27.5 47.5q0 30 -27.5 47.5t-78.5 17.5t-79 -18t-28 -48zM223 200q0 -85 168 -85q95 0 163 31l-211 150q-69 -20 -94.5 -42t-25.5 -54z" />
    <glyph glyph-name="quotesingle" unicode="'" horiz-adv-x="319" 
d="M88 375l-8 325h159l-8 -325h-143z" />
    <glyph glyph-name="parenleft" unicode="(" horiz-adv-x="425" 
d="M250 -150q-169 204 -169 425q0 220 169 425h154q-85 -119 -122.5 -219t-37.5 -206t37.5 -206t122.5 -219h-154z" />
    <glyph glyph-name="parenright" unicode=")" horiz-adv-x="425" 
d="M175 700q169 -204 169 -425q0 -220 -169 -425h-154q85 119 122.5 219t37.5 206t-37.5 206t-122.5 219h154z" />
    <glyph glyph-name="asterisk" unicode="*" horiz-adv-x="525" 
d="M445 362l-100 -76l-83 130l-83 -130l-100 76l100 105l-144 29l38 120l140 -57l-15 144h129l-15 -144l140 57l37 -120l-144 -29z" />
    <glyph glyph-name="plus" unicode="+" horiz-adv-x="619" 
d="M563 295h-187v-153h-133v153h-187v119h187v153h133v-153h187v-119z" />
    <glyph glyph-name="comma" unicode="," horiz-adv-x="342" 
d="M85 153h171v-134q0 -101 -41 -144.5t-139 -45.5l-7 89q53 0 71 17t18 65h-73v153z" />
    <glyph glyph-name="hyphen" unicode="-" horiz-adv-x="496" 
d="M48 223v142h400v-142h-400z" />
    <glyph glyph-name="period" unicode="." horiz-adv-x="342" 
d="M85 0v153h171v-153h-171z" />
    <glyph glyph-name="slash" unicode="/" horiz-adv-x="482" 
d="M-2 -150l286 850h170l-286 -850h-170z" />
    <glyph glyph-name="zero" unicode="0" horiz-adv-x="928" 
d="M464 -11q-196 0 -305 95.5t-109 265.5t109 265.5t305 95.5t305 -95.5t109 -265.5t-109 -265.5t-305 -95.5zM464 125q117 0 177 57.5t60 167.5t-60 167.5t-177 57.5t-177 -57.5t-60 -167.5t60 -167.5t177 -57.5z" />
    <glyph glyph-name="one" unicode="1" horiz-adv-x="771" 
d="M47 0v136h285v419l-263 -48v140l285 53h151v-564h243v-136h-701z" />
    <glyph glyph-name="two" unicode="2" horiz-adv-x="804" 
d="M58 135l346 188q102 54 137 88.5t35 75.5q0 90 -169 90q-97 0 -144 -30.5t-53 -94.5l-170 28q18 113 111 172t257 59q165 0 256 -58t91 -159q0 -79 -54.5 -138t-209.5 -136l-152 -84h426v-136h-707v135z" />
    <glyph glyph-name="three" unicode="3" horiz-adv-x="836" 
d="M788 198q0 -101 -95.5 -155t-276.5 -54q-173 0 -266 51t-115 161l173 33q8 -59 58.5 -88t150.5 -29q187 0 187 91q0 81 -130 81h-185v128h185q125 0 125 81q0 85 -184 85q-185 0 -205 -112l-163 33q22 101 116 154t255 53q172 0 265 -49t93 -140q0 -118 -135 -160
q147 -37 147 -164z" />
    <glyph glyph-name="four" unicode="4" horiz-adv-x="855" 
d="M703 0h-166v126h-514v125l509 449h171v-444h132v-130h-132v-126zM216 256h321v280z" />
    <glyph glyph-name="five" unicode="5" horiz-adv-x="825" 
d="M414 -11q-158 0 -247 42.5t-119 136.5l171 37q25 -83 195 -83q190 0 190 109q0 111 -190 111q-147 0 -191 -55l-151 17l43 396h613v-128h-470l-19 -166q85 54 224 54q149 0 232 -58.5t83 -169.5q1 -117 -92.5 -180t-271.5 -63z" />
    <glyph glyph-name="six" unicode="6" horiz-adv-x="863" 
d="M51 345q0 174 105.5 270t299.5 96q146 0 237 -45t118 -133l-170 -34q-25 81 -186 81q-225 0 -232 -227q84 89 274 89q153 0 236.5 -56.5t83.5 -163.5q0 -111 -96.5 -172t-274.5 -61q-193 0 -294 92t-101 264zM447 120q96 0 146 26t50 73q0 102 -196 102
q-95 0 -145.5 -25.5t-50.5 -71.5q0 -50 50.5 -77t145.5 -27z" />
    <glyph glyph-name="seven" unicode="7" horiz-adv-x="729" 
d="M706 566l-367 -566h-201l378 564h-491v136h681v-134z" />
    <glyph glyph-name="eight" unicode="8" horiz-adv-x="871" 
d="M435 -11q-188 0 -288.5 54.5t-100.5 152.5q0 115 167 164q-138 50 -138 158q0 90 96 141.5t264 51.5q169 0 265 -52t96 -142q0 -106 -137 -158q80 -23 123 -64.5t43 -98.5q0 -98 -100.5 -152.5t-289.5 -54.5zM621 503q0 84 -186 84t-186 -83t186 -83t186 82zM435 113
q210 0 210 88q0 91 -210 91q-209 0 -209 -91q0 -88 209 -88z" />
    <glyph glyph-name="nine" unicode="9" horiz-adv-x="863" 
d="M812 355q0 -174 -105.5 -270t-299.5 -96q-146 0 -237 45t-118 133l170 34q26 -81 186 -81q225 0 232 227q-84 -89 -274 -89q-153 0 -236.5 56.5t-83.5 163.5q0 111 96.5 172t274.5 61q193 0 294 -92t101 -264zM416 580q-96 0 -146 -26t-50 -73q0 -102 196 -102
q95 0 145.5 25.5t50.5 71.5q0 50 -50.5 77t-145.5 27z" />
    <glyph glyph-name="colon" unicode=":" horiz-adv-x="342" 
d="M85 395v153h171v-153h-171zM85 0v153h171v-153h-171z" />
    <glyph glyph-name="semicolon" unicode=";" horiz-adv-x="341" 
d="M85 395v153h171v-153h-171zM85 153h171v-134q0 -101 -41 -144.5t-139 -45.5l-7 89q53 0 71 17t18 65h-73v153z" />
    <glyph glyph-name="less" unicode="&#x3c;" horiz-adv-x="619" 
d="M54 291v119l507 207v-139l-333 -123l333 -123v-148z" />
    <glyph glyph-name="equal" unicode="=" horiz-adv-x="619" 
d="M563 409h-507v118h507v-118zM563 182h-507v118h507v-118z" />
    <glyph glyph-name="greater" unicode="&#x3e;" horiz-adv-x="619" 
d="M565 410v-119l-507 -207v140l334 124l-334 123v146z" />
    <glyph glyph-name="question" unicode="?" horiz-adv-x="779" 
d="M391 576q-173 0 -189 -128l-169 31q16 109 110 170.5t248 61.5q164 0 253 -57t89 -149q0 -47 -20 -82t-50.5 -53.5t-66 -36t-66 -30.5t-51 -36.5t-21.5 -55.5h-169q2 61 31 103t68.5 62.5t79 36t66.5 35.5t27 48q0 80 -170 80zM288 0v145h171v-145h-171z" />
    <glyph glyph-name="at" unicode="@" horiz-adv-x="1206" 
d="M917 -9q-67 0 -113 24t-62 68q-73 -95 -218 -95q-94 0 -146 39.5t-52 106.5t51.5 104t170.5 47l185 16v2q0 95 -114 95t-126 -81l-147 18q19 81 90 123.5t185 42.5q259 0 259 -193v-177q0 -64 63 -64q58 0 95 55t37 156q0 163 -120.5 259.5t-341.5 96.5
q-228 0 -355.5 -112.5t-127.5 -295.5q0 -174 117.5 -273t342.5 -99q140 0 270 51l24 -58q-135 -58 -294 -58q-257 0 -396 117t-139 320q0 212 151.5 343t406.5 131q246 0 391.5 -115.5t145.5 -306.5q0 -130 -61 -208.5t-172 -78.5zM474 145q0 -54 80 -54q78 0 129.5 36
t51.5 90l-188 -18q-73 -7 -73 -54z" />
    <glyph glyph-name="A" unicode="A" horiz-adv-x="936" 
d="M743 0l-76 147h-405l-76 -147h-182l375 700h176l376 -700h-188zM329 277h270l-135 260z" />
    <glyph glyph-name="B" unicode="B" horiz-adv-x="939" 
d="M104 0v700h511q111 0 174.5 -47.5t63.5 -131.5q0 -114 -121 -159q73 -19 111.5 -63t38.5 -107q0 -90 -66.5 -141t-186.5 -51h-525zM582 576h-310v-161h311q47 0 73 21t26 60q0 80 -100 80zM597 291h-325v-167h325q107 0 107 81q0 86 -107 86z" />
    <glyph glyph-name="C" unicode="C" horiz-adv-x="947" 
d="M51 350q0 166 118.5 263.5t321.5 97.5q171 0 277 -62t137 -181l-179 -35q-37 142 -235 142q-130 0 -197 -58t-67 -167q0 -110 67 -167.5t197 -57.5q207 0 237 147l176 -34q-28 -122 -134 -185.5t-279 -63.5q-209 0 -324.5 97t-115.5 264z" />
    <glyph glyph-name="D" unicode="D" horiz-adv-x="982" 
d="M104 0v700h418q193 0 298 -92.5t105 -259.5q0 -165 -105 -256.5t-298 -91.5h-418zM529 136q108 0 163.5 54.5t55.5 157.5q0 105 -55.5 160.5t-163.5 55.5h-253v-428h253z" />
    <glyph glyph-name="E" unicode="E" horiz-adv-x="843" 
d="M104 0v700h678v-131h-509v-147h451v-130h-451v-161h517v-131h-686z" />
    <glyph glyph-name="F" unicode="F" horiz-adv-x="825" 
d="M104 0v700h678v-136h-506v-173h448v-137h-448v-254h-172z" />
    <glyph glyph-name="G" unicode="G" horiz-adv-x="1001" 
d="M51 349q0 169 120.5 265.5t332.5 96.5q343 0 410 -222l-173 -37q-40 123 -237 123q-137 0 -207 -58t-70 -168q0 -109 70 -166.5t206 -57.5q217 0 254 128h-266v123h436v-376h-126l-14 115q-93 -126 -306 -126q-201 0 -315.5 96.5t-114.5 263.5z" />
    <glyph glyph-name="H" unicode="H" horiz-adv-x="1021" 
d="M104 0v700h172v-272h469v272h172v-700h-172v292h-469v-292h-172z" />
    <glyph glyph-name="I" unicode="I" horiz-adv-x="380" 
d="M104 0v700h172v-700h-172z" />
    <glyph glyph-name="J" unicode="J" horiz-adv-x="563" 
d="M468 263q0 -141 -68.5 -207.5t-220.5 -66.5q-76 0 -144 13l-6 138q64 -9 118 -9q83 0 116 29t33 100v440h172v-437z" />
    <glyph glyph-name="K" unicode="K" horiz-adv-x="914" 
d="M104 0v700h169v-309l388 309h231l-406 -319l434 -381h-246l-320 277l-81 -63v-214h-169z" />
    <glyph glyph-name="L" unicode="L" horiz-adv-x="764" 
d="M104 0v700h172v-564h452v-136h-624z" />
    <glyph glyph-name="M" unicode="M" horiz-adv-x="1183" 
d="M104 0v700h184l306 -437l303 437h182v-700h-161v483l-252 -368h-148l-253 364v-479h-161z" />
    <glyph glyph-name="N" unicode="N" horiz-adv-x="1003" 
d="M104 0v700h169l468 -509v509h159v-700h-169l-469 508v-508h-158z" />
    <glyph glyph-name="O" unicode="O" horiz-adv-x="997" 
d="M499 -11q-210 0 -329 96.5t-119 263.5q0 168 119 265t329 97t329 -97t119 -265q0 -167 -119 -263.5t-329 -96.5zM499 125q135 0 203 57.5t68 166.5q0 110 -68.5 168t-202.5 58q-135 0 -203.5 -58t-68.5 -168q0 -109 68.5 -166.5t203.5 -57.5z" />
    <glyph glyph-name="P" unicode="P" horiz-adv-x="885" 
d="M104 0v700h462q128 0 203 -68t75 -183q0 -114 -77 -180.5t-208 -66.5h-283v-202h-172zM532 565h-256v-229h256q67 0 101.5 29t34.5 84q0 116 -136 116z" />
    <glyph glyph-name="Q" unicode="Q" horiz-adv-x="1008" 
d="M499 -11q-210 0 -329 96.5t-119 263.5q0 168 119 265t329 97t329 -97t119 -265q0 -189 -150 -285l122 -145h-189l-74 87q-73 -17 -157 -17zM499 125q38 0 65 4l-110 131h178l67 -80q71 57 71 169q0 110 -68.5 168t-202.5 58q-135 0 -203.5 -58t-68.5 -168
q0 -109 68.5 -166.5t203.5 -57.5z" />
    <glyph glyph-name="R" unicode="R" horiz-adv-x="906" 
d="M104 0v700h476q123 0 191 -60t68 -165q0 -90 -55.5 -147t-155.5 -68l238 -260h-213l-221 245h-156v-245h-172zM549 569h-273v-193h273q117 0 117 96q0 97 -117 97z" />
    <glyph glyph-name="S" unicode="S" horiz-adv-x="891" 
d="M41 213l175 25q28 -121 235 -121q218 0 218 80q0 38 -32 55t-119 25l-193 13q-262 25 -262 200q0 104 98 162.5t280 58.5q340 0 385 -210l-174 -25q-15 55 -65.5 81t-148.5 26q-201 0 -201 -78q0 -35 32 -51.5t112 -25.5l197 -12q137 -14 201.5 -63t64.5 -139
q0 -108 -99.5 -166.5t-296.5 -58.5q-362 0 -407 224z" />
    <glyph glyph-name="T" unicode="T" 
d="M330 0v564h-303v136h781v-136h-306v-564h-172z" />
    <glyph glyph-name="U" unicode="U" horiz-adv-x="956" 
d="M870 314q0 -155 -103 -240t-289 -85q-187 0 -289 85t-102 240v386h172v-386q0 -189 219 -189t219 189v386h173v-386z" />
    <glyph glyph-name="V" unicode="V" horiz-adv-x="897" 
d="M202 700l250 -519l253 519h184l-352 -700h-177l-352 700h194z" />
    <glyph glyph-name="W" unicode="W" horiz-adv-x="1285" 
d="M272 0l-263 700h183l174 -503l194 503h165l198 -502l173 502h181l-264 -700h-168l-205 509l-203 -509h-165z" />
    <glyph glyph-name="X" unicode="X" horiz-adv-x="839" 
d="M213 0h-205l301 358l-296 342h212l202 -238l194 238h203l-298 -347l306 -353h-213l-207 246z" />
    <glyph glyph-name="Y" unicode="Y" horiz-adv-x="836" 
d="M330 0v276l-331 424h212l210 -283l213 283h202l-333 -429v-271h-173z" />
    <glyph glyph-name="Z" unicode="Z" horiz-adv-x="825" 
d="M47 0v129l493 437h-489v134h728v-126l-499 -440h499v-134h-732z" />
    <glyph glyph-name="bracketleft" unicode="[" horiz-adv-x="454" 
d="M104 -150v850h334v-120h-175v-610h175v-120h-334z" />
    <glyph glyph-name="backslash" unicode="\" horiz-adv-x="482" 
d="M484 -150h-170l-286 850h170z" />
    <glyph glyph-name="bracketright" unicode="]" horiz-adv-x="454" 
d="M350 -150h-335v120h176v610h-176v120h335v-850z" />
    <glyph glyph-name="asciicircum" unicode="^" horiz-adv-x="627" 
d="M230 700h167l193 -420h-159l-120 292l-120 -292h-154z" />
    <glyph glyph-name="underscore" unicode="_" horiz-adv-x="611" 
d="M29 -142v142h552v-142h-552z" />
    <glyph glyph-name="grave" unicode="`" horiz-adv-x="500" 
d="M317 608h-136l-201 161h211z" />
    <glyph glyph-name="a" unicode="a" horiz-adv-x="767" 
d="M50 384q47 175 323 175q160 0 234 -51t74 -159v-201q0 -39 37 -39q9 0 23 2l-3 -109q-36 -12 -76 -12q-118 0 -130 104q-91 -105 -270 -105q-109 0 -170 43.5t-61 120.5t60 118.5t190 51.5l247 17q-2 54 -38.5 78.5t-119.5 24.5q-147 0 -162 -84zM190 163q0 -60 106 -60
q99 0 166.5 38.5t67.5 95.5v8l-253 -20q-87 -7 -87 -62z" />
    <glyph glyph-name="b" unicode="b" horiz-adv-x="859" 
d="M234 0h-146v750h164v-296q88 105 252 105q142 0 224.5 -77.5t82.5 -207.5q0 -131 -82 -208t-225 -77q-171 0 -259 112zM452 116q94 0 143 41.5t49 116.5t-49 116.5t-143 41.5q-95 0 -147.5 -42t-52.5 -116t52.5 -116t147.5 -42z" />
    <glyph glyph-name="c" unicode="c" horiz-adv-x="782" 
d="M749 356l-162 -30q-24 108 -179 108q-193 0 -193 -160q0 -78 48.5 -119t144.5 -41q159 0 182 112l160 -30q-22 -100 -111 -153.5t-231 -53.5q-169 0 -264.5 76t-95.5 209t95.5 209t264.5 76q142 0 229.5 -52t111.5 -151z" />
    <glyph glyph-name="d" unicode="d" horiz-adv-x="859" 
d="M356 -11q-143 0 -225.5 77t-82.5 208q0 130 82.5 207.5t225.5 77.5q163 0 251 -104v295h164v-750h-147l-11 100q-87 -111 -257 -111zM407 116q95 0 147.5 42t52.5 116t-52.5 116t-147.5 42q-94 0 -143 -41.5t-49 -116.5t49 -116.5t143 -41.5z" />
    <glyph glyph-name="e" unicode="e" horiz-adv-x="806" 
d="M412 -11q-170 0 -267 76.5t-97 209.5q0 129 96.5 206.5t264.5 77.5q161 0 257 -72.5t96 -195.5q0 -29 -6 -56h-545q23 -126 202 -126q160 0 187 77l158 -28q-28 -85 -110.5 -127t-235.5 -42zM410 442q-166 0 -196 -111h387q-25 111 -191 111z" />
    <glyph glyph-name="f" unicode="f" horiz-adv-x="532" 
d="M14 548h115q0 213 258 213q72 0 137 -13l-6 -119q-55 10 -109 10q-63 0 -90 -20.5t-27 -70.5h229v-122h-229v-426h-163v426h-115v122z" />
    <glyph glyph-name="g" unicode="g" horiz-adv-x="782" 
d="M374 559q156 0 237 -52q53 79 156 70l-7 -133q-54 9 -90 0q14 -28 14 -61q0 -82 -82 -128t-228 -46q-69 0 -119 10q-46 -9 -46 -41q0 -41 74 -42l254 -5q223 -5 223 -148q0 -194 -389 -194q-352 0 -352 141q0 89 128 108q-43 12 -66 39t-23 64q0 81 99 108
q-93 45 -93 134q0 83 82 129.5t228 46.5zM521 383q0 77 -147 77t-147 -77q0 -75 147 -75t147 75zM186 -43q0 -34 45.5 -49t145.5 -15q221 0 221 72q0 45 -76 46l-257 1q-79 -3 -79 -55z" />
    <glyph glyph-name="h" unicode="h" 
d="M88 0v750h164v-308q42 55 107.5 86t144.5 31q119 0 183.5 -60.5t64.5 -170.5v-328h-163v294q0 62 -36.5 96.5t-104.5 34.5q-90 0 -143 -46.5t-53 -125.5v-253h-164z" />
    <glyph glyph-name="i" unicode="i" horiz-adv-x="341" 
d="M87 614v137h166v-137h-166zM89 0v548h163v-548h-163z" />
    <glyph glyph-name="j" unicode="j" horiz-adv-x="340" 
d="M87 614v137h166v-137h-166zM88 5v543h164v-534q0 -121 -52 -173t-167 -52q-54 0 -95 8l-4 123q28 -5 61 -5q50 0 71.5 20.5t21.5 69.5z" />
    <glyph glyph-name="k" unicode="k" horiz-adv-x="760" 
d="M88 0v750h163v-422l275 220h213l-312 -240l334 -308h-221l-229 215l-60 -49v-166h-163z" />
    <glyph glyph-name="l" unicode="l" horiz-adv-x="340" 
d="M252 0h-164v750h164v-750z" />
    <glyph glyph-name="m" unicode="m" horiz-adv-x="1246" 
d="M88 0v548h147l11 -109q39 56 99.5 88t132.5 32q79 0 133.5 -33t78.5 -93q39 59 102 92.5t141 33.5q109 0 170.5 -61t61.5 -170v-328h-164v298q0 61 -32 94t-94 33q-76 0 -121.5 -46.5t-45.5 -125.5v-253h-163v299q0 60 -32.5 93t-94.5 33q-76 0 -121 -46.5t-45 -125.5
v-253h-164z" />
    <glyph glyph-name="n" unicode="n" 
d="M88 0v548h146l12 -114q42 59 109 92t149 33q119 0 183.5 -60.5t64.5 -170.5v-328h-163v294q0 62 -36.5 96.5t-104.5 34.5q-90 0 -143 -46.5t-53 -125.5v-253h-164z" />
    <glyph glyph-name="o" unicode="o" horiz-adv-x="820" 
d="M410 -11q-171 0 -266.5 76t-95.5 209t95.5 209t266.5 76t266.5 -76t95.5 -209q0 -134 -95 -209.5t-267 -75.5zM410 114q195 0 195 160t-195 160t-195 -160t195 -160z" />
    <glyph glyph-name="p" unicode="p" horiz-adv-x="859" 
d="M503 -11q-163 0 -251 104v-293h-164v748h147l10 -102q89 113 258 113q143 0 225.5 -77.5t82.5 -207.5q0 -131 -82.5 -208t-225.5 -77zM452 116q94 0 143 41.5t49 116.5t-49 116.5t-143 41.5q-95 0 -147.5 -42t-52.5 -116t52.5 -116t147.5 -42z" />
    <glyph glyph-name="q" unicode="q" horiz-adv-x="859" 
d="M356 -11q-143 0 -225.5 77t-82.5 208q0 130 82.5 207.5t225.5 77.5q83 0 149.5 -29.5t108.5 -82.5l10 101h147v-748h-164v293q-88 -104 -251 -104zM407 116q95 0 147.5 42t52.5 116t-52.5 116t-147.5 42q-94 0 -143 -41.5t-49 -116.5t49 -116.5t143 -41.5z" />
    <glyph glyph-name="r" unicode="r" horiz-adv-x="556" 
d="M88 0v548h147l13 -132q44 66 112.5 104.5t147.5 38.5q15 0 29 -2l-5 -165q-25 7 -67 7q-98 0 -155 -47.5t-58 -136.5v-215h-164z" />
    <glyph glyph-name="s" unicode="s" horiz-adv-x="737" 
d="M362 449q-154 0 -154 -54q0 -25 23.5 -36.5t84.5 -15.5l139 -9q127 -10 184.5 -47.5t57.5 -111.5q0 -89 -84.5 -137.5t-246.5 -48.5q-153 0 -230.5 41.5t-101.5 132.5l155 23q20 -87 174 -87q173 0 173 58q0 26 -22 38t-80 17l-140 8q-124 9 -183 49t-59 114q0 82 81 129
t228 47q145 0 223.5 -40t99.5 -124l-153 -23q-9 40 -49 58.5t-120 18.5z" />
    <glyph glyph-name="t" unicode="t" horiz-adv-x="573" 
d="M121 203v223h-110v122h64q50 0 63 21.5t20 118.5h127v-140h246v-122h-246v-203q0 -61 26.5 -84t95.5 -23q65 0 132 14l-5 -124q-77 -17 -169 -17q-127 0 -185.5 50t-58.5 164z" />
    <glyph glyph-name="u" unicode="u" horiz-adv-x="814" 
d="M563 296v252h163v-548h-145l-12 112q-40 -58 -104.5 -90.5t-141.5 -32.5q-115 0 -178.5 59.5t-63.5 170.5v329h163v-302q0 -60 33.5 -91.5t94.5 -31.5q86 0 138.5 46t52.5 127z" />
    <glyph glyph-name="v" unicode="v" horiz-adv-x="716" 
d="M293 0l-287 548h181l178 -365l176 365h169l-282 -548h-135z" />
    <glyph glyph-name="w" unicode="w" horiz-adv-x="1070" 
d="M238 0l-230 548h169l141 -365l151 365h136l159 -362l138 362h161l-228 -548h-134l-164 379l-164 -379h-135z" />
    <glyph glyph-name="x" unicode="x" horiz-adv-x="744" 
d="M203 0h-193l257 285l-246 263h199l157 -171l158 171h188l-251 -267l262 -281h-201l-167 187z" />
    <glyph glyph-name="y" unicode="y" horiz-adv-x="711" 
d="M534 548h171l-272 -556q-56 -114 -114.5 -158.5t-155.5 -44.5q-57 0 -99 13l-6 122q34 -7 73 -7q60 0 91.5 20.5t61.5 81.5l-278 529h180l181 -371z" />
    <glyph glyph-name="z" unicode="z" horiz-adv-x="696" 
d="M47 0v120l388 308h-384v120h599v-120l-387 -308h389v-120h-605z" />
    <glyph glyph-name="braceleft" unicode="{" horiz-adv-x="488" 
d="M180 275q71 -15 102 -54.5t31 -115.5v-51q0 -47 17 -65t61 -18q38 0 76 5l5 -120q-56 -8 -101 -8q-107 0 -160 44.5t-53 138.5v85q0 53 -24.5 72.5t-108.5 28.5v116q84 9 108.5 28.5t24.5 72.5v85q0 94 53 138.5t160 44.5q45 0 101 -8l-5 -120q-38 5 -76 5q-44 0 -61 -19
t-17 -65v-56q0 -72 -31 -110.5t-102 -53.5z" />
    <glyph glyph-name="bar" unicode="|" horiz-adv-x="369" 
d="M266 -170h-162v930h162v-930z" />
    <glyph glyph-name="braceright" unicode="}" horiz-adv-x="488" 
d="M463 333v-116q-85 -9 -109.5 -28.5t-24.5 -72.5v-85q0 -94 -52.5 -138.5t-159.5 -44.5q-46 0 -102 8l6 120q38 -5 76 -5q44 0 60.5 18t16.5 65v51q0 75 31.5 115t102.5 55q-71 15 -102.5 53.5t-31.5 110.5v56q0 46 -17 65t-60 19q-38 0 -76 -5l-6 120q57 8 102 8
q107 0 159.5 -44.5t52.5 -138.5v-85q0 -53 24.5 -72.5t109.5 -28.5z" />
    <glyph glyph-name="asciitilde" unicode="~" horiz-adv-x="619" 
d="M187 335q-56 0 -131 -41v121q78 39 142 39q54 0 126.5 -32t106.5 -32q56 0 132 41v-121q-81 -39 -142 -39q-52 0 -124 32t-110 32z" />
    <glyph glyph-name="uni00A0" unicode="&#xa0;" horiz-adv-x="274" 
 />
    <glyph glyph-name="exclamdown" unicode="&#xa1;" horiz-adv-x="376" 
d="M274 548v-145h-171v145h171zM113 338h150l11 -490h-172z" />
    <glyph glyph-name="cent" unicode="&#xa2;" horiz-adv-x="779" 
d="M235 -80l31 86q-105 28 -161.5 97t-56.5 171q0 133 95.5 209t264.5 76q19 0 53 -2l22 63h81l-26 -74q175 -41 211 -190l-162 -30q-16 73 -93 97l-109 -308q7 -1 23 -1q159 0 182 112l160 -30q-22 -100 -111 -153.5t-231 -53.5q-34 0 -66 3l-26 -72h-81zM215 274
q0 -111 94 -145l108 305h-9q-193 0 -193 -160z" />
    <glyph glyph-name="sterling" unicode="&#xa3;" horiz-adv-x="829" 
d="M48 286v81h116q-47 80 -47 137q0 93 86 150t231 57q154 0 236.5 -48.5t110.5 -150.5l-186 -29q-19 99 -158 99q-140 0 -140 -88q0 -16 6.5 -35t11 -28t20.5 -34t19 -30h309v-81h-276q2 -16 2 -25q0 -41 -23 -75t-65 -55h477v-131h-730v131h28q65 0 101.5 28t36.5 78
q0 25 -8 49h-158z" />
    <glyph glyph-name="currency" unicode="&#xa4;" horiz-adv-x="566" 
d="M283 166q-52 0 -95 19l-86 -86l-80 81l83 82q-21 38 -21 88t21 87l-83 83l80 80l87 -87q41 18 94 18t94 -18l87 87l80 -80l-83 -83q21 -37 21 -87q0 -49 -21 -88l83 -82l-80 -81l-86 86q-43 -19 -95 -19zM283 269q42 0 65.5 22t23.5 59t-24 57.5t-65 20.5t-65 -20.5
t-24 -57.5t24 -59t65 -22z" />
    <glyph glyph-name="yen" unicode="&#xa5;" horiz-adv-x="846" 
d="M61 206v77h268l-63 81h-210v76h151l-202 260h211l211 -283l213 283h202l-202 -260h147v-76h-207l-63 -81h266v-77h-274v-206h-173v206h-275z" />
    <glyph glyph-name="brokenbar" unicode="&#xa6;" horiz-adv-x="369" 
d="M266 355h-162v405h162v-405zM266 -170h-162v425h162v-425z" />
    <glyph glyph-name="section" unicode="&#xa7;" horiz-adv-x="852" 
d="M429 -211q-180 0 -274 51t-113 160l181 20q21 -109 212 -109q180 0 180 72q0 34 -32 50t-138 32l-124 18q-133 21 -188 62t-55 115q0 92 112 142q-60 24 -88 60.5t-28 90.5q0 96 92.5 152t262.5 56q334 0 368 -200l-181 -20q-11 52 -55 75t-134 23q-174 0 -174 -71
q0 -27 30.5 -43t120.5 -30l129 -20q137 -23 194.5 -64t57.5 -118q0 -94 -97 -145q59 -25 83 -60.5t24 -88.5q0 -100 -94 -155t-272 -55zM524 190q26 -4 48 -9q45 33 45 76q0 38 -35 58.5t-128 34.5l-133 20q-14 2 -23 4q-52 -33 -52 -76q0 -36 34.5 -55.5t123.5 -34.5z" />
    <glyph glyph-name="dieresis" unicode="&#xa8;" horiz-adv-x="500" 
d="M296 614v144h169v-144h-169zM34 614v144h170v-144h-170z" />
    <glyph glyph-name="copyright" unicode="&#xa9;" horiz-adv-x="1012" 
d="M506 -51q-211 0 -335.5 111.5t-124.5 289.5t124.5 289.5t335.5 111.5t335 -111.5t124 -289.5t-124 -289.5t-335 -111.5zM506 14q183 0 284 91.5t101 244.5t-101 244.5t-284 91.5q-182 0 -283.5 -92t-101.5 -244q0 -153 101 -244.5t284 -91.5zM717 401l-100 -15
q-17 67 -103 67q-54 0 -83 -27t-29 -75t29 -74.5t83 -26.5q92 0 105 70l98 -14q-13 -63 -67 -97t-136 -34q-99 0 -156.5 47.5t-57.5 128.5q0 82 58 129.5t156 47.5q169 0 203 -127z" />
    <glyph glyph-name="ordfeminine" unicode="&#xaa;" horiz-adv-x="520" 
d="M63 600q26 109 199 109q187 0 187 -129v-115q0 -20 22 -20q11 0 15 1l-2 -71q-24 -7 -53 -7q-79 0 -92 54q-48 -54 -149 -54q-69 0 -105 26.5t-36 70.5t34 69t116 31l135 10v4q0 54 -76 54q-72 0 -81 -45zM166 474q0 -32 52 -32q48 0 83 21.5t35 53.5l-132 -12
q-38 -4 -38 -31z" />
    <glyph glyph-name="guillemotleft" unicode="&#xab;" horiz-adv-x="835" 
d="M382 186v-159l-336 163v169l336 164v-155l-227 -92zM776 186v-159l-336 163v169l336 164v-155l-227 -92z" />
    <glyph glyph-name="logicalnot" unicode="&#xac;" horiz-adv-x="619" 
d="M56 414h507v-274h-133v155h-374v119z" />
    <glyph glyph-name="uni00AD" unicode="&#xad;" horiz-adv-x="0" 
 />
    <glyph glyph-name="registered" unicode="&#xae;" horiz-adv-x="972" 
d="M486 -11q-201 0 -320.5 102t-119.5 259t119.5 259t320.5 102t320 -102t119 -259t-119 -259t-320 -102zM486 54q174 0 269.5 80.5t95.5 215.5t-95.5 215.5t-269.5 80.5t-269.5 -80.5t-95.5 -215.5t95.5 -215.5t269.5 -80.5zM316 180v343h236q63 0 97.5 -28.5t34.5 -79.5
q0 -83 -87 -104l108 -131h-108l-93 116h-99v-116h-89zM542 454h-137v-88h137q54 0 54 44t-54 44z" />
    <glyph glyph-name="macron" unicode="&#xaf;" horiz-adv-x="500" 
d="M47 618v109h406v-109h-406z" />
    <glyph glyph-name="degree" unicode="&#xb0;" horiz-adv-x="589" 
d="M295 710q103 0 163 -48t60 -126t-60 -126t-163 -48q-104 0 -164 48t-60 126t60.5 126t163.5 48zM295 464q44 0 68.5 19.5t24.5 52.5t-24 52t-69 19t-69.5 -19t-24.5 -52t24.5 -52.5t69.5 -19.5z" />
    <glyph glyph-name="plusminus" unicode="&#xb1;" horiz-adv-x="619" 
d="M563 344h-187v-153h-133v153h-187v119h187v153h133v-153h187v-119zM563 5h-507v119h507v-119z" />
    <glyph glyph-name="twosuperior" unicode="&#xb2;" horiz-adv-x="466" 
d="M36 541l219 92q35 17 46 29t11 28q0 41 -79 41q-84 0 -93 -55l-111 17q10 57 62 88.5t139 31.5q97 0 148 -31t51 -85q0 -42 -31 -72t-117 -62l-56 -21h204v-84h-393v83z" />
    <glyph glyph-name="threesuperior" unicode="&#xb3;" horiz-adv-x="468" 
d="M436 560q0 -50 -52.5 -78.5t-154.5 -28.5q-188 0 -204 106l110 16q6 -44 95 -44t89 37q0 29 -48 29h-104v75h105q45 0 45 29q0 34 -85 34q-89 0 -96 -43l-106 17q8 49 60 76.5t141 27.5q97 0 148 -25.5t51 -72.5q0 -56 -65 -77q71 -19 71 -78z" />
    <glyph glyph-name="acute" unicode="&#xb4;" horiz-adv-x="500" 
d="M183 608l126 161h210l-200 -161h-136z" />
    <glyph glyph-name="paragraph" unicode="&#xb6;" horiz-adv-x="922" 
d="M488 -150h-166v456h-68q-96 0 -152.5 53t-56.5 141q0 91 56.5 145.5t152.5 54.5h234v-850zM819 -150h-166v850h166v-850z" />
    <glyph glyph-name="periodcentered" unicode="&#xb7;" horiz-adv-x="500" 
d="M161 280v159h177v-159h-177z" />
    <glyph glyph-name="cedilla" unicode="&#xb8;" horiz-adv-x="500" 
d="M475 -119q0 -48 -44 -71.5t-142 -23.5q-71 0 -151 16l4 70q76 -15 127 -15q44 0 61 6t17 20q0 22 -36 22q-21 0 -41 -11l-81 9l16 105h102l-8 -52q28 7 59 7q117 0 117 -82z" />
    <glyph glyph-name="onesuperior" unicode="&#xb9;" horiz-adv-x="423" 
d="M34 458v86h134v175l-124 -21v86l143 24h95v-264h116v-86h-364z" />
    <glyph glyph-name="ordmasculine" unicode="&#xba;" horiz-adv-x="552" 
d="M276 368q-106 0 -162.5 45.5t-56.5 124.5t56.5 125t162.5 46t162.5 -46t56.5 -125q0 -78 -56.5 -124t-162.5 -46zM276 450q97 0 97 88q0 89 -97 89t-97 -89q0 -88 97 -88z" />
    <glyph glyph-name="guillemotright" unicode="&#xbb;" horiz-adv-x="835" 
d="M395 190l-336 -163v155l226 92l-226 89v160l336 -164v-169zM789 190l-336 -163v155l226 92l-226 89v160l336 -164v-169z" />
    <glyph glyph-name="onequarter" unicode="&#xbc;" horiz-adv-x="1169" 
d="M34 350v86h134v175l-124 -21v86l143 24h95v-264h116v-86h-364zM339 0h-150l690 700h150zM1079 0h-106v58h-264v70l273 223h97v-215h65v-78h-65v-58zM830 136h143v119z" />
    <glyph glyph-name="onehalf" unicode="&#xbd;" horiz-adv-x="1195" 
d="M34 350v86h134v175l-124 -21v86l143 24h95v-264h116v-86h-364zM339 0h-150l690 700h150zM764 83l219 92q35 17 46 29t11 28q0 41 -79 41q-84 0 -93 -55l-111 17q10 57 62 88.5t139 31.5q97 0 148 -31t51 -85q0 -42 -31 -72t-117 -62l-56 -21h204v-84h-393v83z" />
    <glyph glyph-name="threequarters" unicode="&#xbe;" horiz-adv-x="1161" 
d="M436 452q0 -50 -52.5 -78.5t-154.5 -28.5q-188 0 -204 106l110 16q6 -44 95 -44t89 37q0 29 -48 29h-104v75h105q45 0 45 29q0 34 -85 34q-89 0 -96 -43l-106 17q8 49 60 76.5t141 27.5q97 0 148 -25.5t51 -72.5q0 -56 -65 -77q71 -19 71 -78zM331 0h-150l690 700h150z
M1071 0h-106v58h-264v70l273 223h97v-215h65v-78h-65v-58zM822 136h143v119z" />
    <glyph glyph-name="questiondown" unicode="&#xbf;" horiz-adv-x="779" 
d="M490 548v-145h-171v145h171zM387 -28q174 0 189 128l170 -31q-16 -109 -110 -170.5t-249 -61.5q-163 0 -252 57t-89 150q0 56 28 94t68 58t80 36.5t68.5 42.5t29.5 63h169q-1 -45 -17 -79.5t-40 -55.5t-52.5 -37t-57 -27t-52 -22.5t-38 -27.5t-14.5 -37q0 -80 169 -80z
" />
    <glyph glyph-name="Agrave" unicode="&#xc0;" horiz-adv-x="936" 
d="M535 760h-136l-201 161h211zM743 0l-76 147h-405l-76 -147h-182l375 700h176l376 -700h-188zM329 277h270l-135 260z" />
    <glyph glyph-name="Aacute" unicode="&#xc1;" horiz-adv-x="936" 
d="M401 760l126 161h210l-200 -161h-136zM743 0l-76 147h-405l-76 -147h-182l375 700h176l376 -700h-188zM329 277h270l-135 260z" />
    <glyph glyph-name="Acircumflex" unicode="&#xc2;" horiz-adv-x="936" 
d="M581 760l-116 84l-113 -84h-124l146 161h191l143 -161h-127zM743 0l-76 147h-405l-76 -147h-182l375 700h176l376 -700h-188zM329 277h270l-135 260z" />
    <glyph glyph-name="Atilde" unicode="&#xc3;" horiz-adv-x="936" 
d="M674 922q9 -87 -21 -128.5t-89 -41.5q-36 0 -68.5 18t-58 35.5t-44.5 17.5q-38 0 -31 -61h-104q-8 88 22.5 130t91.5 42q33 0 66 -18.5t59 -37t43 -18.5q37 0 30 62h104zM743 0l-76 147h-405l-76 -147h-182l375 700h176l376 -700h-188zM329 277h270l-135 260z" />
    <glyph glyph-name="Adieresis" unicode="&#xc4;" horiz-adv-x="936" 
d="M514 766v144h169v-144h-169zM252 766v144h170v-144h-170zM743 0l-76 147h-405l-76 -147h-182l375 700h176l376 -700h-188zM329 277h270l-135 260z" />
    <glyph glyph-name="Aring" unicode="&#xc5;" horiz-adv-x="936" 
d="M469 746q-73 0 -114 31.5t-41 86.5q0 54 41.5 85.5t113.5 31.5q71 0 112 -31.5t41 -85.5q0 -55 -41 -86.5t-112 -31.5zM469 814q69 0 69 50q0 49 -69 49q-72 0 -72 -49q0 -50 72 -50zM743 0l-76 147h-405l-76 -147h-182l375 700h176l376 -700h-188zM329 277h270l-135 260
z" />
    <glyph glyph-name="AE" unicode="&#xc6;" horiz-adv-x="1403" 
d="M691 0v153h-389l-111 -153h-191l506 700h836v-131h-482v-148h424v-129h-424v-161h491v-131h-660zM396 282h295v287h-87z" />
    <glyph glyph-name="Ccedilla" unicode="&#xc7;" horiz-adv-x="947" 
d="M51 350q0 166 118.5 263.5t321.5 97.5q171 0 277 -62t137 -181l-179 -35q-37 142 -235 142q-130 0 -197 -58t-67 -167q0 -110 67 -167.5t197 -57.5q207 0 237 147l176 -34q-28 -118 -126.5 -181t-260.5 -68l-5 -33q28 7 59 7q117 0 117 -82q0 -48 -44 -71.5t-142 -23.5
q-71 0 -151 16l4 70q76 -15 127 -15q44 0 61 6t17 20q0 22 -36 22q-21 0 -41 -11l-81 9l14 90q-175 17 -270 111.5t-95 245.5z" />
    <glyph glyph-name="Egrave" unicode="&#xc8;" horiz-adv-x="843" 
d="M512 760h-136l-201 161h211zM104 0v700h678v-131h-509v-147h451v-130h-451v-161h517v-131h-686z" />
    <glyph glyph-name="Eacute" unicode="&#xc9;" horiz-adv-x="843" 
d="M363 760l126 161h210l-200 -161h-136zM104 0v700h678v-131h-509v-147h451v-130h-451v-161h517v-131h-686z" />
    <glyph glyph-name="Ecircumflex" unicode="&#xca;" horiz-adv-x="843" 
d="M555 760l-116 84l-113 -84h-124l146 161h191l143 -161h-127zM104 0v700h678v-131h-509v-147h451v-130h-451v-161h517v-131h-686z" />
    <glyph glyph-name="Edieresis" unicode="&#xcb;" horiz-adv-x="843" 
d="M489 766v144h169v-144h-169zM227 766v144h170v-144h-170zM104 0v700h678v-131h-509v-147h451v-130h-451v-161h517v-131h-686z" />
    <glyph glyph-name="Igrave" unicode="&#xcc;" horiz-adv-x="380" 
d="M257 760h-136l-201 161h211zM104 0v700h172v-700h-172z" />
    <glyph glyph-name="Iacute" unicode="&#xcd;" horiz-adv-x="380" 
d="M123 760l126 161h210l-200 -161h-136zM104 0v700h172v-700h-172z" />
    <glyph glyph-name="Icircumflex" unicode="&#xce;" horiz-adv-x="380" 
d="M303 760l-116 84l-113 -84h-124l146 161h191l143 -161h-127zM104 0v700h172v-700h-172z" />
    <glyph glyph-name="Idieresis" unicode="&#xcf;" horiz-adv-x="380" 
d="M236 766v144h169v-144h-169zM-26 766v144h170v-144h-170zM104 0v700h172v-700h-172z" />
    <glyph glyph-name="Eth" unicode="&#xd0;" horiz-adv-x="994" 
d="M116 0v308h-108v86h108v306h418q193 0 298 -92.5t105 -259.5q0 -165 -105 -256.5t-298 -91.5h-418zM541 136q108 0 163.5 54.5t55.5 157.5q0 105 -55.5 160.5t-163.5 55.5h-253v-170h188v-86h-188v-172h253z" />
    <glyph glyph-name="Ntilde" unicode="&#xd1;" horiz-adv-x="1003" 
d="M712 922q9 -87 -21 -128.5t-89 -41.5q-36 0 -68.5 18t-58 35.5t-44.5 17.5q-38 0 -31 -61h-104q-8 88 22.5 130t91.5 42q33 0 66 -18.5t59 -37t43 -18.5q37 0 30 62h104zM104 0v700h169l468 -509v509h159v-700h-169l-469 508v-508h-158z" />
    <glyph glyph-name="Ograve" unicode="&#xd2;" horiz-adv-x="997" 
d="M566 760h-136l-201 161h211zM499 -11q-210 0 -329 96.5t-119 263.5q0 168 119 265t329 97t329 -97t119 -265q0 -167 -119 -263.5t-329 -96.5zM499 125q135 0 203 57.5t68 166.5q0 110 -68.5 168t-202.5 58q-135 0 -203.5 -58t-68.5 -168q0 -109 68.5 -166.5t203.5 -57.5z
" />
    <glyph glyph-name="Oacute" unicode="&#xd3;" horiz-adv-x="997" 
d="M432 760l126 161h210l-200 -161h-136zM499 -11q-210 0 -329 96.5t-119 263.5q0 168 119 265t329 97t329 -97t119 -265q0 -167 -119 -263.5t-329 -96.5zM499 125q135 0 203 57.5t68 166.5q0 110 -68.5 168t-202.5 58q-135 0 -203.5 -58t-68.5 -168q0 -109 68.5 -166.5
t203.5 -57.5z" />
    <glyph glyph-name="Ocircumflex" unicode="&#xd4;" horiz-adv-x="997" 
d="M612 760l-116 84l-113 -84h-124l146 161h191l143 -161h-127zM499 -11q-210 0 -329 96.5t-119 263.5q0 168 119 265t329 97t329 -97t119 -265q0 -167 -119 -263.5t-329 -96.5zM499 125q135 0 203 57.5t68 166.5q0 110 -68.5 168t-202.5 58q-135 0 -203.5 -58t-68.5 -168
q0 -109 68.5 -166.5t203.5 -57.5z" />
    <glyph glyph-name="Otilde" unicode="&#xd5;" horiz-adv-x="997" 
d="M705 922q9 -87 -21 -128.5t-89 -41.5q-36 0 -68.5 18t-58 35.5t-44.5 17.5q-38 0 -31 -61h-104q-8 88 22.5 130t91.5 42q33 0 66 -18.5t59 -37t43 -18.5q37 0 30 62h104zM499 -11q-210 0 -329 96.5t-119 263.5q0 168 119 265t329 97t329 -97t119 -265q0 -167 -119 -263.5
t-329 -96.5zM499 125q135 0 203 57.5t68 166.5q0 110 -68.5 168t-202.5 58q-135 0 -203.5 -58t-68.5 -168q0 -109 68.5 -166.5t203.5 -57.5z" />
    <glyph glyph-name="Odieresis" unicode="&#xd6;" horiz-adv-x="997" 
d="M545 766v144h169v-144h-169zM283 766v144h170v-144h-170zM499 -11q-210 0 -329 96.5t-119 263.5q0 168 119 265t329 97t329 -97t119 -265q0 -167 -119 -263.5t-329 -96.5zM499 125q135 0 203 57.5t68 166.5q0 110 -68.5 168t-202.5 58q-135 0 -203.5 -58t-68.5 -168
q0 -109 68.5 -166.5t203.5 -57.5z" />
    <glyph glyph-name="multiply" unicode="&#xd7;" horiz-adv-x="619" 
d="M470 138l-160 140l-160 -140l-82 88l150 131l-150 131l82 88l160 -139l160 139l81 -87l-150 -132l150 -131z" />
    <glyph glyph-name="Oslash" unicode="&#xd8;" horiz-adv-x="997" 
d="M87 0l84 85q-120 95 -120 264q0 168 119 265t329 97q144 0 249 -48l37 37h127l-85 -85q120 -97 120 -266q0 -167 -119 -263.5t-329 -96.5q-142 0 -249 47l-36 -36h-127zM227 349q0 -98 55 -154l357 358q-57 22 -140 22q-135 0 -203.5 -58t-68.5 -168zM499 125
q135 0 203 57.5t68 166.5q0 99 -54 154l-356 -357q57 -21 139 -21z" />
    <glyph glyph-name="Ugrave" unicode="&#xd9;" horiz-adv-x="956" 
d="M546 760h-136l-201 161h211zM870 314q0 -155 -103 -240t-289 -85q-187 0 -289 85t-102 240v386h172v-386q0 -189 219 -189t219 189v386h173v-386z" />
    <glyph glyph-name="Uacute" unicode="&#xda;" horiz-adv-x="956" 
d="M411 760l126 161h210l-200 -161h-136zM870 314q0 -155 -103 -240t-289 -85q-187 0 -289 85t-102 240v386h172v-386q0 -189 219 -189t219 189v386h173v-386z" />
    <glyph glyph-name="Ucircumflex" unicode="&#xdb;" horiz-adv-x="956" 
d="M591 760l-116 84l-113 -84h-124l146 161h191l143 -161h-127zM870 314q0 -155 -103 -240t-289 -85q-187 0 -289 85t-102 240v386h172v-386q0 -189 219 -189t219 189v386h173v-386z" />
    <glyph glyph-name="Udieresis" unicode="&#xdc;" horiz-adv-x="956" 
d="M524 766v144h169v-144h-169zM262 766v144h170v-144h-170zM870 314q0 -155 -103 -240t-289 -85q-187 0 -289 85t-102 240v386h172v-386q0 -189 219 -189t219 189v386h173v-386z" />
    <glyph glyph-name="Yacute" unicode="&#xdd;" horiz-adv-x="836" 
d="M351 760l126 161h210l-200 -161h-136zM330 0v276l-331 424h212l210 -283l213 283h202l-333 -429v-271h-173z" />
    <glyph glyph-name="Thorn" unicode="&#xde;" horiz-adv-x="885" 
d="M104 0v700h172v-98h290q128 0 203 -68t75 -183q0 -113 -77 -180t-208 -67h-283v-104h-172zM533 468h-257v-229h257q135 0 135 112q0 57 -34.5 87t-100.5 30z" />
    <glyph glyph-name="germandbls" unicode="&#xdf;" horiz-adv-x="903" 
d="M79 0v481q0 131 101 205.5t280 74.5q151 0 232 -53t81 -146q0 -51 -29 -91.5t-83 -62.5q200 -29 200 -190q0 -109 -90.5 -169t-252.5 -60q-120 0 -208 31l28 125q72 -30 160 -30q194 0 194 106q0 52 -36.5 77t-119.5 25h-175v124h109q72 0 109.5 25t37.5 70q0 97 -161 97
q-103 0 -158.5 -37.5t-55.5 -110.5v-491h-163z" />
    <glyph glyph-name="agrave" unicode="&#xe0;" horiz-adv-x="767" 
d="M456 608h-136l-201 161h211zM50 384q47 175 323 175q160 0 234 -51t74 -159v-201q0 -39 37 -39q9 0 23 2l-3 -109q-36 -12 -76 -12q-118 0 -130 104q-91 -105 -270 -105q-109 0 -170 43.5t-61 120.5t60 118.5t190 51.5l247 17q-2 54 -38.5 78.5t-119.5 24.5
q-147 0 -162 -84zM190 163q0 -60 106 -60q99 0 166.5 38.5t67.5 95.5v8l-253 -20q-87 -7 -87 -62z" />
    <glyph glyph-name="aacute" unicode="&#xe1;" horiz-adv-x="767" 
d="M322 608l126 161h210l-200 -161h-136zM50 384q47 175 323 175q160 0 234 -51t74 -159v-201q0 -39 37 -39q9 0 23 2l-3 -109q-36 -12 -76 -12q-118 0 -130 104q-91 -105 -270 -105q-109 0 -170 43.5t-61 120.5t60 118.5t190 51.5l247 17q-2 54 -38.5 78.5t-119.5 24.5
q-147 0 -162 -84zM190 163q0 -60 106 -60q99 0 166.5 38.5t67.5 95.5v8l-253 -20q-87 -7 -87 -62z" />
    <glyph glyph-name="acircumflex" unicode="&#xe2;" horiz-adv-x="767" 
d="M502 608l-116 84l-113 -84h-124l146 161h191l143 -161h-127zM50 384q47 175 323 175q160 0 234 -51t74 -159v-201q0 -39 37 -39q9 0 23 2l-3 -109q-36 -12 -76 -12q-118 0 -130 104q-91 -105 -270 -105q-109 0 -170 43.5t-61 120.5t60 118.5t190 51.5l247 17
q-2 54 -38.5 78.5t-119.5 24.5q-147 0 -162 -84zM190 163q0 -60 106 -60q99 0 166.5 38.5t67.5 95.5v8l-253 -20q-87 -7 -87 -62z" />
    <glyph glyph-name="atilde" unicode="&#xe3;" horiz-adv-x="767" 
d="M595 770q9 -87 -21 -128.5t-89 -41.5q-36 0 -68.5 18t-58 35.5t-44.5 17.5q-38 0 -31 -61h-104q-8 88 22.5 130t91.5 42q33 0 66 -18.5t59 -37t43 -18.5q37 0 30 62h104zM50 384q47 175 323 175q160 0 234 -51t74 -159v-201q0 -39 37 -39q9 0 23 2l-3 -109
q-36 -12 -76 -12q-118 0 -130 104q-91 -105 -270 -105q-109 0 -170 43.5t-61 120.5t60 118.5t190 51.5l247 17q-2 54 -38.5 78.5t-119.5 24.5q-147 0 -162 -84zM190 163q0 -60 106 -60q99 0 166.5 38.5t67.5 95.5v8l-253 -20q-87 -7 -87 -62z" />
    <glyph glyph-name="adieresis" unicode="&#xe4;" horiz-adv-x="767" 
d="M435 614v144h169v-144h-169zM173 614v144h170v-144h-170zM50 384q47 175 323 175q160 0 234 -51t74 -159v-201q0 -39 37 -39q9 0 23 2l-3 -109q-36 -12 -76 -12q-118 0 -130 104q-91 -105 -270 -105q-109 0 -170 43.5t-61 120.5t60 118.5t190 51.5l247 17
q-2 54 -38.5 78.5t-119.5 24.5q-147 0 -162 -84zM190 163q0 -60 106 -60q99 0 166.5 38.5t67.5 95.5v8l-253 -20q-87 -7 -87 -62z" />
    <glyph glyph-name="aring" unicode="&#xe5;" horiz-adv-x="767" 
d="M390 594q-73 0 -114 31.5t-41 86.5q0 54 41.5 85.5t113.5 31.5q71 0 112 -31.5t41 -85.5q0 -55 -41 -86.5t-112 -31.5zM390 662q69 0 69 50q0 49 -69 49q-72 0 -72 -49q0 -50 72 -50zM50 384q47 175 323 175q160 0 234 -51t74 -159v-201q0 -39 37 -39q9 0 23 2l-3 -109
q-36 -12 -76 -12q-118 0 -130 104q-91 -105 -270 -105q-109 0 -170 43.5t-61 120.5t60 118.5t190 51.5l247 17q-2 54 -38.5 78.5t-119.5 24.5q-147 0 -162 -84zM190 163q0 -60 106 -60q99 0 166.5 38.5t67.5 95.5v8l-253 -20q-87 -7 -87 -62z" />
    <glyph glyph-name="ae" unicode="&#xe6;" horiz-adv-x="1261" 
d="M301 -11q-139 0 -204.5 44t-65.5 120q0 77 60 118t190 52l247 17q-3 54 -38.5 78.5t-116.5 24.5q-148 0 -161 -84l-158 25q47 175 322 175q173 0 245 -80q89 80 255 80q156 0 248.5 -72.5t92.5 -195.5q0 -26 -5 -56h-528q23 -126 195 -126q149 0 176 77l158 -28
q-56 -169 -334 -169q-188 0 -282 106q-99 -106 -296 -106zM875 442q-158 0 -187 -110h367q-25 110 -180 110zM190 163q0 -61 115 -61q103 0 165 38.5t60 97.5v7l-253 -20q-87 -7 -87 -62z" />
    <glyph glyph-name="ccedilla" unicode="&#xe7;" horiz-adv-x="782" 
d="M749 356l-162 -30q-24 108 -179 108q-193 0 -193 -160q0 -78 48.5 -119t144.5 -41q159 0 182 112l160 -30q-22 -96 -105.5 -149.5t-217.5 -57.5l-5 -33q28 7 59 7q117 0 117 -82q0 -48 -44 -71.5t-142 -23.5q-71 0 -151 16l4 70q76 -15 127 -15q44 0 61 6t17 20
q0 22 -36 22q-21 0 -41 -11l-81 9l14 91q-132 18 -205 91.5t-73 188.5q0 133 95.5 209t264.5 76q142 0 229.5 -52t111.5 -151z" />
    <glyph glyph-name="egrave" unicode="&#xe8;" horiz-adv-x="806" 
d="M470 608h-136l-201 161h211zM412 -11q-170 0 -267 76.5t-97 209.5q0 129 96.5 206.5t264.5 77.5q161 0 257 -72.5t96 -195.5q0 -29 -6 -56h-545q23 -126 202 -126q160 0 187 77l158 -28q-28 -85 -110.5 -127t-235.5 -42zM410 442q-166 0 -196 -111h387q-25 111 -191 111z
" />
    <glyph glyph-name="eacute" unicode="&#xe9;" horiz-adv-x="806" 
d="M336 608l126 161h210l-200 -161h-136zM412 -11q-170 0 -267 76.5t-97 209.5q0 129 96.5 206.5t264.5 77.5q161 0 257 -72.5t96 -195.5q0 -29 -6 -56h-545q23 -126 202 -126q160 0 187 77l158 -28q-28 -85 -110.5 -127t-235.5 -42zM410 442q-166 0 -196 -111h387
q-25 111 -191 111z" />
    <glyph glyph-name="ecircumflex" unicode="&#xea;" horiz-adv-x="806" 
d="M516 608l-116 84l-113 -84h-124l146 161h191l143 -161h-127zM412 -11q-170 0 -267 76.5t-97 209.5q0 129 96.5 206.5t264.5 77.5q161 0 257 -72.5t96 -195.5q0 -29 -6 -56h-545q23 -126 202 -126q160 0 187 77l158 -28q-28 -85 -110.5 -127t-235.5 -42zM410 442
q-166 0 -196 -111h387q-25 111 -191 111z" />
    <glyph glyph-name="edieresis" unicode="&#xeb;" horiz-adv-x="806" 
d="M449 614v144h169v-144h-169zM187 614v144h170v-144h-170zM412 -11q-170 0 -267 76.5t-97 209.5q0 129 96.5 206.5t264.5 77.5q161 0 257 -72.5t96 -195.5q0 -29 -6 -56h-545q23 -126 202 -126q160 0 187 77l158 -28q-28 -85 -110.5 -127t-235.5 -42zM410 442
q-166 0 -196 -111h387q-25 111 -191 111z" />
    <glyph glyph-name="igrave" unicode="&#xec;" horiz-adv-x="341" 
d="M237 608h-136l-201 161h211zM88 0v548h164v-548h-164z" />
    <glyph glyph-name="iacute" unicode="&#xed;" horiz-adv-x="341" 
d="M103 608l126 161h210l-200 -161h-136zM88 0v548h164v-548h-164z" />
    <glyph glyph-name="icircumflex" unicode="&#xee;" horiz-adv-x="340" 
d="M283 608l-116 84l-113 -84h-124l146 161h191l143 -161h-127zM88 0v548h164v-548h-164z" />
    <glyph glyph-name="idieresis" unicode="&#xef;" horiz-adv-x="340" 
d="M216 614v144h169v-144h-169zM-46 614v144h170v-144h-170zM88 0v548h164v-548h-164z" />
    <glyph glyph-name="eth" unicode="&#xf0;" horiz-adv-x="820" 
d="M400 -11q-166 0 -257.5 66.5t-91.5 181.5q0 112 85 177t238 65q146 0 220 -74q-23 89 -119 178l-176 -52v83l105 31q-49 39 -118 88l185 27q54 -40 86 -70l155 46v-83l-89 -26q143 -153 143 -338q0 -142 -92 -221t-274 -79zM406 114q186 0 186 122t-186 122
q-189 0 -189 -122t189 -122z" />
    <glyph glyph-name="ntilde" unicode="&#xf1;" 
d="M623 770q9 -87 -21 -128.5t-89 -41.5q-36 0 -68.5 18t-58 35.5t-44.5 17.5q-38 0 -31 -61h-104q-8 88 22.5 130t91.5 42q33 0 66 -18.5t59 -37t43 -18.5q37 0 30 62h104zM88 0v548h146l12 -114q42 59 109 92t149 33q119 0 183.5 -60.5t64.5 -170.5v-328h-163v294
q0 62 -36.5 96.5t-104.5 34.5q-90 0 -143 -46.5t-53 -125.5v-253h-164z" />
    <glyph glyph-name="ograve" unicode="&#xf2;" horiz-adv-x="820" 
d="M477 608h-136l-201 161h211zM410 -11q-171 0 -266.5 76t-95.5 209t95.5 209t266.5 76t266.5 -76t95.5 -209q0 -134 -95 -209.5t-267 -75.5zM410 114q195 0 195 160t-195 160t-195 -160t195 -160z" />
    <glyph glyph-name="oacute" unicode="&#xf3;" horiz-adv-x="820" 
d="M343 608l126 161h210l-200 -161h-136zM410 -11q-171 0 -266.5 76t-95.5 209t95.5 209t266.5 76t266.5 -76t95.5 -209q0 -134 -95 -209.5t-267 -75.5zM410 114q195 0 195 160t-195 160t-195 -160t195 -160z" />
    <glyph glyph-name="ocircumflex" unicode="&#xf4;" horiz-adv-x="820" 
d="M523 608l-116 84l-113 -84h-124l146 161h191l143 -161h-127zM410 -11q-171 0 -266.5 76t-95.5 209t95.5 209t266.5 76t266.5 -76t95.5 -209q0 -134 -95 -209.5t-267 -75.5zM410 114q195 0 195 160t-195 160t-195 -160t195 -160z" />
    <glyph glyph-name="otilde" unicode="&#xf5;" horiz-adv-x="820" 
d="M616 770q9 -87 -21 -128.5t-89 -41.5q-36 0 -68.5 18t-58 35.5t-44.5 17.5q-38 0 -31 -61h-104q-8 88 22.5 130t91.5 42q33 0 66 -18.5t59 -37t43 -18.5q37 0 30 62h104zM410 -11q-171 0 -266.5 76t-95.5 209t95.5 209t266.5 76t266.5 -76t95.5 -209q0 -134 -95 -209.5
t-267 -75.5zM410 114q195 0 195 160t-195 160t-195 -160t195 -160z" />
    <glyph glyph-name="odieresis" unicode="&#xf6;" horiz-adv-x="820" 
d="M456 614v144h169v-144h-169zM194 614v144h170v-144h-170zM410 -11q-171 0 -266.5 76t-95.5 209t95.5 209t266.5 76t266.5 -76t95.5 -209q0 -134 -95 -209.5t-267 -75.5zM410 114q195 0 195 160t-195 160t-195 -160t195 -160z" />
    <glyph glyph-name="divide" unicode="&#xf7;" horiz-adv-x="619" 
d="M229 493v136h161v-136h-161zM563 295h-507v119h507v-119zM229 80v136h161v-136h-161z" />
    <glyph glyph-name="oslash" unicode="&#xf8;" horiz-adv-x="820" 
d="M53 0l80 74q-85 74 -85 200q0 133 95.5 209t266.5 76q122 0 208 -40l31 29h118l-80 -74q85 -74 85 -200q0 -134 -95 -209.5t-267 -75.5q-122 0 -208 40l-31 -29h-118zM213 274q0 -63 29 -101l270 249q-42 15 -102 15q-197 0 -197 -163zM410 112q197 0 197 162
q0 63 -29 101l-269 -248q41 -15 101 -15z" />
    <glyph glyph-name="ugrave" unicode="&#xf9;" horiz-adv-x="814" 
d="M474 608h-136l-201 161h211zM563 296v252h163v-548h-145l-12 112q-40 -58 -104.5 -90.5t-141.5 -32.5q-115 0 -178.5 59.5t-63.5 170.5v329h163v-302q0 -60 33.5 -91.5t94.5 -31.5q86 0 138.5 46t52.5 127z" />
    <glyph glyph-name="uacute" unicode="&#xfa;" horiz-adv-x="814" 
d="M340 608l126 161h210l-200 -161h-136zM563 296v252h163v-548h-145l-12 112q-40 -58 -104.5 -90.5t-141.5 -32.5q-115 0 -178.5 59.5t-63.5 170.5v329h163v-302q0 -60 33.5 -91.5t94.5 -31.5q86 0 138.5 46t52.5 127z" />
    <glyph glyph-name="ucircumflex" unicode="&#xfb;" horiz-adv-x="814" 
d="M520 608l-116 84l-113 -84h-124l146 161h191l143 -161h-127zM563 296v252h163v-548h-145l-12 112q-40 -58 -104.5 -90.5t-141.5 -32.5q-115 0 -178.5 59.5t-63.5 170.5v329h163v-302q0 -60 33.5 -91.5t94.5 -31.5q86 0 138.5 46t52.5 127z" />
    <glyph glyph-name="udieresis" unicode="&#xfc;" horiz-adv-x="814" 
d="M453 614v144h169v-144h-169zM191 614v144h170v-144h-170zM563 296v252h163v-548h-145l-12 112q-40 -58 -104.5 -90.5t-141.5 -32.5q-115 0 -178.5 59.5t-63.5 170.5v329h163v-302q0 -60 33.5 -91.5t94.5 -31.5q86 0 138.5 46t52.5 127z" />
    <glyph glyph-name="yacute" unicode="&#xfd;" horiz-adv-x="711" 
d="M289 608l126 161h210l-200 -161h-136zM534 548h171l-272 -556q-56 -114 -114.5 -158.5t-155.5 -44.5q-57 0 -99 13l-6 122q34 -7 73 -7q60 0 91.5 20.5t61.5 81.5l-278 529h180l181 -371z" />
    <glyph glyph-name="thorn" unicode="&#xfe;" horiz-adv-x="859" 
d="M503 -11q-163 0 -251 105v-294h-164v950h164v-296q89 105 251 105q143 0 225.5 -77.5t82.5 -207.5q0 -131 -82.5 -208t-225.5 -77zM452 116q94 0 143 41.5t49 116.5t-49 116.5t-143 41.5q-95 0 -147.5 -42t-52.5 -116t52.5 -116t147.5 -42z" />
    <glyph glyph-name="ydieresis" unicode="&#xff;" horiz-adv-x="711" 
d="M402 614v144h169v-144h-169zM140 614v144h170v-144h-170zM534 548h171l-272 -556q-56 -114 -114.5 -158.5t-155.5 -44.5q-57 0 -99 13l-6 122q34 -7 73 -7q60 0 91.5 20.5t61.5 81.5l-278 529h180l181 -371z" />
    <glyph glyph-name="Amacron" unicode="&#x100;" horiz-adv-x="936" 
d="M265 770v109h406v-109h-406zM743 0l-76 147h-405l-76 -147h-182l375 700h176l376 -700h-188zM329 277h270l-135 260z" />
    <glyph glyph-name="amacron" unicode="&#x101;" horiz-adv-x="767" 
d="M186 618v109h406v-109h-406zM50 384q47 175 323 175q160 0 234 -51t74 -159v-201q0 -39 37 -39q9 0 23 2l-3 -109q-36 -12 -76 -12q-118 0 -130 104q-91 -105 -270 -105q-109 0 -170 43.5t-61 120.5t60 118.5t190 51.5l247 17q-2 54 -38.5 78.5t-119.5 24.5
q-147 0 -162 -84zM190 163q0 -60 106 -60q99 0 166.5 38.5t67.5 95.5v8l-253 -20q-87 -7 -87 -62z" />
    <glyph glyph-name="Abreve" unicode="&#x102;" horiz-adv-x="936" 
d="M551 919h126q0 -166 -208 -166q-210 0 -210 166h126q0 -40 20.5 -57.5t63.5 -17.5q41 0 61.5 17.5t20.5 57.5zM743 0l-76 147h-405l-76 -147h-182l375 700h176l376 -700h-188zM329 277h270l-135 260z" />
    <glyph glyph-name="abreve" unicode="&#x103;" horiz-adv-x="767" 
d="M472 767h126q0 -166 -208 -166q-210 0 -210 166h126q0 -40 20.5 -57.5t63.5 -17.5q41 0 61.5 17.5t20.5 57.5zM50 384q47 175 323 175q160 0 234 -51t74 -159v-201q0 -39 37 -39q9 0 23 2l-3 -109q-36 -12 -76 -12q-118 0 -130 104q-91 -105 -270 -105q-109 0 -170 43.5
t-61 120.5t60 118.5t190 51.5l247 17q-2 54 -38.5 78.5t-119.5 24.5q-147 0 -162 -84zM190 163q0 -60 106 -60q99 0 166.5 38.5t67.5 95.5v8l-253 -20q-87 -7 -87 -62z" />
    <glyph glyph-name="Aogonek" unicode="&#x104;" horiz-adv-x="936" 
d="M655 -108q0 74 84 113l-74 143h-402l-77 -148h-182l375 700h176l376 -700q-146 -18 -146 -67q0 -30 54 -30q42 0 93 15l-4 -115q-56 -18 -118 -18q-75 0 -115 27.5t-40 79.5zM329 277h270l-135 260z" />
    <glyph glyph-name="aogonek" unicode="&#x105;" horiz-adv-x="767" 
d="M736 -197q-54 -18 -117 -18q-76 0 -116 28t-40 81q0 81 108 122q-32 25 -40 78q-91 -105 -269 -105q-109 0 -170 43.5t-61 120.5q0 76 60 117t190 51l247 17q-1 56 -37 80.5t-118 24.5q-79 0 -118 -20.5t-47 -63.5l-158 25q47 175 326 175q158 0 231.5 -51t73.5 -159
v-201q0 -39 37 -39q9 0 23 2l-3 -109q-17 -5 -43 -12.5t-41 -12t-31 -11t-23 -14.5t-7 -19q0 -30 54 -30q42 0 93 15zM190 162q0 -59 106 -59q99 0 166.5 38.5t67.5 95.5v6l-253 -20q-87 -7 -87 -61z" />
    <glyph glyph-name="Cacute" unicode="&#x106;" horiz-adv-x="947" 
d="M413 760l126 161h210l-200 -161h-136zM51 350q0 166 118.5 263.5t321.5 97.5q171 0 277 -62t137 -181l-179 -35q-37 142 -235 142q-130 0 -197 -58t-67 -167q0 -110 67 -167.5t197 -57.5q207 0 237 147l176 -34q-28 -122 -134 -185.5t-279 -63.5q-209 0 -324.5 97
t-115.5 264z" />
    <glyph glyph-name="cacute" unicode="&#x107;" horiz-adv-x="782" 
d="M324 608l126 161h210l-200 -161h-136zM749 356l-162 -30q-24 108 -179 108q-193 0 -193 -160q0 -78 48.5 -119t144.5 -41q159 0 182 112l160 -30q-22 -100 -111 -153.5t-231 -53.5q-169 0 -264.5 76t-95.5 209t95.5 209t264.5 76q142 0 229.5 -52t111.5 -151z" />
    <glyph glyph-name="Ccircumflex" unicode="&#x108;" horiz-adv-x="947" 
d="M594 760l-116 84l-113 -84h-124l146 161h191l143 -161h-127zM51 350q0 166 118.5 263.5t321.5 97.5q171 0 277 -62t137 -181l-179 -35q-37 142 -235 142q-130 0 -197 -58t-67 -167q0 -110 67 -167.5t197 -57.5q207 0 237 147l176 -34q-28 -122 -134 -185.5t-279 -63.5
q-209 0 -324.5 97t-115.5 264z" />
    <glyph glyph-name="ccircumflex" unicode="&#x109;" horiz-adv-x="782" 
d="M505 608l-116 84l-113 -84h-124l146 161h191l143 -161h-127zM749 356l-162 -30q-24 108 -179 108q-193 0 -193 -160q0 -78 48.5 -119t144.5 -41q159 0 182 112l160 -30q-22 -100 -111 -153.5t-231 -53.5q-169 0 -264.5 76t-95.5 209t95.5 209t264.5 76q142 0 229.5 -52
t111.5 -151z" />
    <glyph glyph-name="Cdotaccent" unicode="&#x10a;" horiz-adv-x="947" 
d="M398 766v152h166v-152h-166zM51 350q0 166 118.5 263.5t321.5 97.5q171 0 277 -62t137 -181l-179 -35q-37 142 -235 142q-130 0 -197 -58t-67 -167q0 -110 67 -167.5t197 -57.5q207 0 237 147l176 -34q-28 -122 -134 -185.5t-279 -63.5q-209 0 -324.5 97t-115.5 264z" />
    <glyph glyph-name="cdotaccent" unicode="&#x10b;" horiz-adv-x="782" 
d="M310 614v152h166v-152h-166zM749 356l-162 -30q-24 108 -179 108q-193 0 -193 -160q0 -78 48.5 -119t144.5 -41q159 0 182 112l160 -30q-22 -100 -111 -153.5t-231 -53.5q-169 0 -264.5 76t-95.5 209t95.5 209t264.5 76q142 0 229.5 -52t111.5 -151z" />
    <glyph glyph-name="Ccaron" unicode="&#x10c;" horiz-adv-x="947" 
d="M721 921l-146 -161h-191l-143 161h127l116 -84l113 84h124zM51 350q0 166 118.5 263.5t321.5 97.5q171 0 277 -62t137 -181l-179 -35q-37 142 -235 142q-130 0 -197 -58t-67 -167q0 -110 67 -167.5t197 -57.5q207 0 237 147l176 -34q-28 -122 -134 -185.5t-279 -63.5
q-209 0 -324.5 97t-115.5 264z" />
    <glyph glyph-name="ccaron" unicode="&#x10d;" horiz-adv-x="782" 
d="M632 769l-146 -161h-191l-143 161h127l116 -84l113 84h124zM749 356l-162 -30q-24 108 -179 108q-193 0 -193 -160q0 -78 48.5 -119t144.5 -41q159 0 182 112l160 -30q-22 -100 -111 -153.5t-231 -53.5q-169 0 -264.5 76t-95.5 209t95.5 209t264.5 76q142 0 229.5 -52
t111.5 -151z" />
    <glyph glyph-name="Dcaron" unicode="&#x10e;" horiz-adv-x="982" 
d="M731 921l-146 -161h-191l-143 161h127l116 -84l113 84h124zM104 0v700h418q193 0 298 -92.5t105 -259.5q0 -165 -105 -256.5t-298 -91.5h-418zM529 136q108 0 163.5 54.5t55.5 157.5q0 105 -55.5 160.5t-163.5 55.5h-253v-428h253z" />
    <glyph glyph-name="dcaron" unicode="&#x10f;" horiz-adv-x="967" 
d="M356 -11q-143 0 -225.5 77t-82.5 208q0 130 82.5 207.5t225.5 77.5q163 0 251 -104v295h164v-750h-147l-11 100q-87 -111 -257 -111zM859 530v220h163l-55 -220h-108zM407 116q95 0 147.5 42t52.5 116t-52.5 116t-147.5 42q-94 0 -143 -41.5t-49 -116.5t49 -116.5
t143 -41.5z" />
    <glyph glyph-name="Dcroat" unicode="&#x110;" horiz-adv-x="994" 
d="M116 0v308h-108v86h108v306h418q193 0 298 -92.5t105 -259.5q0 -165 -105 -256.5t-298 -91.5h-418zM541 136q108 0 163.5 54.5t55.5 157.5q0 105 -55.5 160.5t-163.5 55.5h-253v-170h188v-86h-188v-172h253z" />
    <glyph glyph-name="dcroat" unicode="&#x111;" horiz-adv-x="859" 
d="M356 -11q-143 0 -225.5 75t-82.5 202t83 202t225 75q162 0 251 -102v164h-187v75h187v70h164v-70h85v-75h-85v-605h-147l-10 99q-88 -110 -258 -110zM407 116q95 0 147.5 40t52.5 110t-53 110t-147 40t-143 -39.5t-49 -110.5t49 -110.5t143 -39.5z" />
    <glyph glyph-name="Emacron" unicode="&#x112;" horiz-adv-x="843" 
d="M239 770v109h406v-109h-406zM104 0v700h678v-131h-509v-147h451v-130h-451v-161h517v-131h-686z" />
    <glyph glyph-name="emacron" unicode="&#x113;" horiz-adv-x="806" 
d="M200 618v109h406v-109h-406zM412 -11q-170 0 -267 76.5t-97 209.5q0 129 96.5 206.5t264.5 77.5q161 0 257 -72.5t96 -195.5q0 -29 -6 -56h-545q23 -126 202 -126q160 0 187 77l158 -28q-28 -85 -110.5 -127t-235.5 -42zM410 442q-166 0 -196 -111h387q-25 111 -191 111z
" />
    <glyph glyph-name="Ebreve" unicode="&#x114;" horiz-adv-x="843" 
d="M525 919h126q0 -166 -208 -166q-210 0 -210 166h126q0 -40 20.5 -57.5t63.5 -17.5q41 0 61.5 17.5t20.5 57.5zM104 0v700h678v-131h-509v-147h451v-130h-451v-161h517v-131h-686z" />
    <glyph glyph-name="ebreve" unicode="&#x115;" horiz-adv-x="806" 
d="M486 767h126q0 -166 -208 -166q-210 0 -210 166h126q0 -40 20.5 -57.5t63.5 -17.5q41 0 61.5 17.5t20.5 57.5zM412 -11q-170 0 -267 76.5t-97 209.5q0 129 96.5 206.5t264.5 77.5q161 0 257 -72.5t96 -195.5q0 -29 -6 -56h-545q23 -126 202 -126q160 0 187 77l158 -28
q-28 -85 -110.5 -127t-235.5 -42zM410 442q-166 0 -196 -111h387q-25 111 -191 111z" />
    <glyph glyph-name="Edotaccent" unicode="&#x116;" horiz-adv-x="843" 
d="M360 766v152h166v-152h-166zM104 0v700h678v-131h-509v-147h451v-130h-451v-161h517v-131h-686z" />
    <glyph glyph-name="edotaccent" unicode="&#x117;" horiz-adv-x="806" 
d="M320 614v152h166v-152h-166zM412 -11q-170 0 -267 76.5t-97 209.5q0 129 96.5 206.5t264.5 77.5q161 0 257 -72.5t96 -195.5q0 -29 -6 -56h-545q23 -126 202 -126q160 0 187 77l158 -28q-28 -85 -110.5 -127t-235.5 -42zM410 442q-166 0 -196 -111h387q-25 111 -191 111z
" />
    <glyph glyph-name="Eogonek" unicode="&#x118;" horiz-adv-x="843" 
d="M104 0v700h678v-131h-509v-147h451v-130h-451v-161h517v-131q-146 -18 -146 -66q0 -31 55 -31q41 0 92 15l-3 -115q-54 -18 -115 -18q-158 0 -158 106q0 70 73 109h-484z" />
    <glyph glyph-name="eogonek" unicode="&#x119;" horiz-adv-x="806" 
d="M753 -197q-54 -18 -116 -18q-76 0 -116.5 27t-40.5 79q0 63 63 108q-53 -10 -131 -10q-170 0 -267 76.5t-97 209.5q0 129 96.5 206.5t264.5 77.5q162 0 257.5 -72.5t95.5 -195.5q0 -29 -6 -56h-545q23 -126 202 -126q160 0 187 77l158 -28q-17 -45 -44.5 -84t-49.5 -59.5
t-38 -41.5t-16 -38q0 -32 55 -32q41 0 92 15zM410 442q-166 0 -196 -111h387q-24 111 -191 111z" />
    <glyph glyph-name="Ecaron" unicode="&#x11a;" horiz-adv-x="843" 
d="M682 921l-146 -161h-191l-143 161h127l116 -84l113 84h124zM104 0v700h678v-131h-509v-147h451v-130h-451v-161h517v-131h-686z" />
    <glyph glyph-name="ecaron" unicode="&#x11b;" horiz-adv-x="806" 
d="M643 769l-146 -161h-191l-143 161h127l116 -84l113 84h124zM412 -11q-170 0 -267 76.5t-97 209.5q0 129 96.5 206.5t264.5 77.5q161 0 257 -72.5t96 -195.5q0 -29 -6 -56h-545q23 -126 202 -126q160 0 187 77l158 -28q-28 -85 -110.5 -127t-235.5 -42zM410 442
q-166 0 -196 -111h387q-25 111 -191 111z" />
    <glyph glyph-name="Gcircumflex" unicode="&#x11c;" horiz-adv-x="1001" 
d="M607 760l-116 84l-113 -84h-124l146 161h191l143 -161h-127zM51 349q0 169 120.5 265.5t332.5 96.5q343 0 410 -222l-173 -37q-40 123 -237 123q-137 0 -207 -58t-70 -168q0 -109 70 -166.5t206 -57.5q217 0 254 128h-266v123h436v-376h-126l-14 115q-93 -126 -306 -126
q-201 0 -315.5 96.5t-114.5 263.5z" />
    <glyph glyph-name="gcircumflex" unicode="&#x11d;" horiz-adv-x="782" 
d="M491 608l-116 84l-113 -84h-124l146 161h191l143 -161h-127zM374 559q156 0 237 -52q53 79 156 70l-7 -133q-54 9 -90 0q14 -28 14 -61q0 -82 -82 -128t-228 -46q-69 0 -119 10q-46 -9 -46 -41q0 -41 74 -42l254 -5q223 -5 223 -148q0 -194 -389 -194q-352 0 -352 141
q0 89 128 108q-43 12 -66 39t-23 64q0 81 99 108q-93 45 -93 134q0 83 82 129.5t228 46.5zM521 383q0 77 -147 77t-147 -77q0 -75 147 -75t147 75zM186 -43q0 -34 45.5 -49t145.5 -15q221 0 221 72q0 45 -76 46l-257 1q-79 -3 -79 -55z" />
    <glyph glyph-name="Gbreve" unicode="&#x11e;" horiz-adv-x="1001" 
d="M577 919h126q0 -166 -208 -166q-210 0 -210 166h126q0 -40 20.5 -57.5t63.5 -17.5q41 0 61.5 17.5t20.5 57.5zM51 349q0 169 120.5 265.5t332.5 96.5q343 0 410 -222l-173 -37q-40 123 -237 123q-137 0 -207 -58t-70 -168q0 -109 70 -166.5t206 -57.5q217 0 254 128h-266
v123h436v-376h-126l-14 115q-93 -126 -306 -126q-201 0 -315.5 96.5t-114.5 263.5z" />
    <glyph glyph-name="gbreve" unicode="&#x11f;" horiz-adv-x="782" 
d="M461 767h126q0 -166 -208 -166q-210 0 -210 166h126q0 -40 20.5 -57.5t63.5 -17.5q41 0 61.5 17.5t20.5 57.5zM374 559q156 0 237 -52q53 79 156 70l-7 -133q-54 9 -90 0q14 -28 14 -61q0 -82 -82 -128t-228 -46q-69 0 -119 10q-46 -9 -46 -41q0 -41 74 -42l254 -5
q223 -5 223 -148q0 -194 -389 -194q-352 0 -352 141q0 89 128 108q-43 12 -66 39t-23 64q0 81 99 108q-93 45 -93 134q0 83 82 129.5t228 46.5zM521 383q0 77 -147 77t-147 -77q0 -75 147 -75t147 75zM186 -43q0 -34 45.5 -49t145.5 -15q221 0 221 72q0 45 -76 46l-257 1
q-79 -3 -79 -55z" />
    <glyph glyph-name="Gdotaccent" unicode="&#x120;" horiz-adv-x="1001" 
d="M411 766v152h166v-152h-166zM51 349q0 169 120.5 265.5t332.5 96.5q343 0 410 -222l-173 -37q-40 123 -237 123q-137 0 -207 -58t-70 -168q0 -109 70 -166.5t206 -57.5q217 0 254 128h-266v123h436v-376h-126l-14 115q-93 -126 -306 -126q-201 0 -315.5 96.5
t-114.5 263.5z" />
    <glyph glyph-name="gdotaccent" unicode="&#x121;" horiz-adv-x="782" 
d="M293 614v152h166v-152h-166zM374 559q156 0 237 -52q53 79 156 70l-7 -133q-54 9 -90 0q14 -28 14 -61q0 -82 -82 -128t-228 -46q-69 0 -119 10q-46 -9 -46 -41q0 -41 74 -42l254 -5q223 -5 223 -148q0 -194 -389 -194q-352 0 -352 141q0 89 128 108q-43 12 -66 39
t-23 64q0 81 99 108q-93 45 -93 134q0 83 82 129.5t228 46.5zM521 383q0 77 -147 77t-147 -77q0 -75 147 -75t147 75zM186 -43q0 -34 45.5 -49t145.5 -15q221 0 221 72q0 45 -76 46l-257 1q-79 -3 -79 -55z" />
    <glyph glyph-name="Gcommaaccent" unicode="&#x122;" horiz-adv-x="1001" 
d="M51 349q0 169 120.5 265.5t332.5 96.5q343 0 410 -222l-173 -37q-40 123 -237 123q-137 0 -207 -58t-70 -168q0 -109 70 -166.5t206 -57.5q217 0 254 128h-266v123h436v-376h-126l-14 115q-93 -126 -306 -126q-201 0 -315.5 96.5t-114.5 263.5zM304 -204l77 145h191
l-141 -145h-127z" />
    <glyph glyph-name="gcommaaccent" unicode="&#x123;" horiz-adv-x="782" 
d="M566 764l-93 -156h-198l164 156h127zM374 559q156 0 237 -52q53 79 156 70l-7 -133q-54 9 -90 0q14 -28 14 -61q0 -82 -82 -128t-228 -46q-69 0 -119 10q-46 -9 -46 -41q0 -41 74 -42l254 -5q223 -5 223 -148q0 -194 -389 -194q-352 0 -352 141q0 89 128 108
q-43 12 -66 39t-23 64q0 81 99 108q-93 45 -93 134q0 83 82 129.5t228 46.5zM521 383q0 77 -147 77t-147 -77q0 -75 147 -75t147 75zM186 -43q0 -34 45.5 -49t145.5 -15q221 0 221 72q0 45 -76 46l-257 1q-79 -3 -79 -55z" />
    <glyph glyph-name="Hcircumflex" unicode="&#x124;" horiz-adv-x="1021" 
d="M627 760l-116 84l-113 -84h-124l146 161h191l143 -161h-127zM104 0v700h172v-272h469v272h172v-700h-172v292h-469v-292h-172z" />
    <glyph glyph-name="hcircumflex" unicode="&#x125;" 
d="M441 810l-116 84l-113 -84h-124l146 161h191l143 -161h-127zM88 0v750h164v-308q42 55 107.5 86t144.5 31q119 0 183.5 -60.5t64.5 -170.5v-328h-163v294q0 62 -36.5 96.5t-104.5 34.5q-90 0 -143 -46.5t-53 -125.5v-253h-164z" />
    <glyph glyph-name="Hbar" unicode="&#x126;" horiz-adv-x="1021" 
d="M104 0v527h-99v76h99v97h172v-97h469v97h172v-97h99v-76h-99v-527h-172v292h-469v-292h-172zM276 428h469v99h-469v-99z" />
    <glyph glyph-name="hbar" unicode="&#x127;" 
d="M88 0v605h-86v75h86v70h164v-70h186v-75h-186v-179q42 55 107.5 86t144.5 31q119 0 183.5 -60.5t64.5 -170.5v-312h-163v277q0 63 -36.5 97.5t-104.5 34.5q-89 0 -142.5 -47t-53.5 -126v-236h-164z" />
    <glyph glyph-name="Itilde" unicode="&#x128;" horiz-adv-x="380" 
d="M396 922q9 -87 -21 -128.5t-89 -41.5q-36 0 -68.5 18t-58 35.5t-44.5 17.5q-38 0 -31 -61h-104q-8 88 22.5 130t91.5 42q33 0 66 -18.5t59 -37t43 -18.5q37 0 30 62h104zM104 0v700h172v-700h-172z" />
    <glyph glyph-name="itilde" unicode="&#x129;" horiz-adv-x="341" 
d="M376 770q9 -87 -21 -128.5t-89 -41.5q-36 0 -68.5 18t-58 35.5t-44.5 17.5q-38 0 -31 -61h-104q-8 88 22.5 130t91.5 42q33 0 66 -18.5t59 -37t43 -18.5q37 0 30 62h104zM88 0v548h164v-548h-164z" />
    <glyph glyph-name="Imacron" unicode="&#x12a;" horiz-adv-x="380" 
d="M-13 770v109h406v-109h-406zM104 0v700h172v-700h-172z" />
    <glyph glyph-name="imacron" unicode="&#x12b;" horiz-adv-x="340" 
d="M-33 618v109h406v-109h-406zM88 0v548h164v-548h-164z" />
    <glyph glyph-name="Ibreve" unicode="&#x12c;" horiz-adv-x="380" 
d="M273 919h126q0 -166 -208 -166q-210 0 -210 166h126q0 -40 20.5 -57.5t63.5 -17.5q41 0 61.5 17.5t20.5 57.5zM104 0v700h172v-700h-172z" />
    <glyph glyph-name="ibreve" unicode="&#x12d;" horiz-adv-x="340" 
d="M253 767h126q0 -166 -208 -166q-210 0 -210 166h126q0 -40 20.5 -57.5t63.5 -17.5q41 0 61.5 17.5t20.5 57.5zM88 0v548h164v-548h-164z" />
    <glyph glyph-name="Iogonek" unicode="&#x12e;" horiz-adv-x="380" 
d="M21 -106q0 77 83 117v689h172v-700q-126 -18 -126 -65q0 -32 64 -32q47 0 95 15l-4 -115q-57 -18 -123 -18q-78 0 -119.5 28t-41.5 81z" />
    <glyph glyph-name="iogonek" unicode="&#x12f;" horiz-adv-x="341" 
d="M87 614v137h166v-137h-166zM-3 -108q0 79 92 122v534h163v-548q-126 -18 -126 -67q0 -30 60 -30q46 0 98 15l-3 -115q-59 -18 -124 -18q-77 0 -118.5 27.5t-41.5 79.5z" />
    <glyph glyph-name="Idotaccent" unicode="&#x130;" horiz-adv-x="380" 
d="M107 766v152h166v-152h-166zM104 0v700h172v-700h-172z" />
    <glyph glyph-name="dotlessi" unicode="&#x131;" horiz-adv-x="340" 
d="M88 0v548h164v-548h-164z" />
    <glyph glyph-name="IJ" unicode="&#x132;" horiz-adv-x="943" 
d="M104 0v700h172v-700h-172zM848 263q0 -141 -68.5 -207.5t-220.5 -66.5q-76 0 -144 13l-6 138q64 -9 118 -9q83 0 116 29t33 100v440h172v-437z" />
    <glyph glyph-name="ij" unicode="&#x133;" horiz-adv-x="681" 
d="M87 614v137h166v-137h-166zM427 614v137h166v-137h-166zM89 0v548h163v-548h-163zM428 5v543h164v-534q0 -121 -52 -173t-167 -52q-54 0 -95 8l-4 123q28 -5 61 -5q50 0 71.5 20.5t21.5 69.5z" />
    <glyph glyph-name="Jcircumflex" unicode="&#x134;" horiz-adv-x="563" 
d="M495 760l-116 84l-113 -84h-124l146 161h191l143 -161h-127zM468 263q0 -141 -68.5 -207.5t-220.5 -66.5q-76 0 -144 13l-6 138q64 -9 118 -9q83 0 116 29t33 100v440h172v-437z" />
    <glyph glyph-name="jcircumflex" unicode="&#x135;" horiz-adv-x="341" 
d="M283 608l-116 84l-113 -84h-124l146 161h191l143 -161h-127zM88 5v543h164v-534q0 -121 -52 -173t-167 -52q-54 0 -95 8l-4 123q28 -5 61 -5q50 0 71.5 20.5t21.5 69.5z" />
    <glyph glyph-name="Kcommaaccent" unicode="&#x136;" horiz-adv-x="914" 
d="M104 0v700h169v-309l388 309h231l-406 -319l434 -381h-246l-320 277l-81 -63v-214h-169zM289 -204l77 145h191l-141 -145h-127z" />
    <glyph glyph-name="kcommaaccent" unicode="&#x137;" horiz-adv-x="760" 
d="M88 0v750h163v-422l275 220h213l-312 -240l334 -308h-221l-229 215l-60 -49v-166h-163zM228 -204l77 145h191l-141 -145h-127z" />
    <glyph glyph-name="kgreenlandic" unicode="&#x138;" horiz-adv-x="760" 
d="M88 0v548h163v-220l275 220h213l-312 -240l334 -308h-220l-230 215l-60 -49v-166h-163z" />
    <glyph glyph-name="Lacute" unicode="&#x139;" horiz-adv-x="764" 
d="M123 760l126 161h210l-200 -161h-136zM104 0v700h172v-564h452v-136h-624z" />
    <glyph glyph-name="lacute" unicode="&#x13a;" horiz-adv-x="340" 
d="M103 810l126 161h210l-200 -161h-136zM252 0h-164v750h164v-750z" />
    <glyph glyph-name="Lcommaaccent" unicode="&#x13b;" horiz-adv-x="764" 
d="M104 0v700h172v-564h452v-136h-624zM242 -204l77 145h191l-141 -145h-127z" />
    <glyph glyph-name="lcommaaccent" unicode="&#x13c;" horiz-adv-x="340" 
d="M252 0h-164v750h164v-750zM-5 -204l77 145h191l-141 -145h-127z" />
    <glyph glyph-name="Lcaron" unicode="&#x13d;" horiz-adv-x="764" 
d="M104 0v700h172v-564h452v-136h-624zM423 480v220h163l-55 -220h-108z" />
    <glyph glyph-name="lcaron" unicode="&#x13e;" horiz-adv-x="449" 
d="M252 0h-164v750h164v-750zM340 530v220h163l-55 -220h-108z" />
    <glyph glyph-name="Ldot" unicode="&#x13f;" horiz-adv-x="764" 
d="M104 0v700h172v-564h452v-136h-624zM482 310v159h177v-159h-177z" />
    <glyph glyph-name="ldot" unicode="&#x140;" horiz-adv-x="514" 
d="M252 0h-164v750h164v-750zM338 296v159h177v-159h-177z" />
    <glyph glyph-name="Lslash" unicode="&#x141;" horiz-adv-x="777" 
d="M117 0v289l-108 -34v89l108 34v322h172v-269l181 56v-89l-181 -56v-206h452v-136h-624z" />
    <glyph glyph-name="lslash" unicode="&#x142;" horiz-adv-x="380" 
d="M5 266v86l103 34v364h164v-309l103 34v-85l-103 -35v-355h-164v301z" />
    <glyph glyph-name="Nacute" unicode="&#x143;" horiz-adv-x="1003" 
d="M439 760l126 161h210l-200 -161h-136zM104 0v700h169l468 -509v509h159v-700h-169l-469 508v-508h-158z" />
    <glyph glyph-name="nacute" unicode="&#x144;" 
d="M350 608l126 161h210l-200 -161h-136zM88 0v548h146l12 -114q42 59 109 92t149 33q119 0 183.5 -60.5t64.5 -170.5v-328h-163v294q0 62 -36.5 96.5t-104.5 34.5q-90 0 -143 -46.5t-53 -125.5v-253h-164z" />
    <glyph glyph-name="Ncommaaccent" unicode="&#x145;" horiz-adv-x="1003" 
d="M104 0v700h169l468 -509v509h159v-700h-169l-469 508v-508h-158zM331 -204l77 145h191l-141 -145h-127z" />
    <glyph glyph-name="ncommaaccent" unicode="&#x146;" 
d="M88 0v548h146l12 -114q42 59 109 92t149 33q119 0 183.5 -60.5t64.5 -170.5v-328h-163v294q0 62 -36.5 96.5t-104.5 34.5q-90 0 -143 -46.5t-53 -125.5v-253h-164zM251 -204l77 145h191l-141 -145h-127z" />
    <glyph glyph-name="Ncaron" unicode="&#x147;" horiz-adv-x="1003" 
d="M746 921l-146 -161h-191l-143 161h127l116 -84l113 84h124zM104 0v700h169l468 -509v509h159v-700h-169l-469 508v-508h-158z" />
    <glyph glyph-name="ncaron" unicode="&#x148;" 
d="M657 769l-146 -161h-191l-143 161h127l116 -84l113 84h124zM88 0v548h146l12 -114q42 59 109 92t149 33q119 0 183.5 -60.5t64.5 -170.5v-328h-163v294q0 62 -36.5 96.5t-104.5 34.5q-90 0 -143 -46.5t-53 -125.5v-253h-164z" />
    <glyph glyph-name="napostrophe" unicode="&#x149;" 
d="M89 605l77 145h191l-141 -145h-127zM88 0v548h146l12 -114q42 59 109 92t149 33q119 0 183.5 -60.5t64.5 -170.5v-328h-163v294q0 62 -36.5 96.5t-104.5 34.5q-90 0 -143 -46.5t-53 -125.5v-253h-164z" />
    <glyph glyph-name="Eng" unicode="&#x14a;" horiz-adv-x="1003" 
d="M104 0v700h169l468 -500v500h159v-653q0 -140 -64.5 -199t-214.5 -59q-71 0 -130 12l-5 127q57 -9 110 -9q67 0 100.5 20t41.5 64l-476 507v-510h-158z" />
    <glyph glyph-name="eng" unicode="&#x14b;" 
d="M88 0v548h146l12 -114q42 59 109 92t149 33q119 0 183.5 -60.5t64.5 -170.5v-314q0 -121 -52 -173t-167 -52q-53 0 -94 8l-5 123q29 -5 62 -5q50 0 71.5 20.5t21.5 69.5v289q0 62 -36.5 96.5t-104.5 34.5q-90 0 -143 -46.5t-53 -125.5v-253h-164z" />
    <glyph glyph-name="Omacron" unicode="&#x14c;" horiz-adv-x="997" 
d="M296 770v109h406v-109h-406zM499 -11q-210 0 -329 96.5t-119 263.5q0 168 119 265t329 97t329 -97t119 -265q0 -167 -119 -263.5t-329 -96.5zM499 125q135 0 203 57.5t68 166.5q0 110 -68.5 168t-202.5 58q-135 0 -203.5 -58t-68.5 -168q0 -109 68.5 -166.5t203.5 -57.5z
" />
    <glyph glyph-name="omacron" unicode="&#x14d;" horiz-adv-x="820" 
d="M207 618v109h406v-109h-406zM410 -11q-171 0 -266.5 76t-95.5 209t95.5 209t266.5 76t266.5 -76t95.5 -209q0 -134 -95 -209.5t-267 -75.5zM410 114q195 0 195 160t-195 160t-195 -160t195 -160z" />
    <glyph glyph-name="Obreve" unicode="&#x14e;" horiz-adv-x="997" 
d="M582 919h126q0 -166 -208 -166q-210 0 -210 166h126q0 -40 20.5 -57.5t63.5 -17.5q41 0 61.5 17.5t20.5 57.5zM499 -11q-210 0 -329 96.5t-119 263.5q0 168 119 265t329 97t329 -97t119 -265q0 -167 -119 -263.5t-329 -96.5zM499 125q135 0 203 57.5t68 166.5
q0 110 -68.5 168t-202.5 58q-135 0 -203.5 -58t-68.5 -168q0 -109 68.5 -166.5t203.5 -57.5z" />
    <glyph glyph-name="obreve" unicode="&#x14f;" horiz-adv-x="820" 
d="M493 767h126q0 -166 -208 -166q-210 0 -210 166h126q0 -40 20.5 -57.5t63.5 -17.5q41 0 61.5 17.5t20.5 57.5zM410 -11q-171 0 -266.5 76t-95.5 209t95.5 209t266.5 76t266.5 -76t95.5 -209q0 -134 -95 -209.5t-267 -75.5zM410 114q195 0 195 160t-195 160t-195 -160
t195 -160z" />
    <glyph glyph-name="Ohungarumlaut" unicode="&#x150;" horiz-adv-x="997" 
d="M311 760l89 161h178l-143 -161h-124zM542 760l89 161h178l-143 -161h-124zM499 -11q-210 0 -329 96.5t-119 263.5q0 168 119 265t329 97t329 -97t119 -265q0 -167 -119 -263.5t-329 -96.5zM499 125q135 0 203 57.5t68 166.5q0 110 -68.5 168t-202.5 58q-135 0 -203.5 -58
t-68.5 -168q0 -109 68.5 -166.5t203.5 -57.5z" />
    <glyph glyph-name="ohungarumlaut" unicode="&#x151;" horiz-adv-x="820" 
d="M221 608l89 161h178l-143 -161h-124zM452 608l89 161h178l-143 -161h-124zM410 -11q-171 0 -266.5 76t-95.5 209t95.5 209t266.5 76t266.5 -76t95.5 -209q0 -134 -95 -209.5t-267 -75.5zM410 114q195 0 195 160t-195 160t-195 -160t195 -160z" />
    <glyph glyph-name="OE" unicode="&#x152;" horiz-adv-x="1403" 
d="M51 349q0 163 120 257t333 94h838v-131h-482v-148h424v-129h-424v-161h491v-131h-847q-213 0 -333 93.5t-120 255.5zM504 131h187v438h-187q-137 0 -207 -56t-70 -164q0 -106 70 -162t207 -56z" />
    <glyph glyph-name="oe" unicode="&#x153;" horiz-adv-x="1351" 
d="M405 -11q-168 0 -262.5 76t-94.5 209t94.5 209t262.5 76q190 0 283 -100q94 100 276 100q156 0 249.5 -72t93.5 -196q0 -31 -6 -56h-530q23 -126 197 -126q151 0 177 77l158 -28q-28 -86 -109.5 -127.5t-225.5 -41.5q-188 0 -280 101q-92 -101 -283 -101zM964 442
q-160 0 -189 -110h371q-27 110 -182 110zM405 114q191 0 191 160t-191 160q-190 0 -190 -160t190 -160z" />
    <glyph glyph-name="Racute" unicode="&#x154;" horiz-adv-x="906" 
d="M386 760l126 161h210l-200 -161h-136zM104 0v700h476q123 0 191 -60t68 -165q0 -90 -55.5 -147t-155.5 -68l238 -260h-213l-221 245h-156v-245h-172zM549 569h-273v-193h273q117 0 117 96q0 97 -117 97z" />
    <glyph glyph-name="racute" unicode="&#x155;" horiz-adv-x="556" 
d="M220 608l126 161h210l-200 -161h-136zM88 0v548h147l13 -132q44 66 112.5 104.5t147.5 38.5q15 0 29 -2l-5 -165q-25 7 -67 7q-98 0 -155 -47.5t-58 -136.5v-215h-164z" />
    <glyph glyph-name="Rcommaaccent" unicode="&#x156;" horiz-adv-x="906" 
d="M104 0v700h476q123 0 191 -60t68 -165q0 -90 -55.5 -147t-155.5 -68l238 -260h-213l-221 245h-156v-245h-172zM549 569h-273v-193h273q117 0 117 96q0 97 -117 97zM280 -204l77 145h191l-141 -145h-127z" />
    <glyph glyph-name="rcommaaccent" unicode="&#x157;" horiz-adv-x="556" 
d="M88 0v548h147l13 -132q44 66 112.5 104.5t147.5 38.5q15 0 29 -2l-5 -165q-25 7 -67 7q-98 0 -155 -47.5t-58 -136.5v-215h-164zM-5 -204l77 145h191l-141 -145h-127z" />
    <glyph glyph-name="Rcaron" unicode="&#x158;" horiz-adv-x="906" 
d="M693 921l-146 -161h-191l-143 161h127l116 -84l113 84h124zM104 0v700h476q123 0 191 -60t68 -165q0 -90 -55.5 -147t-155.5 -68l238 -260h-213l-221 245h-156v-245h-172zM549 569h-273v-193h273q117 0 117 96q0 97 -117 97z" />
    <glyph glyph-name="rcaron" unicode="&#x159;" horiz-adv-x="556" 
d="M537 769l-146 -161h-191l-143 161h127l116 -84l113 84h124zM88 0v548h147l13 -132q44 66 112.5 104.5t147.5 38.5q15 0 29 -2l-5 -165q-25 7 -67 7q-98 0 -155 -47.5t-58 -136.5v-215h-164z" />
    <glyph glyph-name="Sacute" unicode="&#x15a;" horiz-adv-x="891" 
d="M375 760l126 161h210l-200 -161h-136zM41 213l175 25q28 -121 235 -121q218 0 218 80q0 38 -32 55t-119 25l-193 13q-262 25 -262 200q0 104 98 162.5t280 58.5q340 0 385 -210l-174 -25q-15 55 -65.5 81t-148.5 26q-201 0 -201 -78q0 -35 32 -51.5t112 -25.5l197 -12
q137 -14 201.5 -63t64.5 -139q0 -108 -99.5 -166.5t-296.5 -58.5q-362 0 -407 224z" />
    <glyph glyph-name="sacute" unicode="&#x15b;" horiz-adv-x="737" 
d="M294 608l126 161h210l-200 -161h-136zM362 449q-154 0 -154 -54q0 -25 23.5 -36.5t84.5 -15.5l139 -9q127 -10 184.5 -47.5t57.5 -111.5q0 -89 -84.5 -137.5t-246.5 -48.5q-153 0 -230.5 41.5t-101.5 132.5l155 23q20 -87 174 -87q173 0 173 58q0 26 -22 38t-80 17
l-140 8q-124 9 -183 49t-59 114q0 82 81 129t228 47q145 0 223.5 -40t99.5 -124l-153 -23q-9 40 -49 58.5t-120 18.5z" />
    <glyph glyph-name="Scircumflex" unicode="&#x15c;" horiz-adv-x="891" 
d="M555 760l-116 84l-113 -84h-124l146 161h191l143 -161h-127zM41 213l175 25q28 -121 235 -121q218 0 218 80q0 38 -32 55t-119 25l-193 13q-262 25 -262 200q0 104 98 162.5t280 58.5q340 0 385 -210l-174 -25q-15 55 -65.5 81t-148.5 26q-201 0 -201 -78q0 -35 32 -51.5
t112 -25.5l197 -12q137 -14 201.5 -63t64.5 -139q0 -108 -99.5 -166.5t-296.5 -58.5q-362 0 -407 224z" />
    <glyph glyph-name="scircumflex" unicode="&#x15d;" horiz-adv-x="737" 
d="M480 608l-116 84l-113 -84h-124l146 161h191l143 -161h-127zM362 449q-154 0 -154 -54q0 -25 23.5 -36.5t84.5 -15.5l139 -9q127 -10 184.5 -47.5t57.5 -111.5q0 -89 -84.5 -137.5t-246.5 -48.5q-153 0 -230.5 41.5t-101.5 132.5l155 23q20 -87 174 -87q173 0 173 58
q0 26 -22 38t-80 17l-140 8q-124 9 -183 49t-59 114q0 82 81 129t228 47q145 0 223.5 -40t99.5 -124l-153 -23q-9 40 -49 58.5t-120 18.5z" />
    <glyph glyph-name="Scedilla" unicode="&#x15e;" horiz-adv-x="891" 
d="M41 213l175 25q28 -121 235 -121q218 0 218 80q0 38 -32 55t-119 25l-193 13q-262 25 -262 200q0 104 98 162.5t280 58.5q340 0 385 -210l-174 -25q-15 55 -65.5 81t-148.5 26q-201 0 -201 -78q0 -35 32 -51.5t112 -25.5l197 -12q137 -14 201.5 -63t64.5 -139
q0 -101 -87.5 -159t-261.5 -65l-5 -34q28 7 59 7q117 0 117 -82q0 -48 -44 -71.5t-142 -23.5q-71 0 -151 16l4 70q76 -15 127 -15q44 0 61 6t17 20q0 22 -36 22q-21 0 -41 -11l-81 9l13 87q-310 16 -352 223z" />
    <glyph glyph-name="scedilla" unicode="&#x15f;" horiz-adv-x="737" 
d="M362 449q-154 0 -154 -54q0 -25 23.5 -36.5t84.5 -15.5l139 -9q127 -10 184.5 -47.5t57.5 -111.5q0 -84 -74 -131.5t-217 -53.5l-5 -34q28 7 59 7q117 0 117 -82q0 -48 -44 -71.5t-142 -23.5q-71 0 -151 16l4 70q76 -15 127 -15q44 0 61 6t17 20q0 22 -36 22
q-21 0 -41 -11l-81 9l13 88q-120 7 -184 48.5t-86 123.5l155 23q20 -87 174 -87q173 0 173 58q0 26 -22 38t-80 17l-140 8q-124 9 -183 49t-59 114q0 82 81 129t228 47q145 0 223.5 -40t99.5 -124l-153 -23q-9 40 -49 58.5t-120 18.5z" />
    <glyph glyph-name="Scaron" unicode="&#x160;" horiz-adv-x="891" 
d="M682 921l-146 -161h-191l-143 161h127l116 -84l113 84h124zM41 213l175 25q28 -121 235 -121q218 0 218 80q0 38 -32 55t-119 25l-193 13q-262 25 -262 200q0 104 98 162.5t280 58.5q340 0 385 -210l-174 -25q-15 55 -65.5 81t-148.5 26q-201 0 -201 -78q0 -35 32 -51.5
t112 -25.5l197 -12q137 -14 201.5 -63t64.5 -139q0 -108 -99.5 -166.5t-296.5 -58.5q-362 0 -407 224z" />
    <glyph glyph-name="scaron" unicode="&#x161;" horiz-adv-x="737" 
d="M607 769l-146 -161h-191l-143 161h127l116 -84l113 84h124zM362 449q-154 0 -154 -54q0 -25 23.5 -36.5t84.5 -15.5l139 -9q127 -10 184.5 -47.5t57.5 -111.5q0 -89 -84.5 -137.5t-246.5 -48.5q-153 0 -230.5 41.5t-101.5 132.5l155 23q20 -87 174 -87q173 0 173 58
q0 26 -22 38t-80 17l-140 8q-124 9 -183 49t-59 114q0 82 81 129t228 47q145 0 223.5 -40t99.5 -124l-153 -23q-9 40 -49 58.5t-120 18.5z" />
    <glyph glyph-name="uni0162" unicode="&#x162;" 
d="M330 0v564h-303v136h781v-136h-306v-564h-172zM242 -204l77 145h191l-141 -145h-127z" />
    <glyph glyph-name="uni0163" unicode="&#x163;" horiz-adv-x="573" 
d="M121 203v223h-110v122h64q50 0 63 21.5t20 118.5h127v-140h246v-122h-246v-203q0 -61 26.5 -84t95.5 -23q65 0 132 14l-5 -124q-77 -17 -169 -17q-127 0 -185.5 50t-58.5 164zM138 -204l77 145h191l-141 -145h-127z" />
    <glyph glyph-name="Tcaron" unicode="&#x164;" 
d="M657 921l-146 -161h-191l-143 161h127l116 -84l113 84h124zM330 0v564h-303v136h781v-136h-306v-564h-172z" />
    <glyph glyph-name="tcaron" unicode="&#x165;" horiz-adv-x="573" 
d="M344 601v220h163l-55 -220h-108zM121 203v223h-110v122h64q50 0 63 21.5t20 118.5h127v-140h246v-122h-246v-203q0 -61 26.5 -84t95.5 -23q65 0 132 14l-5 -124q-77 -17 -169 -17q-127 0 -185.5 50t-58.5 164z" />
    <glyph glyph-name="Tbar" unicode="&#x166;" 
d="M330 0v289h-163v77h163v198h-303v136h781v-136h-306v-198h164v-77h-164v-289h-172z" />
    <glyph glyph-name="tbar" unicode="&#x167;" horiz-adv-x="573" 
d="M121 203v35h-99v76h99v112h-110v122h64q50 0 63 21.5t20 118.5h127v-140h246v-122h-246v-112h191v-76h-191v-15q0 -61 26.5 -84t95.5 -23q65 0 132 14l-5 -124q-77 -17 -169 -17q-127 0 -185.5 50t-58.5 164z" />
    <glyph glyph-name="Utilde" unicode="&#x168;" horiz-adv-x="956" 
d="M684 922q9 -87 -21 -128.5t-89 -41.5q-36 0 -68.5 18t-58 35.5t-44.5 17.5q-38 0 -31 -61h-104q-8 88 22.5 130t91.5 42q33 0 66 -18.5t59 -37t43 -18.5q37 0 30 62h104zM870 314q0 -155 -103 -240t-289 -85q-187 0 -289 85t-102 240v386h172v-386q0 -189 219 -189
t219 189v386h173v-386z" />
    <glyph glyph-name="utilde" unicode="&#x169;" horiz-adv-x="814" 
d="M613 770q9 -87 -21 -128.5t-89 -41.5q-36 0 -68.5 18t-58 35.5t-44.5 17.5q-38 0 -31 -61h-104q-8 88 22.5 130t91.5 42q33 0 66 -18.5t59 -37t43 -18.5q37 0 30 62h104zM563 296v252h163v-548h-145l-12 112q-40 -58 -104.5 -90.5t-141.5 -32.5q-115 0 -178.5 59.5
t-63.5 170.5v329h163v-302q0 -60 33.5 -91.5t94.5 -31.5q86 0 138.5 46t52.5 127z" />
    <glyph glyph-name="Umacron" unicode="&#x16a;" horiz-adv-x="956" 
d="M275 770v109h406v-109h-406zM870 314q0 -155 -103 -240t-289 -85q-187 0 -289 85t-102 240v386h172v-386q0 -189 219 -189t219 189v386h173v-386z" />
    <glyph glyph-name="umacron" unicode="&#x16b;" horiz-adv-x="814" 
d="M204 618v109h406v-109h-406zM563 296v252h163v-548h-145l-12 112q-40 -58 -104.5 -90.5t-141.5 -32.5q-115 0 -178.5 59.5t-63.5 170.5v329h163v-302q0 -60 33.5 -91.5t94.5 -31.5q86 0 138.5 46t52.5 127z" />
    <glyph glyph-name="Ubreve" unicode="&#x16c;" horiz-adv-x="956" 
d="M561 919h126q0 -166 -208 -166q-210 0 -210 166h126q0 -40 20.5 -57.5t63.5 -17.5q41 0 61.5 17.5t20.5 57.5zM870 314q0 -155 -103 -240t-289 -85q-187 0 -289 85t-102 240v386h172v-386q0 -189 219 -189t219 189v386h173v-386z" />
    <glyph glyph-name="ubreve" unicode="&#x16d;" horiz-adv-x="814" 
d="M490 767h126q0 -166 -208 -166q-210 0 -210 166h126q0 -40 20.5 -57.5t63.5 -17.5q41 0 61.5 17.5t20.5 57.5zM563 296v252h163v-548h-145l-12 112q-40 -58 -104.5 -90.5t-141.5 -32.5q-115 0 -178.5 59.5t-63.5 170.5v329h163v-302q0 -60 33.5 -91.5t94.5 -31.5
q86 0 138.5 46t52.5 127z" />
    <glyph glyph-name="Uring" unicode="&#x16e;" horiz-adv-x="956" 
d="M479 746q-73 0 -114 31.5t-41 86.5q0 54 41.5 85.5t113.5 31.5q71 0 112 -31.5t41 -85.5q0 -55 -41 -86.5t-112 -31.5zM479 814q69 0 69 50q0 49 -69 49q-72 0 -72 -49q0 -50 72 -50zM870 314q0 -155 -103 -240t-289 -85q-187 0 -289 85t-102 240v386h172v-386
q0 -189 219 -189t219 189v386h173v-386z" />
    <glyph glyph-name="uring" unicode="&#x16f;" horiz-adv-x="814" 
d="M408 594q-73 0 -114 31.5t-41 86.5q0 54 41.5 85.5t113.5 31.5q71 0 112 -31.5t41 -85.5q0 -55 -41 -86.5t-112 -31.5zM408 662q69 0 69 50q0 49 -69 49q-72 0 -72 -49q0 -50 72 -50zM563 296v252h163v-548h-145l-12 112q-40 -58 -104.5 -90.5t-141.5 -32.5
q-115 0 -178.5 59.5t-63.5 170.5v329h163v-302q0 -60 33.5 -91.5t94.5 -31.5q86 0 138.5 46t52.5 127z" />
    <glyph glyph-name="Uhungarumlaut" unicode="&#x170;" horiz-adv-x="956" 
d="M290 760l89 161h178l-143 -161h-124zM521 760l89 161h178l-143 -161h-124zM870 314q0 -155 -103 -240t-289 -85q-187 0 -289 85t-102 240v386h172v-386q0 -189 219 -189t219 189v386h173v-386z" />
    <glyph glyph-name="uhungarumlaut" unicode="&#x171;" horiz-adv-x="814" 
d="M218 608l89 161h178l-143 -161h-124zM449 608l89 161h178l-143 -161h-124zM563 296v252h163v-548h-145l-12 112q-40 -58 -104.5 -90.5t-141.5 -32.5q-115 0 -178.5 59.5t-63.5 170.5v329h163v-302q0 -60 33.5 -91.5t94.5 -31.5q86 0 138.5 46t52.5 127z" />
    <glyph glyph-name="Uogonek" unicode="&#x172;" horiz-adv-x="956" 
d="M527 -215q-155 0 -155 106q0 62 61 99q-166 11 -256 95t-90 229v386h172v-386q0 -189 219 -189t219 189v386h173v-386q0 -202 -172 -282q-32 -16 -87.5 -33.5t-82.5 -31t-27 -33.5q0 -31 54 -31q42 0 93 15l-4 -115q-54 -18 -117 -18z" />
    <glyph glyph-name="uogonek" unicode="&#x173;" horiz-adv-x="814" 
d="M450 -109q0 90 128 132l-9 89q-40 -58 -104.5 -90.5t-141.5 -32.5q-115 0 -178.5 59.5t-63.5 170.5v329h163v-302q0 -60 33.5 -91.5t94.5 -31.5q86 0 138.5 46t52.5 127v252h163v-548h-1q-146 -18 -146 -66q0 -31 55 -31q41 0 92 15l-3 -115q-54 -18 -115 -18
q-158 0 -158 106z" />
    <glyph glyph-name="Wcircumflex" unicode="&#x174;" horiz-adv-x="1285" 
d="M756 760l-116 84l-113 -84h-124l146 161h191l143 -161h-127zM272 0l-263 700h183l174 -503l194 503h165l198 -502l173 502h181l-264 -700h-168l-205 509l-203 -509h-165z" />
    <glyph glyph-name="wcircumflex" unicode="&#x175;" horiz-adv-x="1070" 
d="M648 608l-116 84l-113 -84h-124l146 161h191l143 -161h-127zM238 0l-230 548h169l141 -365l151 365h136l159 -362l138 362h161l-228 -548h-134l-164 379l-164 -379h-135z" />
    <glyph glyph-name="Ycircumflex" unicode="&#x176;" horiz-adv-x="836" 
d="M531 760l-116 84l-113 -84h-124l146 161h191l143 -161h-127zM330 0v276l-331 424h212l210 -283l213 283h202l-333 -429v-271h-173z" />
    <glyph glyph-name="ycircumflex" unicode="&#x177;" horiz-adv-x="711" 
d="M469 608l-116 84l-113 -84h-124l146 161h191l143 -161h-127zM534 548h171l-272 -556q-56 -114 -114.5 -158.5t-155.5 -44.5q-57 0 -99 13l-6 122q34 -7 73 -7q60 0 91.5 20.5t61.5 81.5l-278 529h180l181 -371z" />
    <glyph glyph-name="Ydieresis" unicode="&#x178;" horiz-adv-x="836" 
d="M464 766v144h169v-144h-169zM202 766v144h170v-144h-170zM330 0v276l-331 424h212l210 -283l213 283h202l-333 -429v-271h-173z" />
    <glyph glyph-name="Zacute" unicode="&#x179;" horiz-adv-x="825" 
d="M339 760l126 161h210l-200 -161h-136zM47 0v129l493 437h-489v134h728v-126l-499 -440h499v-134h-732z" />
    <glyph glyph-name="zacute" unicode="&#x17a;" horiz-adv-x="696" 
d="M281 608l126 161h210l-200 -161h-136zM47 0v120l388 308h-384v120h599v-120l-387 -308h389v-120h-605z" />
    <glyph glyph-name="Zdotaccent" unicode="&#x17b;" horiz-adv-x="825" 
d="M330 766v152h166v-152h-166zM47 0v129l493 437h-489v134h728v-126l-499 -440h499v-134h-732z" />
    <glyph glyph-name="zdotaccent" unicode="&#x17c;" horiz-adv-x="696" 
d="M266 614v152h166v-152h-166zM47 0v120l388 308h-384v120h599v-120l-387 -308h389v-120h-605z" />
    <glyph glyph-name="Zcaron" unicode="&#x17d;" horiz-adv-x="825" 
d="M653 921l-146 -161h-191l-143 161h127l116 -84l113 84h124zM47 0v129l493 437h-489v134h728v-126l-499 -440h499v-134h-732z" />
    <glyph glyph-name="zcaron" unicode="&#x17e;" horiz-adv-x="696" 
d="M589 769l-146 -161h-191l-143 161h127l116 -84l113 84h124zM47 0v120l388 308h-384v120h599v-120l-387 -308h389v-120h-605z" />
    <glyph glyph-name="uni0191" unicode="&#x191;" horiz-adv-x="825" 
d="M104 700h678v-136h-506v-173h448v-137h-448v-194q0 -271 -265 -271q-54 0 -122 13l-6 138q49 -9 91 -9q70 0 100 29t30 100v640z" />
    <glyph glyph-name="uni0192" unicode="&#x192;" horiz-adv-x="534" 
d="M130 5v421h-115v122h115q0 213 259 213q71 0 136 -13l-6 -119q-55 10 -109 10q-63 0 -90 -20.5t-27 -70.5h229v-122h-229v-412q0 -121 -52 -173t-167 -52q-54 0 -94 8l-5 123q29 -5 62 -5q50 0 71.5 20.5t21.5 69.5z" />
    <glyph glyph-name="uni0218" unicode="&#x218;" horiz-adv-x="891" 
d="M41 213l175 25q28 -121 235 -121q218 0 218 80q0 38 -32 55t-119 25l-193 13q-262 25 -262 200q0 104 98 162.5t280 58.5q340 0 385 -210l-174 -25q-15 55 -65.5 81t-148.5 26q-201 0 -201 -78q0 -35 32 -51.5t112 -25.5l197 -12q137 -14 201.5 -63t64.5 -139
q0 -108 -99.5 -166.5t-296.5 -58.5q-362 0 -407 224zM273 -204l77 145h191l-141 -145h-127z" />
    <glyph glyph-name="uni0219" unicode="&#x219;" horiz-adv-x="737" 
d="M362 449q-154 0 -154 -54q0 -25 23.5 -36.5t84.5 -15.5l139 -9q127 -10 184.5 -47.5t57.5 -111.5q0 -89 -84.5 -137.5t-246.5 -48.5q-153 0 -230.5 41.5t-101.5 132.5l155 23q20 -87 174 -87q173 0 173 58q0 26 -22 38t-80 17l-140 8q-124 9 -183 49t-59 114q0 82 81 129
t228 47q145 0 223.5 -40t99.5 -124l-153 -23q-9 40 -49 58.5t-120 18.5zM202 -204l77 145h191l-141 -145h-127z" />
    <glyph glyph-name="uni021A" unicode="&#x21a;" 
d="M330 0v564h-303v136h781v-136h-306v-564h-172zM242 -204l77 145h191l-141 -145h-127z" />
    <glyph glyph-name="uni021B" unicode="&#x21b;" horiz-adv-x="573" 
d="M121 203v223h-110v122h64q50 0 63 21.5t20 118.5h127v-140h246v-122h-246v-203q0 -61 26.5 -84t95.5 -23q65 0 132 14l-5 -124q-77 -17 -169 -17q-127 0 -185.5 50t-58.5 164zM138 -204l77 145h191l-141 -145h-127z" />
    <glyph glyph-name="dotlessj" unicode="&#x237;" horiz-adv-x="340" 
d="M88 5v543h164v-534q0 -121 -52 -173t-167 -52q-54 0 -95 8l-4 123q28 -5 61 -5q50 0 71.5 20.5t21.5 69.5z" />
    <glyph glyph-name="uni02BC" unicode="&#x2bc;" horiz-adv-x="342" 
d="M84 700h172v-134q0 -101 -41 -144.5t-139 -45.5l-7 89q53 0 71 17t18 65h-74v153z" />
    <glyph glyph-name="circumflex" unicode="&#x2c6;" horiz-adv-x="500" 
d="M363 608l-116 84l-113 -84h-124l146 161h191l143 -161h-127z" />
    <glyph glyph-name="caron" unicode="&#x2c7;" horiz-adv-x="500" 
d="M490 769l-146 -161h-191l-143 161h127l116 -84l113 84h124z" />
    <glyph glyph-name="breve" unicode="&#x2d8;" horiz-adv-x="500" 
d="M333 767h126q0 -166 -208 -166q-210 0 -210 166h126q0 -40 20.5 -57.5t63.5 -17.5q41 0 61.5 17.5t20.5 57.5z" />
    <glyph glyph-name="dotaccent" unicode="&#x2d9;" horiz-adv-x="500" 
d="M167 614v152h166v-152h-166z" />
    <glyph glyph-name="ring" unicode="&#x2da;" horiz-adv-x="500" 
d="M251 594q-73 0 -114 31.5t-41 86.5q0 54 41.5 85.5t113.5 31.5q71 0 112 -31.5t41 -85.5q0 -55 -41 -86.5t-112 -31.5zM251 662q69 0 69 50q0 49 -69 49q-72 0 -72 -49q0 -50 72 -50z" />
    <glyph glyph-name="ogonek" unicode="&#x2db;" horiz-adv-x="500" 
d="M198 -109q0 58 51.5 95.5t169.5 59.5l54 -46q-146 -18 -146 -66q0 -31 55 -31q41 0 92 15l-3 -115q-54 -18 -115 -18q-158 0 -158 106z" />
    <glyph glyph-name="tilde" unicode="&#x2dc;" horiz-adv-x="500" 
d="M456 770q9 -87 -21 -128.5t-89 -41.5q-36 0 -68.5 18t-58 35.5t-44.5 17.5q-38 0 -31 -61h-104q-8 88 22.5 130t91.5 42q33 0 66 -18.5t59 -37t43 -18.5q37 0 30 62h104z" />
    <glyph glyph-name="hungarumlaut" unicode="&#x2dd;" horiz-adv-x="500" 
d="M61 608l89 161h178l-143 -161h-124zM292 608l89 161h178l-143 -161h-124z" />
    <glyph glyph-name="pi" unicode="&#x3c0;" horiz-adv-x="877" 
d="M21 429v119h834v-119h-98v-429h-167v429h-306v-429h-166v429h-97z" />
    <glyph glyph-name="uni0400" unicode="&#x400;" horiz-adv-x="843" 
d="M517 762h-136l-201 161h211zM104 0v700h678v-131h-509v-147h451v-130h-451v-161h517v-131h-686z" />
    <glyph glyph-name="afii10023" unicode="&#x401;" horiz-adv-x="843" 
d="M490 764v144h169v-144h-169zM228 764v144h170v-144h-170zM104 0v700h678v-131h-509v-147h451v-130h-451v-161h517v-131h-686z" />
    <glyph glyph-name="afii10051" unicode="&#x402;" horiz-adv-x="1124" 
d="M330 0v564h-303v136h781v-136h-306v-227q98 120 288 120q123 0 192 -59.5t69 -163.5v-27q0 -218 -265 -218q-64 0 -117 11l-5 120q54 -9 94 -9q121 0 121 94v19q0 51 -37.5 78.5t-106.5 27.5q-98 0 -165.5 -50t-67.5 -124v-156h-172z" />
    <glyph glyph-name="afii10052" unicode="&#x403;" horiz-adv-x="780" 
d="M341 768l126 161h210l-200 -161h-136zM104 0v700h646v-136h-474v-564h-172z" />
    <glyph glyph-name="afii10053" unicode="&#x404;" horiz-adv-x="947" 
d="M51 350q0 166 118.5 263.5t321.5 97.5q171 0 277 -62t137 -181l-179 -35q-37 142 -235 142q-217 0 -256 -156h382v-125h-385q32 -169 259 -169q207 0 237 147l176 -34q-28 -122 -134 -185.5t-279 -63.5q-209 0 -324.5 97t-115.5 264z" />
    <glyph glyph-name="afii10054" unicode="&#x405;" horiz-adv-x="891" 
d="M41 213l175 25q28 -121 235 -121q218 0 218 80q0 38 -32 55t-119 25l-193 13q-262 25 -262 200q0 104 98 162.5t280 58.5q340 0 385 -210l-174 -25q-15 55 -65.5 81t-148.5 26q-201 0 -201 -78q0 -35 32 -51.5t112 -25.5l197 -12q137 -14 201.5 -63t64.5 -139
q0 -108 -99.5 -166.5t-296.5 -58.5q-362 0 -407 224z" />
    <glyph glyph-name="afii10055" unicode="&#x406;" horiz-adv-x="380" 
d="M104 0v700h172v-700h-172z" />
    <glyph glyph-name="afii10056" unicode="&#x407;" horiz-adv-x="380" 
d="M236 766v144h169v-144h-169zM-26 766v144h170v-144h-170zM104 0v700h172v-700h-172z" />
    <glyph glyph-name="afii10057" unicode="&#x408;" horiz-adv-x="563" 
d="M468 263q0 -141 -68.5 -207.5t-220.5 -66.5q-76 0 -144 13l-6 138q64 -9 118 -9q83 0 116 29t33 100v440h172v-437z" />
    <glyph glyph-name="afii10058" unicode="&#x409;" horiz-adv-x="1477" 
d="M4 134q84 7 116 54q26 38 34.5 116t13.5 281l3 115h691v-219h308q123 0 196.5 -65.5t73.5 -174.5q0 -110 -73.5 -175.5t-196.5 -65.5h-480v564h-352q-6 -230 -23 -328t-65 -157q-39 -47 -93 -67.5t-139 -20.5zM1148 348h-286v-215h286q56 0 86.5 27.5t30.5 80.5
q0 52 -30.5 79.5t-86.5 27.5z" />
    <glyph glyph-name="afii10059" unicode="&#x40a;" horiz-adv-x="1561" 
d="M104 0v700h172v-258h476v258h172v-257h337q120 0 191.5 -60t71.5 -161t-71.5 -161.5t-191.5 -60.5h-509v306h-476v-306h-172zM1240 310h-316v-178h316q108 0 108 90q0 88 -108 88z" />
    <glyph glyph-name="afii10060" unicode="&#x40b;" horiz-adv-x="1097" 
d="M328 0v564h-304v136h782v-136h-306v-225q91 110 257 110q126 0 193.5 -62t67.5 -169v-218h-172v175q0 140 -146 140q-92 0 -146 -47.5t-54 -127.5v-140h-172z" />
    <glyph glyph-name="afii10061" unicode="&#x40c;" horiz-adv-x="910" 
d="M384 764l126 161h210l-200 -161h-136zM104 0v700h169v-311l393 311h233l-430 -330l444 -370h-246l-394 326v-326h-169z" />
    <glyph glyph-name="uni040D" unicode="&#x40d;" horiz-adv-x="1007" 
d="M584 764h-136l-201 161h211zM104 0v700h166v-486l467 486h167v-700h-167v486l-467 -486h-166z" />
    <glyph glyph-name="afii10062" unicode="&#x40e;" horiz-adv-x="856" 
d="M539 941h153q0 -95 -70 -151t-191 -56q-120 0 -189.5 56t-69.5 151h152q0 -42 29 -67t78 -25t78.5 25t29.5 67zM226 0l122 194l-342 506h199l237 -356l222 356h189l-433 -700h-194z" />
    <glyph glyph-name="afii10145" unicode="&#x40f;" horiz-adv-x="980" 
d="M104 0v700h172v-564h428v564h173v-700h-305v-165h-164v165h-304z" />
    <glyph glyph-name="afii10017" unicode="&#x410;" horiz-adv-x="936" 
d="M743 0l-76 147h-405l-76 -147h-182l375 700h176l376 -700h-188zM329 277h270l-135 260z" />
    <glyph glyph-name="afii10018" unicode="&#x411;" horiz-adv-x="909" 
d="M104 0v700h698v-134h-532v-132h343q112 0 177 -58.5t65 -158.5t-65 -158.5t-177 -58.5h-509zM590 304h-320v-175h320q96 0 96 87q0 88 -96 88z" />
    <glyph glyph-name="afii10019" unicode="&#x412;" horiz-adv-x="939" 
d="M104 0v700h511q111 0 174.5 -47.5t63.5 -131.5q0 -114 -121 -159q73 -19 111.5 -63t38.5 -107q0 -90 -66.5 -141t-186.5 -51h-525zM582 576h-310v-161h311q47 0 73 21t26 60q0 80 -100 80zM597 291h-325v-167h325q107 0 107 81q0 86 -107 86z" />
    <glyph glyph-name="afii10020" unicode="&#x413;" horiz-adv-x="780" 
d="M104 0v700h646v-136h-474v-564h-172z" />
    <glyph glyph-name="afii10021" unicode="&#x414;" horiz-adv-x="980" 
d="M10 -167v303h69q51 45 71.5 135.5t26.5 315.5l3 113h672v-564h95v-303h-163v167h-610v-167h-164zM303 228q-18 -52 -50 -92h430v428h-343q-6 -248 -37 -336z" />
    <glyph glyph-name="afii10022" unicode="&#x415;" horiz-adv-x="843" 
d="M104 0v700h678v-131h-509v-147h451v-130h-451v-161h517v-131h-686z" />
    <glyph glyph-name="afii10024" unicode="&#x416;" horiz-adv-x="1230" 
d="M530 0v329l-315 -329h-218l363 372l-352 328h213l309 -304v304h170v-301l310 301h213l-352 -323l362 -377h-218l-315 332v-332h-170z" />
    <glyph glyph-name="afii10025" unicode="&#x417;" horiz-adv-x="908" 
d="M854 201q0 -105 -104.5 -158.5t-304.5 -53.5q-358 0 -396 226l176 33q10 -67 62 -99.5t157 -32.5q221 0 221 92q0 43 -35 63t-111 20h-204v126h198q143 0 143 83q0 86 -210 86q-193 0 -218 -124l-166 35q47 214 383 214q192 0 292.5 -49.5t100.5 -145.5q0 -110 -136 -153
q152 -35 152 -162z" />
    <glyph glyph-name="afii10026" unicode="&#x418;" horiz-adv-x="1007" 
d="M104 0v700h166v-486l467 486h167v-700h-167v486l-467 -486h-166z" />
    <glyph glyph-name="afii10027" unicode="&#x419;" horiz-adv-x="1007" 
d="M617 939h153q0 -95 -70 -151t-191 -56q-120 0 -189.5 56t-69.5 151h152q0 -42 29 -67t78 -25t78.5 25t29.5 67zM104 0v700h166v-486l467 486h167v-700h-167v486l-467 -486h-166z" />
    <glyph glyph-name="afii10028" unicode="&#x41a;" horiz-adv-x="910" 
d="M104 0v700h169v-311l393 311h233l-430 -330l444 -370h-246l-394 326v-326h-169z" />
    <glyph glyph-name="afii10029" unicode="&#x41b;" horiz-adv-x="966" 
d="M4 134q84 7 116 54q26 38 34.5 116t13.5 281l3 115h691v-700h-172v564h-352q-6 -230 -23 -328t-65 -157q-39 -47 -93 -67.5t-139 -20.5z" />
    <glyph glyph-name="afii10030" unicode="&#x41c;" horiz-adv-x="1183" 
d="M104 0v700h184l306 -437l303 437h182v-700h-161v483l-252 -368h-148l-253 364v-479h-161z" />
    <glyph glyph-name="afii10031" unicode="&#x41d;" horiz-adv-x="1021" 
d="M104 0v700h172v-272h469v272h172v-700h-172v292h-469v-292h-172z" />
    <glyph glyph-name="afii10032" unicode="&#x41e;" horiz-adv-x="997" 
d="M499 -11q-210 0 -329 96.5t-119 263.5q0 168 119 265t329 97t329 -97t119 -265q0 -167 -119 -263.5t-329 -96.5zM499 125q135 0 203 57.5t68 166.5q0 110 -68.5 168t-202.5 58q-135 0 -203.5 -58t-68.5 -168q0 -109 68.5 -166.5t203.5 -57.5z" />
    <glyph glyph-name="afii10033" unicode="&#x41f;" horiz-adv-x="1007" 
d="M104 0v700h799v-700h-172v564h-455v-564h-172z" />
    <glyph glyph-name="afii10034" unicode="&#x420;" horiz-adv-x="885" 
d="M104 0v700h462q128 0 203 -68t75 -183q0 -114 -77 -180.5t-208 -66.5h-283v-202h-172zM532 565h-256v-229h256q67 0 101.5 29t34.5 84q0 116 -136 116z" />
    <glyph glyph-name="afii10035" unicode="&#x421;" horiz-adv-x="947" 
d="M51 350q0 166 118.5 263.5t321.5 97.5q171 0 277 -62t137 -181l-179 -35q-37 142 -235 142q-130 0 -197 -58t-67 -167q0 -110 67 -167.5t197 -57.5q207 0 237 147l176 -34q-28 -122 -134 -185.5t-279 -63.5q-209 0 -324.5 97t-115.5 264z" />
    <glyph glyph-name="afii10036" unicode="&#x422;" 
d="M330 0v564h-303v136h781v-136h-306v-564h-172z" />
    <glyph glyph-name="afii10037" unicode="&#x423;" horiz-adv-x="856" 
d="M226 0l122 194l-342 506h199l237 -356l222 356h189l-433 -700h-194z" />
    <glyph glyph-name="afii10038" unicode="&#x424;" horiz-adv-x="1083" 
d="M454 -28v97h-32q-181 0 -282 77t-101 211q0 133 102 210.5t281 77.5h32v83h173v-83h34q179 0 281 -77.5t102 -210.5q0 -134 -101 -211t-282 -77h-34v-97h-173zM880 357q0 160 -216 160h-41v-320h41q216 0 216 160zM203 357q0 -160 216 -160h38v320h-38q-216 0 -216 -160z
" />
    <glyph glyph-name="afii10039" unicode="&#x425;" horiz-adv-x="839" 
d="M213 0h-205l301 358l-296 342h212l202 -238l194 238h203l-298 -347l306 -353h-213l-207 246z" />
    <glyph glyph-name="afii10040" unicode="&#x426;" horiz-adv-x="994" 
d="M104 0v700h172v-564h435v564h173v-564h87v-303h-164v167h-703z" />
    <glyph glyph-name="afii10041" unicode="&#x427;" horiz-adv-x="934" 
d="M81 478v222h172v-186q0 -78 44 -111t141 -33q100 0 220 35v295h172v-700h-172v273q-139 -47 -267 -47q-158 0 -234 61t-76 191z" />
    <glyph glyph-name="afii10042" unicode="&#x428;" horiz-adv-x="1360" 
d="M104 0v700h172v-564h318v564h172v-564h318v564h172v-700h-1152z" />
    <glyph glyph-name="afii10043" unicode="&#x429;" horiz-adv-x="1367" 
d="M104 0v700h172v-564h318v564h172v-564h318v564h172v-564h87v-303h-164v167h-1075z" />
    <glyph glyph-name="afii10044" unicode="&#x42a;" horiz-adv-x="1000" 
d="M238 0v566h-225v134h394v-219h287q123 0 196.5 -65.5t73.5 -174.5q0 -110 -73.5 -175.5t-196.5 -65.5h-456zM671 348h-264v-215h264q117 0 117 108q0 107 -117 107z" />
    <glyph glyph-name="afii10045" unicode="&#x42b;" horiz-adv-x="1214" 
d="M938 0v700h172v-700h-172zM104 0v700h172v-219h308q123 0 196.5 -65.5t73.5 -174.5q0 -110 -73.5 -175.5t-196.5 -65.5h-480zM562 348h-286v-215h286q56 0 86.5 27.5t30.5 80.5q0 52 -30.5 79.5t-86.5 27.5z" />
    <glyph glyph-name="afii10046" unicode="&#x42c;" horiz-adv-x="891" 
d="M104 0v700h172v-219h308q123 0 196.5 -65.5t73.5 -174.5q0 -110 -73.5 -175.5t-196.5 -65.5h-480zM562 348h-286v-215h286q56 0 86.5 27.5t30.5 80.5q0 52 -30.5 79.5t-86.5 27.5z" />
    <glyph glyph-name="afii10047" unicode="&#x42d;" horiz-adv-x="945" 
d="M218 441l-170 35q32 115 138 175t278 60q197 0 313.5 -96t116.5 -265q0 -168 -115 -264.5t-319 -96.5q-176 0 -283 62.5t-135 183.5l175 34q30 -148 243 -148q223 0 255 172h-380v125h378q-36 161 -249 161q-206 0 -246 -138z" />
    <glyph glyph-name="afii10048" unicode="&#x42e;" horiz-adv-x="1328" 
d="M104 0v700h172v-275h112q26 135 141 210.5t300 75.5q210 0 329 -97t119 -265q0 -167 -119 -263.5t-329 -96.5q-191 0 -307.5 80.5t-136.5 222.5h-109v-292h-172zM829 125q135 0 203.5 57.5t68.5 166.5q0 110 -68.5 168t-203.5 58t-203 -58t-68 -168q0 -109 68.5 -166.5
t202.5 -57.5z" />
    <glyph glyph-name="afii10049" unicode="&#x42f;" horiz-adv-x="916" 
d="M813 0h-173v236h-159l-224 -236h-206l235 246q-102 14 -161.5 73t-59.5 149q0 106 73 169t196 63h479v-700zM363 364h277v207h-277q-59 0 -90.5 -26.5t-31.5 -76.5q0 -51 31.5 -77.5t90.5 -26.5z" />
    <glyph glyph-name="afii10065" unicode="&#x430;" horiz-adv-x="767" 
d="M50 384q47 175 323 175q160 0 234 -51t74 -159v-201q0 -39 37 -39q9 0 23 2l-3 -109q-36 -12 -76 -12q-118 0 -130 104q-91 -105 -270 -105q-109 0 -170 43.5t-61 120.5t60 118.5t190 51.5l247 17q-2 54 -38.5 78.5t-119.5 24.5q-147 0 -162 -84zM190 163q0 -60 106 -60
q99 0 166.5 38.5t67.5 95.5v8l-253 -20q-87 -7 -87 -62z" />
    <glyph glyph-name="afii10066" unicode="&#x431;" horiz-adv-x="836" 
d="M422 -11q-180 0 -271.5 84.5t-91.5 246.5v26q0 202 90 296t292 102l168 7q67 3 118 14l11 -124q-55 -17 -128 -18l-170 -6q-120 -5 -173 -50t-61 -157q38 55 110.5 85.5t163.5 30.5q148 0 227 -69t79 -195t-98 -199.5t-266 -73.5zM424 114q194 0 194 150q0 148 -189 148
q-98 0 -149 -37.5t-51 -109.5q0 -151 195 -151z" />
    <glyph glyph-name="afii10067" unicode="&#x432;" horiz-adv-x="792" 
d="M88 0v548h445q90 0 139.5 -37t49.5 -104q0 -94 -108 -125q132 -28 132 -137q0 -69 -52.5 -107t-147.5 -38h-458zM489 442h-243v-112h243q71 0 71 57q0 55 -71 55zM501 226h-255v-120h256q76 0 76 60t-77 60z" />
    <glyph glyph-name="afii10068" unicode="&#x433;" horiz-adv-x="629" 
d="M88 0v548h526v-127h-362v-421h-164z" />
    <glyph glyph-name="afii10069" unicode="&#x434;" horiz-adv-x="818" 
d="M13 -157v283h64q44 39 59.5 114t18.5 254l1 54h557v-422h82v-283h-153v157h-476v-157h-153zM279 199q-13 -40 -38 -73h318v303h-254q-1 -154 -26 -230z" />
    <glyph glyph-name="afii10070" unicode="&#x435;" horiz-adv-x="806" 
d="M412 -11q-170 0 -267 76.5t-97 209.5q0 129 96.5 206.5t264.5 77.5q161 0 257 -72.5t96 -195.5q0 -29 -6 -56h-545q23 -126 202 -126q160 0 187 77l158 -28q-28 -85 -110.5 -127t-235.5 -42zM410 442q-166 0 -196 -111h387q-25 111 -191 111z" />
    <glyph glyph-name="afii10072" unicode="&#x436;" horiz-adv-x="1036" 
d="M437 0v258l-233 -258h-206l284 301l-274 247h203l226 -225v225h158v-228l230 228h203l-274 -247l284 -301h-206l-237 261v-261h-158z" />
    <glyph glyph-name="afii10073" unicode="&#x437;" horiz-adv-x="748" 
d="M705 156q0 -167 -341 -167q-308 0 -335 182l159 28q8 -53 48.5 -77t128.5 -24q169 0 169 69q0 61 -111 61h-158v104h157q107 0 107 58q0 60 -162 60q-87 0 -128.5 -22.5t-49.5 -71.5l-151 28q34 175 330 175q324 0 324 -148q0 -94 -126 -126q139 -25 139 -129z" />
    <glyph glyph-name="afii10074" unicode="&#x438;" horiz-adv-x="835" 
d="M88 0v548h161v-359l337 359h161v-548h-161v358l-337 -358h-161z" />
    <glyph glyph-name="afii10075" unicode="&#x439;" horiz-adv-x="835" 
d="M516 770h139q0 -80 -63.5 -125t-168.5 -45t-168.5 45t-63.5 125h139q0 -35 24.5 -55t68.5 -20t68.5 20t24.5 55zM88 0v548h161v-359l337 359h161v-548h-161v358l-337 -358h-161z" />
    <glyph glyph-name="afii10076" unicode="&#x43a;" horiz-adv-x="770" 
d="M88 0v548h164v-232l297 232h215l-333 -251l341 -297h-223l-297 259v-259h-164z" />
    <glyph glyph-name="afii10077" unicode="&#x43b;" horiz-adv-x="797" 
d="M14 115q57 1 85 35q22 28 30 87.5t10 182.5l1 128h568v-548h-163v420h-251v-21q-1 -141 -19 -221t-56 -122q-57 -65 -198 -65z" />
    <glyph glyph-name="afii10078" unicode="&#x43c;" horiz-adv-x="1012" 
d="M241 0h-153v548h183l236 -337l233 337h183v-548h-152v373l-192 -285h-144l-194 283v-371z" />
    <glyph glyph-name="afii10079" unicode="&#x43d;" horiz-adv-x="841" 
d="M88 0v548h164v-195h337v195h163v-548h-163v226h-337v-226h-164z" />
    <glyph glyph-name="afii10080" unicode="&#x43e;" horiz-adv-x="820" 
d="M410 -11q-171 0 -266.5 76t-95.5 209t95.5 209t266.5 76t266.5 -76t95.5 -209q0 -134 -95 -209.5t-267 -75.5zM410 114q195 0 195 160t-195 160t-195 -160t195 -160z" />
    <glyph glyph-name="afii10081" unicode="&#x43f;" horiz-adv-x="826" 
d="M88 0v548h650v-548h-164v420h-322v-420h-164z" />
    <glyph glyph-name="afii10082" unicode="&#x440;" horiz-adv-x="859" 
d="M503 -11q-163 0 -251 104v-293h-164v748h147l10 -102q89 113 258 113q143 0 225.5 -77.5t82.5 -207.5q0 -131 -82.5 -208t-225.5 -77zM452 116q94 0 143 41.5t49 116.5t-49 116.5t-143 41.5q-95 0 -147.5 -42t-52.5 -116t52.5 -116t147.5 -42z" />
    <glyph glyph-name="afii10083" unicode="&#x441;" horiz-adv-x="782" 
d="M749 356l-162 -30q-24 108 -179 108q-193 0 -193 -160q0 -78 48.5 -119t144.5 -41q159 0 182 112l160 -30q-22 -100 -111 -153.5t-231 -53.5q-169 0 -264.5 76t-95.5 209t95.5 209t264.5 76q142 0 229.5 -52t111.5 -151z" />
    <glyph glyph-name="afii10084" unicode="&#x442;" horiz-adv-x="689" 
d="M262 0v420h-245v128h654v-128h-245v-420h-164z" />
    <glyph glyph-name="afii10085" unicode="&#x443;" horiz-adv-x="711" 
d="M534 548h171l-272 -556q-56 -114 -114.5 -158.5t-155.5 -44.5q-57 0 -99 13l-6 122q34 -7 73 -7q60 0 91.5 20.5t61.5 81.5l-278 529h180l181 -371z" />
    <glyph glyph-name="afii10086" unicode="&#x444;" horiz-adv-x="991" 
d="M415 -200v191q-180 6 -275 79t-95 203t95 204t275 80v193h160v-193q179 -6 274.5 -79.5t95.5 -204.5q0 -130 -95.5 -203t-274.5 -79v-191h-160zM786 273q0 80 -51.5 121.5t-159.5 45.5v-333q108 4 159.5 45.5t51.5 120.5zM204 273q0 -79 51 -120.5t160 -45.5v333
q-108 -5 -159.5 -46t-51.5 -121z" />
    <glyph glyph-name="afii10087" unicode="&#x445;" horiz-adv-x="744" 
d="M203 0h-193l257 285l-246 263h199l157 -171l158 171h188l-251 -267l262 -281h-201l-167 187z" />
    <glyph glyph-name="afii10088" unicode="&#x446;" 
d="M88 0v548h164v-420h317v420h163v-420h83v-285h-153v157h-574z" />
    <glyph glyph-name="afii10089" unicode="&#x447;" horiz-adv-x="776" 
d="M228 421q0 -67 32 -93.5t109 -26.5q80 0 155 29v218h164v-548h-164v217q-109 -39 -209 -39q-127 0 -188.5 54t-61.5 167v149h163v-127z" />
    <glyph glyph-name="afii10090" unicode="&#x448;" horiz-adv-x="1122" 
d="M88 0v548h160v-420h233v420h160v-420h233v420h160v-548h-946z" />
    <glyph glyph-name="afii10091" unicode="&#x449;" horiz-adv-x="1135" 
d="M88 0v548h160v-420h233v420h160v-420h233v420h160v-420h82v-285h-152v157h-876z" />
    <glyph glyph-name="afii10092" unicode="&#x44a;" horiz-adv-x="842" 
d="M191 0v423h-180v125h339v-158h231q106 0 165.5 -52t59.5 -143q0 -92 -59.5 -143.5t-165.5 -51.5h-390zM555 277h-205v-164h205q95 0 95 81q0 83 -95 83z" />
    <glyph glyph-name="afii10093" unicode="&#x44b;" horiz-adv-x="1046" 
d="M795 0v548h163v-548h-163zM88 0v548h164v-158h251q105 0 165 -52t60 -143q0 -92 -59.5 -143.5t-165.5 -51.5h-415zM476 277h-224v-164h224q95 0 95 81q0 83 -95 83z" />
    <glyph glyph-name="afii10094" unicode="&#x44c;" horiz-adv-x="763" 
d="M88 0v548h164v-158h251q105 0 165 -52t60 -143q0 -92 -59.5 -143.5t-165.5 -51.5h-415zM476 277h-224v-164h224q95 0 95 81q0 83 -95 83z" />
    <glyph glyph-name="afii10095" unicode="&#x44d;" horiz-adv-x="789" 
d="M191 341l-156 31q51 187 344 187q169 0 265 -76.5t96 -208.5t-96 -208.5t-265 -76.5q-296 0 -346 191l156 30q13 -53 58.5 -77t131.5 -24q172 0 199 116h-297v107h295q-31 107 -197 107q-164 0 -188 -98z" />
    <glyph glyph-name="afii10096" unicode="&#x44e;" horiz-adv-x="1110" 
d="M88 0v548h164v-203h94q24 101 115.5 157.5t237.5 56.5q172 0 267 -76t95 -209q0 -134 -95 -209.5t-267 -75.5q-151 0 -243.5 60t-112.5 168h-91v-217h-164zM699 114q195 0 195 160t-195 160q-194 0 -194 -160t194 -160z" />
    <glyph glyph-name="afii10097" unicode="&#x44f;" horiz-adv-x="774" 
d="M45 367q0 85 63 133t175 48h403v-548h-160v182h-129l-171 -182h-189l188 198q-89 12 -134.5 55t-45.5 114zM295 295h231v143h-231q-92 0 -92 -72q0 -71 92 -71z" />
    <glyph glyph-name="uni0450" unicode="&#x450;" horiz-adv-x="806" 
d="M474 608h-136l-201 161h211zM412 -11q-170 0 -267 76.5t-97 209.5q0 129 96.5 206.5t264.5 77.5q161 0 257 -72.5t96 -195.5q0 -29 -6 -56h-545q23 -126 202 -126q160 0 187 77l158 -28q-28 -85 -110.5 -127t-235.5 -42zM410 442q-166 0 -196 -111h387q-25 111 -191 111z
" />
    <glyph glyph-name="afii10071" unicode="&#x451;" horiz-adv-x="806" 
d="M449 614v144h169v-144h-169zM187 614v144h170v-144h-170zM412 -11q-170 0 -267 76.5t-97 209.5q0 129 96.5 206.5t264.5 77.5q161 0 257 -72.5t96 -195.5q0 -29 -6 -56h-545q23 -126 202 -126q160 0 187 77l158 -28q-28 -85 -110.5 -127t-235.5 -42zM410 442
q-166 0 -196 -111h387q-25 111 -191 111z" />
    <glyph glyph-name="afii10099" unicode="&#x452;" horiz-adv-x="841" 
d="M104 0v527h-99v121h99v102h163v-102h206v-121h-206v-168q42 55 106.5 86t142.5 31q118 0 182 -60.5t64 -170.5v-226q0 -126 -50 -178t-172 -52q-53 0 -95 9l-5 122q26 -5 62 -5q53 0 75 21t22 70v205q0 62 -36 96.5t-103 34.5q-88 0 -140.5 -46.5t-52.5 -126.5v-169h-163
z" />
    <glyph glyph-name="afii10100" unicode="&#x453;" horiz-adv-x="629" 
d="M263 608l126 161h210l-200 -161h-136zM88 0v548h526v-127h-362v-421h-164z" />
    <glyph glyph-name="afii10101" unicode="&#x454;" horiz-adv-x="792" 
d="M511 330v-105h-295q30 -116 195 -116q84 0 129.5 23.5t58.5 76.5l160 -29q-25 -93 -114.5 -142t-233.5 -49q-169 0 -266 76.5t-97 208.5t97 208.5t265 76.5q145 0 234 -47.5t114 -138.5l-162 -31q-28 97 -186 97q-161 0 -193 -109h294z" />
    <glyph glyph-name="afii10102" unicode="&#x455;" horiz-adv-x="737" 
d="M362 449q-154 0 -154 -54q0 -25 23.5 -36.5t84.5 -15.5l139 -9q127 -10 184.5 -47.5t57.5 -111.5q0 -89 -84.5 -137.5t-246.5 -48.5q-153 0 -230.5 41.5t-101.5 132.5l155 23q20 -87 174 -87q173 0 173 58q0 26 -22 38t-80 17l-140 8q-124 9 -183 49t-59 114q0 82 81 129
t228 47q145 0 223.5 -40t99.5 -124l-153 -23q-9 40 -49 58.5t-120 18.5z" />
    <glyph glyph-name="afii10103" unicode="&#x456;" horiz-adv-x="341" 
d="M87 614v137h166v-137h-166zM89 0v548h163v-548h-163z" />
    <glyph glyph-name="afii10104" unicode="&#x457;" horiz-adv-x="341" 
d="M7 614v144h133v-144h-133zM200 614v144h133v-144h-133zM89 0v548h163v-548h-163z" />
    <glyph glyph-name="afii10105" unicode="&#x458;" horiz-adv-x="341" 
d="M87 614v137h166v-137h-166zM88 5v543h164v-534q0 -121 -52 -173t-167 -52q-54 0 -95 8l-4 123q28 -5 61 -5q50 0 71.5 20.5t21.5 69.5z" />
    <glyph glyph-name="afii10106" unicode="&#x459;" horiz-adv-x="1220" 
d="M14 115q57 1 85 35q22 28 30 87.5t10 182.5l1 128h568v-158h251q105 0 165 -52t60 -143q0 -92 -59.5 -143.5t-165.5 -51.5h-415v420h-250v-21q-1 -141 -19 -221t-56 -122q-57 -65 -198 -65zM932 277h-224v-164h224q95 0 95 81q0 83 -95 83z" />
    <glyph glyph-name="afii10107" unicode="&#x45a;" horiz-adv-x="1275" 
d="M88 0v548h164v-190h336v190h164v-190h275q100 0 156.5 -47.5t56.5 -130.5q0 -84 -56.5 -132t-156.5 -48h-439v231h-336v-231h-164zM1001 245h-249v-132h249q82 0 82 67q0 65 -82 65z" />
    <glyph glyph-name="afii10108" unicode="&#x45b;" horiz-adv-x="844" 
d="M104 0v527h-99v121h99v102h164v-102h205v-121h-205v-168q88 117 249 117q118 0 182 -60.5t64 -170.5v-245h-164v211q0 62 -36 96.5t-102 34.5q-88 0 -140.5 -46.5t-52.5 -126.5v-169h-164z" />
    <glyph glyph-name="afii10109" unicode="&#x45c;" horiz-adv-x="770" 
d="M309 608l126 161h210l-200 -161h-136zM88 0v548h164v-232l297 232h215l-333 -251l341 -297h-223l-297 259v-259h-164z" />
    <glyph glyph-name="uni045D" unicode="&#x45d;" horiz-adv-x="835" 
d="M498 608h-136l-201 161h211zM88 0v548h161v-359l337 359h161v-548h-161v358l-337 -358h-161z" />
    <glyph glyph-name="afii10110" unicode="&#x45e;" horiz-adv-x="712" 
d="M452 772h142q0 -80 -62.5 -127t-170.5 -47t-170.5 47t-62.5 127h141q0 -35 24.5 -55t67.5 -20t67 20t24 55zM534 548h171l-272 -556q-56 -114 -114.5 -158.5t-155.5 -44.5q-57 0 -99 13l-6 122q34 -7 73 -7q60 0 91.5 20.5t60.5 83.5l-277 527h180l181 -371z" />
    <glyph glyph-name="afii10193" unicode="&#x45f;" horiz-adv-x="828" 
d="M88 0v548h164v-420h324v420h164v-548h-249v-157h-153v157h-250z" />
    <glyph glyph-name="afii10146" unicode="&#x462;" horiz-adv-x="880" 
d="M128 0v511h-116v111h116v79h167v-79h253v-111h-253v-88h296q117 0 185.5 -56.5t68.5 -152.5q0 -98 -68.5 -156t-185.5 -58h-463zM572 298h-277v-174h277q49 0 76 22.5t27 64.5q0 87 -103 87z" />
    <glyph glyph-name="afii10194" unicode="&#x463;" horiz-adv-x="755" 
d="M106 0v477h-100v110h100v163h163v-163h202v-110h-202v-104h226q106 0 165.5 -50t59.5 -138q0 -86 -59.5 -135.5t-165.5 -49.5h-389zM469 264h-200v-155h200q94 0 94 77q0 78 -94 78z" />
    <glyph glyph-name="afii10147" unicode="&#x472;" horiz-adv-x="1006" 
d="M499 -11q-210 0 -329 96.5t-119 263.5q0 168 119 265t329 97t329 -97t119 -265q0 -167 -119 -263.5t-329 -96.5zM499 577q-228 0 -268 -158h536q-40 158 -268 158zM499 123q235 0 270 166h-540q35 -166 270 -166z" />
    <glyph glyph-name="afii10195" unicode="&#x473;" horiz-adv-x="820" 
d="M410 -11q-171 0 -266.5 76t-95.5 209t95.5 209t266.5 76t266.5 -76t95.5 -209q0 -134 -95 -209.5t-267 -75.5zM410 436q-165 0 -192 -113h384q-27 113 -192 113zM410 112q164 0 191 111h-382q27 -111 191 -111z" />
    <glyph glyph-name="afii10148" unicode="&#x474;" horiz-adv-x="902" 
d="M350 0l-344 700h193l243 -520l170 356q46 98 95.5 136.5t130.5 38.5q23 0 47 -4l7 -150q-50 5 -78 -10.5t-50 -58.5l-238 -488h-176z" />
    <glyph glyph-name="afii10196" unicode="&#x475;" horiz-adv-x="726" 
d="M293 0l-287 548h181l180 -377l118 256q34 74 72 103t97 29q34 0 55 -5l5 -135q-40 4 -59.5 -7t-39.5 -49l-187 -363h-135z" />
    <glyph glyph-name="afii10050" unicode="&#x490;" horiz-adv-x="780" 
d="M104 0v700h482v135h164v-271h-474v-564h-172z" />
    <glyph glyph-name="afii10098" unicode="&#x491;" horiz-adv-x="629" 
d="M88 0v548h373v139h153v-266h-362v-421h-164z" />
    <glyph glyph-name="Wgrave" unicode="&#x1e80;" horiz-adv-x="1285" 
d="M710 760h-136l-201 161h211zM272 0l-263 700h183l174 -503l194 503h165l198 -502l173 502h181l-264 -700h-168l-205 509l-203 -509h-165z" />
    <glyph glyph-name="wgrave" unicode="&#x1e81;" horiz-adv-x="1070" 
d="M602 608h-136l-201 161h211zM238 0l-230 548h169l141 -365l151 365h136l159 -362l138 362h161l-228 -548h-134l-164 379l-164 -379h-135z" />
    <glyph glyph-name="Wacute" unicode="&#x1e82;" horiz-adv-x="1285" 
d="M576 760l126 161h210l-200 -161h-136zM272 0l-263 700h183l174 -503l194 503h165l198 -502l173 502h181l-264 -700h-168l-205 509l-203 -509h-165z" />
    <glyph glyph-name="wacute" unicode="&#x1e83;" horiz-adv-x="1070" 
d="M468 608l126 161h210l-200 -161h-136zM238 0l-230 548h169l141 -365l151 365h136l159 -362l138 362h161l-228 -548h-134l-164 379l-164 -379h-135z" />
    <glyph glyph-name="Wdieresis" unicode="&#x1e84;" horiz-adv-x="1285" 
d="M689 766v144h169v-144h-169zM427 766v144h170v-144h-170zM272 0l-263 700h183l174 -503l194 503h165l198 -502l173 502h181l-264 -700h-168l-205 509l-203 -509h-165z" />
    <glyph glyph-name="wdieresis" unicode="&#x1e85;" horiz-adv-x="1070" 
d="M581 614v144h169v-144h-169zM319 614v144h170v-144h-170zM238 0l-230 548h169l141 -365l151 365h136l159 -362l138 362h161l-228 -548h-134l-164 379l-164 -379h-135z" />
    <glyph glyph-name="uni1E9E" unicode="&#x1e9e;" horiz-adv-x="1045" 
d="M91 0v401q0 149 99 229.5t297 80.5q159 0 333 -20v-129l-156 -144l118 -11q123 -16 175.5 -64.5t52.5 -130.5q0 -105 -91.5 -164t-272.5 -59q-167 0 -290 47l43 129q100 -44 231 -44q209 0 209 87q0 35 -25 52.5t-88 24.5l-241 19v102l172 164q-73 5 -171 5
q-115 0 -168.5 -42t-53.5 -128v-405h-173z" />
    <glyph glyph-name="Ygrave" unicode="&#x1ef2;" horiz-adv-x="836" 
d="M485 760h-136l-201 161h211zM330 0v276l-331 424h212l210 -283l213 283h202l-333 -429v-271h-173z" />
    <glyph glyph-name="ygrave" unicode="&#x1ef3;" horiz-adv-x="711" 
d="M423 608h-136l-201 161h211zM534 548h171l-272 -556q-56 -114 -114.5 -158.5t-155.5 -44.5q-57 0 -99 13l-6 122q34 -7 73 -7q60 0 91.5 20.5t61.5 81.5l-278 529h180l181 -371z" />
    <glyph glyph-name="endash" unicode="&#x2013;" horiz-adv-x="664" 
d="M48 223v142h568v-142h-568z" />
    <glyph glyph-name="emdash" unicode="&#x2014;" horiz-adv-x="1329" 
d="M48 223v142h1233v-142h-1233z" />
    <glyph glyph-name="quoteleft" unicode="&#x2018;" horiz-adv-x="342" 
d="M250 375h-173v135q0 101 41 144.5t139 45.5l8 -90q-54 0 -71.5 -16.5t-17.5 -65.5h74v-153z" />
    <glyph glyph-name="quoteright" unicode="&#x2019;" horiz-adv-x="342" 
d="M92 700h173v-135q0 -100 -41.5 -143.5t-139.5 -46.5l-7 90q54 0 71.5 16.5t17.5 65.5h-74v153z" />
    <glyph glyph-name="quotesinglbase" unicode="&#x201a;" horiz-adv-x="342" 
d="M84 153h172v-134q0 -101 -41 -144.5t-139 -45.5l-7 89q53 0 71 17t18 65h-74v153z" />
    <glyph glyph-name="quotedblleft" unicode="&#x201c;" horiz-adv-x="604" 
d="M77 375v135q0 101 41 144.5t139 45.5l8 -90q-54 0 -71.5 -16.5t-17.5 -65.5h74v-153h-173zM339 375v135q0 101 41 144.5t139 45.5l8 -90q-54 0 -71.5 -16.5t-17.5 -65.5h73v-153h-172z" />
    <glyph glyph-name="quotedblright" unicode="&#x201d;" horiz-adv-x="604" 
d="M92 700h173v-135q0 -100 -41.5 -143.5t-139.5 -46.5l-7 90q54 0 71.5 16.5t17.5 65.5h-74v153zM354 700h173v-135q0 -101 -41 -144t-140 -46l-7 90q54 0 71.5 16.5t17.5 65.5h-74v153z" />
    <glyph glyph-name="quotedblbase" unicode="&#x201e;" horiz-adv-x="604" 
d="M84 153h172v-134q0 -101 -41 -144.5t-139 -45.5l-7 89q53 0 71 17t18 65h-74v153zM346 153h172v-134q0 -101 -41 -144.5t-139 -45.5l-7 89q53 0 70.5 16.5t17.5 65.5h-73v153z" />
    <glyph glyph-name="dagger" unicode="&#x2020;" horiz-adv-x="681" 
d="M633 399h-213v-549h-159v549h-213v144h213v207h159v-207h213v-144z" />
    <glyph glyph-name="daggerdbl" unicode="&#x2021;" horiz-adv-x="712" 
d="M63 202h213v197h-213v144h213v207h159v-207h214v-144h-214v-197h214v-145h-214v-207h-159v207h-213v145z" />
    <glyph glyph-name="bullet" unicode="&#x2022;" horiz-adv-x="375" 
d="M84 221v217h208v-217h-208z" />
    <glyph glyph-name="ellipsis" unicode="&#x2026;" horiz-adv-x="1017" 
d="M85 0v153h171v-153h-171zM423 0v153h171v-153h-171zM760 0v153h171v-153h-171z" />
    <glyph glyph-name="perthousand" unicode="&#x2030;" horiz-adv-x="1419" 
d="M265 362q-104 0 -163.5 48t-59.5 126t60 126t163 48t163 -48t60 -126t-60 -126t-163 -48zM269 0h-183l739 700h184zM265 465q44 0 68.5 19t24.5 52t-24.5 52t-68.5 19t-68 -19t-24 -52t24 -52t68 -19zM830 -10q-104 0 -164 48t-60 126t60.5 126t163.5 48q102 0 160 -52
q57 52 160 52t162.5 -48t59.5 -126t-59.5 -126t-162.5 -48t-160 51q-59 -51 -160 -51zM830 93q45 0 69 19t24 52t-24.5 52t-68.5 19q-45 0 -69 -19t-24 -52t24.5 -52t68.5 -19zM1150 93q44 0 68 19t24 52t-24 52t-68 19q-45 0 -69 -19t-24 -52t24.5 -52t68.5 -19z" />
    <glyph glyph-name="guilsinglleft" unicode="&#x2039;" horiz-adv-x="441" 
d="M382 186v-159l-336 163v169l336 164v-155l-227 -92z" />
    <glyph glyph-name="guilsinglright" unicode="&#x203a;" horiz-adv-x="441" 
d="M395 190l-336 -163v155l226 92l-226 89v160l336 -164v-169z" />
    <glyph glyph-name="fraction" unicode="&#x2044;" horiz-adv-x="840" 
d="M150 0h-150l690 700h150z" />
    <glyph glyph-name="zerosuperior" unicode="&#x2070;" horiz-adv-x="505" 
d="M252 453q-105 0 -163 48t-58 132t58 132t163 48q106 0 164 -48t58 -132t-58 -132t-164 -48zM252 540q102 0 102 93t-102 93t-102 -93t102 -93z" />
    <glyph glyph-name="foursuperior" unicode="&#x2074;" horiz-adv-x="485" 
d="M395 458h-106v58h-264v70l273 223h97v-215h65v-78h-65v-58zM146 594h143v119z" />
    <glyph glyph-name="fivesuperior" unicode="&#x2075;" horiz-adv-x="454" 
d="M226 453q-170 0 -199 92l107 21q14 -37 93 -37q88 0 88 46q0 44 -88 44q-59 0 -93 -23l-92 11l21 201h335v-77h-245l-6 -65q41 22 109 22q167 -2 169 -112q0 -60 -51 -91.5t-148 -31.5z" />
    <glyph glyph-name="sixsuperior" unicode="&#x2076;" horiz-adv-x="474" 
d="M31 627q0 89 58.5 137.5t160.5 48.5q148 0 192 -79l-106 -33q-25 35 -88 35q-96 0 -106 -85q47 31 128 31q90 0 133 -29t43 -80q0 -53 -52 -86.5t-149 -33.5q-214 0 -214 174zM243 530q90 0 90 42q0 43 -90 43q-91 0 -91 -42q0 -43 91 -43z" />
    <glyph glyph-name="sevensuperior" unicode="&#x2077;" horiz-adv-x="416" 
d="M391 742l-178 -284h-124l178 266h-243v84h367v-66z" />
    <glyph glyph-name="eightsuperior" unicode="&#x2078;" horiz-adv-x="489" 
d="M245 453q-107 0 -161.5 27.5t-54.5 77.5q0 56 81 82q-66 25 -66 74q0 47 52 73t149 26t149 -26t52 -73q0 -50 -67 -75q81 -25 81 -81q0 -105 -215 -105zM245 742q-85 0 -85 -34q0 -35 85 -35t85 35q0 34 -85 34zM245 524q96 0 96 39t-96 39q-97 0 -97 -39t97 -39z" />
    <glyph glyph-name="ninesuperior" unicode="&#x2079;" horiz-adv-x="474" 
d="M443 638q0 -89 -58.5 -137t-160.5 -48q-148 0 -192 78l105 33q28 -34 88 -34q96 0 106 85q-47 -31 -128 -31q-89 0 -132 29t-43 80q0 53 52 86.5t149 33.5q214 0 214 -175zM231 736q-90 0 -90 -43q0 -42 90 -42q91 0 91 41q0 44 -91 44z" />
    <glyph glyph-name="zeroinferior" unicode="&#x2080;" horiz-adv-x="505" 
d="M252 -113q-105 0 -163 48t-58 132t58 132t163 48q106 0 164 -48t58 -132t-58 -132t-164 -48zM252 -26q102 0 102 93t-102 93t-102 -93t102 -93z" />
    <glyph glyph-name="oneinferior" unicode="&#x2081;" horiz-adv-x="423" 
d="M34 -108v86h134v175l-124 -21v86l143 24h95v-264h116v-86h-364z" />
    <glyph glyph-name="twoinferior" unicode="&#x2082;" horiz-adv-x="466" 
d="M36 -25l219 92q35 17 46 29t11 28q0 41 -79 41q-84 0 -93 -55l-111 17q10 57 62 88.5t139 31.5q97 0 148 -31t51 -85q0 -42 -31 -72t-117 -62l-56 -21h204v-84h-393v83z" />
    <glyph glyph-name="threeinferior" unicode="&#x2083;" horiz-adv-x="468" 
d="M436 -6q0 -50 -52.5 -78.5t-154.5 -28.5q-188 0 -204 106l110 16q6 -44 95 -44t89 37q0 29 -48 29h-104v75h105q45 0 45 29q0 34 -85 34q-89 0 -96 -43l-106 17q8 49 60 76.5t141 27.5q97 0 148 -25.5t51 -72.5q0 -56 -65 -77q71 -19 71 -78z" />
    <glyph glyph-name="fourinferior" unicode="&#x2084;" horiz-adv-x="485" 
d="M395 -108h-106v58h-264v70l273 223h97v-215h65v-78h-65v-58zM146 28h143v119z" />
    <glyph glyph-name="fiveinferior" unicode="&#x2085;" horiz-adv-x="454" 
d="M226 -113q-170 0 -199 92l107 21q14 -37 93 -37q88 0 88 46q0 44 -88 44q-59 0 -93 -23l-92 11l21 201h335v-77h-245l-6 -65q41 22 109 22q167 -2 169 -112q0 -60 -51 -91.5t-148 -31.5z" />
    <glyph glyph-name="sixinferior" unicode="&#x2086;" horiz-adv-x="474" 
d="M31 61q0 89 58.5 137.5t160.5 48.5q148 0 192 -79l-106 -33q-25 35 -88 35q-96 0 -106 -85q47 31 128 31q90 0 133 -29t43 -80q0 -53 -52 -86.5t-149 -33.5q-214 0 -214 174zM243 -36q90 0 90 42q0 43 -90 43q-91 0 -91 -42q0 -43 91 -43z" />
    <glyph glyph-name="seveninferior" unicode="&#x2087;" horiz-adv-x="416" 
d="M391 176l-178 -284h-124l178 266h-243v84h367v-66z" />
    <glyph glyph-name="eightinferior" unicode="&#x2088;" horiz-adv-x="489" 
d="M245 -113q-107 0 -161.5 27.5t-54.5 77.5q0 56 81 82q-66 25 -66 74q0 47 52 73t149 26t149 -26t52 -73q0 -50 -67 -75q81 -25 81 -81q0 -105 -215 -105zM245 176q-85 0 -85 -34q0 -35 85 -35t85 35q0 34 -85 34zM245 -42q96 0 96 39t-96 39q-97 0 -97 -39t97 -39z" />
    <glyph glyph-name="nineinferior" unicode="&#x2089;" horiz-adv-x="474" 
d="M443 72q0 -89 -58.5 -137t-160.5 -48q-148 0 -192 78l105 33q28 -34 88 -34q96 0 106 85q-47 -31 -128 -31q-89 0 -132 29t-43 80q0 53 52 86.5t149 33.5q214 0 214 -175zM231 170q-90 0 -90 -43q0 -42 90 -42q91 0 91 41q0 44 -91 44z" />
    <glyph glyph-name="colonmonetary" unicode="&#x20a1;" horiz-adv-x="947" 
d="M263 -80l24 100q-115 40 -175.5 125t-60.5 205q0 158 108 254.5t296 105.5l17 70h79l-17 -70q32 -2 62 -6l18 76h79l-22 -91q189 -52 234 -221l-179 -35q-20 77 -90 113l-102 -419q167 15 194 145l176 -34q-28 -121 -131.5 -184t-271.5 -65l-17 -69h-79l17 72
q-26 2 -61 8l-20 -80h-78zM394 135q26 -6 61 -9l108 443q-19 4 -62 6zM227 350q0 -131 95 -187l99 407q-96 -14 -145 -70.5t-49 -149.5z" />
    <glyph glyph-name="uni20A9" unicode="&#x20a9;" horiz-adv-x="1292" 
d="M275 0l-112 298h-120v76h91l-30 82h-82v76h53l-63 168h184l58 -168h246l65 168h162l66 -168h248l58 168h181l-63 -168h53v-76h-82l-31 -82h92v-76h-121l-112 -298h-167l-206 510l-203 -510h-165zM856 374h131l28 82h-192zM308 374h131l32 82h-191zM886 298l40 -102
l35 102h-75zM334 298l36 -104l40 104h-76z" />
    <glyph glyph-name="uni20AA" unicode="&#x20aa;" horiz-adv-x="1123" 
d="M631 386q0 52 -24.5 76t-78.5 24h-266v-486h-166v628h414q107 0 154.5 -44.5t47.5 -144.5v-208h-81v155zM1034 264q0 -146 -65.5 -205t-225.5 -59h-325v387h81v-245h233q73 0 104.5 28.5t31.5 93.5v354h166v-354z" />
    <glyph glyph-name="dong" unicode="&#x20ab;" horiz-adv-x="866" 
d="M356 -11q-143 0 -225.5 75t-82.5 202t83 202t225 75q162 0 251 -102v164h-187v75h187v70h164v-70h85v-75h-85v-605h-147l-10 99q-88 -110 -258 -110zM407 116q95 0 147.5 40t52.5 110t-53 110t-147 40t-143 -39.5t-49 -110.5t49 -110.5t143 -39.5zM82 -151v76h683v-76
h-683z" />
    <glyph glyph-name="Euro" unicode="&#x20ac;" horiz-adv-x="1024" 
d="M26 234v76h104q-2 26 -2 40q0 15 2 41h-104v76h120q38 115 148 179.5t274 64.5q171 0 276.5 -62t136.5 -181l-178 -35q-37 142 -235 142q-178 0 -237 -108h288l-8 -76h-304q-3 -19 -3 -41q0 -14 2 -40h297l-8 -76h-265q57 -109 238 -109q207 0 236 147l177 -34
q-28 -122 -134 -185.5t-279 -63.5q-169 0 -278 64.5t-145 180.5h-119z" />
    <glyph glyph-name="uni20AD" unicode="&#x20ad;" horiz-adv-x="930" 
d="M117 0v339h-108v82h108v279h169v-310l388 310h231l-355 -279h238v-82h-241l386 -339h-246l-320 277l-81 -63v-214h-169z" />
    <glyph glyph-name="uni20AE" unicode="&#x20ae;" horiz-adv-x="827" 
d="M134 152v76l196 25v81l-196 -25v77l196 25v153h-303v136h781v-136h-306v-131l192 24v-76l-192 -25v-81l192 25v-76l-192 -25v-199h-172v177z" />
    <glyph glyph-name="uni20B1" unicode="&#x20b1;" horiz-adv-x="959" 
d="M115 0v292h-109v76h109v70h-109v76h109v186h426q112 0 189 -49t106 -137h123v-76h-107q1 -11 1 -34q0 -12 -2 -36h108v-76h-124q-31 -86 -109 -133.5t-192 -47.5h-246v-111h-173zM507 571h-219v-57h359q-41 57 -140 57zM677 404q0 12 -2 34h-387v-70h387q2 22 2 36z
M507 240q93 0 137 52h-356v-52h219z" />
    <glyph glyph-name="uni20B4" unicode="&#x20b4;" horiz-adv-x="967" 
d="M22 240v76h125q58 58 225 73l121 8h-471v76h672q2 12 2 18q0 94 -195 94q-94 0 -143.5 -18.5t-66.5 -58.5l-169 25q52 178 379 178q180 0 272.5 -57.5t92.5 -164.5q0 -11 -1 -16h80v-76h-128q-55 -63 -224 -79l-32 -2h384v-76h-677q-3 -12 -3 -26q0 -99 218 -99
q192 0 226 91l170 -25q-27 -99 -123 -145.5t-273 -46.5q-388 0 -388 225q0 10 2 26h-75z" />
    <glyph glyph-name="uni20B5" unicode="&#x20b5;" horiz-adv-x="947" 
d="M51 350q0 156 104.5 252t287.5 107v71h86v-70q155 -7 250.5 -68.5t125.5 -173.5l-179 -35q-34 128 -197 141v-448q172 13 199 146l176 -34q-27 -116 -123 -178.5t-252 -69.5v-70h-86v70q-187 12 -289.5 107.5t-102.5 252.5zM227 350q0 -99 54.5 -156t161.5 -67v446
q-107 -10 -161.5 -67t-54.5 -156z" />
    <glyph glyph-name="uni20B8" unicode="&#x20b8;" horiz-adv-x="846" 
d="M32 624v76h782v-76h-782zM336 0v402h-304v137h782v-137h-306v-402h-172z" />
    <glyph glyph-name="uni20B9" unicode="&#x20b9;" horiz-adv-x="823" 
d="M79 240v125h293q102 0 123 67h-416v76h415q-21 67 -122 67h-293v125h715v-76h-185q51 -45 62 -116h123v-76h-125q-14 -87 -87.5 -136t-195.5 -49l-61 -3l363 -244h-256z" />
    <glyph glyph-name="uni20BA" unicode="&#x20ba;" horiz-adv-x="867" 
d="M116 0v266l-116 -20v76l116 20v87l-116 -20v76l116 20v195h173v-166l201 34v-76l-201 -34v-87l201 34v-76l-201 -34v-159h234q78 0 114.5 33.5t50.5 124.5l160 -31q-21 -143 -98 -203t-227 -60h-407z" />
    <glyph glyph-name="uni20BC" unicode="&#x20bc;" horiz-adv-x="982" 
d="M570 100h-160v317q-158 -25 -158 -160v-257h-172v253q0 130 84.5 208t245.5 94v145h160v-145q162 -15 247 -93t85 -209v-253h-172v257q0 136 -160 161v-318z" />
    <glyph glyph-name="uni20BD" unicode="&#x20bd;" horiz-adv-x="924" 
d="M26 79v76h116v74h-116v134h116v337h467q126 0 200 -64t74 -173q0 -107 -75.5 -170.5t-204.5 -63.5h-288v-74h288v-76h-288v-79h-173v79h-116zM579 566h-264v-203h264q127 0 127 99q0 50 -32.5 77t-94.5 27z" />
    <glyph glyph-name="uni2113" unicode="&#x2113;" horiz-adv-x="752" 
d="M14 250l104 32v183q0 114 80 180t216 66q138 0 211 -54.5t73 -149.5q0 -74 -34 -123t-123.5 -93.5t-258.5 -92.5q3 -48 35 -67t111 -19q87 0 190 30l-3 -126q-120 -27 -219 -27q-127 0 -194 41t-80 128l-108 -33v125zM282 476v-152q149 45 202 86t53 97q0 84 -121 84
q-134 0 -134 -115z" />
    <glyph glyph-name="uni2116" unicode="&#x2116;" horiz-adv-x="1419" 
d="M1198 435q-84 0 -132.5 38t-48.5 100q0 63 48 100t133 37q84 0 132 -38t48 -100q0 -63 -47.5 -100t-132.5 -37zM99 0v700h169l478 -512v512h158v-700h-169l-477 510v-510h-159zM1198 629q-34 0 -53 -15t-19 -41q0 -27 19 -42t53 -15q71 0 71 56q0 27 -18.5 42t-52.5 15z
M1030 298v82h334v-82h-334z" />
    <glyph glyph-name="trademark" unicode="&#x2122;" horiz-adv-x="916" 
d="M139 350v269h-121v81h340v-81h-122v-269h-97zM418 350v350h105l112 -186l112 186h102v-350h-90v225l-92 -157h-68l-91 157v-225h-90z" />
    <glyph glyph-name="estimated" unicode="&#x212e;" horiz-adv-x="787" 
d="M744 297h-568q-5 0 -5 -4v-172q0 -11 8 -19q88 -94 215 -94q136 0 226 105h51q-48 -57 -121 -90t-157 -33q-145 0 -248 92t-103 223t103 224t248 93t248 -93t103 -224v-8zM616 319v174q0 11 -9 20q-90 90 -213 90q-126 0 -214 -93q-9 -8 -9 -21v-170q0 -5 5 -5h436
q4 0 4 5z" />
    <glyph glyph-name="oneseventh" unicode="&#x2150;" horiz-adv-x="1215" 
d="M34 350v86h134v175l-124 -21v86l143 24h95v-264h116v-86h-364zM339 0h-150l690 700h150zM1191 284l-178 -284h-124l178 266h-243v84h367v-66z" />
    <glyph glyph-name="oneninth" unicode="&#x2151;" horiz-adv-x="1209" 
d="M34 350v86h134v175l-124 -21v86l143 24h95v-264h116v-86h-364zM339 0h-150l690 700h150zM1178 180q0 -89 -58.5 -137t-160.5 -48q-149 0 -192 78l105 33q28 -34 88 -34q96 0 106 85q-47 -31 -128 -31q-89 0 -132 29t-43 80q0 53 52 86.5t149 33.5q214 0 214 -175z
M966 278q-90 0 -90 -43q0 -42 90 -42q91 0 91 41q0 44 -91 44z" />
    <glyph glyph-name="onethird" unicode="&#x2153;" horiz-adv-x="1202" 
d="M34 350v86h134v175l-124 -21v86l143 24h95v-264h116v-86h-364zM339 0h-150l690 700h150zM1169 102q0 -50 -52.5 -78.5t-154.5 -28.5q-188 0 -204 106l110 16q6 -44 95 -44t89 37q0 29 -48 29h-104v75h105q45 0 45 29q0 34 -85 34q-89 0 -96 -43l-106 17q8 49 60 76.5
t141 27.5q97 0 148 -25.5t51 -72.5q0 -56 -65 -77q71 -19 71 -78z" />
    <glyph glyph-name="twothirds" unicode="&#x2154;" horiz-adv-x="1236" 
d="M36 433l219 92q35 17 46 29t11 28q0 41 -79 41q-84 0 -93 -55l-111 17q10 57 62 88.5t139 31.5q97 0 148 -31t51 -85q0 -42 -31 -72t-117 -62l-56 -21h204v-84h-393v83zM372 0h-150l690 700h150zM1203 102q0 -50 -52.5 -78.5t-154.5 -28.5q-188 0 -204 106l110 16
q6 -44 95 -44t89 37q0 29 -48 29h-104v75h105q45 0 45 29q0 34 -85 34q-89 0 -96 -43l-106 17q8 49 60 76.5t141 27.5q97 0 148 -25.5t51 -72.5q0 -56 -65 -77q71 -19 71 -78z" />
    <glyph glyph-name="onefifth" unicode="&#x2155;" horiz-adv-x="1213" 
d="M34 350v86h134v175l-124 -21v86l143 24h95v-264h116v-86h-364zM339 0h-150l690 700h150zM985 -5q-170 0 -199 92l107 21q14 -37 93 -37q88 0 88 46q0 44 -88 44q-59 0 -93 -23l-92 11l21 201h335v-77h-245l-6 -65q41 22 109 22q167 -2 169 -112q0 -60 -51 -91.5
t-148 -31.5z" />
    <glyph glyph-name="twofifths" unicode="&#x2156;" horiz-adv-x="1247" 
d="M36 433l219 92q35 17 46 29t11 28q0 41 -79 41q-84 0 -93 -55l-111 17q10 57 62 88.5t139 31.5q97 0 148 -31t51 -85q0 -42 -31 -72t-117 -62l-56 -21h204v-84h-393v83zM372 0h-150l690 700h150zM1019 -5q-170 0 -199 92l107 21q14 -37 93 -37q88 0 88 46q0 44 -88 44
q-59 0 -93 -23l-92 11l21 201h335v-77h-245l-6 -65q41 22 109 22q167 -2 169 -112q0 -60 -51 -91.5t-148 -31.5z" />
    <glyph glyph-name="threefifths" unicode="&#x2157;" horiz-adv-x="1205" 
d="M436 452q0 -50 -52.5 -78.5t-154.5 -28.5q-188 0 -204 106l110 16q6 -44 95 -44t89 37q0 29 -48 29h-104v75h105q45 0 45 29q0 34 -85 34q-89 0 -96 -43l-106 17q8 49 60 76.5t141 27.5q97 0 148 -25.5t51 -72.5q0 -56 -65 -77q71 -19 71 -78zM331 0h-150l690 700h150z
M977 -5q-170 0 -199 92l107 21q14 -37 93 -37q88 0 88 46q0 44 -88 44q-59 0 -93 -23l-92 11l21 201h335v-77h-245l-6 -65q41 22 109 22q167 -2 169 -112q0 -60 -51 -91.5t-148 -31.5z" />
    <glyph glyph-name="fourfifths" unicode="&#x2158;" horiz-adv-x="1227" 
d="M395 350h-106v58h-264v70l273 223h97v-215h65v-78h-65v-58zM353 0h-150l690 700h150zM146 486h143v119zM999 -5q-170 0 -199 92l107 21q14 -37 93 -37q88 0 88 46q0 44 -88 44q-59 0 -93 -23l-92 11l21 201h335v-77h-245l-6 -65q41 22 109 22q167 -2 169 -112
q0 -60 -51 -91.5t-148 -31.5z" />
    <glyph glyph-name="onesixth" unicode="&#x2159;" horiz-adv-x="1195" 
d="M34 350v86h134v175l-124 -21v86l143 24h95v-264h116v-86h-364zM339 0h-150l690 700h150zM752 169q0 89 58.5 137.5t160.5 48.5q148 0 192 -79l-106 -33q-25 35 -88 35q-96 0 -106 -85q47 31 128 31q90 0 133 -29t43 -80q0 -53 -52 -86.5t-149 -33.5q-214 0 -214 174z
M964 72q90 0 90 42q0 43 -90 43q-91 0 -91 -42q0 -43 91 -43z" />
    <glyph glyph-name="fivesixths" unicode="&#x215a;" horiz-adv-x="1169" 
d="M226 345q-170 0 -199 92l107 21q14 -37 93 -37q88 0 88 46q0 44 -88 44q-59 0 -93 -23l-92 11l21 201h335v-77h-245l-6 -65q41 22 109 22q167 -2 169 -112q0 -60 -51 -91.5t-148 -31.5zM313 0h-150l690 700h150zM727 169q0 89 58.5 137.5t160.5 48.5q148 0 192 -79
l-106 -33q-25 35 -88 35q-96 0 -106 -85q47 31 128 31q90 0 133 -29t43 -80q0 -53 -52 -86.5t-149 -33.5q-214 0 -214 174zM939 72q90 0 90 42q0 43 -90 43q-91 0 -91 -42q0 -43 91 -43z" />
    <glyph glyph-name="oneeighth" unicode="&#x215b;" horiz-adv-x="1224" 
d="M34 350v86h134v175l-124 -21v86l143 24h95v-264h116v-86h-364zM339 0h-150l690 700h150zM980 -5q-107 0 -161.5 27.5t-54.5 77.5q0 56 81 82q-66 25 -66 74q0 47 52 73t149 26t149 -26t52 -73q0 -50 -67 -75q81 -25 81 -81q0 -105 -215 -105zM980 284q-85 0 -85 -34
q0 -35 85 -35t85 35q0 34 -85 34zM980 66q96 0 96 39t-96 39q-97 0 -97 -39t97 -39z" />
    <glyph glyph-name="threeeighths" unicode="&#x215c;" horiz-adv-x="1216" 
d="M436 452q0 -50 -52.5 -78.5t-154.5 -28.5q-188 0 -204 106l110 16q6 -44 95 -44t89 37q0 29 -48 29h-104v75h105q45 0 45 29q0 34 -85 34q-89 0 -96 -43l-106 17q8 49 60 76.5t141 27.5q97 0 148 -25.5t51 -72.5q0 -56 -65 -77q71 -19 71 -78zM331 0h-150l690 700h150z
M972 -5q-107 0 -161.5 27.5t-54.5 77.5q0 56 81 82q-66 25 -66 74q0 47 52 73t149 26t149 -26t52 -73q0 -50 -67 -75q81 -25 81 -81q0 -105 -215 -105zM972 284q-85 0 -85 -34q0 -35 85 -35t85 35q0 34 -85 34zM972 66q96 0 96 39t-96 39q-97 0 -97 -39t97 -39z" />
    <glyph glyph-name="fiveeighths" unicode="&#x215d;" horiz-adv-x="1199" 
d="M226 345q-170 0 -199 92l107 21q14 -37 93 -37q88 0 88 46q0 44 -88 44q-59 0 -93 -23l-92 11l21 201h335v-77h-245l-6 -65q41 22 109 22q167 -2 169 -112q0 -60 -51 -91.5t-148 -31.5zM313 0h-150l690 700h150zM954 -5q-107 0 -161.5 27.5t-54.5 77.5q0 56 81 82
q-66 25 -66 74q0 47 52 73t149 26t149 -26t52 -73q0 -50 -67 -75q81 -25 81 -81q0 -105 -215 -105zM954 284q-85 0 -85 -34q0 -35 85 -35t85 35q0 34 -85 34zM954 66q96 0 96 39t-96 39q-97 0 -97 -39t97 -39z" />
    <glyph glyph-name="seveneighths" unicode="&#x215e;" horiz-adv-x="1124" 
d="M391 634l-178 -284h-124l178 266h-243v84h367v-66zM238 0h-150l690 700h150zM879 -5q-107 0 -161.5 27.5t-54.5 77.5q0 56 81 82q-66 25 -66 74q0 47 52 73t149 26t149 -26t52 -73q0 -50 -67 -75q81 -25 81 -81q0 -105 -215 -105zM879 284q-85 0 -85 -34q0 -35 85 -35
t85 35q0 34 -85 34zM879 66q96 0 96 39t-96 39q-97 0 -97 -39t97 -39z" />
    <glyph glyph-name="arrowleft" unicode="&#x2190;" horiz-adv-x="773" 
d="M377 464l-120 -117h460v-132h-460l121 -117l-83 -88l-271 272l270 270z" />
    <glyph glyph-name="arrowup" unicode="&#x2191;" horiz-adv-x="771" 
d="M568 352l-116 121v-461h-133v460l-117 -121l-87 84l271 271l270 -271z" />
    <glyph glyph-name="arrowright" unicode="&#x2192;" horiz-adv-x="771" 
d="M393 464l84 88l270 -270l-271 -272l-84 88l122 117h-461v132h461z" />
    <glyph glyph-name="arrowdown" unicode="&#x2193;" horiz-adv-x="771" 
d="M202 362l117 -120v459h133v-459l116 120l88 -84l-270 -270l-272 271z" />
    <glyph glyph-name="uni2194" unicode="&#x2194;" horiz-adv-x="943" 
d="M377 464l-120 -117h429l-121 117l84 88l270 -270l-271 -272l-83 88l121 117h-429l121 -117l-83 -88l-271 272l270 270z" />
    <glyph glyph-name="uni2195" unicode="&#x2195;" horiz-adv-x="766" 
d="M199 277l117 -121v393l-117 -121l-87 84l271 271l270 -270l-88 -84l-116 121v-395l116 121l88 -84l-270 -270l-271 271z" />
    <glyph glyph-name="uni2196" unicode="&#x2196;" horiz-adv-x="771" 
d="M519 442h-173l328 -328l-94 -94l-327 328v-173h-116v383h382v-116z" />
    <glyph glyph-name="uni2197" unicode="&#x2197;" horiz-adv-x="771" 
d="M252 442v116h382v-383h-116v173l-328 -328l-93 94l327 328h-172z" />
    <glyph glyph-name="uni2198" unicode="&#x2198;" horiz-adv-x="771" 
d="M252 137h172l-327 327l93 94l328 -328v173h116v-382h-382v116z" />
    <glyph glyph-name="uni2199" unicode="&#x2199;" horiz-adv-x="771" 
d="M519 137v-116h-382v382h116v-173l327 328l94 -94l-328 -327h173z" />
    <glyph glyph-name="partialdiff" unicode="&#x2202;" horiz-adv-x="850" 
d="M407 -11q-173 0 -267 61t-94 173q0 104 84.5 162t239.5 58q178 0 259 -84q-10 221 -222 221q-144 0 -172 -65l-168 35q58 161 339 161q188 0 290.5 -96t102.5 -272q0 -171 -100 -262.5t-292 -91.5zM409 120q92 0 141 27t49 76q0 46 -49 72.5t-140 26.5q-190 0 -190 -101
t189 -101z" />
    <glyph glyph-name="product" unicode="&#x220f;" horiz-adv-x="1011" 
d="M104 -122v822h803v-822h-172v686h-459v-686h-172z" />
    <glyph glyph-name="summation" unicode="&#x2211;" horiz-adv-x="790" 
d="M54 -150v128l272 299l-271 295v128h686v-136h-466l257 -282l-254 -296h476v-136h-700z" />
    <glyph glyph-name="minus" unicode="&#x2212;" horiz-adv-x="619" 
d="M563 295h-507v119h507v-119z" />
    <glyph glyph-name="uni2215" unicode="&#x2215;" horiz-adv-x="840" 
d="M150 0h-150l690 700h150z" />
    <glyph glyph-name="radical" unicode="&#x221a;" horiz-adv-x="846" 
d="M344 0l-202 357l-105 -48l-43 94l242 108l181 -345l259 534h167l-354 -700h-145z" />
    <glyph glyph-name="infinity" unicode="&#x221e;" horiz-adv-x="950" 
d="M686 113q-127 0 -215 109q-87 -109 -206 -109q-101 0 -158 55.5t-57 151.5q0 93 59.5 151.5t155.5 58.5q62 0 110.5 -23.5t97.5 -83.5q89 107 211 107q101 0 158 -55t57 -151q0 -94 -58.5 -152.5t-154.5 -58.5zM187 321q0 -42 24.5 -64.5t63.5 -22.5q38 0 67 22.5
t60 66.5q-33 50 -61.5 68.5t-65.5 18.5q-39 0 -63.5 -23.5t-24.5 -65.5zM675 410q-40 0 -70.5 -23t-61.5 -66q30 -49 61.5 -68t70.5 -19t63.5 24t24.5 66q0 41 -24.5 63.5t-63.5 22.5z" />
    <glyph glyph-name="integral" unicode="&#x222b;" horiz-adv-x="535" 
d="M168 523q0 230 238 230q56 0 119 -13l-5 -119q-42 9 -93 9q-50 0 -72.5 -22.5t-22.5 -76.5v-508q0 -234 -241 -234q-45 0 -101 12l-5 120q47 -10 82 -10q53 0 77 23.5t24 79.5v509z" />
    <glyph glyph-name="approxequal" unicode="&#x2248;" horiz-adv-x="619" 
d="M187 443q-56 0 -131 -41v121q78 39 142 39q54 0 126.5 -32t106.5 -32q56 0 132 41v-121q-81 -39 -142 -39q-52 0 -124 32t-110 32zM187 212q-56 0 -131 -41v121q78 39 142 39q54 0 126.5 -32t106.5 -32q56 0 132 41v-121q-81 -39 -142 -39q-52 0 -124 32t-110 32z" />
    <glyph glyph-name="notequal" unicode="&#x2260;" horiz-adv-x="619" 
d="M244 102h-130l42 80h-100v118h161l57 109h-218v118h280l42 81h131l-42 -81h96v-118h-158l-57 -109h215v-118h-277z" />
    <glyph glyph-name="lessequal" unicode="&#x2264;" horiz-adv-x="618" 
d="M55 348v119l507 207v-139l-333 -123l333 -123v-148zM562 0h-507v119h507v-119z" />
    <glyph glyph-name="greaterequal" unicode="&#x2265;" horiz-adv-x="618" 
d="M564 467v-119l-507 -207v140l334 124l-334 123v146zM564 0h-507v119h507v-119z" />
    <glyph glyph-name="wave" unicode="&#x2307;" horiz-adv-x="1021" 
d="M1021 0q-70 0 -125.5 32t-91.5 83.5t-65 113.5t-52.5 124.5t-47.5 114t-56.5 83.5t-72.5 32t-72.5 -32t-56.5 -83.5t-47 -113.5t-52 -124.5t-65 -114t-91.5 -83.5t-125.5 -32v123q41 0 74.5 32.5t57.5 84.5t47 114.5t52 125t64 114.5t90.5 84.5t124.5 32.5
q70 0 125 -32.5t90.5 -84.5t64.5 -114.5t52 -125t47 -114.5t57.5 -84.5t74.5 -32.5q5 0 5 -61q0 -62 -5 -62z" />
    <glyph glyph-name="lozenge" unicode="&#x25ca;" horiz-adv-x="837" 
d="M510 0h-183l-296 350l296 350h183l296 -350zM226 353l197 -231l188 231l-197 221z" />
    <glyph glyph-name="commaaccent" unicode="&#xf6c3;" horiz-adv-x="500" 
d="M78 -204l77 145h191l-141 -145h-127z" />
    <glyph glyph-name="kgreenlandic.case" horiz-adv-x="1113" 
d="M104 0v700h169v-309l388 309h231l-406 -319l434 -381h-246l-320 277l-81 -63v-214h-169zM1125 700l-93 -156h-198l164 156h127z" />
    <glyph glyph-name="napostrophe.case" horiz-adv-x="1234" 
d="M335 0v700h169l468 -509v509h159v-700h-169l-469 508v-508h-158zM1 555l77 145h191l-141 -145h-127z" />
    <glyph glyph-name="i.dot" horiz-adv-x="340" 
d="M87 614v137h166v-137h-166zM89 0v548h163v-548h-163z" />
    <glyph glyph-name="caron.alt" horiz-adv-x="500" 
d="M283 530v220h163l-55 -220h-108z" />
    <glyph glyph-name="revcommaaccent" horiz-adv-x="500" 
d="M439 764l-93 -156h-198l164 156h127z" />
    <glyph glyph-name="zero.tlf" horiz-adv-x="885" 
d="M443 -11q-191 0 -297 94t-106 267t105.5 267t297.5 94q191 0 296.5 -94t105.5 -267t-105.5 -267t-296.5 -94zM443 125q225 0 225 225t-225 225q-226 0 -226 -225t226 -225z" />
    <glyph glyph-name="one.tlf" horiz-adv-x="885" 
d="M95 0v136h290v419l-268 -48v140l291 53h150v-564h266v-136h-729z" />
    <glyph glyph-name="two.tlf" horiz-adv-x="885" 
d="M96 135l346 188q102 54 137 88.5t35 75.5q0 90 -169 90q-97 0 -144 -30.5t-53 -94.5l-170 28q18 113 111 172t257 59q165 0 256 -58t91 -159q0 -79 -54.5 -138t-209.5 -136l-152 -84h426v-136h-707v135z" />
    <glyph glyph-name="three.tlf" horiz-adv-x="885" 
d="M815 198q0 -101 -95.5 -155t-276.5 -54q-173 0 -266 51t-115 161l173 33q8 -59 58.5 -88t150.5 -29q187 0 187 91q0 81 -130 81h-185v128h185q125 0 125 81q0 85 -184 85q-185 0 -205 -112l-163 33q22 101 116 154t255 53q172 0 265 -49t93 -140q0 -118 -135 -160
q147 -37 147 -164z" />
    <glyph glyph-name="four.tlf" horiz-adv-x="885" 
d="M720 0h-166v126h-514v125l509 449h171v-444h132v-130h-132v-126zM233 256h321v280z" />
    <glyph glyph-name="five.tlf" horiz-adv-x="885" 
d="M440 -11q-158 0 -247 42.5t-119 136.5l171 37q25 -83 195 -83q190 0 190 109q0 111 -190 111q-147 0 -191 -55l-151 17l43 396h613v-128h-470l-19 -166q85 54 224 54q149 0 232 -58.5t83 -169.5q1 -117 -92.5 -180t-271.5 -63z" />
    <glyph glyph-name="six.tlf" horiz-adv-x="885" 
d="M62 345q0 174 105.5 270t299.5 96q146 0 237 -45t118 -133l-170 -34q-26 81 -186 81q-225 0 -232 -227q84 89 274 89q153 0 236.5 -56.5t83.5 -163.5q0 -111 -96.5 -172t-274.5 -61q-193 0 -294 92t-101 264zM458 120q96 0 146 26t50 73q0 102 -196 102
q-95 0 -145.5 -25.5t-50.5 -71.5q0 -50 50.5 -77t145.5 -27z" />
    <glyph glyph-name="seven.tlf" horiz-adv-x="885" 
d="M786 566l-367 -566h-201l378 564h-491v136h681v-134z" />
    <glyph glyph-name="eight.tlf" horiz-adv-x="885" 
d="M442 -11q-188 0 -288.5 54.5t-100.5 152.5q0 115 167 164q-138 50 -138 158q0 90 96 141.5t264 51.5q169 0 265 -52t96 -142q0 -106 -137 -158q80 -23 123 -64.5t43 -98.5q0 -98 -100.5 -152.5t-289.5 -54.5zM628 503q0 84 -186 84t-186 -83t186 -83t186 82zM442 113
q210 0 210 88q0 91 -210 91q-209 0 -209 -91q0 -88 209 -88z" />
    <glyph glyph-name="nine.tlf" horiz-adv-x="885" 
d="M823 355q0 -174 -106 -270t-299 -96q-299 0 -356 178l170 34q27 -81 187 -81q225 0 231 228q-85 -90 -273 -90q-153 0 -237 56.5t-84 163.5q0 111 97 172t275 61q193 0 294 -92t101 -264zM426 580q-96 0 -145.5 -26t-49.5 -73q0 -102 195 -102q95 0 146 25.5t51 71.5
q0 50 -51 77t-146 27z" />
    <glyph glyph-name="zero.posf" horiz-adv-x="907" 
d="M453 -11q-192 0 -298.5 82t-106.5 229t106.5 229t298.5 82t299 -82.5t107 -228.5t-107 -228.5t-299 -82.5zM453 125q113 0 171 44.5t58 130.5q0 85 -58 130t-171 45q-112 0 -170 -45t-58 -130q0 -86 58 -130.5t170 -44.5z" />
    <glyph glyph-name="one.posf" horiz-adv-x="771" 
d="M47 0v136h285v319l-263 -48v140l285 53h151v-464h243v-136h-701z" />
    <glyph glyph-name="two.posf" horiz-adv-x="801" 
d="M54 135l365 138q92 38 121 64t29 62q0 81 -171 81q-94 0 -140 -31.5t-53 -96.5l-169 28q37 231 364 231q169 0 258.5 -55t89.5 -152q0 -79 -58.5 -132.5t-220.5 -101.5l-124 -39h413v-131h-704v135z" />
    <glyph glyph-name="three.posf" horiz-adv-x="836" 
d="M788 85q0 -104 -95.5 -159.5t-276.5 -55.5q-173 0 -266 52t-115 163l173 33q16 -120 209 -120q187 0 187 97q0 84 -130 84h-185v128h185q125 0 125 88t-184 88q-185 0 -205 -112l-163 33q22 101 116 154t255 53q172 0 265 -49.5t93 -142.5q0 -123 -136 -167
q148 -37 148 -167z" />
    <glyph glyph-name="four.posf" horiz-adv-x="855" 
d="M703 -120h-166v120h-514v125l509 475h171v-470h132v-130h-132v-120zM214 130h323v301z" />
    <glyph glyph-name="five.posf" horiz-adv-x="825" 
d="M414 -130q-158 0 -247 42.5t-119 136.5l171 36q24 -82 195 -82q190 0 190 117q0 112 -190 112q-147 0 -191 -55l-151 17l43 406h613v-128h-470l-19 -177q89 56 228 56q147 0 229 -59.5t82 -170.5q1 -120 -92.5 -185.5t-271.5 -65.5z" />
    <glyph glyph-name="six.posf" horiz-adv-x="863" 
d="M51 345q0 174 105.5 270t299.5 96q146 0 237 -45t118 -133l-170 -34q-25 81 -186 81q-225 0 -232 -227q84 89 274 89q153 0 236.5 -56.5t83.5 -163.5q0 -111 -96.5 -172t-274.5 -61q-193 0 -294 92t-101 264zM447 120q96 0 146 26t50 73q0 102 -196 102
q-95 0 -145.5 -25.5t-50.5 -71.5q0 -50 50.5 -77t145.5 -27z" />
    <glyph glyph-name="seven.posf" horiz-adv-x="724" 
d="M702 466l-380 -586h-202l392 584h-491v136h681v-134z" />
    <glyph glyph-name="eight.posf" horiz-adv-x="866" 
d="M433 -11q-188 0 -288.5 54.5t-100.5 152.5q0 115 167 164q-138 50 -138 158q0 90 96 141.5t264 51.5q169 0 265 -52t96 -142q0 -106 -137 -158q80 -23 123 -64.5t43 -98.5q0 -98 -100.5 -152.5t-289.5 -54.5zM619 503q0 84 -186 84t-186 -83t186 -83t186 82zM433 113
q210 0 210 88q0 91 -210 91q-209 0 -209 -91q0 -88 209 -88z" />
    <glyph glyph-name="nine.posf" horiz-adv-x="863" 
d="M812 245q0 -178 -106 -277t-299 -99q-145 0 -236 45t-119 133l170 34q26 -81 186 -81q226 0 232 238q-85 -90 -274 -90q-153 0 -236.5 57.5t-83.5 164.5q0 115 97 178t274 63q193 0 294 -94.5t101 -271.5zM416 480q-96 0 -146 -28t-50 -79q0 -104 196 -104q95 0 145.5 26
t50.5 73q0 54 -50.5 83t-145.5 29z" />
    <glyph glyph-name="zero.numerator" horiz-adv-x="505" 
d="M252 345q-105 0 -163 48t-58 132t58 132t163 48q106 0 164 -48t58 -132t-58 -132t-164 -48zM252 432q102 0 102 93t-102 93t-102 -93t102 -93z" />
    <glyph glyph-name="one.numerator" horiz-adv-x="423" 
d="M34 350v86h134v175l-124 -21v86l143 24h95v-264h116v-86h-364z" />
    <glyph glyph-name="two.numerator" horiz-adv-x="466" 
d="M36 433l219 92q35 17 46 29t11 28q0 41 -79 41q-84 0 -93 -55l-111 17q10 57 62 88.5t139 31.5q97 0 148 -31t51 -85q0 -42 -31 -72t-117 -62l-56 -21h204v-84h-393v83z" />
    <glyph glyph-name="three.numerator" horiz-adv-x="468" 
d="M436 452q0 -50 -52.5 -78.5t-154.5 -28.5q-188 0 -204 106l110 16q6 -44 95 -44t89 37q0 29 -48 29h-104v75h105q45 0 45 29q0 34 -85 34q-89 0 -96 -43l-106 17q8 49 60 76.5t141 27.5q97 0 148 -25.5t51 -72.5q0 -56 -65 -77q71 -19 71 -78z" />
    <glyph glyph-name="four.numerator" horiz-adv-x="485" 
d="M395 350h-106v58h-264v70l273 223h97v-215h65v-78h-65v-58zM146 486h143v119z" />
    <glyph glyph-name="five.numerator" horiz-adv-x="454" 
d="M226 345q-170 0 -199 92l107 21q14 -37 93 -37q88 0 88 46q0 44 -88 44q-59 0 -93 -23l-92 11l21 201h335v-77h-245l-6 -65q41 22 109 22q167 -2 169 -112q0 -60 -51 -91.5t-148 -31.5z" />
    <glyph glyph-name="six.numerator" horiz-adv-x="474" 
d="M31 519q0 89 58.5 137.5t160.5 48.5q148 0 192 -79l-106 -33q-25 35 -88 35q-96 0 -106 -85q47 31 128 31q90 0 133 -29t43 -80q0 -53 -52 -86.5t-149 -33.5q-214 0 -214 174zM243 422q90 0 90 42q0 43 -90 43q-91 0 -91 -42q0 -43 91 -43z" />
    <glyph glyph-name="seven.numerator" horiz-adv-x="416" 
d="M391 634l-178 -284h-124l178 266h-243v84h367v-66z" />
    <glyph glyph-name="eight.numerator" horiz-adv-x="489" 
d="M245 345q-107 0 -161.5 27.5t-54.5 77.5q0 56 81 82q-66 25 -66 74q0 47 52 73t149 26t149 -26t52 -73q0 -50 -67 -75q81 -25 81 -81q0 -105 -215 -105zM245 634q-85 0 -85 -34q0 -35 85 -35t85 35q0 34 -85 34zM245 416q96 0 96 39t-96 39q-97 0 -97 -39t97 -39z" />
    <glyph glyph-name="nine.numerator" horiz-adv-x="474" 
d="M443 530q0 -89 -58.5 -137t-160.5 -48q-148 0 -192 78l105 33q28 -34 88 -34q96 0 106 85q-47 -31 -128 -31q-89 0 -132 29t-43 80q0 53 52 86.5t149 33.5q214 0 214 -175zM231 628q-90 0 -90 -43q0 -42 90 -42q91 0 91 41q0 44 -91 44z" />
    <glyph glyph-name="zero.denominator" horiz-adv-x="505" 
d="M252 -5q-105 0 -163 48t-58 132t58 132t163 48q106 0 164 -48t58 -132t-58 -132t-164 -48zM252 82q102 0 102 93t-102 93t-102 -93t102 -93z" />
    <glyph glyph-name="one.denominator" horiz-adv-x="423" 
d="M34 0v86h134v175l-124 -21v86l143 24h95v-264h116v-86h-364z" />
    <glyph glyph-name="two.denominator" horiz-adv-x="466" 
d="M36 83l219 92q35 17 46 29t11 28q0 41 -79 41q-84 0 -93 -55l-111 17q10 57 62 88.5t139 31.5q97 0 148 -31t51 -85q0 -42 -31 -72t-117 -62l-56 -21h204v-84h-393v83z" />
    <glyph glyph-name="three.denominator" horiz-adv-x="468" 
d="M436 102q0 -50 -52.5 -78.5t-154.5 -28.5q-188 0 -204 106l110 16q6 -44 95 -44t89 37q0 29 -48 29h-104v75h105q45 0 45 29q0 34 -85 34q-89 0 -96 -43l-106 17q8 49 60 76.5t141 27.5q97 0 148 -25.5t51 -72.5q0 -56 -65 -77q71 -19 71 -78z" />
    <glyph glyph-name="four.denominator" horiz-adv-x="485" 
d="M395 0h-106v58h-264v70l273 223h97v-215h65v-78h-65v-58zM146 136h143v119z" />
    <glyph glyph-name="five.denominator" horiz-adv-x="454" 
d="M226 -5q-170 0 -199 92l107 21q14 -37 93 -37q88 0 88 46q0 44 -88 44q-59 0 -93 -23l-92 11l21 201h335v-77h-245l-6 -65q41 22 109 22q167 -2 169 -112q0 -60 -51 -91.5t-148 -31.5z" />
    <glyph glyph-name="six.denominator" horiz-adv-x="474" 
d="M31 169q0 89 58.5 137.5t160.5 48.5q148 0 192 -79l-106 -33q-25 35 -88 35q-96 0 -106 -85q47 31 128 31q90 0 133 -29t43 -80q0 -53 -52 -86.5t-149 -33.5q-214 0 -214 174zM243 72q90 0 90 42q0 43 -90 43q-91 0 -91 -42q0 -43 91 -43z" />
    <glyph glyph-name="seven.denominator" horiz-adv-x="416" 
d="M391 284l-178 -284h-124l178 266h-243v84h367v-66z" />
    <glyph glyph-name="eight.denominator" horiz-adv-x="489" 
d="M245 -5q-107 0 -161.5 27.5t-54.5 77.5q0 56 81 82q-66 25 -66 74q0 47 52 73t149 26t149 -26t52 -73q0 -50 -67 -75q81 -25 81 -81q0 -105 -215 -105zM245 284q-85 0 -85 -34q0 -35 85 -35t85 35q0 34 -85 34zM245 66q96 0 96 39t-96 39q-97 0 -97 -39t97 -39z" />
    <glyph glyph-name="nine.denominator" horiz-adv-x="474" 
d="M443 180q0 -89 -58.5 -137t-160.5 -48q-148 0 -192 78l105 33q28 -34 88 -34q96 0 106 85q-47 -31 -128 -31q-89 0 -132 29t-43 80q0 53 52 86.5t149 33.5q214 0 214 -175zM231 278q-90 0 -90 -43q0 -42 90 -42q91 0 91 41q0 44 -91 44z" />
    <glyph glyph-name="twosevenths" horiz-adv-x="1249" 
d="M36 433l219 92q35 17 46 29t11 28q0 41 -79 41q-84 0 -93 -55l-111 17q10 57 62 88.5t139 31.5q97 0 148 -31t51 -85q0 -42 -31 -72t-117 -62l-56 -21h204v-84h-393v83zM372 0h-150l690 700h150zM1224 284l-178 -284h-124l178 266h-243v84h367v-66z" />
    <glyph glyph-name="twoninths" horiz-adv-x="1242" 
d="M36 433l219 92q35 17 46 29t11 28q0 41 -79 41q-84 0 -93 -55l-111 17q10 57 62 88.5t139 31.5q97 0 148 -31t51 -85q0 -42 -31 -72t-117 -62l-56 -21h204v-84h-393v83zM372 0h-150l690 700h150zM1211 180q0 -89 -58.5 -137t-160.5 -48q-148 0 -192 78l105 33
q28 -34 88 -34q96 0 106 85q-47 -31 -128 -31q-89 0 -132 29t-43 80q0 53 52 86.5t149 33.5q214 0 214 -175zM999 278q-90 0 -90 -43q0 -42 90 -42q91 0 91 41q0 44 -91 44z" />
    <glyph glyph-name="threesevenths" horiz-adv-x="1208" 
d="M436 452q0 -50 -52.5 -78.5t-154.5 -28.5q-188 0 -204 106l110 16q6 -44 95 -44t89 37q0 29 -48 29h-104v75h105q45 0 45 29q0 34 -85 34q-89 0 -96 -43l-106 17q8 49 60 76.5t141 27.5q97 0 148 -25.5t51 -72.5q0 -56 -65 -77q71 -19 71 -78zM331 0h-150l690 700h150z
M1183 284l-178 -284h-124l178 266h-243v84h367v-66z" />
    <glyph glyph-name="foursevenths" horiz-adv-x="1230" 
d="M395 350h-106v58h-264v70l273 223h97v-215h65v-78h-65v-58zM353 0h-150l690 700h150zM146 486h143v119zM1205 284l-178 -284h-124l178 266h-243v84h367v-66z" />
    <glyph glyph-name="fourninths" horiz-adv-x="1223" 
d="M395 350h-106v58h-264v70l273 223h97v-215h65v-78h-65v-58zM353 0h-150l690 700h150zM146 486h143v119zM1192 180q0 -89 -58.5 -137t-160.5 -48q-149 0 -192 78l105 33q28 -34 88 -34q96 0 106 85q-47 -31 -128 -31q-89 0 -132 29t-43 80q0 53 52 86.5t149 33.5
q214 0 214 -175zM980 278q-90 0 -90 -43q0 -42 90 -42q91 0 91 41q0 44 -91 44z" />
    <glyph glyph-name="fivesevenths" horiz-adv-x="1190" 
d="M226 345q-170 0 -199 92l107 21q14 -37 93 -37q88 0 88 46q0 44 -88 44q-59 0 -93 -23l-92 11l21 201h335v-77h-245l-6 -65q41 22 109 22q167 -2 169 -112q0 -60 -51 -91.5t-148 -31.5zM313 0h-150l690 700h150zM1165 284l-178 -284h-124l178 266h-243v84h367v-66z" />
    <glyph glyph-name="fiveninths" horiz-adv-x="1183" 
d="M226 345q-170 0 -199 92l107 21q14 -37 93 -37q88 0 88 46q0 44 -88 44q-59 0 -93 -23l-92 11l21 201h335v-77h-245l-6 -65q41 22 109 22q167 -2 169 -112q0 -60 -51 -91.5t-148 -31.5zM313 0h-150l690 700h150zM1152 180q0 -89 -58.5 -137t-160.5 -48q-149 0 -192 78
l105 33q28 -34 88 -34q96 0 106 85q-47 -31 -128 -31q-89 0 -132 29t-43 80q0 53 52 86.5t149 33.5q214 0 214 -175zM940 278q-90 0 -90 -43q0 -42 90 -42q91 0 91 41q0 44 -91 44z" />
    <glyph glyph-name="sixsevenths" horiz-adv-x="1208" 
d="M31 519q0 89 58.5 137.5t160.5 48.5q148 0 192 -79l-106 -33q-25 35 -88 35q-96 0 -106 -85q47 31 128 31q90 0 133 -29t43 -80q0 -53 -52 -86.5t-149 -33.5q-214 0 -214 174zM331 0h-150l690 700h150zM243 422q90 0 90 42q0 43 -90 43q-91 0 -91 -42q0 -43 91 -43z
M1184 284l-178 -284h-124l178 266h-243v84h367v-66z" />
    <glyph glyph-name="sevenninths" horiz-adv-x="1108" 
d="M391 634l-178 -284h-124l178 266h-243v84h367v-66zM238 0h-150l690 700h150zM1077 180q0 -89 -58.5 -137t-160.5 -48q-148 0 -192 78l105 33q28 -34 88 -34q96 0 106 85q-47 -31 -128 -31q-89 0 -132 29t-43 80q0 53 52 86.5t149 33.5q214 0 214 -175zM865 278
q-90 0 -90 -43q0 -42 90 -42q91 0 91 41q0 44 -91 44z" />
    <glyph glyph-name="eightninths" horiz-adv-x="1223" 
d="M245 345q-107 0 -161.5 27.5t-54.5 77.5q0 56 81 82q-66 25 -66 74q0 47 52 73t149 26t149 -26t52 -73q0 -50 -67 -75q81 -25 81 -81q0 -105 -215 -105zM353 0h-150l690 700h150zM245 634q-85 0 -85 -34q0 -35 85 -35t85 35q0 34 -85 34zM245 416q96 0 96 39t-96 39
q-97 0 -97 -39t97 -39zM1192 180q0 -89 -58.5 -137t-160.5 -48q-149 0 -192 78l105 33q28 -34 88 -34q96 0 106 85q-47 -31 -128 -31q-89 0 -132 29t-43 80q0 53 52 86.5t149 33.5q214 0 214 -175zM980 278q-90 0 -90 -43q0 -42 90 -42q91 0 91 41q0 44 -91 44z" />
    <glyph glyph-name="mu" horiz-adv-x="818" 
d="M732 548v-548h-145l-13 111q-40 -58 -104 -90t-141 -32q-44 0 -80 9v-198h-163v748h164v-302q0 -60 33.5 -91.5t94.5 -31.5q86 0 138 46t52 127v252h164z" />
    <glyph glyph-name="Omega" horiz-adv-x="981" 
d="M698 158v-39h177v-119h-324v235q100 25 146 67t46 108q0 79 -67.5 123.5t-184.5 44.5q-119 0 -185.5 -44.5t-66.5 -123.5q0 -67 44.5 -109t146.5 -66v-235h-324v119h177v39q-219 74 -219 257q0 135 115.5 215.5t311.5 80.5t311 -80.5t115 -215.5q0 -185 -219 -257z" />
    <glyph glyph-name="Delta" horiz-adv-x="933" 
d="M554 700l376 -700h-927l375 700h176zM252 130h422l-211 407z" />
    <glyph glyph-name="at.case" horiz-adv-x="1206" 
d="M917 61q-67 0 -113 24t-62 68q-73 -95 -218 -95q-94 0 -146 39.5t-52 106.5t51.5 104t170.5 47l185 16v2q0 95 -114 95t-126 -81l-147 18q19 81 90 123.5t185 42.5q259 0 259 -193v-177q0 -64 63 -64q58 0 95 55t37 156q0 163 -120.5 259.5t-341.5 96.5
q-228 0 -355.5 -112.5t-127.5 -295.5q0 -174 117.5 -273t342.5 -99q140 0 270 51l24 -58q-135 -58 -294 -58q-257 0 -396 117t-139 320q0 212 151.5 343t406.5 131q246 0 391.5 -115.5t145.5 -306.5q0 -130 -61 -208.5t-172 -78.5zM474 215q0 -54 80 -54q78 0 129.5 36
t51.5 90l-188 -18q-73 -7 -73 -54z" />
    <glyph glyph-name="questiondown.case" horiz-adv-x="779" 
d="M490 700v-145h-171v145h171zM387 124q174 0 189 128l170 -31q-16 -109 -110 -170.5t-249 -61.5q-163 0 -252 57t-89 150q0 56 28 94t68 58t80 36.5t68.5 42.5t29.5 63h169q-1 -45 -17 -79.5t-40 -55.5t-52.5 -37t-57 -27t-52 -22.5t-38 -27.5t-14.5 -37q0 -80 169 -80z
" />
    <glyph glyph-name="exclamdown.case" horiz-adv-x="376" 
d="M274 700v-145h-171v145h171zM113 490h150l11 -490h-172z" />
    <glyph glyph-name="parenleft.case" horiz-adv-x="425" 
d="M250 -80q-169 204 -169 425q0 220 169 425h154q-85 -119 -122.5 -219t-37.5 -206t37.5 -206t122.5 -219h-154z" />
    <glyph glyph-name="parenright.case" horiz-adv-x="425" 
d="M175 770q169 -204 169 -425q0 -220 -169 -425h-154q85 119 122.5 219t37.5 206t-37.5 206t-122.5 219h154z" />
    <glyph glyph-name="braceleft.case" horiz-adv-x="488" 
d="M180 345q71 -15 102 -54.5t31 -115.5v-51q0 -47 17 -65t61 -18q38 0 76 5l5 -120q-56 -8 -101 -8q-107 0 -160 44.5t-53 138.5v85q0 53 -24.5 72.5t-108.5 28.5v116q84 9 108.5 28.5t24.5 72.5v85q0 94 53 138.5t160 44.5q45 0 101 -8l-5 -120q-38 5 -76 5q-44 0 -61 -19
t-17 -65v-56q0 -72 -31 -110.5t-102 -53.5z" />
    <glyph glyph-name="braceright.case" horiz-adv-x="488" 
d="M463 403v-116q-85 -9 -109.5 -28.5t-24.5 -72.5v-85q0 -94 -52.5 -138.5t-159.5 -44.5q-46 0 -102 8l6 120q38 -5 76 -5q44 0 60.5 18t16.5 65v51q0 75 31.5 115t102.5 55q-71 15 -102.5 53.5t-31.5 110.5v56q0 46 -17 65t-60 19q-38 0 -76 -5l-6 120q57 8 102 8
q107 0 159.5 -44.5t52.5 -138.5v-85q0 -53 24.5 -72.5t109.5 -28.5z" />
    <glyph glyph-name="bracketleft.case" horiz-adv-x="454" 
d="M104 -80v850h334v-120h-175v-610h175v-120h-334z" />
    <glyph glyph-name="bracketright.case" horiz-adv-x="454" 
d="M350 -80h-335v120h176v610h-176v120h335v-850z" />
    <glyph glyph-name="hyphen.case" horiz-adv-x="496" 
d="M48 293v142h400v-142h-400z" />
    <glyph glyph-name="endash.case" horiz-adv-x="664" 
d="M48 293v142h568v-142h-568z" />
    <glyph glyph-name="emdash.case" horiz-adv-x="1329" 
d="M48 293v142h1233v-142h-1233z" />
    <glyph glyph-name="brokenbar.case" horiz-adv-x="369" 
d="M266 405h-162v405h162v-405zM266 -120h-162v425h162v-425z" />
    <glyph glyph-name="bar.case" horiz-adv-x="369" 
d="M266 -120h-162v930h162v-930z" />
    <glyph glyph-name="guillemotleft.case" horiz-adv-x="840" 
d="M382 256v-159l-336 163v169l336 164v-155l-227 -92zM776 256v-159l-336 163v169l336 164v-155l-227 -92z" />
    <glyph glyph-name="guillemotright.case" horiz-adv-x="840" 
d="M395 260l-336 -163v155l226 92l-226 89v160l336 -164v-169zM789 260l-336 -163v155l226 92l-226 89v160l336 -164v-169z" />
    <glyph glyph-name="guilsinglleft.case" horiz-adv-x="441" 
d="M382 256v-159l-336 163v169l336 164v-155l-227 -92z" />
    <glyph glyph-name="guilsinglright.case" horiz-adv-x="441" 
d="M395 260l-336 -163v155l226 92l-226 89v160l336 -164v-169z" />
    <glyph glyph-name="afii10021.bg" horiz-adv-x="958" 
d="M10 -167v303h88l289 564h183l291 -564h86v-303h-163v167h-610v-167h-164zM272 136h406l-202 398z" />
    <glyph glyph-name="afii10029.bg" horiz-adv-x="936" 
d="M740 0l-275 527l-278 -527h-183l372 700h183l373 -700h-192z" />
    <glyph glyph-name="afii10038.bg" horiz-adv-x="1092" 
d="M458 -95v95h-23q-183 0 -289.5 93.5t-106.5 255.5q0 161 107.5 256t288.5 95h23v83h173v-83h26q182 0 289 -95t107 -256q0 -162 -106.5 -255.5t-289.5 -93.5h-26v-95h-173zM888 349q0 107 -59.5 163.5t-172.5 56.5h-28v-439h28q113 0 172.5 56t59.5 163zM204 349
q0 -107 59.5 -163t173.5 -56h24v439h-24q-114 0 -173.5 -56.5t-59.5 -163.5z" />
    <glyph glyph-name="afii10066.sb" horiz-adv-x="825" 
d="M411 -11q-177 0 -269 66t-92 183q0 142 147 202q23 9 56 15l-38 8q-70 20 -102 52.5t-32 85.5q0 140 211 143l309 6q66 1 117 11l11 -119q-56 -14 -129 -14l-296 -3q-58 -1 -58 -35q0 -20 23.5 -31.5t98.5 -29.5l127 -23q148 -29 213.5 -92t65.5 -165q0 -122 -94 -191
t-269 -69zM411 112q196 0 196 140q0 67 -50.5 103t-145.5 36q-96 0 -145 -36t-49 -102q0 -141 194 -141z" />
    <glyph glyph-name="afii10067.bg" horiz-adv-x="790" 
d="M66 497q0 130 86.5 197t249.5 67q156 0 238.5 -53.5t82.5 -154.5q0 -123 -133 -167q154 -35 154 -173q0 -106 -86 -165t-253 -59t-253 67t-86 196v245zM224 503v-62h226q114 0 114 94q0 51 -39 76.5t-125 25.5q-176 0 -176 -134zM224 249q0 -136 181 -136q92 0 132 27
t40 81q0 48 -32 74.5t-94 26.5h-227v-73z" />
    <glyph glyph-name="afii10068.bg" horiz-adv-x="747" 
d="M380 450q-82 0 -123.5 -19.5t-50.5 -60.5l-155 23q21 85 102.5 125.5t230.5 40.5q145 0 225.5 -45.5t80.5 -124.5q0 -71 -56.5 -108t-184.5 -55l-141 -15q-58 -9 -79.5 -21t-21.5 -37q0 -54 165 -54q163 0 182 90l157 -23q-23 -92 -107 -134.5t-242 -42.5
q-157 0 -238 44.5t-81 127.5q0 73 56 109t187 55l141 15q60 8 81.5 19t21.5 36q0 55 -150 55z" />
    <glyph glyph-name="afii10069.bg" horiz-adv-x="860" 
d="M357 26q-143 0 -226 72t-83 195q0 122 83.5 194t225.5 72q170 0 258 -106l9 95h147v-483q0 -276 -359 -276q-308 0 -348 186l168 19q24 -86 177 -86q199 0 199 152v65q-88 -99 -251 -99zM407 153q95 0 148 37t53 102q0 66 -53 103t-148 37q-93 0 -142 -36t-49 -103
q0 -68 49 -104t142 -36z" />
    <glyph glyph-name="afii10072.bg" horiz-adv-x="1036" 
d="M437 0v258l-233 -258h-206l284 301l-274 247h203l226 -225v427h158v-430l230 228h203l-274 -247l284 -301h-206l-237 261v-261h-158z" />
    <glyph glyph-name="afii10073.bg" horiz-adv-x="757" 
d="M188 324l-151 34q21 98 107 149.5t233 51.5q157 0 242 -52t85 -148q0 -124 -136 -165q148 -39 148 -179q0 -110 -88 -168t-256 -58q-305 0 -347 212l157 31q9 -60 54 -89t136 -29q177 0 177 108q0 101 -122 101h-158v128h157q114 0 114 89q0 94 -165 94q-169 0 -187 -110
z" />
    <glyph glyph-name="afii10074.bg" horiz-adv-x="814" 
d="M563 296v252h163v-548h-145l-12 112q-40 -58 -104.5 -90.5t-141.5 -32.5q-115 0 -178.5 59.5t-63.5 170.5v329h163v-302q0 -60 33.5 -91.5t94.5 -31.5q86 0 138.5 46t52.5 127z" />
    <glyph glyph-name="afii10075.bg" horiz-adv-x="814" 
d="M498 770h139q0 -80 -63.5 -125t-168.5 -45t-168.5 45t-63.5 125h139q0 -35 24.5 -55t68.5 -20t68.5 20t24.5 55zM563 296v252h163v-548h-145l-12 112q-40 -58 -104.5 -90.5t-141.5 -32.5q-115 0 -178.5 59.5t-63.5 170.5v329h163v-302q0 -60 33.5 -91.5t94.5 -31.5
q86 0 138.5 46t52.5 127z" />
    <glyph glyph-name="afii10076.bg" horiz-adv-x="770" 
d="M88 0v750h164v-434l297 232h215l-333 -251l341 -297h-223l-297 259v-259h-164z" />
    <glyph glyph-name="afii10077.bg" horiz-adv-x="734" 
d="M446 548l288 -548h-175l-197 384l-196 -384h-170l284 548h166z" />
    <glyph glyph-name="afii10081.bg" 
d="M88 0v548h146l12 -114q42 59 109 92t149 33q119 0 183.5 -60.5t64.5 -170.5v-328h-163v294q0 62 -36.5 96.5t-104.5 34.5q-90 0 -143 -46.5t-53 -125.5v-253h-164z" />
    <glyph glyph-name="afii10084.bg" horiz-adv-x="1246" 
d="M88 0v548h147l11 -109q39 56 99.5 88t132.5 32q79 0 133.5 -33t78.5 -93q39 59 102 92.5t141 33.5q109 0 170.5 -61t61.5 -170v-328h-164v298q0 61 -32 94t-94 33q-76 0 -121.5 -46.5t-45.5 -125.5v-253h-163v299q0 60 -32.5 93t-94.5 33q-76 0 -121 -46.5t-45 -125.5
v-253h-164z" />
    <glyph glyph-name="afii10088.bg" horiz-adv-x="831" 
d="M563 296v252h163v-420h88v-284h-152v156h-81l-12 112q-40 -58 -104.5 -90.5t-141.5 -32.5q-115 0 -178.5 59.5t-63.5 170.5v329h163v-302q0 -60 33.5 -91.5t94.5 -31.5q86 0 138.5 46t52.5 127z" />
    <glyph glyph-name="afii10090.bg" horiz-adv-x="1202" 
d="M516 294v254h163v-302q0 -59 30 -91t87 -32q72 0 113 46.5t41 124.5v254h164v-548h-147l-11 106q-80 -117 -217 -117q-155 0 -205 124q-36 -58 -96 -91t-132 -33q-107 0 -166 61t-59 170v328h163v-301q0 -59 30 -91.5t87 -32.5q72 0 113.5 46t41.5 125z" />
    <glyph glyph-name="afii10091.bg" horiz-adv-x="1219" 
d="M516 294v254h163v-302q0 -59 30 -91t87 -32q72 0 113 46.5t41 124.5v254h164v-420h89v-285h-152v157h-84l-11 106q-80 -117 -217 -117q-155 0 -205 124q-36 -58 -96 -91t-132 -33q-107 0 -166 61t-59 170v328h163v-301q0 -59 30 -91.5t87 -32.5q72 0 113.5 46t41.5 125z
" />
    <glyph glyph-name="afii10092.bg" horiz-adv-x="868" 
d="M11 423v125h342v-158h235q122 0 184.5 -50.5t62.5 -141.5q0 -100 -82.5 -154.5t-244.5 -54.5q-161 0 -239 57.5t-78 158.5v218h-180zM353 199q0 -49 36.5 -72t121.5 -23q90 0 128.5 23t38.5 68q0 82 -110 82h-215v-78z" />
    <glyph glyph-name="afii10094.bg" horiz-adv-x="757" 
d="M725 198q0 -100 -82.5 -154.5t-244.5 -54.5q-161 0 -239 57.5t-78 158.5v343h162v-158h234q123 0 185.5 -50.5t62.5 -141.5zM243 199q0 -49 36 -72t121 -23q90 0 128.5 23t38.5 68q0 82 -110 82h-214v-78z" />
    <glyph glyph-name="afii10096.bg" horiz-adv-x="1110" 
d="M88 0v750h164v-405h94q24 101 115.5 157.5t237.5 56.5q172 0 267 -76t95 -209q0 -134 -95 -209.5t-267 -75.5q-151 0 -243.5 60t-112.5 168h-91v-217h-164zM699 114q195 0 195 160t-195 160q-194 0 -194 -160t194 -160z" />
    <glyph glyph-name="uni045D.bg" horiz-adv-x="814" 
d="M482 608h-136l-201 161h211zM563 296v252h163v-548h-145l-12 112q-40 -58 -104.5 -90.5t-141.5 -32.5q-115 0 -178.5 59.5t-63.5 170.5v329h163v-302q0 -60 33.5 -91.5t94.5 -31.5q86 0 138.5 46t52.5 127z" />
    <glyph glyph-name="breve_cyr" horiz-adv-x="596" 
d="M405 941h153q0 -95 -70 -151t-191 -56q-120 0 -189.5 56t-69.5 151h152q0 -42 29 -67t78 -25t78.5 25t29.5 67z" />
    </font>
</defs>
</svg>
